<?xml version="1.0" encoding="iso-8859-1"?>
<!-- Generator: Adobe Illustrator 19.0.0, SVG Export Plug-In . SVG Version: 6.00 Build 0)  -->
<svg version="1.1" id="Capa_1" xmlns="http://www.w3.org/2000/svg" xmlns:xlink="http://www.w3.org/1999/xlink" x="0px" y="0px"
	 viewBox="0 0 512 512" style="enable-background:new 0 0 512 512;" xml:space="preserve">
<g>
	<g>
		<path d="M406.623,152.055c-17.698-13.127-42.816-13.99-68.92-2.367c-2.948,1.313-4.847,4.238-4.847,7.464v139.699
			c0,7.148-0.588,14.372-1.748,21.472c-0.466,2.849,0.607,5.733,2.821,7.585c1.492,1.248,3.354,1.903,5.243,1.903
			c0.914,0,1.834-0.154,2.722-0.467c22.637-8.004,44.142-24.597,60.555-46.725c17.122-23.082,26.793-49.428,27.231-74.18
			C430.101,182.709,421.912,163.393,406.623,152.055z M389.326,270.886c-11.206,15.107-25.481,27.571-40.439,35.539
			c0.206-3.196,0.31-6.391,0.31-9.574V162.62c18.703-7.071,35.878-6.203,47.691,2.56c10.934,8.109,16.777,22.66,16.454,40.971
			C412.964,227.525,404.435,250.516,389.326,270.886z"/>
	</g>
</g>
<g>
	<g>
		<path d="M426.092,125.806c-20.841-15.458-48.389-20.438-76.895-14.181V84.426c0-4.513-3.657-8.17-8.17-8.17h-25.162
			c-3.929-24.663-25.342-43.574-51.093-43.574c-5.556,0-11.053,0.895-16.282,2.629C241.591,14.585,222.082,0,199.41,0
			s-42.182,14.585-49.081,35.31c-5.227-1.733-10.726-2.629-16.281-2.629c-25.751,0-47.163,18.911-51.093,43.574H57.793
			c-4.513,0-8.17,3.657-8.17,8.17v212.426c0,55.635,31.229,106.067,78.906,131.847l-26.289,17.526
			c-17.288,11.524-30.83,36.829-30.83,57.607c0,4.513,3.657,8.17,8.17,8.17h239.66c4.513,0,8.17-3.657,8.17-8.17
			c0-20.777-13.543-46.081-30.831-57.607l-26.368-17.58c26.853-14.505,49.254-37.105,63.34-65.348
			c35.442-6.341,69.905-29.173,95.149-63.206c21.146-28.511,33.099-61.564,33.657-93.071
			C462.968,172.446,450.089,143.604,426.092,125.806z M134.048,49.021c6.306,0,12.504,1.686,17.922,4.876
			c2.385,1.406,5.323,1.505,7.799,0.267c2.477-1.24,4.158-3.648,4.466-6.401c2-17.915,17.123-31.423,35.174-31.423
			c18.051,0,33.173,13.508,35.173,31.423c0.307,2.753,1.988,5.161,4.466,6.401c2.474,1.237,5.413,1.137,7.799-0.267
			c5.42-3.19,11.617-4.876,17.923-4.876c16.71,0,30.743,11.64,34.442,27.234H99.607C103.306,60.661,117.338,49.021,134.048,49.021z
			 M98.644,92.596h201.532v40.821c-10.89,1.441-17.505,5.672-23.47,9.489c-6.483,4.149-11.604,7.426-22.831,7.426
			c-11.228,0-16.349-3.278-22.832-7.426c-7.328-4.689-15.632-10.004-31.641-10.004c-16.006,0-24.31,5.315-31.636,10.004
			c-6.482,4.15-11.602,7.426-22.828,7.426c-11.226,0-16.345-3.277-22.828-7.425c-5.964-3.817-12.578-8.049-23.467-9.491V92.596z
			 M446.017,206.729c-0.498,28.128-11.31,57.828-30.442,83.626c-23.689,31.937-56.008,52.88-88.67,57.456
			c-2.75,0.386-5.115,2.142-6.281,4.66c-21.871,47.278-69.451,77.826-121.214,77.826c-1.518,0-3.131-0.034-5.078-0.108
			c-4.502-0.129-8.301,3.351-8.471,7.859c-0.169,4.51,3.35,8.302,7.859,8.471c2.156,0.081,3.964,0.118,5.691,0.118
			c18.533,0,36.58-3.507,53.371-9.976l34.733,23.159c10.595,7.063,19.825,22.143,22.661,35.84H88.645
			c2.836-13.697,12.065-28.778,22.66-35.84l34.653-23.102c4.294,1.651,8.688,3.12,13.179,4.381
			c4.339,1.221,8.855-1.312,10.076-5.656c1.22-4.343-1.312-8.854-5.656-10.076c-5.286-1.485-10.422-3.287-15.396-5.369
			c-0.045-0.018-0.089-0.035-0.133-0.053c-49.033-20.591-82.064-69.094-82.064-123.094V92.596h16.34V264.17
			c0,4.513,3.657,8.17,8.17,8.17c4.513,0,8.17-3.657,8.17-8.17V149.973c6.029,1.187,9.997,3.713,14.658,6.695
			c7.326,4.689,15.63,10.004,31.636,10.004c16.006,0,24.31-5.315,31.636-10.004c6.482-4.151,11.602-7.426,22.828-7.426
			c11.228,0,16.349,3.278,22.832,7.426c7.328,4.689,15.632,10.004,31.641,10.004c16.007,0,24.312-5.315,31.639-10.004
			c4.661-2.983,8.631-5.509,14.662-6.696v146.879c0,55.563-45.203,100.766-100.766,100.766
			c-55.563,0-100.766-45.203-100.766-100.766c0-4.513-3.657-8.17-8.17-8.17c-4.513,0-8.17,3.657-8.17,8.17
			c0,64.572,52.534,117.106,117.106,117.106s117.106-52.534,117.106-117.106V92.596h16.34v29.664c0,2.604,1.241,5.051,3.34,6.591
			c2.101,1.539,4.805,1.986,7.291,1.2c27.54-8.701,53.419-5.547,72.87,8.878C436.001,153.499,446.534,177.578,446.017,206.729z"/>
	</g>
</g>
<g>
</g>
<g>
</g>
<g>
</g>
<g>
</g>
<g>
</g>
<g>
</g>
<g>
</g>
<g>
</g>
<g>
</g>
<g>
</g>
<g>
</g>
<g>
</g>
<g>
</g>
<g>
</g>
<g>
</g>
</svg>
