<?xml version="1.0" encoding="iso-8859-1"?>
<!-- Generator: Adobe Illustrator 19.0.0, SVG Export Plug-In . SVG Version: 6.00 Build 0)  -->
<svg version="1.1" id="Capa_1" xmlns="http://www.w3.org/2000/svg" xmlns:xlink="http://www.w3.org/1999/xlink" x="0px" y="0px"
	 viewBox="0 0 512 512" style="enable-background:new 0 0 512 512;" xml:space="preserve">
<g>
	<g>
		<path d="M511.991,198.632c-0.003-0.155-0.011-0.308-0.023-0.463c-0.009-0.119-0.02-0.237-0.034-0.354
			c-0.017-0.145-0.04-0.29-0.066-0.434c-0.022-0.124-0.045-0.248-0.072-0.37c-0.029-0.133-0.065-0.265-0.102-0.395
			c-0.036-0.13-0.073-0.258-0.115-0.386c-0.04-0.12-0.085-0.239-0.131-0.357c-0.052-0.134-0.106-0.268-0.164-0.4
			c-0.048-0.107-0.1-0.212-0.154-0.318c-0.069-0.138-0.141-0.275-0.218-0.409c-0.056-0.096-0.113-0.191-0.173-0.285
			c-0.086-0.137-0.176-0.271-0.271-0.403c-0.033-0.046-0.059-0.094-0.093-0.138c-0.034-0.046-0.073-0.086-0.109-0.131
			c-0.094-0.12-0.192-0.237-0.292-0.352c-0.084-0.097-0.169-0.192-0.257-0.283c-0.09-0.094-0.183-0.184-0.278-0.273
			c-0.105-0.099-0.209-0.196-0.318-0.289c-0.088-0.074-0.179-0.146-0.269-0.217c-0.12-0.093-0.24-0.185-0.363-0.271
			c-0.094-0.065-0.19-0.124-0.285-0.186c-0.125-0.078-0.25-0.158-0.377-0.229c-0.109-0.062-0.22-0.117-0.332-0.173
			c-0.12-0.06-0.24-0.12-0.362-0.174c-0.125-0.056-0.255-0.106-0.383-0.155c-0.115-0.045-0.23-0.088-0.346-0.126
			c-0.136-0.046-0.273-0.084-0.412-0.122c-0.118-0.032-0.235-0.064-0.354-0.09c-0.135-0.031-0.271-0.056-0.409-0.08
			c-0.132-0.023-0.264-0.044-0.395-0.06c-0.124-0.016-0.25-0.026-0.375-0.036c-0.153-0.012-0.304-0.021-0.456-0.023
			c-0.058-0.001-0.113-0.009-0.171-0.009h-68.086V8.17c0-4.513-3.657-8.17-8.17-8.17H84.426c-4.513,0-8.17,3.657-8.17,8.17v182.468
			H8.17c-0.062,0-0.123,0.009-0.185,0.01c-0.143,0.003-0.284,0.011-0.427,0.022c-0.136,0.011-0.271,0.023-0.405,0.039
			c-0.121,0.015-0.242,0.034-0.362,0.056c-0.148,0.024-0.296,0.052-0.441,0.085c-0.107,0.024-0.211,0.053-0.317,0.082
			c-0.151,0.04-0.301,0.083-0.449,0.132c-0.104,0.035-0.206,0.074-0.308,0.113c-0.142,0.055-0.282,0.109-0.421,0.17
			c-0.11,0.049-0.218,0.104-0.327,0.157c-0.123,0.062-0.246,0.123-0.366,0.192c-0.118,0.066-0.232,0.138-0.346,0.21
			c-0.106,0.068-0.211,0.133-0.314,0.205c-0.117,0.081-0.229,0.168-0.341,0.255c-0.097,0.076-0.194,0.153-0.288,0.232
			c-0.104,0.089-0.205,0.182-0.305,0.277c-0.098,0.093-0.194,0.186-0.288,0.284c-0.086,0.089-0.169,0.182-0.251,0.276
			c-0.101,0.115-0.199,0.234-0.295,0.356c-0.035,0.045-0.074,0.084-0.108,0.13c-0.034,0.045-0.06,0.093-0.093,0.138
			c-0.095,0.132-0.184,0.266-0.271,0.403c-0.06,0.095-0.118,0.19-0.173,0.285c-0.077,0.134-0.148,0.27-0.218,0.409
			c-0.053,0.106-0.106,0.211-0.154,0.319c-0.059,0.131-0.112,0.264-0.163,0.398c-0.046,0.119-0.091,0.239-0.131,0.359
			c-0.042,0.126-0.08,0.255-0.115,0.386c-0.037,0.131-0.072,0.263-0.102,0.395c-0.027,0.122-0.05,0.246-0.072,0.37
			c-0.026,0.145-0.049,0.29-0.066,0.434c-0.014,0.117-0.025,0.235-0.034,0.354c-0.012,0.155-0.021,0.308-0.023,0.463
			C0.008,198.692,0,198.749,0,198.809V503.83c0,0.06,0.008,0.117,0.009,0.176c0.003,0.155,0.011,0.308,0.023,0.463
			c0.009,0.119,0.02,0.237,0.034,0.354c0.017,0.145,0.04,0.29,0.066,0.434c0.022,0.124,0.045,0.248,0.072,0.37
			c0.029,0.133,0.065,0.265,0.102,0.395c0.036,0.13,0.073,0.258,0.115,0.386c0.04,0.121,0.085,0.241,0.132,0.359
			c0.051,0.134,0.105,0.267,0.163,0.398c0.048,0.108,0.101,0.214,0.154,0.319c0.069,0.138,0.141,0.275,0.218,0.409
			c0.056,0.096,0.113,0.191,0.173,0.285c0.086,0.137,0.177,0.271,0.271,0.403c0.033,0.046,0.059,0.094,0.093,0.138
			c0.028,0.038,0.062,0.071,0.091,0.109c0.133,0.172,0.273,0.338,0.419,0.498c0.063,0.07,0.125,0.143,0.191,0.209
			c0.181,0.185,0.37,0.362,0.568,0.528c0.068,0.057,0.135,0.111,0.204,0.164c0.185,0.147,0.376,0.289,0.573,0.419
			c0.092,0.06,0.186,0.113,0.28,0.169c0.161,0.098,0.325,0.192,0.492,0.278c0.096,0.049,0.192,0.095,0.29,0.139
			c0.178,0.083,0.357,0.159,0.541,0.228c0.089,0.034,0.179,0.069,0.27,0.099c0.202,0.069,0.407,0.126,0.617,0.18
			c0.077,0.02,0.154,0.042,0.232,0.06c0.231,0.051,0.466,0.089,0.704,0.121c0.059,0.008,0.118,0.021,0.176,0.026
			C7.57,511.98,7.867,512,8.17,512h495.66c0.303,0,0.6-0.02,0.894-0.051c0.059-0.007,0.117-0.02,0.175-0.026
			c0.239-0.032,0.475-0.07,0.707-0.121c0.076-0.017,0.15-0.039,0.227-0.059c0.211-0.053,0.419-0.113,0.624-0.182
			c0.088-0.029,0.174-0.063,0.26-0.096c0.188-0.071,0.373-0.148,0.553-0.233c0.094-0.042,0.186-0.086,0.278-0.134
			c0.173-0.088,0.342-0.185,0.508-0.286c0.089-0.053,0.179-0.104,0.266-0.16c0.208-0.138,0.41-0.285,0.604-0.441
			c0.052-0.041,0.105-0.083,0.157-0.125c0.206-0.173,0.402-0.357,0.59-0.549c0.064-0.068,0.124-0.137,0.187-0.206
			c0.147-0.16,0.289-0.327,0.423-0.5c0.029-0.037,0.063-0.07,0.091-0.109c0.034-0.045,0.06-0.093,0.093-0.138
			c0.095-0.132,0.184-0.266,0.271-0.403c0.06-0.095,0.118-0.19,0.173-0.285c0.077-0.134,0.148-0.27,0.218-0.409
			c0.053-0.106,0.106-0.211,0.154-0.319c0.059-0.131,0.112-0.264,0.164-0.399c0.046-0.119,0.09-0.237,0.131-0.357
			c0.042-0.127,0.08-0.256,0.115-0.386c0.037-0.131,0.072-0.263,0.102-0.395c0.027-0.122,0.05-0.246,0.072-0.37
			c0.025-0.145,0.048-0.29,0.066-0.434c0.014-0.117,0.025-0.235,0.034-0.354c0.012-0.155,0.021-0.308,0.023-0.463
			c0.001-0.06,0.009-0.117,0.009-0.176V198.809C512,198.749,511.992,198.692,511.991,198.632z M435.745,206.979h43.503
			l-43.503,32.508V206.979z M92.596,16.34h326.808v235.357l-124.452,92.997C294.919,344.72,256,373.801,256,373.801l-38.905-29.073
			c-0.017-0.013-0.036-0.026-0.053-0.039L92.596,251.697V16.34z M76.255,206.979v32.508l-43.503-32.508H76.255z M32.753,495.66
			l69.266-51.76c3.616-2.701,4.355-7.819,1.655-11.435c-2.701-3.614-7.822-4.356-11.435-1.655L16.34,487.525V215.113
			l182.276,136.206l-80.2,59.93c-3.615,2.701-4.355,7.822-1.655,11.435c1.605,2.148,4.062,3.28,6.551,3.28
			c1.702,0,3.417-0.528,4.884-1.625l84.067-62.82l38.844,29.027c1.45,1.084,3.17,1.625,4.89,1.625c1.72,0,3.44-0.541,4.89-1.625
			l38.844-29.027L479.247,495.66H32.753z M495.66,487.525L313.383,351.319L495.66,215.113V487.525z"/>
	</g>
</g>
<g>
	<g>
		<path d="M278.549,59.958c-1.393-4.293-6.009-6.639-10.294-5.245l-4.085,1.328v-4.296c0-4.513-3.657-8.17-8.17-8.17
			c-4.513,0-8.17,3.657-8.17,8.17v4.295l-4.085-1.328c-4.287-1.392-8.901,0.952-10.294,5.245c-1.393,4.292,0.955,8.901,5.246,10.296
			l4.085,1.328l-2.525,3.475c-2.652,3.651-1.841,8.761,1.808,11.413c1.45,1.053,3.131,1.561,4.795,1.561
			c2.526,0,5.018-1.169,6.617-3.369L256,81.187l2.525,3.474c1.599,2.202,4.089,3.369,6.616,3.369c1.665,0,3.345-0.508,4.795-1.562
			c3.652-2.653,4.46-7.762,1.807-11.412l-2.525-3.475l4.085-1.328C277.594,68.859,279.944,64.249,278.549,59.958z"/>
	</g>
</g>
<g>
	<g>
		<path d="M331.751,274.117l-37.27-66.258h10.541c4.534,0,8.192-3.657,8.192-8.17c0-1.659-0.495-3.204-1.344-4.494l-48.747-86.661
			c-1.448-2.572-4.169-4.165-7.121-4.165c-2.952,0-5.673,1.593-7.121,4.165l-49.021,87.149c-1.423,2.529-1.397,5.624,0.069,8.13
			c1.465,2.506,4.151,4.046,7.053,4.046h10.541l-37.27,66.258c-1.423,2.53-1.397,5.624,0.069,8.13
			c1.464,2.505,4.149,4.046,7.051,4.046h60.46v24.511c0,4.513,3.657,8.17,8.17,8.17c4.513,0,8.17-3.657,8.17-8.17v-24.511h60.46
			c2.902,0,5.587-1.54,7.052-4.046C333.149,279.742,333.174,276.647,331.751,274.117z M201.34,269.951l37.27-66.258
			c1.423-2.53,1.397-5.624-0.069-8.13c-1.465-2.505-4.15-4.046-7.052-4.046h-10.541L256,129.204l35.051,62.314h-10.541
			c-2.902,0-5.587,1.54-7.052,4.046c-1.466,2.506-1.491,5.6-0.069,8.13l37.27,66.258H201.34z"/>
	</g>
</g>
<g>
</g>
<g>
</g>
<g>
</g>
<g>
</g>
<g>
</g>
<g>
</g>
<g>
</g>
<g>
</g>
<g>
</g>
<g>
</g>
<g>
</g>
<g>
</g>
<g>
</g>
<g>
</g>
<g>
</g>
</svg>
