<?xml version="1.0" encoding="iso-8859-1"?>
<!-- Generator: Adobe Illustrator 19.0.0, SVG Export Plug-In . SVG Version: 6.00 Build 0)  -->
<svg version="1.1" id="Capa_1" xmlns="http://www.w3.org/2000/svg" xmlns:xlink="http://www.w3.org/1999/xlink" x="0px" y="0px"
	 viewBox="0 0 512 512" style="enable-background:new 0 0 512 512;" xml:space="preserve">
<g>
	<g>
		<path d="M422.128,65.361H157.584l191.012-46.778v22.268c0,4.513,3.657,8.17,8.17,8.17c4.513,0,8.17-3.657,8.17-8.17V8.17
			c0-2.509-1.154-4.879-3.126-6.427s-4.55-2.105-6.987-1.509L87.929,65.596c-0.068,0.017-0.131,0.04-0.197,0.06
			c-0.158,0.042-0.316,0.088-0.469,0.141c-0.11,0.036-0.217,0.076-0.324,0.118c-0.139,0.055-0.278,0.11-0.414,0.171
			c-0.119,0.053-0.235,0.11-0.351,0.169c-0.115,0.059-0.23,0.119-0.342,0.183c-0.126,0.071-0.249,0.147-0.371,0.226
			c-0.096,0.062-0.191,0.124-0.284,0.191c-0.125,0.088-0.246,0.18-0.366,0.273c-0.086,0.069-0.171,0.138-0.254,0.209
			c-0.114,0.099-0.226,0.2-0.333,0.304c-0.084,0.08-0.164,0.16-0.244,0.245c-0.098,0.102-0.193,0.205-0.284,0.313
			c-0.083,0.096-0.163,0.194-0.243,0.294c-0.08,0.101-0.156,0.204-0.229,0.307c-0.082,0.113-0.16,0.231-0.235,0.35
			c-0.062,0.097-0.122,0.196-0.18,0.295c-0.075,0.13-0.146,0.26-0.215,0.394c-0.05,0.099-0.098,0.199-0.145,0.3
			c-0.062,0.137-0.122,0.276-0.177,0.416c-0.042,0.109-0.083,0.218-0.12,0.329c-0.046,0.134-0.089,0.268-0.129,0.405
			c-0.036,0.127-0.069,0.256-0.099,0.386c-0.028,0.122-0.056,0.246-0.078,0.37c-0.028,0.151-0.05,0.302-0.07,0.454
			c-0.014,0.111-0.027,0.219-0.037,0.331c-0.014,0.167-0.022,0.337-0.025,0.505c-0.003,0.068-0.012,0.131-0.012,0.197v430.298
			c0,4.513,3.658,8.17,8.17,8.17h332.255c4.513,0,8.17-3.657,8.17-8.17V73.532C430.298,69.018,426.641,65.361,422.128,65.361z
			 M413.957,495.659H98.042V81.702h315.915V495.659z"/>
	</g>
</g>
<g>
	<g>
		<path d="M389.447,253.276c4.513,0,8.17-3.657,8.17-8.17V106.212c0-4.513-3.657-8.17-8.17-8.17H122.553
			c-4.512,0-8.17,3.657-8.17,8.17v310.468c0,4.513,3.658,8.17,8.17,8.17h266.894c4.513,0,8.17-3.657,8.17-8.17V277.787
			c0-4.513-3.657-8.17-8.17-8.17c-4.513,0-8.17,3.657-8.17,8.17V408.51H264.17v-24.175h60.46c2.902,0,5.587-1.54,7.052-4.046
			c1.466-2.506,1.491-5.6,0.069-8.13l-37.27-66.258h10.541c4.534,0,8.192-3.657,8.192-8.17c0-1.659-0.495-3.204-1.344-4.494
			l-48.747-86.661c-1.448-2.572-4.169-4.165-7.121-4.165c-2.951,0-5.673,1.593-7.121,4.165l-49.021,87.149
			c-1.424,2.529-1.398,5.624,0.069,8.13c1.466,2.506,4.151,4.046,7.053,4.046h10.541l-37.27,66.258
			c-1.424,2.529-1.398,5.624,0.069,8.13c1.466,2.506,4.15,4.046,7.052,4.046h60.46v24.175H130.723V114.383h250.553v130.723
			C381.276,249.619,384.933,253.276,389.447,253.276z M201.34,367.994l37.27-66.258c1.424-2.529,1.398-5.624-0.069-8.13
			c-1.466-2.506-4.15-4.046-7.052-4.046h-10.541L256,227.246l35.051,62.314H280.51c-2.902,0-5.587,1.54-7.052,4.046
			c-1.466,2.506-1.491,5.6-0.069,8.13l37.27,66.258H201.34z"/>
	</g>
</g>
<g>
	<g>
		<path d="M389.447,452.085H122.553c-4.512,0-8.17,3.657-8.17,8.17s3.658,8.17,8.17,8.17h266.894c4.513,0,8.17-3.657,8.17-8.17
			S393.96,452.085,389.447,452.085z"/>
	</g>
</g>
<g>
	<g>
		<path d="M278.55,158.001c-1.393-4.292-6.007-6.635-10.294-5.245l-4.085,1.328v-4.296c0-4.513-3.657-8.17-8.17-8.17
			c-4.512,0-8.17,3.657-8.17,8.17v4.295l-4.085-1.328c-4.293-1.394-8.9,0.954-10.294,5.245c-1.394,4.291,0.954,8.901,5.245,10.294
			l4.085,1.328l-2.525,3.475c-2.653,3.652-1.842,8.76,1.808,11.412c1.451,1.055,3.131,1.562,4.795,1.562
			c2.526-0.001,5.019-1.169,6.617-3.369l2.525-3.475l2.525,3.475c1.599,2.202,4.089,3.369,6.616,3.369
			c1.665,0,3.345-0.508,4.795-1.562c3.651-2.653,4.46-7.762,1.807-11.412l-2.525-3.475l4.085-1.328
			C277.595,166.901,279.944,162.293,278.55,158.001z"/>
	</g>
</g>
<g>
</g>
<g>
</g>
<g>
</g>
<g>
</g>
<g>
</g>
<g>
</g>
<g>
</g>
<g>
</g>
<g>
</g>
<g>
</g>
<g>
</g>
<g>
</g>
<g>
</g>
<g>
</g>
<g>
</g>
</svg>
