<?xml version="1.0" encoding="iso-8859-1"?>
<!-- Generator: Adobe Illustrator 19.0.0, SVG Export Plug-In . SVG Version: 6.00 Build 0)  -->
<svg version="1.1" id="Capa_1" xmlns="http://www.w3.org/2000/svg" xmlns:xlink="http://www.w3.org/1999/xlink" x="0px" y="0px"
	 viewBox="0 0 512 512" style="enable-background:new 0 0 512 512;" xml:space="preserve">
<g>
	<g>
		<path d="M356.766,114.383h-8.17V68.085c0-4.513-3.657-8.17-8.17-8.17h-24.511v-2.723C315.915,25.657,290.258,0,258.723,0
			c-16.142,0-31.48,6.936-42.213,18.637C205.779,6.936,190.44,0,174.298,0c-16.142,0-31.48,6.936-42.213,18.637
			C121.354,6.936,106.015,0,89.872,0C58.336,0,32.681,25.657,32.681,57.192v2.723H8.17c-4.512,0-8.17,3.657-8.17,8.17v403.064
			C0,493.675,18.325,512,40.851,512h266.894c22.526,0,40.851-18.325,40.851-40.851v-46.298h8.17
			c85.597,0,155.234-69.637,155.234-155.234S442.363,114.383,356.766,114.383z M49.021,57.192c0-22.526,18.325-40.851,40.851-40.851
			c14.369,0,27.848,7.698,35.181,20.092c1.471,2.486,4.144,4.011,7.032,4.011c2.888,0,5.561-1.524,7.032-4.011
			c7.333-12.394,20.813-20.092,35.181-20.092c14.369,0,27.848,7.698,35.181,20.092c1.471,2.486,4.144,4.011,7.032,4.011
			c2.888,0,5.561-1.524,7.032-4.011c7.333-12.394,20.813-20.092,35.181-20.092c22.526,0,40.851,18.325,40.851,40.851v2.723H49.021
			V57.192z M16.34,203.473l47.211-27.858l51.228,30.23c2.562,1.513,5.743,1.513,8.305,0l51.221-30.23l51.223,30.23
			c2.562,1.513,5.743,1.513,8.305,0l51.22-30.23l47.202,27.858v46.387l-43.048-25.407c-2.564-1.513-5.745-1.513-8.305,0
			l-51.222,30.23l-51.223-30.23c-2.562-1.513-5.743-1.513-8.305,0l-51.222,30.23l-51.228-30.23c-2.562-1.513-5.742-1.513-8.304,0
			L16.34,249.863V203.473z M356.766,408.511h-16.34c-4.513,0-8.17,3.657-8.17,8.17v54.468c0,13.515-10.996,24.511-24.511,24.511
			H40.851c-13.516,0-24.511-10.996-24.511-24.511V268.835l47.211-27.858l51.229,30.23c2.562,1.513,5.743,1.513,8.305,0l51.221-30.23
			l51.223,30.23c2.562,1.513,5.743,1.513,8.305,0l51.221-30.23l47.2,27.858v38.91c0,4.513,3.657,8.17,8.17,8.17
			s8.17-3.657,8.17-8.17V174.298h8.17c52.559,0,95.319,42.76,95.319,95.319s-42.76,95.319-95.319,95.319h-8.17v-24.511
			c0-4.513-3.657-8.17-8.17-8.17s-8.17,3.657-8.17,8.17v32.681c0,4.513,3.657,8.17,8.17,8.17h16.34
			c61.57,0,111.66-50.09,111.66-111.66s-50.09-111.66-111.66-111.66h-16.34c-4.513,0-8.17,3.657-8.17,8.17v18.371l-43.049-25.407
			c-2.564-1.513-5.742-1.513-8.306,0l-51.219,30.23l-51.223-30.23c-2.562-1.513-5.743-1.513-8.305,0l-51.222,30.23l-51.228-30.23
			c-2.562-1.513-5.742-1.513-8.304,0L16.34,184.501V76.255h315.915v46.298c0,4.513,3.657,8.17,8.17,8.17h16.34
			c76.586,0,138.894,62.307,138.894,138.894S433.352,408.511,356.766,408.511z"/>
	</g>
</g>
<g>
</g>
<g>
</g>
<g>
</g>
<g>
</g>
<g>
</g>
<g>
</g>
<g>
</g>
<g>
</g>
<g>
</g>
<g>
</g>
<g>
</g>
<g>
</g>
<g>
</g>
<g>
</g>
<g>
</g>
</svg>
