<?xml version="1.0" encoding="iso-8859-1"?>
<!-- Generator: Adobe Illustrator 19.0.0, SVG Export Plug-In . SVG Version: 6.00 Build 0)  -->
<svg version="1.1" id="Capa_1" xmlns="http://www.w3.org/2000/svg" xmlns:xlink="http://www.w3.org/1999/xlink" x="0px" y="0px"
	 viewBox="0 0 512 512" style="enable-background:new 0 0 512 512;" xml:space="preserve">
<g>
	<g>
		<path d="M307.745,104.592v-22.89h2.723c4.512,0,8.17-3.657,8.17-8.17s-3.658-8.17-8.17-8.17H264.17V8.17
			c0-4.513-3.658-8.17-8.17-8.17c-4.512,0-8.17,3.657-8.17,8.17v57.191h-46.298c-4.512,0-8.17,3.657-8.17,8.17s3.658,8.17,8.17,8.17
			h2.723v22.89c-42.634,11-81.183,35.734-109.107,70.17c-29.745,36.683-46.127,82.942-46.127,130.259
			C49.021,419.15,141.871,512,256,512s206.979-92.85,206.979-206.979C462.979,208.753,396.915,127.626,307.745,104.592z M256,495.66
			c-105.118,0-190.638-85.52-190.638-190.638c0-88.506,62.599-166.744,148.847-186.032c0.072-0.016,0.139-0.04,0.209-0.059
			c0.181-0.045,0.361-0.091,0.536-0.149c0.097-0.031,0.19-0.069,0.285-0.105c0.155-0.057,0.309-0.113,0.46-0.179
			c0.114-0.05,0.224-0.108,0.336-0.161c0.123-0.061,0.247-0.12,0.367-0.187c0.125-0.07,0.246-0.147,0.367-0.223
			c0.099-0.063,0.201-0.123,0.296-0.191c0.124-0.086,0.244-0.179,0.363-0.271c0.088-0.069,0.178-0.136,0.263-0.207
			c0.113-0.096,0.22-0.197,0.328-0.297c0.085-0.081,0.171-0.159,0.253-0.244c0.096-0.098,0.186-0.201,0.277-0.303
			c0.085-0.097,0.171-0.193,0.252-0.294c0.076-0.096,0.148-0.196,0.22-0.295c0.085-0.115,0.169-0.231,0.247-0.351
			c0.06-0.093,0.115-0.188,0.172-0.284c0.078-0.131,0.157-0.263,0.228-0.4c0.049-0.095,0.093-0.192,0.138-0.289
			c0.066-0.139,0.132-0.28,0.191-0.425c0.044-0.107,0.08-0.215,0.119-0.324c0.049-0.137,0.098-0.273,0.139-0.414
			c0.039-0.131,0.07-0.264,0.102-0.395c0.029-0.121,0.061-0.242,0.085-0.365c0.032-0.161,0.053-0.327,0.075-0.49
			c0.013-0.1,0.029-0.198,0.039-0.298c0.017-0.186,0.024-0.375,0.028-0.564c0.002-0.07,0.011-0.139,0.011-0.209v-0.123
			c0-0.024,0-29.189,0-29.189h70.808v19.382c-11.507-1.992-23.334-3.042-35.403-3.042c-3.673,0-7.486,0.106-11.334,0.313
			c-4.506,0.244-7.961,4.094-7.718,8.599c0.243,4.507,4.096,7.953,8.599,7.718c3.556-0.193,7.073-0.29,10.454-0.29
			c105.118,0,190.638,85.52,190.638,190.638S361.118,495.66,256,495.66z"/>
	</g>
</g>
<g>
</g>
<g>
</g>
<g>
</g>
<g>
</g>
<g>
</g>
<g>
</g>
<g>
</g>
<g>
</g>
<g>
</g>
<g>
</g>
<g>
</g>
<g>
</g>
<g>
</g>
<g>
</g>
<g>
</g>
</svg>
