<?xml version="1.0" encoding="iso-8859-1"?>
<!-- Generator: Adobe Illustrator 19.0.0, SVG Export Plug-In . SVG Version: 6.00 Build 0)  -->
<svg version="1.1" id="Capa_1" xmlns="http://www.w3.org/2000/svg" xmlns:xlink="http://www.w3.org/1999/xlink" x="0px" y="0px"
	 viewBox="0 0 511.999 511.999" style="enable-background:new 0 0 511.999 511.999;" xml:space="preserve">
<g>
	<g>
		<path d="M511.985,199.965c-0.014-0.286-0.045-0.573-0.089-0.862c-0.013-0.085-0.026-0.171-0.042-0.256
			c-0.064-0.339-0.143-0.677-0.252-1.013c-0.109-0.337-0.244-0.656-0.391-0.967c-0.038-0.078-0.078-0.157-0.118-0.234
			c-0.132-0.258-0.276-0.507-0.431-0.746c-0.033-0.049-0.061-0.1-0.095-0.148c-0.196-0.286-0.407-0.558-0.635-0.813
			c-0.035-0.038-0.072-0.074-0.107-0.112c-0.198-0.215-0.409-0.417-0.628-0.608c-0.06-0.052-0.12-0.106-0.181-0.156
			c-0.26-0.214-0.529-0.416-0.813-0.596c-0.02-0.013-0.041-0.023-0.062-0.035c-0.266-0.164-0.541-0.31-0.824-0.443
			c-0.082-0.038-0.162-0.074-0.245-0.111c-0.29-0.125-0.585-0.239-0.889-0.33c-0.021-0.007-0.04-0.015-0.062-0.021
			c-0.338-0.1-0.683-0.171-1.034-0.226c-0.028-0.004-0.053-0.014-0.082-0.018l-166.998-24.266L263.326,16.679
			c-0.014-0.027-0.033-0.052-0.047-0.08c-0.159-0.313-0.332-0.615-0.528-0.904c-0.014-0.021-0.031-0.038-0.045-0.059
			c-0.18-0.258-0.376-0.503-0.584-0.739c-0.06-0.068-0.119-0.133-0.181-0.199c-0.217-0.23-0.442-0.449-0.684-0.654
			c-0.015-0.013-0.028-0.026-0.044-0.039c-0.26-0.216-0.537-0.411-0.822-0.594c-0.064-0.04-0.13-0.078-0.195-0.118
			c-0.253-0.153-0.514-0.292-0.783-0.416c-0.044-0.021-0.086-0.042-0.13-0.063c-0.315-0.138-0.639-0.256-0.974-0.355
			c-0.055-0.016-0.11-0.026-0.165-0.041c-0.277-0.075-0.559-0.136-0.848-0.182c-0.086-0.014-0.171-0.027-0.257-0.039
			c-0.342-0.044-0.687-0.073-1.041-0.073c-0.354,0-0.699,0.029-1.041,0.073c-0.086,0.012-0.172,0.025-0.257,0.039
			c-0.288,0.046-0.57,0.107-0.848,0.182c-0.055,0.015-0.11,0.025-0.164,0.041c-0.334,0.099-0.659,0.217-0.974,0.355
			c-0.044,0.021-0.086,0.042-0.13,0.063c-0.27,0.124-0.531,0.264-0.783,0.416c-0.065,0.039-0.131,0.077-0.195,0.118
			c-0.285,0.183-0.562,0.378-0.823,0.594c-0.015,0.013-0.029,0.026-0.044,0.039c-0.242,0.205-0.467,0.424-0.684,0.654
			c-0.061,0.066-0.121,0.132-0.181,0.199c-0.207,0.235-0.404,0.479-0.584,0.739c-0.014,0.021-0.031,0.038-0.045,0.059
			c-0.196,0.289-0.369,0.591-0.528,0.904c-0.014,0.027-0.033,0.052-0.047,0.08l-74.683,151.325L6.994,192.274
			c-0.027,0.004-0.053,0.013-0.081,0.017c-0.352,0.056-0.699,0.127-1.038,0.227c-0.356,0.109-0.658,0.223-0.953,0.352
			c-0.078,0.034-0.157,0.069-0.234,0.106c-0.29,0.137-0.573,0.286-0.845,0.455c-0.329,0.205-0.6,0.41-0.863,0.625
			c-0.058,0.048-0.113,0.097-0.17,0.147c-0.224,0.195-0.438,0.4-0.641,0.62c-0.032,0.034-0.065,0.066-0.097,0.101
			c-0.23,0.257-0.443,0.529-0.641,0.818c-0.032,0.046-0.059,0.094-0.089,0.141c-0.158,0.242-0.303,0.492-0.436,0.753
			c-0.039,0.076-0.08,0.152-0.117,0.231c-0.147,0.312-0.282,0.632-0.392,0.969c-0.109,0.337-0.187,0.674-0.252,1.013
			c-0.016,0.085-0.028,0.171-0.042,0.256c-0.045,0.289-0.075,0.575-0.089,0.862c-0.003,0.058-0.009,0.113-0.011,0.17
			c-0.01,0.348,0.002,0.693,0.037,1.034c0.005,0.05,0.014,0.098,0.02,0.148c0.035,0.293,0.086,0.582,0.151,0.867
			c0.017,0.076,0.034,0.153,0.053,0.228c0.085,0.327,0.184,0.649,0.308,0.962c0.009,0.022,0.021,0.043,0.029,0.064
			c0.118,0.289,0.255,0.568,0.404,0.84c0.045,0.081,0.09,0.16,0.137,0.241c0.157,0.265,0.326,0.522,0.511,0.768
			c0.018,0.024,0.034,0.051,0.052,0.074c0.211,0.273,0.446,0.529,0.691,0.777c0.023,0.023,0.041,0.049,0.065,0.072L123.303,324
			L94.78,490.322c-0.005,0.029-0.004,0.06-0.009,0.09c-0.056,0.345-0.094,0.694-0.103,1.043c-0.001,0.026,0.001,0.052,0.001,0.078
			c-0.007,0.313,0.009,0.623,0.038,0.934c0.009,0.09,0.019,0.181,0.029,0.271c0.039,0.308,0.093,0.615,0.168,0.919
			c0.005,0.023,0.009,0.047,0.014,0.069c0.083,0.326,0.192,0.645,0.315,0.959c0.028,0.073,0.06,0.145,0.09,0.217
			c0.114,0.269,0.243,0.533,0.387,0.79c0.024,0.044,0.046,0.088,0.071,0.132c0.173,0.295,0.366,0.582,0.577,0.857
			c0.035,0.046,0.074,0.088,0.111,0.134c0.179,0.222,0.371,0.436,0.576,0.642c0.062,0.063,0.122,0.124,0.186,0.185
			c0.251,0.235,0.513,0.463,0.798,0.67c0.337,0.245,0.69,0.456,1.052,0.644c0.145,0.074,0.294,0.13,0.442,0.196
			c0.22,0.098,0.44,0.196,0.667,0.273c0.178,0.061,0.357,0.106,0.537,0.154c0.206,0.056,0.411,0.108,0.619,0.146
			c0.186,0.035,0.373,0.059,0.561,0.08c0.21,0.023,0.419,0.04,0.63,0.048c0.096,0.004,0.191,0.023,0.286,0.023
			c0.114,0,0.228-0.015,0.341-0.021c0.119-0.004,0.237-0.01,0.356-0.021c0.244-0.021,0.485-0.056,0.726-0.098
			c0.108-0.02,0.216-0.033,0.322-0.057c0.321-0.07,0.639-0.158,0.951-0.266c0.021-0.008,0.041-0.011,0.062-0.018
			c0.34-0.121,0.67-0.269,0.992-0.435c0.018-0.01,0.039-0.016,0.058-0.025l149.366-78.526l149.366,78.526
			c0.02,0.011,0.04,0.017,0.06,0.026c0.198,0.102,0.402,0.188,0.607,0.273c0.099,0.041,0.196,0.089,0.297,0.126
			c0.199,0.073,0.404,0.131,0.608,0.188c0.109,0.031,0.216,0.07,0.325,0.096c0.217,0.052,0.438,0.086,0.659,0.12
			c0.097,0.015,0.192,0.039,0.289,0.05c0.32,0.038,0.643,0.059,0.965,0.059c1.665,0,3.345-0.508,4.795-1.562
			c0.285-0.207,0.548-0.435,0.799-0.67c0.064-0.061,0.125-0.122,0.186-0.185c0.205-0.205,0.398-0.419,0.576-0.642
			c0.036-0.046,0.075-0.088,0.111-0.134c0.211-0.276,0.404-0.562,0.577-0.857c0.025-0.044,0.047-0.088,0.071-0.132
			c0.144-0.256,0.272-0.521,0.387-0.79c0.031-0.072,0.062-0.144,0.09-0.217c0.123-0.314,0.232-0.633,0.315-0.959
			c0.005-0.023,0.009-0.047,0.014-0.069c0.074-0.303,0.127-0.611,0.168-0.919c0.012-0.09,0.021-0.181,0.029-0.271
			c0.029-0.31,0.045-0.621,0.038-0.934c0-0.026,0.002-0.052,0.001-0.078c-0.01-0.349-0.049-0.697-0.104-1.043
			c-0.004-0.031-0.003-0.061-0.009-0.09l-28.526-166.323l120.84-117.79c0.024-0.023,0.041-0.05,0.065-0.072
			c0.246-0.246,0.48-0.503,0.692-0.777c0.019-0.023,0.034-0.05,0.052-0.074c0.186-0.246,0.354-0.503,0.511-0.768
			c0.047-0.08,0.094-0.159,0.137-0.241c0.149-0.272,0.286-0.552,0.404-0.84c0.009-0.022,0.021-0.042,0.029-0.064
			c0.124-0.313,0.223-0.635,0.308-0.962c0.02-0.075,0.036-0.151,0.053-0.228c0.065-0.285,0.117-0.574,0.151-0.867
			c0.005-0.05,0.015-0.098,0.02-0.148c0.034-0.341,0.047-0.686,0.037-1.034C511.995,200.078,511.988,200.021,511.985,199.965z
			 M175.707,184.27l58.904,81.073L43.997,203.408L175.707,184.27z M38.945,218.949l190.616,61.935l-95.308,30.969L38.945,218.949z
			 M247.83,406.243l-117.806,61.935l46.398-63.861c2.653-3.651,1.842-8.76-1.808-11.412c-3.652-2.656-8.761-1.842-11.412,1.807
			l-46.398,63.86l22.499-131.179l95.308-30.969l-52.201,71.847c-2.653,3.651-1.842,8.76,1.808,11.412
			c1.45,1.055,3.131,1.562,4.795,1.562c2.526,0,5.018-1.169,6.617-3.369l52.2-71.846V406.243z M247.83,255.74l-58.904-81.073
			L247.83,55.313V255.74z M264.171,55.313l58.904,119.353l-58.904,81.073V55.313z M264.171,406.243V306.031l117.807,162.148
			L264.171,406.243z M395.197,458.572L277.39,296.424l95.308,30.968L395.197,458.572z M377.749,311.852l-95.309-30.969l84.46-27.442
			c4.291-1.394,6.641-6.004,5.245-10.295c-1.394-4.292-6.005-6.642-10.296-5.245l-84.459,27.442l58.904-81.073l131.711,19.138
			l-75.072,24.393c-4.291,1.394-6.641,6.004-5.245,10.295c1.122,3.453,4.325,5.648,7.768,5.648c0.837,0,1.687-0.13,2.526-0.402
			l75.075-24.393L377.749,311.852z"/>
	</g>
</g>
<g>
</g>
<g>
</g>
<g>
</g>
<g>
</g>
<g>
</g>
<g>
</g>
<g>
</g>
<g>
</g>
<g>
</g>
<g>
</g>
<g>
</g>
<g>
</g>
<g>
</g>
<g>
</g>
<g>
</g>
</svg>
