<?xml version="1.0" encoding="iso-8859-1"?>
<!-- Generator: Adobe Illustrator 19.0.0, SVG Export Plug-In . SVG Version: 6.00 Build 0)  -->
<svg version="1.1" id="Capa_1" xmlns="http://www.w3.org/2000/svg" xmlns:xlink="http://www.w3.org/1999/xlink" x="0px" y="0px"
	 viewBox="0 0 512.001 512.001" style="enable-background:new 0 0 512.001 512.001;" xml:space="preserve">
<g>
	<g>
		<circle cx="128.545" cy="250.553" r="8.17"/>
	</g>
</g>
<g>
	<g>
		<circle cx="161.225" cy="217.872" r="8.17"/>
	</g>
</g>
<g>
	<g>
		<circle cx="112.204" cy="185.192" r="8.17"/>
	</g>
</g>
<g>
	<g>
		<circle cx="367.114" cy="152.511" r="8.17"/>
	</g>
</g>
<g>
	<g>
		<circle cx="399.795" cy="185.192" r="8.17"/>
	</g>
</g>
<g>
	<g>
		<circle cx="367.114" cy="283.234" r="8.17"/>
	</g>
</g>
<g>
	<g>
		<circle cx="177.566" cy="119.83" r="8.17"/>
	</g>
</g>
<g>
	<g>
		<path d="M278.549,56.903c-1.393-4.291-6.008-6.639-10.294-5.245l-4.085,1.328v-4.296c0-4.513-3.657-8.17-8.17-8.17
			c-4.513,0-8.17,3.657-8.17,8.17v4.296l-4.085-1.328c-4.286-1.392-8.9,0.954-10.294,5.245c-1.394,4.291,0.955,8.899,5.246,10.294
			l4.085,1.328l-2.524,3.474c-2.653,3.65-1.843,8.76,1.807,11.412c1.45,1.055,3.13,1.562,4.795,1.562
			c2.525-0.001,5.018-1.169,6.616-3.369l2.525-3.475l2.525,3.475c1.599,2.202,4.089,3.369,6.616,3.369
			c1.665,0,3.345-0.509,4.795-1.562c3.652-2.653,4.46-7.762,1.807-11.412l-2.525-3.474l4.085-1.328
			C277.595,65.803,279.945,61.194,278.549,56.903z"/>
	</g>
</g>
<g>
	<g>
		<path d="M340.104,336.438c-19.75-21.416-47.062-34.475-75.931-36.562v-16.642h60.459c2.902,0,5.587-1.54,7.052-4.046
			c1.466-2.505,1.491-5.6,0.069-8.13L294.481,204.8h10.541c4.534,0,8.192-3.657,8.192-8.17c0-1.659-0.495-3.204-1.344-4.494
			l-48.747-86.661c-1.448-2.572-4.169-4.165-7.121-4.165c-2.952,0-5.673,1.593-7.121,4.165l-49.021,87.149
			c-1.423,2.53-1.397,5.624,0.069,8.13c1.464,2.506,4.149,4.046,7.051,4.046h10.541l-37.27,66.258
			c-1.423,2.529-1.397,5.624,0.069,8.13c1.465,2.505,4.15,4.046,7.052,4.046h60.459v16.642
			c-28.869,2.086-56.181,15.145-75.931,36.562c-3.059,3.318-2.85,8.486,0.467,11.546c3.318,3.059,8.486,2.85,11.546-0.467
			c18.52-20.084,44.797-31.602,72.089-31.602s53.569,11.518,72.089,31.602c1.611,1.746,3.806,2.631,6.009,2.631
			c1.979,0,3.966-0.716,5.537-2.163C342.954,344.924,343.162,339.756,340.104,336.438z M201.341,266.894l37.27-66.258
			c1.423-2.529,1.397-5.624-0.069-8.13c-1.465-2.505-4.15-4.046-7.052-4.046h-10.541l35.051-62.313l35.051,62.313h-10.541
			c-2.902,0-5.587,1.54-7.053,4.046c-1.466,2.506-1.491,5.6-0.069,8.13l37.27,66.258H201.341z"/>
	</g>
</g>
<g>
	<g>
		<path d="M409.213,463.761l-9.85-29.552c-4.608-13.823-16.236-25.621-29.945-31.852c2.336-3.752,3.689-8.176,3.689-12.911
			c0-7.279-3.192-13.822-8.246-18.315c57.578-36.917,92.672-100.339,92.672-169.6C457.532,90.406,367.126,0,256.001,0
			S54.47,90.406,54.47,201.531c0,69.26,35.093,132.683,92.672,169.6c-5.054,4.493-8.246,11.036-8.246,18.315
			c0,4.735,1.354,9.158,3.689,12.911c-13.708,6.232-25.337,18.029-29.945,31.852l-9.85,29.552
			c-10.55,2.735-18.361,12.337-18.361,23.729c0,13.515,10.996,24.511,24.511,24.511h294.126c13.515,0,24.51-10.996,24.51-24.511
			C427.574,476.098,419.762,466.495,409.213,463.761z M70.81,201.532c0-102.114,83.077-185.191,185.191-185.191
			s185.191,83.077,185.191,185.191c0,68.655-37.522,131.074-98.036,163.404h-174.31C108.332,332.606,70.81,270.187,70.81,201.532z
			 M356.766,389.446c0,4.506-3.665,8.17-8.17,8.17c-0.042,0.002-185.148,0.002-185.148,0.002c-4.547-0.002-8.213-3.667-8.213-8.172
			s3.665-8.17,8.17-8.17h181.798c0.068,0,3.392,0,3.392,0C353.101,381.276,356.766,384.941,356.766,389.446z M403.064,495.661
			H108.937c-4.506,0-8.17-3.665-8.17-8.17c0-4.461,3.593-8.097,8.036-8.169c0.107,0.003,0.217,0.001,0.325-0.001h261.255
			c4.513,0,8.17-3.657,8.17-8.17c0-4.513-3.657-8.17-8.17-8.17H120.272l7.868-23.603c4.593-13.778,20.741-25.418,35.265-25.418
			h185.191c14.523,0,30.672,11.64,35.265,25.418l11.452,34.357c1.112,3.337,4.234,5.586,7.751,5.586c4.506,0,8.17,3.665,8.17,8.17
			C411.234,491.996,407.569,495.661,403.064,495.661z"/>
	</g>
</g>
<g>
</g>
<g>
</g>
<g>
</g>
<g>
</g>
<g>
</g>
<g>
</g>
<g>
</g>
<g>
</g>
<g>
</g>
<g>
</g>
<g>
</g>
<g>
</g>
<g>
</g>
<g>
</g>
<g>
</g>
</svg>
