<?xml version="1.0" encoding="iso-8859-1"?>
<!-- Generator: Adobe Illustrator 19.0.0, SVG Export Plug-In . SVG Version: 6.00 Build 0)  -->
<svg version="1.1" id="Capa_1" xmlns="http://www.w3.org/2000/svg" xmlns:xlink="http://www.w3.org/1999/xlink" x="0px" y="0px"
	 viewBox="0 0 512 512" style="enable-background:new 0 0 512 512;" xml:space="preserve">
<g>
	<g>
		<path d="M353.272,16.803c-0.192-0.134-0.388-0.265-0.595-0.385c-0.47-0.271-0.948-0.515-1.422-0.773
			C333.543,5.69,313.126,0,291.401,0c-22.115,0-42.879,5.889-60.81,16.181c-0.156,0.076-0.314,0.15-0.466,0.239
			c-0.602,0.347-1.187,0.719-1.776,1.084c-35.622,21.461-59.501,60.518-59.501,105.05v173.162c-4.738-2.851-9.599-5.637-14.41-8.17
			c-25.084-13.209-41.15-15.664-50.555-7.726c-7.731,6.524-7.778,19.949-0.15,43.531c3.387,10.47,7.433,20.222,9.579,25.183
			c-2.146,4.961-6.192,14.713-9.579,25.183c-7.628,23.58-7.581,37.007,0.15,43.53c3.569,3.012,8.094,4.527,13.709,4.526
			c9.183,0,21.276-4.056,36.84-12.25c4.813-2.534,9.677-5.323,14.416-8.175v69.801c0,22.526,18.325,40.851,40.851,40.851
			s40.851-18.325,40.851-40.851v-69.801c4.74,2.852,9.604,5.641,14.416,8.175c15.566,8.195,27.658,12.25,36.84,12.25
			c5.613,0,10.141-1.515,13.708-4.525c7.731-6.524,7.778-19.949,0.15-43.531c-3.387-10.47-7.433-20.222-9.579-25.183
			c2.146-4.961,6.192-14.713,9.578-25.183c7.628-23.58,7.582-37.007-0.149-43.53c-9.408-7.94-25.471-5.482-50.554,7.724
			c-15.865,8.353-32.321,19.434-42.774,26.621c-2.231-0.67-4.594-1.035-7.041-1.035h-10.894c-2.447,0-4.81,0.365-7.042,1.036
			c-3.437-2.364-7.52-5.143-12.022-8.114v-70.615c11.986,13.596,29.514,22.198,49.021,22.198v19.567c0,4.513,3.657,8.17,8.17,8.17
			s8.17-3.657,8.17-8.17v-154.65c0-22.526,18.325-40.851,40.851-40.851s40.851,18.325,40.851,40.851v38.128
			c0,22.526,18.325,40.851,40.851,40.851c18.806,0,34.674-12.777,39.405-30.102c0.032-0.096,0.056-0.195,0.083-0.292
			c0.037-0.142,0.076-0.282,0.112-0.424c0.012-0.052,0.025-0.105,0.036-0.158c0.789-3.165,1.215-6.471,1.215-9.876v-38.128
			C413.954,77.532,389.546,38.108,353.272,16.803z M272.572,302.003c23.45-12.345,30.655-10.525,32.106-9.863
			c0.406,1.365,1.558,8.016-5.291,28.395c-4.341,12.919-9.61,24.483-9.663,24.599c-0.987,2.157-0.987,4.64,0,6.798
			c0.053,0.113,5.277,11.569,9.623,24.48c6.895,20.473,5.739,27.146,5.331,28.513c-1.448,0.661-8.652,2.483-32.099-9.862
			c-13.014-6.851-26.665-15.787-36.694-22.598c2.385-3.78,3.771-8.249,3.771-13.04v-21.787c0-4.791-1.387-9.263-3.774-13.044
			C245.909,317.787,259.56,308.854,272.572,302.003z M196.08,337.639h0.001c0-2.947,1.573-5.526,3.918-6.964
			c0.178-0.091,0.351-0.192,0.521-0.296c1.12-0.577,2.386-0.91,3.73-0.91h10.894c1.348,0,2.616,0.333,3.738,0.913
			c0.162,0.1,0.328,0.196,0.497,0.283c2.355,1.435,3.937,4.02,3.937,6.974v21.787c0,2.936-1.562,5.509-3.894,6.949
			c-0.19,0.097-0.375,0.205-0.557,0.317c-1.117,0.573-2.379,0.904-3.72,0.904h-10.894c-1.34,0-2.602-0.331-3.72-0.905
			c-0.181-0.111-0.365-0.217-0.552-0.314c-2.333-1.44-3.898-4.013-3.898-6.951V337.639z M185.188,391.011
			c4.5-2.971,8.582-5.75,12.018-8.111c2.233,0.671,4.597,1.037,7.046,1.037h10.894c2.449,0,4.813-0.366,7.046-1.037
			c3.436,2.362,7.517,5.141,12.018,8.11v59.441c-27.03,0-49.021-21.991-49.021-49.021V391.011z M185.188,444.594
			c11.986,13.596,29.514,22.198,49.021,22.198v4.357c0,13.515-10.996,24.511-24.511,24.511c-13.515,0-24.511-10.996-24.511-24.511
			V444.594z M183.512,372.466c-10.029,6.811-23.681,15.747-36.694,22.598c-23.447,12.346-30.651,10.526-32.099,9.862
			c-0.406-1.364-1.559-8.013,5.291-28.395c4.341-12.919,9.61-24.483,9.663-24.598c0.987-2.158,0.987-4.641,0-6.799
			c-0.053-0.113-5.277-11.569-9.623-24.48c-6.895-20.474-5.739-27.147-5.331-28.513c1.449-0.661,8.653-2.485,32.107,9.863
			c13.011,6.851,26.661,15.784,36.689,22.593c-2.387,3.78-3.774,8.251-3.774,13.043v21.787
			C179.741,364.217,181.128,368.686,183.512,372.466z M234.209,241.294c-27.03,0-49.021-21.991-49.021-49.021v-26.555
			c11.986,13.596,29.514,22.198,49.021,22.198V241.294z M234.209,171.574c-27.03,0-49.021-21.991-49.021-49.021
			c0-17.849,4.433-34.681,12.244-49.461c-0.007,11.338,2.947,22.531,8.767,32.613c6.523,11.299,16.341,20.402,28.01,26.084V171.574z
			 M254.885,78.575c-10.393,8.644-17.678,20.893-19.931,34.807c-5.938-4.077-10.897-9.427-14.604-15.848
			c-6.547-11.339-8.286-24.55-4.897-37.197c3.234-12.068,10.775-22.236,21.309-28.831c14.893-8.971,32.154-14.388,50.604-15.081
			c-9.653,5.543-18.021,13.604-23.976,23.918C256.707,51.921,253.758,65.326,254.885,78.575z M311.255,68.922
			c-6.188-2.3-12.876-3.56-19.855-3.56c-7.129,0-13.951,1.323-20.25,3.716c0.584-7.197,2.743-14.245,6.391-20.565
			c13.285-23.006,42.526-31.16,65.752-18.602c15.444,8.685,28.509,21.117,37.952,36.059c-9.616-5.57-20.764-8.778-32.654-8.778
			C335.237,57.192,322.162,61.333,311.255,68.922z M373.103,185.192c-13.515,0-24.511-10.996-24.511-24.511v-29.949
			c17.395-0.034,33.552,9.109,42.444,24.512c2.407,4.169,4.176,8.641,5.27,13.318C393.016,178.221,383.861,185.192,373.103,185.192z
			 M397.613,136.517c-12.49-14.23-30.52-22.326-49.613-22.122c-2.078-14.49-9.603-27.243-20.433-36.108
			c6.531-3.098,13.719-4.755,21.025-4.755c27.03,0,49.021,21.991,49.021,49.021V136.517z"/>
	</g>
</g>
<g>
</g>
<g>
</g>
<g>
</g>
<g>
</g>
<g>
</g>
<g>
</g>
<g>
</g>
<g>
</g>
<g>
</g>
<g>
</g>
<g>
</g>
<g>
</g>
<g>
</g>
<g>
</g>
<g>
</g>
</svg>
