<?xml version="1.0" encoding="iso-8859-1"?>
<!-- Generator: Adobe Illustrator 19.0.0, SVG Export Plug-In . SVG Version: 6.00 Build 0)  -->
<svg version="1.1" id="Capa_1" xmlns="http://www.w3.org/2000/svg" xmlns:xlink="http://www.w3.org/1999/xlink" x="0px" y="0px"
	 viewBox="0 0 511.999 511.999" style="enable-background:new 0 0 511.999 511.999;" xml:space="preserve">
<g>
	<g>
		<path d="M468.425,394.893c0-28.531-23.213-51.745-51.745-51.745c-11.71,0-23.051,4.011-32.136,11.2
			c-6.514-5.155-14.193-8.665-22.332-10.244V204.255c0-22.526-18.325-40.851-40.851-40.851H264.17v-16.933
			c27.677-3.977,49.021-27.839,49.021-56.599c0-39.205-49.518-85.723-51.627-87.684c-3.135-2.916-7.993-2.918-11.13,0
			c-2.108,1.96-51.626,48.478-51.626,87.684c0,28.76,21.344,52.622,49.021,56.599v16.933h-57.191
			c-22.526,0-40.851,18.325-40.851,40.851v139.849c-8.139,1.58-15.818,5.09-22.332,10.244c-9.085-7.19-20.428-11.2-32.136-11.2
			c-28.533,0-51.745,23.212-51.745,51.745c0,11.98,4.168,23.51,11.642,32.681c-7.474,9.17-11.642,20.7-11.642,32.681
			c0,28.531,23.213,51.745,51.745,51.745c11.71,0,23.051-4.011,32.136-11.2c9.085,7.19,20.427,11.2,32.136,11.2
			s23.051-4.011,32.136-11.2c9.085,7.19,20.427,11.2,32.136,11.2s23.051-4.011,32.136-11.2c9.085,7.19,20.427,11.2,32.136,11.2
			s23.051-4.011,32.136-11.2c9.085,7.19,20.427,11.2,32.136,11.2s23.051-4.011,32.136-11.2c9.085,7.19,20.427,11.2,32.136,11.2
			c28.531,0,51.745-23.213,51.745-51.745c0-11.979-4.168-23.51-11.642-32.681C464.257,418.403,468.425,406.872,468.425,394.893z
			 M215.149,89.872c0-23.377,25.808-54.779,40.851-70.245c15.044,15.468,40.851,46.869,40.851,70.245
			c0,19.727-14.057,36.233-32.681,40.029v-29.135c0-4.513-3.657-8.17-8.17-8.17c-4.512,0-8.17,3.657-8.17,8.17V129.9
			C229.206,126.104,215.149,109.599,215.149,89.872z M166.127,204.255c0-10.651,6.831-19.733,16.34-23.105v104.807
			c0,13.515,10.995,24.511,24.511,24.511c13.516,0,24.511-10.996,24.511-24.511v-42.251c2.557,0.906,5.307,1.4,8.17,1.4
			c13.516,0,24.511-10.996,24.511-24.511v-16.34c0-4.513-3.657-8.17-8.17-8.17c-4.512,0-8.17,3.657-8.17,8.17v16.34
			c0,4.506-3.665,8.17-8.17,8.17c-4.506,0-8.17-3.665-8.17-8.17c0-4.513-3.658-8.17-8.17-8.17s-8.17,3.657-8.17,8.17v65.362
			c0,4.506-3.665,8.17-8.17,8.17c-4.506,0-8.17-3.665-8.17-8.17V179.744h122.553c13.515,0,24.511,10.996,24.511,24.511v139.312
			c-9.348,1.198-18.218,4.94-25.6,10.781c-9.085-7.19-20.427-11.2-32.136-11.2s-23.051,4.011-32.136,11.2
			c-9.085-7.19-20.427-11.2-32.136-11.2s-23.051,4.011-32.136,11.2c-7.382-5.841-16.252-9.584-25.6-10.781V204.255z
			 M440.081,433.701c7.629,6.729,12.004,16.408,12.004,26.554c0,19.522-15.882,35.404-35.404,35.404
			c-9.9,0-19.417-4.192-26.112-11.5c-1.547-1.691-3.733-2.653-6.024-2.653c-2.291,0-4.477,0.962-6.024,2.653
			c-6.695,7.309-16.212,11.5-26.112,11.5s-19.417-4.192-26.112-11.5c-1.547-1.691-3.733-2.653-6.024-2.653
			c-2.291,0-4.477,0.962-6.024,2.653c-6.695,7.309-16.212,11.5-26.112,11.5s-19.417-4.192-26.112-11.5
			c-1.547-1.691-3.733-2.653-6.024-2.653c-2.291,0-4.477,0.962-6.024,2.651c-6.696,7.31-16.213,11.501-26.112,11.501
			s-19.417-4.192-26.112-11.501c-1.547-1.69-3.733-2.651-6.024-2.651c-2.291,0-4.477,0.962-6.024,2.651
			c-6.696,7.31-16.213,11.501-26.112,11.501s-19.417-4.192-26.112-11.501c-1.547-1.69-3.733-2.651-6.024-2.651
			c-2.291,0-4.477,0.962-6.024,2.651c-6.696,7.31-16.213,11.501-26.112,11.501c-19.522,0-35.404-15.883-35.404-35.404
			c0-10.145,4.375-19.824,12.003-26.554c1.758-1.551,2.766-3.782,2.766-6.127s-1.007-4.575-2.766-6.127
			c-7.628-6.73-12.003-16.409-12.003-26.554c0-19.522,15.883-35.404,35.404-35.404c9.899,0,19.417,4.192,26.112,11.501
			c1.547,1.69,3.733,2.651,6.024,2.651c2.291,0,4.477-0.962,6.024-2.651c6.325-6.904,15.167-11.022,24.471-11.458
			c0.563-0.025,1.1-0.044,1.641-0.044c9.899,0,19.417,4.192,26.112,11.501c1.547,1.69,3.733,2.651,6.024,2.651
			c2.291,0,4.477-0.962,6.024-2.651c6.695-7.31,16.213-11.501,26.112-11.501s19.417,4.192,26.112,11.501
			c1.547,1.69,3.733,2.651,6.024,2.651c2.292,0,4.477-0.962,6.024-2.653c6.695-7.31,16.212-11.5,26.112-11.5
			c9.9,0,19.417,4.192,26.112,11.5c1.547,1.691,3.733,2.653,6.024,2.653c2.291,0,4.477-0.962,6.024-2.653
			c6.695-7.31,16.212-11.5,26.112-11.5c0.539,0,1.077,0.018,1.614,0.042c9.33,0.436,18.174,4.554,24.498,11.458
			c1.547,1.691,3.733,2.653,6.024,2.653c2.291,0,4.477-0.962,6.024-2.653c6.695-7.31,16.212-11.5,26.112-11.5
			c19.522,0,35.404,15.882,35.404,35.404c0,10.145-4.375,19.824-12.004,26.554c-1.757,1.551-2.765,3.782-2.765,6.127
			S438.324,432.149,440.081,433.701z"/>
	</g>
</g>
<g>
	<g>
		<path d="M127.455,397.615c-16.519,0-29.957,13.439-29.957,29.957s13.438,29.957,29.957,29.957s29.957-13.439,29.957-29.957
			S143.973,397.615,127.455,397.615z M127.455,441.19c-7.509,0-13.617-6.108-13.617-13.617s6.108-13.617,13.617-13.617
			c7.509,0,13.617,6.108,13.617,13.617S134.963,441.19,127.455,441.19z"/>
	</g>
</g>
<g>
	<g>
		<path d="M256,397.615c-16.519,0-29.957,13.439-29.957,29.957S239.481,457.53,256,457.53c16.518,0,29.957-13.439,29.957-29.957
			S272.518,397.615,256,397.615z M256,441.19c-7.509,0-13.617-6.108-13.617-13.617s6.108-13.617,13.617-13.617
			s13.617,6.108,13.617,13.617S263.508,441.19,256,441.19z"/>
	</g>
</g>
<g>
	<g>
		<path d="M384.544,397.615c-16.518,0-29.957,13.439-29.957,29.957s13.439,29.957,29.957,29.957s29.957-13.439,29.957-29.957
			S401.062,397.615,384.544,397.615z M384.544,441.19c-7.509,0-13.617-6.108-13.617-13.617s6.108-13.617,13.617-13.617
			s13.617,6.108,13.617,13.617S392.052,441.19,384.544,441.19z"/>
	</g>
</g>
<g>
</g>
<g>
</g>
<g>
</g>
<g>
</g>
<g>
</g>
<g>
</g>
<g>
</g>
<g>
</g>
<g>
</g>
<g>
</g>
<g>
</g>
<g>
</g>
<g>
</g>
<g>
</g>
<g>
</g>
</svg>
