<?xml version="1.0" encoding="iso-8859-1"?>
<!-- Generator: Adobe Illustrator 19.0.0, SVG Export Plug-In . SVG Version: 6.00 Build 0)  -->
<svg version="1.1" id="Capa_1" xmlns="http://www.w3.org/2000/svg" xmlns:xlink="http://www.w3.org/1999/xlink" x="0px" y="0px"
	 viewBox="0 0 512 512" style="enable-background:new 0 0 512 512;" xml:space="preserve">
<g>
	<g>
		<path d="M291.22,25.588c-1.394-4.292-6.003-6.642-10.296-5.245l-16.753,5.444V8.17c0-4.513-3.658-8.17-8.17-8.17
			s-8.17,3.657-8.17,8.17v17.616l-16.753-5.444c-4.295-1.396-8.9,0.953-10.296,5.245c-1.394,4.292,0.953,8.9,5.245,10.294
			l16.754,5.445l-10.354,14.252c-2.653,3.65-1.843,8.76,1.807,11.412c1.451,1.055,3.131,1.562,4.795,1.562
			c2.526-0.001,5.018-1.169,6.617-3.369L256,50.932l10.354,14.251c1.598,2.202,4.089,3.369,6.617,3.369
			c1.665,0,3.345-0.508,4.795-1.562c3.65-2.653,4.46-7.762,1.807-11.412L269.22,41.327l16.754-5.445
			C290.265,34.488,292.614,29.879,291.22,25.588z"/>
	</g>
</g>
<g>
	<g>
		<path d="M429.794,499.824l-22.158-39.39c5.574-5.444,9.045-13.033,9.045-21.421c0-16.518-13.438-29.957-29.957-29.957
			c-2.574,0-5.073,0.327-7.459,0.94l-15.542-27.629h19.119c2.903,0,5.587-1.54,7.053-4.046c1.465-2.505,1.491-5.6,0.069-8.13
			l-28.449-50.576c-2.213-3.935-7.195-5.328-11.126-3.116c-3.933,2.213-5.328,7.194-3.116,11.127l21.6,38.4h-19.119
			c-2.903,0-5.587,1.54-7.053,4.046s-1.491,5.6-0.069,8.13l22.527,40.048c-5.191,5.39-8.393,12.707-8.393,20.764
			c0,16.518,13.438,29.957,29.957,29.957c2.252,0,4.443-0.257,6.555-0.731l15.424,27.419H103.298l15.424-27.42
			c2.111,0.474,4.303,0.731,6.555,0.731c16.519,0,29.957-13.439,29.957-29.957c0-8.057-3.203-15.373-8.394-20.764l22.527-40.048
			c1.424-2.529,1.398-5.624-0.069-8.13c-1.466-2.506-4.15-4.046-7.052-4.046h-19.119l66.07-117.458
			c1.424-2.53,1.398-5.624-0.069-8.13c-1.466-2.505-4.148-4.045-7.051-4.045h-19.119L256,106.537l73.043,129.854h-19.119
			c-2.903,0-5.587,1.54-7.052,4.046c-1.465,2.506-1.491,5.6-0.069,8.13l28.449,50.576c2.213,3.933,7.194,5.326,11.126,3.116
			c3.933-2.213,5.328-7.194,3.116-11.127l-21.599-38.4h19.119c2.903,0,5.587-1.54,7.053-4.046s1.491-5.6,0.069-8.13L263.122,85.867
			c-1.448-2.572-4.17-4.165-7.121-4.165c-2.951,0-5.673,1.593-7.121,4.165l-87.013,154.689c-1.424,2.529-1.398,5.624,0.069,8.13
			c1.466,2.506,4.151,4.046,7.053,4.046h19.119l-66.07,117.458c-1.424,2.529-1.398,5.624,0.069,8.13s4.15,4.046,7.053,4.046h19.119
			l-15.542,27.629c-2.386-0.613-4.885-0.94-7.459-0.94c-16.519,0-29.957,13.44-29.957,29.957c0,8.388,3.47,15.978,9.045,21.421
			l-22.158,39.39c-1.424,2.529-1.398,5.624,0.069,8.13S86.425,512,89.328,512h333.345c2.903,0,5.587-1.54,7.052-4.046
			C431.19,505.449,431.217,502.355,429.794,499.824z M386.724,452.63c-7.509,0-13.617-6.108-13.617-13.617
			s6.108-13.617,13.617-13.617s13.617,6.108,13.617,13.617S394.233,452.63,386.724,452.63z M125.277,425.396
			c7.509,0,13.617,6.108,13.617,13.617s-6.108,13.617-13.617,13.617c-7.509,0-13.617-6.108-13.617-13.617
			S117.768,425.396,125.277,425.396z"/>
	</g>
</g>
<g>
	<g>
		<path d="M256,409.055c-16.519,0-29.957,13.44-29.957,29.957c0,16.518,13.438,29.957,29.957,29.957s29.957-13.439,29.957-29.957
			C285.958,422.495,272.52,409.055,256,409.055z M256,452.63c-7.509,0-13.617-6.108-13.617-13.617s6.108-13.617,13.617-13.617
			s13.617,6.108,13.617,13.617S263.509,452.63,256,452.63z"/>
	</g>
</g>
<g>
	<g>
		<path d="M256,291.404c-16.519,0-29.957,13.44-29.957,29.957c0,16.518,13.438,29.957,29.957,29.957s29.957-13.439,29.957-29.957
			C285.958,304.844,272.52,291.404,256,291.404z M256,334.979c-7.509,0-13.617-6.108-13.617-13.617s6.108-13.617,13.617-13.617
			s13.617,6.108,13.617,13.617S263.509,334.979,256,334.979z"/>
	</g>
</g>
<g>
	<g>
		<path d="M256,173.753c-16.519,0-29.957,13.44-29.957,29.957c0,16.518,13.438,29.957,29.957,29.957s29.957-13.439,29.957-29.957
			C285.958,187.193,272.52,173.753,256,173.753z M256,217.328c-7.509,0-13.617-6.108-13.617-13.617s6.108-13.617,13.617-13.617
			s13.617,6.108,13.617,13.617S263.509,217.328,256,217.328z"/>
	</g>
</g>
<g>
</g>
<g>
</g>
<g>
</g>
<g>
</g>
<g>
</g>
<g>
</g>
<g>
</g>
<g>
</g>
<g>
</g>
<g>
</g>
<g>
</g>
<g>
</g>
<g>
</g>
<g>
</g>
<g>
</g>
</svg>
