<?xml version="1.0" encoding="iso-8859-1"?>
<!-- Generator: Adobe Illustrator 19.0.0, SVG Export Plug-In . SVG Version: 6.00 Build 0)  -->
<svg version="1.1" id="Capa_1" xmlns="http://www.w3.org/2000/svg" xmlns:xlink="http://www.w3.org/1999/xlink" x="0px" y="0px"
	 viewBox="0 0 512 512" style="enable-background:new 0 0 512 512;" xml:space="preserve">
<g>
	<g>
		<path d="M307.745,107.26V81.702h2.723c4.512,0,8.17-3.657,8.17-8.17s-3.658-8.17-8.17-8.17H264.17V8.17
			c0-4.513-3.658-8.17-8.17-8.17c-4.512,0-8.17,3.657-8.17,8.17v57.191h-46.298c-4.512,0-8.17,3.657-8.17,8.17s3.658,8.17,8.17,8.17
			h2.723v25.557c-57.171,21.112-98.043,76.156-98.043,140.57c0,42.041,17.379,108.173,42.262,160.821
			C166.718,447.249,204.944,512,256,512s89.282-64.751,107.525-103.349c24.883-52.649,42.262-118.781,42.262-160.821
			C405.787,183.416,364.915,128.371,307.745,107.26z M220.596,81.702h70.808v20.579c-11.355-2.764-23.21-4.239-35.404-4.239
			c-12.194,0-24.049,1.475-35.404,4.239V81.702z M348.752,401.668C320.521,461.401,286.713,495.66,256,495.66
			s-64.521-34.258-92.752-93.991c-23.961-50.696-40.695-113.958-40.695-153.839c0-73.583,59.864-133.447,133.447-133.447
			s133.447,59.864,133.447,133.447C389.447,287.71,372.712,350.973,348.752,401.668z"/>
	</g>
</g>
<g>
	<g>
		<path d="M344.354,171.059c-3.115-3.266-8.285-3.387-11.552-0.275c-4.585,4.373-10.582,6.781-16.887,6.781
			c-9.745,0-18.565-5.777-22.47-14.717c-1.3-2.976-4.24-4.9-7.487-4.9s-6.188,1.924-7.487,4.9
			c-3.905,8.94-12.725,14.717-22.47,14.717c-9.745,0-18.565-5.777-22.47-14.717c-1.3-2.976-4.24-4.9-7.487-4.9
			c-3.247,0-6.188,1.924-7.487,4.9c-3.905,8.94-12.725,14.717-22.47,14.717c-6.305,0-12.302-2.409-16.887-6.781
			c-3.266-3.113-8.437-2.992-11.552,0.275c-3.113,3.265-2.991,8.437,0.275,11.552c7.639,7.284,17.64,11.296,28.164,11.296
			c11.571,0,22.358-4.884,29.957-13.078c7.599,8.194,18.386,13.078,29.957,13.078c11.571,0,22.358-4.884,29.957-13.078
			c7.599,8.194,18.386,13.078,29.957,13.078c10.524,0,20.526-4.012,28.164-11.296C347.345,179.497,347.467,174.325,344.354,171.059z
			"/>
	</g>
</g>
<g>
	<g>
		<path d="M310.806,415.588c-7.711-1.635-14.201-6.932-17.361-14.169c-1.3-2.976-4.24-4.9-7.487-4.9s-6.188,1.925-7.487,4.9
			c-3.905,8.94-12.725,14.717-22.47,14.717c-9.745,0-18.565-5.777-22.47-14.717c-1.3-2.976-4.24-4.9-7.487-4.9
			c-3.247,0-6.188,1.924-7.487,4.9c-3.16,7.238-9.651,12.534-17.361,14.169c-4.414,0.936-7.233,5.274-6.298,9.688
			c0.936,4.415,5.271,7.237,9.688,6.298c8.321-1.765,15.789-6.085,21.451-12.183c7.601,8.2,18.391,13.087,29.965,13.087
			c11.574,0,22.365-4.887,29.964-13.087c5.661,6.098,13.13,10.418,21.451,12.183c4.417,0.936,8.752-1.883,9.688-6.298
			C318.038,420.862,315.22,416.524,310.806,415.588z"/>
	</g>
</g>
<g>
	<g>
		<path d="M356.093,326.614c-1.096-1.486-2.014-3.072-2.732-4.717c-1.3-2.976-4.24-4.901-7.488-4.901
			c-3.247,0-6.188,1.924-7.487,4.9c-3.905,8.94-12.725,14.717-22.47,14.717c-9.745,0-18.565-5.777-22.47-14.717
			c-1.3-2.976-4.24-4.9-7.487-4.9s-6.188,1.924-7.487,4.9c-3.905,8.94-12.725,14.717-22.47,14.717
			c-9.745,0-18.565-5.777-22.47-14.717c-1.3-2.976-4.24-4.9-7.487-4.9c-3.247,0-6.188,1.924-7.487,4.9
			c-3.905,8.94-12.725,14.717-22.47,14.717c-9.745,0-18.565-5.777-22.47-14.717c-1.3-2.976-4.24-4.9-7.487-4.9
			c-3.248,0-6.188,1.925-7.488,4.901c-0.718,1.645-1.637,3.231-2.732,4.717c-2.678,3.632-1.903,8.746,1.73,11.423
			c2.328,1.716,5.265,2.015,7.779,1.051c7.63,8.668,18.732,13.865,30.669,13.865c11.571,0,22.358-4.884,29.957-13.078
			c7.599,8.194,18.386,13.078,29.957,13.078c11.571,0,22.358-4.884,29.957-13.078c7.599,8.194,18.386,13.078,29.957,13.078
			c11.937,0,23.039-5.197,30.669-13.865c2.515,0.965,5.452,0.664,7.779-1.051C357.995,335.36,358.769,330.245,356.093,326.614z"/>
	</g>
</g>
<g>
	<g>
		<path d="M367.028,255.458c-6.078-2.342-11.059-7.111-13.668-13.085c-1.3-2.976-4.24-4.9-7.487-4.9s-6.188,1.924-7.487,4.9
			c-3.905,8.94-12.725,14.717-22.47,14.717c-9.745,0-18.565-5.777-22.47-14.717c-1.3-2.976-4.24-4.9-7.487-4.9
			s-6.188,1.924-7.487,4.9c-3.905,8.94-12.725,14.717-22.47,14.717c-9.745,0-18.565-5.777-22.47-14.717
			c-1.3-2.976-4.24-4.9-7.487-4.9c-3.247,0-6.188,1.924-7.487,4.9c-3.905,8.94-12.725,14.717-22.47,14.717
			c-9.745,0-18.565-5.777-22.47-14.717c-1.3-2.976-4.24-4.9-7.487-4.9c-3.247,0-6.188,1.924-7.487,4.9
			c-2.609,5.973-7.591,10.742-13.668,13.085c-4.21,1.622-6.309,6.351-4.686,10.561c1.623,4.209,6.354,6.31,10.561,4.685
			c5.829-2.246,11.053-5.832,15.265-10.369c7.6,8.203,18.395,13.094,29.973,13.094c11.571,0,22.358-4.884,29.957-13.078
			c7.599,8.194,18.386,13.078,29.957,13.078c11.571,0,22.358-4.884,29.957-13.078c7.599,8.194,18.386,13.078,29.957,13.078
			c11.578,0,22.372-4.891,29.973-13.094c4.213,4.536,9.436,8.122,15.265,10.369c4.209,1.624,8.938-0.476,10.561-4.685
			C373.336,261.808,371.238,257.08,367.028,255.458z"/>
	</g>
</g>
<g>
</g>
<g>
</g>
<g>
</g>
<g>
</g>
<g>
</g>
<g>
</g>
<g>
</g>
<g>
</g>
<g>
</g>
<g>
</g>
<g>
</g>
<g>
</g>
<g>
</g>
<g>
</g>
<g>
</g>
</svg>
