<?xml version="1.0" encoding="iso-8859-1"?>
<!-- Generator: Adobe Illustrator 19.0.0, SVG Export Plug-In . SVG Version: 6.00 Build 0)  -->
<svg version="1.1" id="Capa_1" xmlns="http://www.w3.org/2000/svg" xmlns:xlink="http://www.w3.org/1999/xlink" x="0px" y="0px"
	 viewBox="0 0 512 512" style="enable-background:new 0 0 512 512;" xml:space="preserve">
<g>
	<g>
		<path d="M433.352,100.435c-3.192-3.19-8.364-3.19-11.555,0l-30.289,30.289H288.604c0.044-0.905,0.077-1.812,0.077-2.723
			c0-22.907-13.158-40.851-29.957-40.851c-16.799,0-29.959,17.944-29.959,40.851c0,0.912,0.034,1.818,0.077,2.723h-87.226V24.511
			c0-4.506,3.665-8.17,8.17-8.17h144.418c-0.044,0.905-0.077,1.812-0.077,2.723c0,22.907,13.158,40.851,29.957,40.851
			s29.957-17.944,29.957-40.851c0-0.912-0.034-1.818-0.077-2.723h8.248c4.506,0,8.17,3.665,8.17,8.17v81.702
			c0,4.513,3.657,8.17,8.17,8.17c4.513,0,8.17-3.657,8.17-8.17V24.511C386.723,10.996,375.727,0,362.213,0H149.787
			c-13.515,0-24.511,10.996-24.511,24.511v106.213h-4.786l-30.288-30.289c-3.192-3.19-8.364-3.19-11.555,0
			c-3.191,3.192-3.191,8.364,0,11.555l30.287,30.289V503.83c0,4.513,3.657,8.17,8.17,8.17h277.787c4.513,0,8.17-3.657,8.17-8.17
			V142.278l30.289-30.289C436.542,108.799,436.542,103.627,433.352,100.435z M310.568,16.34h27.034c0.06,0.902,0.1,1.808,0.1,2.723
			c0,14.445-7.177,24.511-13.617,24.511c-6.44,0-13.617-10.066-13.617-24.511C310.468,18.149,310.508,17.242,310.568,16.34z
			 M258.723,103.489c6.44,0,13.617,10.066,13.617,24.511c0,0.915-0.04,1.821-0.1,2.723h-27.034c-0.06-0.902-0.1-1.808-0.1-2.723
			C245.106,113.555,252.283,103.489,258.723,103.489z M386.723,495.66H125.276V147.064h153.961c0.062,0,107.486,0,107.486,0V495.66z
			"/>
	</g>
</g>
<g>
	<g>
		<path d="M182.468,32.681c-16.799,0-29.957,17.944-29.957,40.851s13.158,40.851,29.957,40.851
			c16.799,0,29.957-17.944,29.957-40.851S199.267,32.681,182.468,32.681z M182.468,98.043c-6.44,0-13.617-10.066-13.617-24.511
			s7.177-24.511,13.617-24.511s13.617,10.066,13.617,24.511S188.908,98.043,182.468,98.043z"/>
	</g>
</g>
<g>
	<g>
		<circle cx="330.076" cy="95.319" r="8.17"/>
	</g>
</g>
<g>
	<g>
		<circle cx="242.383" cy="40.851" r="8.17"/>
	</g>
</g>
<g>
</g>
<g>
</g>
<g>
</g>
<g>
</g>
<g>
</g>
<g>
</g>
<g>
</g>
<g>
</g>
<g>
</g>
<g>
</g>
<g>
</g>
<g>
</g>
<g>
</g>
<g>
</g>
<g>
</g>
</svg>
