<?xml version="1.0" encoding="iso-8859-1"?>
<!-- Generator: Adobe Illustrator 19.0.0, SVG Export Plug-In . SVG Version: 6.00 Build 0)  -->
<svg version="1.1" id="Capa_1" xmlns="http://www.w3.org/2000/svg" xmlns:xlink="http://www.w3.org/1999/xlink" x="0px" y="0px"
	 viewBox="0 0 512 512" style="enable-background:new 0 0 512 512;" xml:space="preserve">
<g>
	<g>
		<path d="M509.663,129.09c-5.426-5.532-5.508-10.662-5.619-17.761c-0.133-8.445-0.298-18.955-10.582-29.24
			c-10.285-10.284-20.796-10.446-29.242-10.574c-7.16-0.111-12.335-0.19-17.936-5.791c-5.604-5.604-5.684-10.778-5.793-17.941
			c-0.131-8.446-0.293-18.957-10.578-29.243c-10.284-10.282-20.795-10.449-29.24-10.583c-7.1-0.112-12.23-0.193-17.764-5.621
			c-1.596-1.565-3.746-2.397-5.998-2.333c-2.234,0.076-4.34,1.064-5.827,2.734c-25.146,28.253-39.517,61.92-42.011,98.05
			C306.892,90.303,282.121,84.425,256,84.425c-94.607,0-171.574,76.968-171.574,171.574c0,26.117,5.876,50.885,16.359,73.064
			c-36.13,2.497-69.795,16.876-98.046,42.02c-1.67,1.486-2.657,3.593-2.734,5.827c-0.075,2.234,0.768,4.402,2.333,5.998
			c5.426,5.532,5.508,10.661,5.619,17.761c0.133,8.445,0.299,18.955,10.582,29.24c10.285,10.284,20.796,10.445,29.242,10.574
			c7.16,0.11,12.335,0.19,17.936,5.791c5.604,5.604,5.684,10.778,5.793,17.941c0.131,8.446,0.293,18.957,10.578,29.243
			c10.284,10.282,20.795,10.449,29.24,10.583c7.1,0.112,12.23,0.193,17.764,5.621c1.529,1.5,3.585,2.338,5.721,2.338
			c0.091,0,0.184-0.001,0.277-0.004c2.234-0.076,4.34-1.064,5.827-2.734c25.146-28.253,39.516-61.92,42.011-98.05
			c22.182,10.485,46.952,16.362,73.072,16.362c94.606,0,171.574-76.968,171.574-171.574c0-26.117-5.876-50.885-16.359-73.064
			c36.13-2.497,69.795-16.876,98.046-42.02c1.67-1.486,2.657-3.593,2.734-5.827C512.071,132.854,511.227,130.686,509.663,129.09z
			 M133.63,492.619c-7.877-4.694-15.573-4.815-22.044-4.917c-7.163-0.113-12.338-0.195-17.943-5.8
			c-5.604-5.604-5.683-10.778-5.793-17.94c-0.131-8.447-0.293-18.958-10.578-29.244c-10.285-10.284-20.796-10.445-29.242-10.574
			c-7.16-0.11-12.335-0.19-17.936-5.791c-5.605-5.604-5.686-10.779-5.799-17.942c-0.101-6.47-0.222-14.166-4.915-22.041
			c26.488-21.563,56.712-32.795,90.006-33.333c5.73,9.399,12.336,18.209,19.706,26.31l-32.563,32.56
			c-3.192,3.191-3.192,8.364-0.001,11.554c1.596,1.596,3.686,2.393,5.778,2.393c2.09,0,4.182-0.797,5.777-2.392l32.564-32.561
			c8.102,7.371,16.91,13.978,26.309,19.708C166.383,435.903,155.195,466.129,133.63,492.619z M411.234,256
			c0,85.596-69.636,155.234-155.234,155.234c-85.596,0-155.234-69.637-155.234-155.234S170.404,100.766,256,100.766
			S411.234,170.403,411.234,256z M402.611,166.959c-5.729-9.399-12.335-18.206-19.704-26.307l32.563-32.56
			c3.192-3.191,3.192-8.364,0.001-11.554c-3.192-3.192-8.365-3.191-11.554-0.001l-32.564,32.561
			c-8.102-7.371-16.91-13.978-26.309-19.708c0.575-33.294,11.762-63.519,33.327-90.009c7.877,4.694,15.573,4.815,22.044,4.917
			c7.163,0.113,12.338,0.195,17.943,5.8c5.604,5.604,5.683,10.778,5.793,17.94c0.131,8.447,0.293,18.958,10.579,29.244
			c10.284,10.282,20.795,10.445,29.24,10.574c7.161,0.11,12.336,0.19,17.937,5.791c5.605,5.604,5.686,10.779,5.799,17.942
			c0.101,6.47,0.222,14.166,4.915,22.041C466.131,155.191,435.909,166.394,402.611,166.959z"/>
	</g>
</g>
<g>
	<g>
		<path d="M390.286,251.52l-17.569-26.799l1.832-31.996c0.186-3.253-1.577-6.305-4.489-7.768l-28.635-14.384l-14.383-28.635
			c-1.463-2.912-4.533-4.693-7.768-4.489l-31.996,1.832l-26.799-17.569c-2.721-1.783-6.239-1.783-8.96,0l-26.799,17.569
			l-31.996-1.832c-3.255-0.207-6.305,1.576-7.768,4.489l-14.384,28.635l-28.635,14.384c-2.912,1.463-4.676,4.515-4.489,7.768
			l1.832,31.996l-17.569,26.799c-1.783,2.72-1.783,6.24,0,8.96l17.569,26.799l-1.832,31.996c-0.186,3.253,1.577,6.305,4.489,7.768
			l28.635,14.384l14.384,28.635c1.463,2.912,4.538,4.684,7.768,4.489l31.996-1.832l26.799,17.569
			c1.361,0.891,2.921,1.338,4.479,1.338c1.559,0,3.119-0.446,4.479-1.338l26.799-17.569l31.996,1.832
			c3.254,0.191,6.305-1.577,7.768-4.489l14.384-28.635l28.635-14.384c2.912-1.463,4.676-4.515,4.489-7.768l-1.832-31.996
			l17.569-26.799C392.07,257.76,392.07,254.24,390.286,251.52z M357.576,280.574c-0.96,1.465-1.424,3.199-1.324,4.947l1.679,29.329
			l-26.258,13.189c-1.571,0.79-2.844,2.063-3.634,3.634l-13.189,26.258l-29.329-1.679c-1.742-0.104-3.482,0.364-4.947,1.324
			L256,373.685l-24.575-16.111c-1.334-0.875-2.891-1.338-4.479-1.338c-0.156,0-0.312,0.004-0.467,0.014l-29.329,1.679
			l-13.189-26.258c-0.79-1.571-2.063-2.844-3.634-3.634l-26.258-13.189l1.679-29.329c0.101-1.747-0.364-3.482-1.324-4.947
			L138.314,256l16.111-24.575c0.96-1.465,1.425-3.199,1.324-4.947l-1.679-29.329l26.258-13.189c1.571-0.79,2.844-2.063,3.634-3.634
			l13.189-26.258l29.329,1.679c1.745,0.112,3.483-0.364,4.947-1.324L256,138.314l24.575,16.111c1.465,0.96,3.205,1.435,4.947,1.324
			l29.329-1.679l13.189,26.258c0.79,1.571,2.063,2.844,3.634,3.634l26.258,13.189l-1.679,29.329c-0.1,1.747,0.364,3.482,1.324,4.946
			L373.687,256L357.576,280.574z"/>
	</g>
</g>
<g>
	<g>
		<path d="M327.089,210.484c-2.437-3.799-7.49-4.903-11.288-2.465c-3.797,2.436-4.901,7.49-2.465,11.288
			c7.032,10.962,10.749,23.65,10.749,36.693c0,37.543-30.542,68.085-68.085,68.085S187.915,293.542,187.915,256
			s30.542-68.085,68.085-68.085c13.043,0,25.731,3.717,36.693,10.749c3.796,2.436,8.85,1.333,11.288-2.465
			c2.436-3.797,1.333-8.852-2.465-11.288c-13.6-8.725-29.339-13.336-45.516-13.336c-46.552,0-84.425,37.874-84.425,84.425
			c0,46.552,37.874,84.425,84.425,84.425s84.425-37.874,84.425-84.425C340.425,239.823,335.814,224.083,327.089,210.484z"/>
	</g>
</g>
<g>
</g>
<g>
</g>
<g>
</g>
<g>
</g>
<g>
</g>
<g>
</g>
<g>
</g>
<g>
</g>
<g>
</g>
<g>
</g>
<g>
</g>
<g>
</g>
<g>
</g>
<g>
</g>
<g>
</g>
</svg>
