<?xml version="1.0" encoding="iso-8859-1"?>
<!-- Generator: Adobe Illustrator 19.0.0, SVG Export Plug-In . SVG Version: 6.00 Build 0)  -->
<svg version="1.1" id="Capa_1" xmlns="http://www.w3.org/2000/svg" xmlns:xlink="http://www.w3.org/1999/xlink" x="0px" y="0px"
	 viewBox="0 0 512 512" style="enable-background:new 0 0 512 512;" xml:space="preserve">
<g>
	<g>
		<path d="M508.623,192.617c-14.183-43.653-63.68-55.623-99.676-60.83c-13.877-2.008-29.342-3.431-46.044-4.244
			c-3.906-10.287-7.91-20.023-11.931-29.001c-9.298-20.764-18.458-37.141-28.006-50.068C303.661,22.33,281.13,9.074,256,9.074
			c-25.13,0-47.661,13.256-66.968,39.4c-9.547,12.928-18.708,29.306-28.005,50.068c-4.023,8.983-8.027,18.719-11.931,29.001
			c-16.696,0.812-32.163,2.236-46.047,4.244c-35.995,5.207-85.49,17.177-99.673,60.829c-7.765,23.899-2.121,49.425,16.778,75.865
			c9.346,13.075,22.09,26.847,38.964,42.104c7.3,6.602,15.323,13.421,23.903,20.316c-2.888,10.619-5.37,20.852-7.397,30.485
			c-4.683,22.264-6.898,40.898-6.773,56.967c0.252,32.499,10.689,56.468,31.021,71.24c8.373,6.082,22.634,13.332,43.022,13.332
			c25.712-0.001,56.655-11.567,97.378-36.397c5.124-3.124,10.396-6.459,15.728-9.95c5.342,3.498,10.615,6.833,15.729,9.951
			c40.721,24.832,71.662,36.396,97.374,36.396c20.401-0.004,34.659-7.253,43.029-13.335c20.331-14.772,30.767-38.739,31.02-71.238
			c0.124-16.072-2.091-34.705-6.773-56.966c-2.024-9.627-4.508-19.859-7.396-30.485c8.573-6.892,16.596-13.71,23.901-20.317
			c16.875-15.259,29.62-29.031,38.964-42.104C510.744,242.042,516.389,216.516,508.623,192.617z M478.552,258.981
			c-8.653,12.107-20.635,25.024-36.629,39.488c-8.233,7.444-17.424,15.182-27.32,22.997c-2.589,2.045-3.695,5.445-2.802,8.621
			c3.416,12.155,6.305,23.818,8.584,34.663c4.439,21.1,6.54,38.592,6.423,53.476c-0.209,27.029-8.38,46.592-24.284,58.149
			c-6.411,4.656-17.414,10.211-33.426,10.214c-22.58,0-50.819-10.806-88.869-34.009c-6.369-3.881-12.997-8.117-19.701-12.588
			c-2.744-1.831-6.32-1.832-9.066,0c-6.688,4.46-13.316,8.694-19.7,12.587c-38.051,23.202-66.291,34.009-88.873,34.01
			c-16,0-27.005-5.554-33.418-10.213c-15.905-11.556-24.076-31.12-24.285-58.15c-0.115-14.881,1.986-32.374,6.423-53.476
			c2.283-10.855,5.172-22.518,8.584-34.663c0.892-3.175-0.212-6.577-2.8-8.621c-9.903-7.823-19.096-15.56-27.321-22.998
			c-15.993-14.46-27.975-27.377-36.629-39.486c-15.717-21.99-20.605-42.619-14.532-61.316
			c11.369-34.987,54.796-45.125,86.473-49.707c14.819-2.144,31.571-3.601,49.789-4.33c3.296-0.132,6.19-2.234,7.335-5.329
			c4.377-11.828,8.894-22.958,13.426-33.081c8.812-19.68,17.394-35.066,26.236-47.042c16.057-21.742,34.165-32.767,53.825-32.767
			c19.659,0,37.769,11.024,53.824,32.767c8.841,11.973,17.424,27.36,26.237,47.04c4.53,10.117,9.047,21.248,13.426,33.082
			c1.146,3.095,4.039,5.197,7.335,5.329c18.222,0.73,34.973,2.186,49.785,4.329c31.678,4.581,75.107,14.72,86.477,49.708
			C499.158,216.362,494.27,236.992,478.552,258.981z"/>
	</g>
</g>
<g>
	<g>
		<path d="M467.226,206.07c-5.549-17.081-30.953-27.819-77.665-32.83c-23.812-2.554-46.61-2.907-57.407-2.907h-0.327
			c-3.287-10.14-10.718-31.929-20.606-54.009c-19.2-42.876-37.263-63.719-55.222-63.719c-17.96,0-36.023,20.843-55.223,63.719
			c-9.888,22.081-17.32,43.873-20.606,54.012h-0.156c-7.203,0-19.93,0.159-34.829,1.04c-4.504,0.267-7.938,4.135-7.672,8.639
			c0.267,4.505,4.145,7.953,8.639,7.673c22.029-1.306,39.647-0.972,39.823-0.968c0.056,0.001,0.111,0.002,0.166,0.002
			c3.592,0,6.774-2.353,7.819-5.804c0.088-0.291,8.949-29.406,21.785-58.044c22.43-50.04,36.481-53.93,40.253-53.93
			c3.772,0,17.823,3.889,40.253,53.93c12.836,28.638,21.697,57.753,21.785,58.044c1.045,3.452,4.225,5.804,7.819,5.804
			c0.056,0,0.112-0.001,0.168-0.002c0.301-0.004,30.597-0.578,61.794,2.768c54.646,5.861,62.701,18.04,63.869,21.631
			c1.165,3.588,1.808,18.153-38.851,54.948c-23.27,21.057-48.222,38.482-48.472,38.655c-3.005,2.092-4.251,5.929-3.05,9.387
			c0.099,0.288,10.045,29.051,16.492,59.764c11.268,53.668,2.186,65.072-0.866,67.29c-3.053,2.214-16.706,7.328-64.265-19.97
			c-27.217-15.623-51.5-33.97-51.742-34.152c-2.919-2.212-6.953-2.212-9.871,0c-0.242,0.183-24.526,18.53-51.742,34.152
			c-47.56,27.301-61.212,22.187-64.266,19.97c-3.052-2.218-12.133-13.622-0.866-67.29c6.447-30.713,16.393-59.477,16.493-59.764
			c1.201-3.458-0.046-7.295-3.05-9.387c-0.249-0.173-25.202-17.598-48.472-38.655c-40.661-36.795-40.017-51.36-38.851-54.948
			c1.043-3.211,8.013-14.178,53.869-20.417c4.47-0.609,7.602-4.726,6.993-9.197s-4.727-7.605-9.197-6.993
			c-40.095,5.457-62.079,15.779-67.205,31.559c-5.55,17.081,8.691,40.7,43.536,72.21c17.944,16.227,36.371,30.028,44.998,36.287
			c-3.3,10.134-10.096,32.132-15.075,55.806c-9.669,45.974-7.307,73.454,7.223,84.008c14.527,10.555,41.394,4.312,82.129-19.09
			c20.977-12.05,39.798-25.311,48.416-31.582c8.618,6.271,27.438,19.531,48.416,31.582c27.981,16.075,49.416,24.054,64.806,24.054
			c7.015,0,12.774-1.657,17.322-4.964c14.529-10.555,16.892-38.034,7.223-84.008c-4.978-23.674-11.775-45.672-15.074-55.806
			c8.627-6.259,27.054-20.061,44.998-36.287C458.535,246.77,472.775,223.151,467.226,206.07z"/>
	</g>
</g>
<g>
</g>
<g>
</g>
<g>
</g>
<g>
</g>
<g>
</g>
<g>
</g>
<g>
</g>
<g>
</g>
<g>
</g>
<g>
</g>
<g>
</g>
<g>
</g>
<g>
</g>
<g>
</g>
<g>
</g>
</svg>
