<?xml version="1.0" encoding="iso-8859-1"?>
<!-- Generator: Adobe Illustrator 19.0.0, SVG Export Plug-In . SVG Version: 6.00 Build 0)  -->
<svg version="1.1" id="Capa_1" xmlns="http://www.w3.org/2000/svg" xmlns:xlink="http://www.w3.org/1999/xlink" x="0px" y="0px"
	 viewBox="0 0 511.999 511.999" style="enable-background:new 0 0 511.999 511.999;" xml:space="preserve">
<g>
	<g>
		<path d="M456.579,255.945c21.491-19.53,36.863-45.576,43.112-74.821c0.611-2.861-0.354-5.83-2.529-7.785
			c-22.245-19.988-49.991-32.023-78.857-35.192c5.998-28.755,2.839-58.925-9.166-85.962c-1.187-2.672-3.713-4.508-6.622-4.811
			c-29.42-3.062-59.092,3.255-84.587,17.846C305.997,38.747,285.976,16.08,260.092,1.1c-2.532-1.466-5.653-1.466-8.185,0
			c-25.883,14.98-45.905,37.648-57.837,64.122c-25.493-14.59-55.162-20.903-84.587-17.846c-2.909,0.303-5.435,2.138-6.622,4.811
			c-12.005,27.037-15.164,57.207-9.166,85.962c-28.866,3.168-56.612,15.204-78.857,35.192c-2.175,1.955-3.141,4.925-2.529,7.785
			c6.249,29.245,21.621,55.291,43.112,74.821c-21.753,19.737-36.93,46.003-43.112,74.932c-0.611,2.861,0.354,5.83,2.529,7.785
			c22.005,19.771,49.722,32.1,78.921,35.281c-5.907,28.432-3.034,58.539,9.101,85.871c1.187,2.673,3.713,4.509,6.622,4.812
			c4.839,0.503,9.671,0.751,14.481,0.751c24.756,0,48.885-6.575,69.998-18.636c12.048,26.791,32.339,49.343,57.943,64.16
			c1.266,0.733,2.679,1.099,4.093,1.099c1.414,0,2.827-0.366,4.093-1.099c25.604-14.819,45.895-37.371,57.943-64.159
			c21.113,12.06,45.241,18.636,69.999,18.634c4.807,0,9.645-0.248,14.481-0.751c2.91-0.303,5.435-2.138,6.622-4.812
			c12.135-27.332,15.008-57.44,9.102-85.871c29.2-3.182,56.916-15.509,78.921-35.281c2.175-1.955,3.141-4.925,2.529-7.785
			C493.51,301.947,478.333,275.682,456.579,255.945z M396.061,63.226c9.387,23.547,11.36,49.474,5.688,74.091
			c-14.105,0.115-28.277,2.34-42.02,6.805c-5.977,1.942-11.791,4.279-17.413,6.977l42.388-58.342
			c2.653-3.65,1.842-8.76-1.808-11.412c-3.652-2.655-8.761-1.842-11.412,1.807l-42.388,58.342
			c0.829-6.182,1.255-12.434,1.255-18.718c0-14.45-2.264-28.616-6.512-42.066C345.497,67.71,370.764,61.571,396.061,63.226z
			 M364.777,159.663c40.486-13.151,85.188-4.43,117.844,22.706c-10.47,41.146-41.509,74.48-81.991,87.633
			c-21.381,6.946-44.198,7.965-66.014,2.951l-14.26-4.633c-0.003-0.001-5.132-1.667-5.132-1.667
			c3.707-2.728,6.761-6.297,8.911-10.517c3.632-7.13,4.271-15.248,1.799-22.857c-4.003-12.322-15.356-20.613-28.286-20.699
			l11.988-16.501C324.338,179.199,343.397,166.611,364.777,159.663z M219.372,283.248c2.555-3.515,6.68-5.614,11.034-5.614
			c2.881,0,5.643,0.9,7.986,2.602c2.942,2.138,4.877,5.293,5.446,8.886c0.569,3.593-0.295,7.192-2.434,10.134
			c-2.555,3.516-6.679,5.615-11.034,5.615c-2.881,0-5.643-0.9-7.986-2.603C216.31,297.855,214.959,289.322,219.372,283.248z
			 M214.565,256.157c-1.423,0-2.84-0.225-4.214-0.672c-3.459-1.124-6.274-3.527-7.924-6.768c-1.651-3.242-1.942-6.931-0.818-10.39
			c1.83-5.631,7.033-9.415,12.947-9.415c1.422,0,2.838,0.227,4.211,0.672c3.459,1.124,6.274,3.527,7.924,6.768
			c1.651,3.242,1.942,6.93,0.818,10.39C225.679,252.373,220.477,256.157,214.565,256.157z M242.384,255.999
			c0-7.509,6.108-13.617,13.617-13.617s13.617,6.109,13.617,13.617c0,7.509-6.108,13.617-13.617,13.617
			S242.384,263.508,242.384,255.999z M242.384,212.425c0-7.509,6.108-13.617,13.617-13.617s13.617,6.108,13.617,13.617
			s-6.108,13.617-13.617,13.617S242.384,219.934,242.384,212.425z M268.163,289.123c0.569-3.593,2.503-6.748,5.447-8.886
			c2.343-1.703,5.105-2.602,7.986-2.602c4.355,0,8.48,2.099,11.034,5.614c4.413,6.074,3.062,14.607-3.012,19.021
			c-2.343,1.703-5.105,2.603-7.986,2.603c-4.421,0-8.443-2.047-11.034-5.615C268.459,296.313,267.595,292.715,268.163,289.123z
			 M284.492,246.742c-1.124-3.46-0.833-7.149,0.818-10.39s4.465-5.644,7.924-6.768c1.374-0.446,2.791-0.672,4.213-0.672
			c5.914,0,11.117,3.784,12.947,9.415c1.124,3.46,0.833,7.148-0.818,10.39c-1.651,3.241-4.465,5.644-7.925,6.768
			c-1.374,0.447-2.791,0.672-4.214,0.672C291.524,256.157,286.321,252.373,284.492,246.742z M256.001,17.717
			C291.9,40.39,314.009,80.21,314.009,122.776c0,22.478-6.081,44.494-17.591,63.693l-8.815,12.133
			c-0.005,0.01-3.18,4.378-3.18,4.378c-3.965-11.902-15.204-20.513-28.422-20.513s-24.456,8.608-28.423,20.51l-11.993-16.506
			c-11.51-19.199-17.593-41.218-17.593-63.696C197.992,80.211,220.102,40.391,256.001,17.717z M115.942,63.226
			c25.297-1.649,50.565,4.485,72.222,17.485c-4.247,13.45-6.512,27.616-6.512,42.066c0,6.284,0.425,12.536,1.255,18.718
			l-42.388-58.342c-2.652-3.652-7.761-4.461-11.412-1.807c-3.65,2.653-4.46,7.762-1.808,11.412l42.388,58.342
			c-5.622-2.699-11.437-5.035-17.414-6.977c-13.742-4.465-27.914-6.689-42.019-6.805C104.582,112.7,106.555,86.773,115.942,63.226z
			 M29.38,182.367c32.658-27.135,77.363-35.857,117.844-22.706c21.381,6.948,40.44,19.537,55.142,36.416l11.99,16.501
			c-12.932,0.086-24.283,8.377-28.286,20.699c-2.473,7.609-1.833,15.728,1.799,22.857c2.15,4.22,5.204,7.788,8.911,10.517
			l-12.309,3.999l-7.081,2.301c-21.816,5.013-44.633,3.996-66.014-2.951C70.89,256.848,39.851,223.515,29.38,182.367z
			 M98.087,357.94c-25.163-2.214-49.212-12.102-68.707-28.306c6.247-24.568,19.891-46.704,38.949-63.285
			c11.48,8.196,24.251,14.728,37.995,19.192c5.989,1.946,12.083,3.455,18.23,4.578l-68.627,22.299
			c-4.291,1.394-6.64,6.003-5.245,10.294c1.122,3.453,4.325,5.648,7.768,5.648c0.837,0,1.687-0.13,2.526-0.402l68.585-22.285
			c-4.304,4.514-8.324,9.323-12.018,14.407C109.05,331.77,102.555,344.561,98.087,357.94z M115.942,448.775
			c-15.715-39.445-10.196-84.656,14.823-119.092c13.215-18.187,31.075-32.424,51.672-41.19l6.785-2.205l4.708-1.529l7.913-2.571
			c-3.788,11.961,0.245,25.532,10.938,33.301c5.153,3.745,11.236,5.724,17.59,5.724c6.326,0,12.424-2.027,17.46-5.63v20.422
			c-1.973,22.299-9.993,43.686-23.206,61.872C199.606,432.313,158.313,451.54,115.942,448.775z M256.001,494.284
			c-21.434-13.533-38.269-33.348-48.15-56.597c11.342-8.384,21.499-18.516,29.992-30.207c3.694-5.084,7.024-10.391,9.986-15.88
			v72.114c0,4.513,3.658,8.17,8.17,8.17s8.17-3.657,8.17-8.17v-72.114c2.962,5.488,6.293,10.796,9.986,15.88
			c8.494,11.691,18.65,21.823,29.992,30.207C294.27,460.937,277.435,480.751,256.001,494.284z M396.061,448.775
			c-42.381,2.753-83.664-16.464-108.683-50.899c-13.213-18.186-21.234-39.573-23.207-61.872v-20.422
			c5.036,3.603,11.134,5.63,17.46,5.63c6.354,0,12.437-1.978,17.59-5.724c10.694-7.769,14.726-21.339,10.938-33.301l7.913,2.571
			l11.493,3.734c20.597,8.766,38.458,23.003,51.672,41.191C406.258,364.12,411.776,409.331,396.061,448.775z M413.915,357.939
			c-4.47-13.378-10.964-26.169-19.458-37.86c-3.694-5.084-7.713-9.893-12.017-14.407l68.585,22.285
			c0.84,0.272,1.69,0.402,2.526,0.402c3.443,0,6.647-2.195,7.768-5.648c1.394-4.291-0.954-8.9-5.245-10.294l-68.628-22.299
			c6.148-1.121,12.242-2.631,18.232-4.576c13.742-4.465,26.515-10.996,37.995-19.191c19.058,16.581,32.702,38.716,38.949,63.284
			C463.127,345.838,439.079,355.726,413.915,357.939z"/>
	</g>
</g>
<g>
</g>
<g>
</g>
<g>
</g>
<g>
</g>
<g>
</g>
<g>
</g>
<g>
</g>
<g>
</g>
<g>
</g>
<g>
</g>
<g>
</g>
<g>
</g>
<g>
</g>
<g>
</g>
<g>
</g>
</svg>
