<?xml version="1.0" encoding="iso-8859-1"?>
<!-- Generator: Adobe Illustrator 19.0.0, SVG Export Plug-In . SVG Version: 6.00 Build 0)  -->
<svg version="1.1" id="Capa_1" xmlns="http://www.w3.org/2000/svg" xmlns:xlink="http://www.w3.org/1999/xlink" x="0px" y="0px"
	 viewBox="0 0 512 512" style="enable-background:new 0 0 512 512;" xml:space="preserve">
<g>
	<g>
		<path d="M503.83,21.787c-4.512,0-8.17,3.657-8.17,8.17v16.34c0,19.522-15.883,35.404-35.404,35.404h-16.783
			c8.708-9.264,14.059-21.718,14.059-35.404v-16.34c0-4.513-3.658-8.17-8.17-8.17s-8.17,3.657-8.17,8.17v16.34
			c0,19.522-15.883,35.404-35.404,35.404h-16.783c8.708-9.264,14.059-21.718,14.059-35.404v-16.34c0-4.513-3.658-8.17-8.17-8.17
			s-8.17,3.657-8.17,8.17v16.34c0,19.522-15.883,35.404-35.404,35.404h-10.894c-28.531,0-51.745,23.213-51.745,51.745v9.074
			c-13.487,3.152-22.061,14.431-24.06,31.777H247.38c-2-17.346-10.573-28.625-24.06-31.777v-9.074
			c0-28.531-23.213-51.745-51.745-51.745h-10.894c-19.522,0-35.405-15.882-35.405-35.404v-16.34c0-4.513-3.658-8.17-8.17-8.17
			s-8.17,3.657-8.17,8.17v16.34c0,13.687,5.351,26.14,14.059,35.404h-16.783c-19.521,0-35.404-15.882-35.404-35.404v-16.34
			c0-4.513-3.658-8.17-8.17-8.17s-8.17,3.657-8.17,8.17v16.34c0,13.687,5.351,26.14,14.059,35.404H51.745
			c-19.521,0-35.404-15.882-35.404-35.404v-16.34c0-4.513-3.658-8.17-8.17-8.17S0,25.444,0,29.957v16.34
			c0,28.531,23.213,51.745,51.745,51.745h119.83c19.521,0,35.404,15.882,35.404,35.404v9.072
			c-13.639,3.186-22.251,14.686-24.125,32.363c-18.159,2.747-33.574,14.971-40.338,32.097H29.957c-2.354,0-4.594,1.016-6.145,2.787
			c-1.551,1.771-2.264,4.124-1.954,6.459c4.332,32.655,25.895,60.756,56.274,73.339c11.292,4.678,23.169,7.05,35.297,7.05
			c8.675,0,17.2-1.201,25.464-3.577v36.496c0,26.44,12.315,51.155,33.189,67.101c-0.338,3.068-0.508,6.132-0.508,9.154
			c0,46.552,37.873,84.426,84.426,84.426s84.426-37.874,84.426-84.426c0-3.022-0.17-6.086-0.508-9.154
			c20.873-15.946,33.188-40.66,33.188-67.101v-36.497c8.265,2.378,16.788,3.577,25.464,3.577c12.13,0,24.006-2.373,35.298-7.05
			c30.379-12.583,51.942-40.685,56.274-73.339c0.309-2.335-0.403-4.688-1.954-6.459c-1.551-1.77-3.791-2.787-6.145-2.787H369.484
			c-6.764-17.126-22.179-29.348-40.338-32.097c-1.873-17.677-10.486-29.176-24.125-32.363v-9.071
			c0-19.522,15.883-35.404,35.404-35.404h119.83c28.531,0,51.745-23.213,51.745-51.745v-16.34
			C512,25.444,508.342,21.787,503.83,21.787z M313.191,182.468c0,4.513,3.658,8.17,8.17,8.17c16.166,0,30.267,10.917,34.29,26.547
			c0.929,3.61,4.184,6.134,7.912,6.134h108.564c-5.991,22.874-22.42,41.997-44.511,51.148c-9.301,3.852-19.073,5.805-29.045,5.805
			c-8.726,0-17.265-1.499-25.464-4.418V247.83c0-4.513-3.658-8.17-8.17-8.17s-8.17,3.657-8.17,8.17v81.702
			c0,22.723-11.281,43.867-30.177,56.561c-2.67,1.793-4.039,4.986-3.498,8.156c0.659,3.866,0.995,7.747,0.995,11.539
			c0,37.543-30.544,68.085-68.085,68.085c-37.542,0-68.085-30.542-68.085-68.085c0-3.79,0.334-7.672,0.995-11.539
			c0.541-3.17-0.828-6.363-3.498-8.156c-18.897-12.693-30.179-33.838-30.179-56.561V247.83c0-4.513-3.658-8.17-8.17-8.17
			s-8.17,3.657-8.17,8.17v28.026c-8.2,2.919-16.738,4.417-25.464,4.417c-9.972,0-19.745-1.953-29.045-5.805
			c-22.091-9.151-38.52-28.273-44.511-51.148h108.564c3.728,0,6.983-2.523,7.912-6.134c4.022-15.631,18.123-26.548,34.289-26.548
			c4.512,0,8.17-3.657,8.17-8.17c0-24.511,12.299-24.511,16.34-24.511c4.042,0,16.34,0,16.34,24.511c0,4.513,3.658,8.17,8.17,8.17
			h32.681c4.512,0,8.17-3.657,8.17-8.17c0-24.511,12.299-24.511,16.34-24.511S313.191,157.957,313.191,182.468z"/>
	</g>
</g>
<g>
	<g>
		<path d="M256,384.081c-24.816,0-40.851,8.52-40.851,21.707c0,22.526,18.325,40.851,40.851,40.851s40.851-18.325,40.851-40.851
			C296.851,392.602,280.816,384.081,256,384.081z M256,430.298c-13.427,0-24.368-10.853-24.51-24.248
			c1.312-1.771,9.691-5.629,24.51-5.629c14.819,0,23.198,3.857,24.51,5.629C280.368,419.445,269.427,430.298,256,430.298z"/>
	</g>
</g>
<g>
	<g>
		<path d="M201.532,288.681c-4.512,0-8.17,3.657-8.17,8.17v32.681c0,4.513,3.658,8.17,8.17,8.17s8.17-3.657,8.17-8.17v-32.681
			C209.702,292.338,206.044,288.681,201.532,288.681z"/>
	</g>
</g>
<g>
	<g>
		<path d="M310.468,288.681c-4.512,0-8.17,3.657-8.17,8.17v32.681c0,4.513,3.658,8.17,8.17,8.17s8.17-3.657,8.17-8.17v-32.681
			C318.638,292.338,314.98,288.681,310.468,288.681z"/>
	</g>
</g>
<g>
</g>
<g>
</g>
<g>
</g>
<g>
</g>
<g>
</g>
<g>
</g>
<g>
</g>
<g>
</g>
<g>
</g>
<g>
</g>
<g>
</g>
<g>
</g>
<g>
</g>
<g>
</g>
<g>
</g>
</svg>
