<?xml version="1.0" encoding="iso-8859-1"?>
<!-- Generator: Adobe Illustrator 19.0.0, SVG Export Plug-In . SVG Version: 6.00 Build 0)  -->
<svg version="1.1" id="Capa_1" xmlns="http://www.w3.org/2000/svg" xmlns:xlink="http://www.w3.org/1999/xlink" x="0px" y="0px"
	 viewBox="0 0 512.001 512.001" style="enable-background:new 0 0 512.001 512.001;" xml:space="preserve">
<g>
	<g>
		<path d="M461.157,276.046c-6.802-47.874-30.189-91.879-66.348-124.519c-36.09-32.576-82.202-51.285-130.626-53.184V80.986
			c18.648-3.8,32.724-20.327,32.724-40.081C296.906,18.349,278.557,0,256.001,0c-22.555,0-40.905,18.349-40.905,40.905
			c0,19.754,14.076,36.281,32.724,40.081v17.358c-48.424,1.899-94.535,20.607-130.626,53.184
			c-36.16,32.64-59.547,76.646-66.348,124.519c-13.632,2.821-23.91,14.92-23.91,29.375c0,14.451,10.272,26.548,23.896,29.374
			c13.52,95.292,91.622,169.322,188.144,177.177c2.285,0.194,4.529-0.59,6.209-2.139c1.68-1.55,2.635-3.731,2.635-6.016v-2.232
			c2.753,0.116,5.488,0.178,8.181,0.178c2.693,0,5.428-0.062,8.181-0.178v2.232c0,2.285,0.956,4.466,2.635,6.016
			c1.517,1.397,3.498,2.165,5.546,2.165c0.22,0,0.442-0.009,0.663-0.026c96.522-7.854,174.624-81.883,188.144-177.177
			c13.624-2.826,23.896-14.923,23.896-29.374C485.067,290.966,474.789,278.867,461.157,276.046z M247.82,62.72v1.32
			c-9.523-3.377-16.362-12.471-16.362-23.136c0-13.532,11.01-24.543,24.543-24.543c13.532,0,24.543,11.01,24.543,24.543
			c0,10.665-6.84,19.759-16.362,23.136v-1.32c0-4.519-3.662-8.181-8.181-8.181C251.482,54.539,247.82,58.201,247.82,62.72z
			 M256.001,114.533c94.539,0,174.032,68.544,188.535,160.891H67.466C81.969,183.077,161.463,114.533,256.001,114.533z
			 M269.293,450.093c-3.088,1.25-5.11,4.25-5.11,7.582v27.53c-2.758,0.128-5.492,0.195-8.181,0.195
			c-2.689,0-5.424-0.069-8.181-0.195v-27.53c0-3.332-2.022-6.332-5.11-7.582c-13.461-5.452-22.159-18.352-22.159-32.867
			c0-19.548,15.903-35.451,35.451-35.451s35.451,15.903,35.451,35.451C291.452,431.741,282.753,444.642,269.293,450.093z
			 M455.07,319.056h-1.197c-4.174,0-7.68,3.144-8.133,7.295c-9.566,87.743-78.378,157.242-165.197,168.386v-31.873
			c16.734-8.966,27.27-26.324,27.27-45.637c0-28.569-23.244-51.813-51.812-51.813c-28.569,0-51.813,23.244-51.813,51.813
			c0,19.313,10.536,36.671,27.27,45.637v31.873c-83.806-10.757-150.834-75.888-163.989-159.32h354.877
			c4.519,0,8.181-3.662,8.181-8.181s-3.662-8.181-8.181-8.181H56.932c-7.519,0-13.635-6.116-13.635-13.635
			s6.116-13.635,13.635-13.635h1.102c0.037,0,0.074,0,0.112,0h395.697c0.043,0,1.227,0,1.227,0c7.519,0,13.635,6.116,13.635,13.635
			S462.588,319.056,455.07,319.056z"/>
	</g>
</g>
<g>
</g>
<g>
</g>
<g>
</g>
<g>
</g>
<g>
</g>
<g>
</g>
<g>
</g>
<g>
</g>
<g>
</g>
<g>
</g>
<g>
</g>
<g>
</g>
<g>
</g>
<g>
</g>
<g>
</g>
</svg>
