<?xml version="1.0" encoding="iso-8859-1"?>
<!-- Generator: Adobe Illustrator 19.0.0, SVG Export Plug-In . SVG Version: 6.00 Build 0)  -->
<svg version="1.1" id="Capa_1" xmlns="http://www.w3.org/2000/svg" xmlns:xlink="http://www.w3.org/1999/xlink" x="0px" y="0px"
	 viewBox="0 0 512 512" style="enable-background:new 0 0 512 512;" xml:space="preserve">
<g>
	<g>
		<path d="M438.468,288.681c-4.513,0-8.17,3.657-8.17,8.17s3.657,8.17,8.17,8.17c31.535,0,57.191,25.657,57.191,57.191
			c0,4.693-0.581,9.25-1.651,13.617H315.915v-27.699c36.714-4.079,65.362-35.284,65.362-73.067v-95.319h8.17
			c4.513,0,8.17-3.657,8.17-8.17s-3.657-8.17-8.17-8.17h-49.021c-22.526,0-40.851,18.325-40.851,40.851
			c0,4.513,3.657,8.17,8.17,8.17s8.17-3.657,8.17-8.17c0-13.515,10.996-24.511,24.511-24.511h24.511v95.319
			c0,31.535-25.657,57.191-57.191,57.191H89.872c-31.535,0-57.192-25.657-57.192-57.191V92.821
			c78.808,4.257,141.617,69.71,141.617,149.562v32.681c0,13.515,10.996,24.511,24.511,24.511h92.596
			c13.515,0,24.511-10.996,24.511-24.511v-38.128c0-4.513-3.657-8.17-8.17-8.17s-8.17,3.657-8.17,8.17v38.128
			c0,4.506-3.665,8.17-8.17,8.17h-92.596c-4.506,0-8.17-3.665-8.17-8.17v-32.681c0-91.603-74.524-166.128-166.128-166.128H8.17
			c-4.513,0-8.17,3.657-8.17,8.17s3.657,8.17,8.17,8.17h8.17v182.468c0,37.783,28.648,68.988,65.362,73.067v71.274H8.17
			c-4.513,0-8.17,3.657-8.17,8.17s3.657,8.17,8.17,8.17h430.298c40.546,0,73.532-32.986,73.532-73.532
			S479.014,288.681,438.468,288.681z M299.574,419.404H98.043V392.17h201.532V419.404z M299.574,375.83H98.043v-27.234h201.532
			V375.83z M438.468,419.404H315.915V392.17H487.16C477.078,408.496,459.025,419.404,438.468,419.404z"/>
	</g>
</g>
<g>
</g>
<g>
</g>
<g>
</g>
<g>
</g>
<g>
</g>
<g>
</g>
<g>
</g>
<g>
</g>
<g>
</g>
<g>
</g>
<g>
</g>
<g>
</g>
<g>
</g>
<g>
</g>
<g>
</g>
</svg>
