<?xml version="1.0" encoding="iso-8859-1"?>
<!-- Generator: Adobe Illustrator 19.0.0, SVG Export Plug-In . SVG Version: 6.00 Build 0)  -->
<svg version="1.1" id="Capa_1" xmlns="http://www.w3.org/2000/svg" xmlns:xlink="http://www.w3.org/1999/xlink" x="0px" y="0px"
	 viewBox="0 0 511.999 511.999" style="enable-background:new 0 0 511.999 511.999;" xml:space="preserve">
<g>
	<g>
		<path d="M511.376,105.182c-19.75-47.679-56.883-84.811-104.559-104.559c-3.052-1.267-6.567-0.566-8.904,1.77l-23.058,23.058
			c-0.022,0.022-65.233,65.233-65.233,65.233c-2.536,2.536-3.121,6.43-1.443,9.601l22.666,42.816l-41.2-21.811
			c-3.167-1.675-7.062-1.092-9.601,1.443l-69.718,69.718c-2.093,2.094-2.89,5.154-2.084,8.002c0.806,2.849,3.088,5.038,5.969,5.723
			l35.551,8.465l8.465,35.551c0.714,3,3.057,5.341,6.056,6.056l35.547,8.463l8.464,35.548c0.685,2.879,2.875,5.162,5.722,5.969
			c0.735,0.207,1.483,0.308,2.224,0.308c2.137,0,4.224-0.84,5.779-2.392l69.719-69.718c2.536-2.536,3.121-6.43,1.442-9.601
			l-22.667-42.816l41.202,21.812c1.206,0.638,2.519,0.949,3.82,0.949c2.117,0,4.208-0.823,5.78-2.392l65.203-65.203
			c0.036-0.036,23.089-23.088,23.089-23.088C511.943,111.749,512.641,108.235,511.376,105.182z M375.916,227.136l-55.112,55.114
			l-6.241-26.215c-0.714-2.999-3.057-5.341-6.056-6.056l-35.548-8.463l-8.465-35.55c-0.715-2.999-3.057-5.341-6.056-6.056
			l-26.22-6.243l55.114-55.114l57.919,30.663L375.916,227.136z M414.027,186.556l-57.92-30.663l-30.663-57.92l56.988-56.988
			c39.605,17.811,70.772,48.98,88.583,88.583L414.027,186.556z M483.296,117.286c-18.916-38.775-49.808-69.667-88.583-88.582
			l10.834-10.833c39.6,17.81,70.772,48.982,88.582,88.582L483.296,117.286z"/>
	</g>
</g>
<g>
	<g>
		<path d="M293.379,327.286l-9.629-40.441c-0.714-2.999-3.057-5.341-6.056-6.056l-35.547-8.463l-8.465-35.55
			c-0.715-2.999-3.056-5.341-6.056-6.056l-40.442-9.631c-2.757-0.66-5.664,0.163-7.67,2.17l-54.312,54.312
			c-2.536,2.536-3.122,6.43-1.443,9.599l21.812,41.201l-42.815-22.667c-3.171-1.68-7.063-1.093-9.6,1.442L25.48,374.827
			c-0.032,0.032-23.086,23.086-23.086,23.086c-2.337,2.338-3.036,5.851-1.771,8.904c19.748,47.677,56.881,84.81,104.559,104.56
			c1.011,0.419,2.072,0.622,3.125,0.622c2.126,0,4.216-0.83,5.779-2.392l90.762-90.762c2.536-2.536,3.122-6.43,1.443-9.601
			l-21.811-41.198l42.815,22.666c1.207,0.638,2.519,0.949,3.82,0.949c2.118,0,4.209-0.822,5.78-2.392l54.313-54.312
			C293.215,332.95,294.037,330.047,293.379,327.286z M189.027,411.556l-59.455,59.455c-8.282-3.735-16.325-8.12-23.963-13.092
			c-3.781-2.462-8.841-1.391-11.304,2.39c-2.462,3.782-1.391,8.843,2.39,11.305c6.616,4.306,13.512,8.206,20.596,11.676
			l-10.838,10.838c-39.602-17.811-70.775-48.983-88.583-88.582l10.833-10.833c10.224,20.965,23.958,39.656,40.964,55.669
			c1.577,1.486,3.591,2.222,5.599,2.222c2.173,0,4.342-0.862,5.949-2.569c3.094-3.286,2.938-8.456-0.346-11.549
			c-16.925-15.938-30.321-34.779-39.885-56.055l59.459-59.459l57.92,30.664L189.027,411.556z M229.607,373.446l-57.92-30.663
			l-30.663-57.92l46.817-46.818l31.11,7.409l8.465,35.551c0.715,3,3.057,5.341,6.056,6.056l35.546,8.463l7.407,31.107
			L229.607,373.446z"/>
	</g>
</g>
<g>
	<g>
		<path d="M360.535,361.915l-15.408-15.406c-3.19-3.19-8.363-3.191-11.554,0.001c-3.191,3.191-3.191,8.364,0.001,11.554
			l15.407,15.406c1.595,1.595,3.686,2.392,5.777,2.392c2.091,0,4.182-0.797,5.778-2.393
			C363.727,370.278,363.727,365.105,360.535,361.915z"/>
	</g>
</g>
<g>
	<g>
		<path d="M377.513,312.278l-21.704-1.899c-4.474-0.403-8.458,2.93-8.851,7.427c-0.392,4.495,2.931,8.458,7.427,8.851l21.704,1.899
			c0.242,0.022,0.481,0.031,0.721,0.031c4.191,0,7.757-3.205,8.13-7.459C385.333,316.635,382.008,312.672,377.513,312.278z"/>
	</g>
</g>
<g>
	<g>
		<path d="M315.622,389.026l-1.899-21.705c-0.393-4.495-4.355-7.811-8.851-7.427c-4.496,0.393-7.82,4.356-7.427,8.851l1.899,21.704
			c0.373,4.253,3.939,7.459,8.13,7.459c0.239,0,0.479-0.01,0.721-0.031C312.69,397.484,316.015,393.521,315.622,389.026z"/>
	</g>
</g>
<g>
	<g>
		<path d="M167.96,169.343l-15.406-15.407c-3.19-3.191-8.363-3.192-11.554-0.001c-3.191,3.192-3.191,8.364,0,11.554l15.406,15.407
			c1.595,1.596,3.686,2.393,5.777,2.393c2.09,0,4.182-0.797,5.777-2.392C171.151,177.705,171.151,172.533,167.96,169.343z"/>
	</g>
</g>
<g>
	<g>
		<path d="M204.091,158.662l-1.899-21.704c-0.393-4.495-4.359-7.819-8.851-7.427c-4.495,0.393-7.82,4.356-7.427,8.851l1.898,21.703
			c0.372,4.253,3.939,7.459,8.13,7.459c0.239,0,0.479-0.01,0.722-0.031C201.158,167.12,204.484,163.157,204.091,158.662z"/>
	</g>
</g>
<g>
	<g>
		<path d="M147.15,200.745l-21.704-1.899c-4.498-0.406-8.459,2.931-8.851,7.427c-0.394,4.496,2.931,8.459,7.426,8.852l21.704,1.899
			c0.243,0.022,0.483,0.031,0.722,0.031c4.19,0,7.757-3.205,8.13-7.459C154.971,205.102,151.646,201.139,147.15,200.745z"/>
	</g>
</g>
<g>
</g>
<g>
</g>
<g>
</g>
<g>
</g>
<g>
</g>
<g>
</g>
<g>
</g>
<g>
</g>
<g>
</g>
<g>
</g>
<g>
</g>
<g>
</g>
<g>
</g>
<g>
</g>
<g>
</g>
</svg>
