<?xml version="1.0" encoding="iso-8859-1"?>
<!-- Generator: Adobe Illustrator 19.0.0, SVG Export Plug-In . SVG Version: 6.00 Build 0)  -->
<svg version="1.1" id="Capa_1" xmlns="http://www.w3.org/2000/svg" xmlns:xlink="http://www.w3.org/1999/xlink" x="0px" y="0px"
	 viewBox="0 0 511.987 511.987" style="enable-background:new 0 0 511.987 511.987;" xml:space="preserve">
<g>
	<g>
		<path d="M61.364,168.679c-3.191-3.19-8.364-3.19-11.554,0l-7.703,7.703c-3.191,3.192-3.191,8.364,0,11.555
			c1.595,1.595,3.686,2.392,5.777,2.392c2.091,0,4.181-0.797,5.777-2.392l7.703-7.703C64.554,177.042,64.554,171.87,61.364,168.679z
			"/>
	</g>
</g>
<g>
	<g>
		<path d="M61.364,283.09c-3.191-3.192-8.364-3.191-11.554-0.001l-7.703,7.702c-3.191,3.191-3.192,8.364-0.001,11.554
			c1.595,1.596,3.686,2.393,5.777,2.393c2.091,0,4.181-0.797,5.777-2.392l7.703-7.702C64.553,291.453,64.554,286.28,61.364,283.09z"
			/>
	</g>
</g>
<g>
	<g>
		<path d="M197.538,185.048c-3.191-3.192-8.364-3.191-11.555-0.001l-7.703,7.702c-3.191,3.19-3.191,8.363,0,11.554
			c1.596,1.596,3.686,2.393,5.778,2.393s4.182-0.797,5.777-2.392l7.703-7.702C200.728,193.411,200.728,188.238,197.538,185.048z"/>
	</g>
</g>
<g>
	<g>
		<path d="M200.85,101.781l-7.703-7.702c-3.191-3.19-8.364-3.191-11.554,0.001c-3.191,3.191-3.19,8.364,0.001,11.554l7.703,7.702
			c1.595,1.595,3.685,2.392,5.776,2.392c2.091,0,4.182-0.797,5.778-2.393C204.042,110.144,204.041,104.97,200.85,101.781z"/>
	</g>
</g>
<g>
	<g>
		<path d="M333.706,131.683c-3.191-3.19-8.363-3.191-11.555,0.001l-7.703,7.703c-3.191,3.191-3.19,8.364,0,11.554
			c1.596,1.595,3.686,2.392,5.777,2.392c2.091,0,4.182-0.797,5.778-2.393l7.703-7.703
			C336.897,140.046,336.896,134.872,333.706,131.683z"/>
	</g>
</g>
<g>
	<g>
		<path d="M333.707,254.249l-7.703-7.703c-3.191-3.191-8.364-3.192-11.555-0.001c-3.191,3.191-3.191,8.364,0,11.554l7.703,7.703
			c1.596,1.596,3.686,2.393,5.778,2.393s4.182-0.797,5.777-2.392C336.897,262.612,336.897,257.439,333.707,254.249z"/>
	</g>
</g>
<g>
	<g>
		<path d="M469.876,214.847l-7.703-7.703c-3.192-3.192-8.364-3.191-11.555-0.001c-3.191,3.191-3.191,8.364,0,11.554l7.703,7.703
			c1.596,1.596,3.686,2.393,5.778,2.393s4.182-0.797,5.777-2.392C473.066,223.21,473.066,218.037,469.876,214.847z"/>
	</g>
</g>
<g>
	<g>
		<path d="M469.877,368.185l-7.703-7.703c-3.192-3.192-8.364-3.191-11.555-0.001s-3.191,8.363,0,11.554l7.703,7.703
			c1.596,1.596,3.686,2.393,5.778,2.393s4.182-0.797,5.777-2.392C473.067,376.548,473.067,371.375,469.877,368.185z"/>
	</g>
</g>
<g>
	<g>
		<path d="M469.877,283.8c-3.192-3.19-8.363-3.191-11.555,0.001l-7.703,7.703c-3.191,3.19-3.191,8.364,0,11.554
			c1.596,1.595,3.686,2.392,5.777,2.392c2.091,0,4.182-0.797,5.778-2.393l7.703-7.703C473.067,292.163,473.066,286.99,469.877,283.8
			z"/>
	</g>
</g>
<g>
	<g>
		<path d="M128.822,456.071c-3.191-3.19-8.364-3.19-11.554,0l-7.703,7.703c-3.191,3.192-3.191,8.364,0,11.555
			c1.595,1.595,3.686,2.392,5.777,2.392c2.091,0,4.182-0.797,5.777-2.392l7.703-7.703
			C132.013,464.434,132.013,459.262,128.822,456.071z"/>
	</g>
</g>
<g>
	<g>
		<path d="M401.161,456.072c-3.191-3.19-8.364-3.19-11.554,0l-7.703,7.703c-3.191,3.192-3.191,8.364,0,11.555
			c1.595,1.595,3.686,2.392,5.777,2.392s4.181-0.797,5.777-2.392l7.703-7.703C404.352,464.435,404.352,459.263,401.161,456.072z"/>
	</g>
</g>
<g>
	<g>
		<path d="M64.567,398.146c-3.192-3.19-8.363-3.191-11.555,0.001l-7.703,7.703c-3.191,3.191-3.19,8.364,0,11.554
			c1.595,1.595,3.685,2.392,5.777,2.392c2.091,0,4.182-0.797,5.778-2.393l7.703-7.703C67.758,406.509,67.757,401.335,64.567,398.146
			z"/>
	</g>
</g>
<g>
	<g>
		<path d="M349.037,433.266h-10.894c-4.512,0-8.17,3.657-8.17,8.17c0,4.513,3.658,8.17,8.17,8.17h10.894
			c4.512,0,8.17-3.657,8.17-8.17C357.207,436.923,353.549,433.266,349.037,433.266z"/>
	</g>
</g>
<g>
	<g>
		<path d="M314.416,68.883l-7.703-7.703c-3.192-3.191-8.364-3.192-11.555-0.001c-3.191,3.191-3.191,8.364,0,11.554l7.703,7.703
			c1.596,1.596,3.686,2.393,5.778,2.393c2.09,0,4.182-0.797,5.777-2.392C317.606,77.246,317.606,72.073,314.416,68.883z"/>
	</g>
</g>
<g>
	<g>
		<path d="M197.539,331.003l-7.703-7.703c-3.191-3.19-8.364-3.19-11.554,0c-3.191,3.192-3.191,8.364,0,11.555l7.703,7.703
			c1.595,1.595,3.686,2.392,5.777,2.392s4.182-0.797,5.777-2.392C200.729,339.366,200.729,334.194,197.539,331.003z"/>
	</g>
</g>
<g>
	<g>
		<path d="M194.064,399.344c-3.191-3.19-8.364-3.19-11.554,0l-7.703,7.703c-3.192,3.191-3.192,8.363,0,11.555
			c1.595,1.595,3.686,2.392,5.777,2.392c2.091,0,4.182-0.797,5.777-2.392l7.703-7.703
			C197.254,407.707,197.254,402.535,194.064,399.344z"/>
	</g>
</g>
<g>
	<g>
		<path d="M502.381,178.433c2.732-6.02,4.16-12.546,4.16-19.115c0-12.202-4.943-24.137-13.559-32.74
			c-8.617-8.616-20.55-13.558-32.738-13.558c-12.176,0-24.106,4.94-32.738,13.558c-8.617,8.617-13.559,20.55-13.559,32.74
			c0,6.562,1.429,13.088,4.162,19.109c-2.733,6.001-4.162,12.549-4.162,19.18c0,6.627,1.425,13.168,4.149,19.164
			c-2.724,5.996-4.149,12.541-4.149,19.173c0,6.624,1.425,13.165,4.148,19.159c-2.724,5.987-4.148,12.525-4.148,19.154
			c0,6.631,1.425,13.177,4.149,19.173c-2.724,5.995-4.149,12.536-4.149,19.163c0,6.631,1.425,13.177,4.149,19.173
			c-2.724,5.995-4.149,12.536-4.149,19.162c0,6.643,1.427,13.191,4.155,19.184c-2.729,5.991-4.155,12.536-4.155,19.173
			c0,3.896,0.481,7.734,1.435,11.461c-1.307,1.945-2.468,3.991-3.467,6.113c-0.928,1.955-1.718,3.974-2.362,6.039
			c-1.979,0.909-3.885,1.95-5.692,3.114c-1.803,1.157-3.515,2.425-5.121,3.793c-2.131-0.283-4.286-0.414-6.429-0.402
			c-2.162,0.015-4.313,0.178-6.429,0.486c-1.633-1.358-3.367-2.611-5.191-3.748c-1.834-1.137-3.748-2.148-5.721-3.023
			c-0.671-2.059-1.483-4.062-2.425-5.984c-1.012-2.078-2.177-4.076-3.478-5.974c0.868-3.577,1.307-7.256,1.307-10.983
			c0-6.617-1.418-13.15-4.132-19.138c2.714-5.981,4.132-12.517,4.132-19.142c0-6.622-1.418-13.158-4.132-19.147
			c2.712-5.982,4.132-12.518,4.132-19.143s-1.419-13.162-4.132-19.143c2.714-5.988,4.132-12.525,4.132-19.148
			c0-6.625-1.418-13.159-4.131-19.139c2.712-5.983,4.131-12.52,4.131-19.151c0-6.617-1.418-13.15-4.132-19.138
			c2.714-5.982,4.132-12.517,4.132-19.143c0-6.627-1.418-13.161-4.132-19.142c2.714-5.988,4.132-12.525,4.132-19.148
			c0-6.625-1.419-13.162-4.132-19.143c2.714-5.988,4.132-12.525,4.132-19.148c0-9.338-2.836-18.452-8.057-26.103
			c2.62-10.467,1.519-21.407-3.222-31.247c-4.81-9.979-12.801-17.722-22.778-22.172c-3.299-10.401-10.084-19.205-19.446-25.109
			c-9.396-5.916-20.311-8.219-31.153-6.658C277.385,3.83,266.952,0,255.887,0c-11.127,0.011-21.569,3.868-29.9,10.948
			c-10.849-1.525-21.752,0.809-31.138,6.749c-9.351,5.925-16.115,14.752-19.38,25.167c-9.968,4.473-17.938,12.238-22.716,22.233
			c-4.706,9.85-5.779,20.783-3.138,31.23c-5.191,7.641-8.009,16.724-8.009,26.019c0,6.627,1.421,13.164,4.138,19.148
			c-2.718,5.978-4.138,12.512-4.138,19.143s1.421,13.166,4.138,19.142c-2.718,5.985-4.138,12.521-4.138,19.148
			c0,6.622,1.421,13.155,4.138,19.139c-2.717,5.976-4.138,12.512-4.138,19.142c0,6.649,1.43,13.207,4.166,19.208
			c-1.394,3.899,0.363,8.298,4.182,10.118c4.072,1.939,8.949,0.212,10.89-3.861c0.424-0.889,0.787-1.587,1.141-2.194
			c1.485-2.543,1.487-5.688,0.005-8.231c-2.645-4.544-4.044-9.744-4.044-15.041c0-5.298,1.397-10.493,4.039-15.023
			c1.483-2.541,1.485-5.685,0.003-8.228c-2.645-4.544-4.044-9.741-4.044-15.031c0-5.295,1.399-10.496,4.044-15.041
			c1.48-2.544,1.479-5.686-0.003-8.228c-2.643-4.53-4.039-9.725-4.039-15.022c0-5.297,1.397-10.493,4.039-15.023
			c1.483-2.541,1.485-5.685,0.003-8.228c-2.645-4.544-4.044-9.744-4.044-15.041c0-7.001,2.471-13.815,6.958-19.186
			c1.857-2.223,2.398-5.264,1.422-7.992c-2.716-7.584-2.3-15.762,1.171-23.026c3.518-7.356,9.709-12.847,17.435-15.457
			c2.738-0.926,4.783-3.228,5.379-6.056c1.68-7.972,6.399-14.766,13.28-19.128c6.905-4.37,15.089-5.728,23.04-3.818
			c2.806,0.674,5.757-0.184,7.767-2.253c5.684-5.854,13.304-9.082,21.456-9.091c8.182,0,15.8,3.209,21.487,9.038
			c2.017,2.069,4.975,2.918,7.781,2.233c7.945-1.936,16.127-0.606,23.034,3.744c6.893,4.348,11.632,11.13,13.342,19.098
			c0.606,2.82,2.654,5.112,5.389,6.031c7.733,2.595,13.943,8.071,17.483,15.419c3.495,7.253,3.93,15.433,1.23,23.034
			c-0.97,2.729-0.422,5.767,1.439,7.986c4.507,5.374,6.989,12.205,6.989,19.237c0,5.293-1.397,10.498-4.038,15.049
			c-1.473,2.538-1.472,5.671,0.003,8.207c2.64,4.54,4.035,9.738,4.035,15.034c0,5.293-1.397,10.498-4.038,15.049
			c-1.473,2.538-1.472,5.671,0.003,8.208c2.638,4.538,4.034,9.737,4.034,15.032c0,5.295-1.396,10.495-4.035,15.035
			c-1.475,2.536-1.476,5.669-0.003,8.207c2.642,4.552,4.038,9.752,4.038,15.04c0,5.302-1.396,10.505-4.035,15.045
			c-1.476,2.539-1.476,5.674,0,8.214c2.638,4.538,4.034,9.737,4.034,15.032c0,5.293-1.397,10.498-4.038,15.049
			c-1.473,2.538-1.472,5.671,0.003,8.207c2.639,4.54,4.035,9.738,4.035,15.034s-1.396,10.494-4.035,15.034
			c-1.475,2.536-1.476,5.669-0.003,8.207c2.642,4.552,4.038,9.756,4.038,15.048c0,5.295-1.396,10.494-4.035,15.034
			c-1.475,2.536-1.476,5.669-0.003,8.207c2.642,4.552,4.038,9.752,4.038,15.04c0,3.415-0.564,6.758-1.677,9.938
			c-0.954,2.727-0.398,5.754,1.464,7.963c1.587,1.884,2.943,3.972,4.043,6.23c1.037,2.113,1.826,4.372,2.346,6.708
			c0.623,2.8,2.669,5.068,5.39,5.975c2.268,0.756,4.449,1.779,6.464,3.027c2.02,1.259,3.877,2.743,5.518,4.41
			c1.555,1.578,3.66,2.437,5.822,2.437c0.659,0,1.324-0.08,1.979-0.244c2.267-0.566,4.636-0.862,7.045-0.878
			c2.378-0.027,4.739,0.248,7.045,0.788c2.811,0.66,5.762-0.216,7.759-2.301c1.597-1.666,3.43-3.167,5.466-4.472
			c1.975-1.272,4.128-2.316,6.399-3.104c2.719-0.942,4.742-3.246,5.325-6.064c0.48-2.319,1.24-4.582,2.268-6.749
			c1.076-2.288,2.425-4.417,4.009-6.33c1.851-2.234,2.377-5.283,1.383-8.009c-1.19-3.265-1.793-6.704-1.793-10.22
			c0-5.3,1.404-10.506,4.059-15.052c1.487-2.546,1.487-5.695,0-8.24c-2.656-4.547-4.059-9.756-4.059-15.064
			c0-5.29,1.402-10.495,4.055-15.051c1.479-2.54,1.479-5.681,0-8.221c-2.653-4.557-4.055-9.765-4.055-15.061
			c0-5.291,1.402-10.496,4.055-15.052c1.479-2.54,1.479-5.681,0-8.221c-2.653-4.557-4.055-9.764-4.055-15.061
			c0-5.292,1.401-10.49,4.051-15.035c1.483-2.542,1.484-5.684,0.003-8.227c-2.653-4.557-4.055-9.761-4.055-15.051
			c0-5.298,1.402-10.506,4.055-15.061c1.479-2.54,1.479-5.68,0-8.22c-2.653-4.558-4.055-9.764-4.055-15.054
			c0-5.289,1.405-10.496,4.062-15.054c1.476-2.533,1.483-5.662,0.016-8.202c-2.668-4.619-4.079-9.818-4.079-15.034
			c0-7.887,3.198-15.609,8.768-21.179c5.586-5.579,13.31-8.778,21.189-8.778c7.888,0,15.609,3.198,21.189,8.778
			c5.573,5.563,8.768,13.282,8.768,21.179c0,5.225-1.409,10.424-4.075,15.037c-1.467,2.538-1.461,5.669,0.015,8.202
			c2.656,4.558,4.061,9.763,4.061,15.051c0,5.307-1.4,10.508-4.048,15.044c-1.487,2.546-1.487,5.696,0,8.241
			c2.648,4.533,4.048,9.737,4.048,15.051c0,5.303-1.398,10.508-4.043,15.051c-1.48,2.543-1.479,5.686,0.003,8.228
			c2.643,4.53,4.039,9.729,4.039,15.034c0,5.311-1.398,10.519-4.043,15.061c-1.479,2.54-1.479,5.681,0,8.221
			c2.645,4.543,4.043,9.748,4.043,15.052c0,5.311-1.398,10.519-4.043,15.061c-1.479,2.54-1.479,5.681,0,8.221
			c2.645,4.543,4.043,9.748,4.043,15.051c0,5.321-1.4,10.53-4.048,15.063c-1.485,2.543-1.487,5.688-0.005,8.232
			c2.653,4.556,4.053,9.764,4.053,15.061c0,6.97-2.443,13.759-6.879,19.113c-1.849,2.232-2.377,5.277-1.388,8
			c1.041,2.87,1.636,5.887,1.77,8.97c0.195,4.509,4.023,8.006,8.514,7.811c4.508-0.195,8.005-4.007,7.811-8.514
			c-0.138-3.218-0.607-6.395-1.394-9.489c5.125-7.61,7.908-16.646,7.908-25.89c0-6.63-1.424-13.175-4.147-19.168
			c2.723-5.985,4.147-12.535,4.147-19.188c0-6.634-1.422-13.177-4.14-19.162c2.718-5.987,4.14-12.533,4.14-19.173
			c0-6.635-1.422-13.177-4.14-19.163c2.718-5.987,4.14-12.533,4.14-19.173c0-6.638-1.42-13.176-4.138-19.154
			c2.718-5.985,4.138-12.525,4.138-19.159c0-6.645-1.424-13.189-4.145-19.173c2.722-5.983,4.145-12.524,4.145-19.164
			C506.541,190.978,505.113,184.432,502.381,178.433z"/>
	</g>
</g>
<g>
	<g>
		<path d="M485.221,449.696c-3.003-3.357-8.168-3.666-11.542-0.671c-2.973,2.641-6.391,4.635-10.164,5.929
			c-2.731,0.938-4.765,3.248-5.348,6.076c-1.648,7.987-6.332,14.803-13.189,19.192c-6.884,4.404-15.056,5.799-23.009,3.929
			c-2.807-0.658-5.76,0.211-7.762,2.292c-5.658,5.89-13.263,9.161-21.414,9.212c-0.063,0-0.125,0.001-0.187,0.001
			c-8.086,0-15.659-3.167-21.343-8.93c-2.026-2.057-4.987-2.888-7.787-2.194c-7.941,1.974-16.131,0.683-23.066-3.64
			c-6.917-4.299-11.688-11.053-13.435-19.016c-0.619-2.821-2.681-5.107-5.424-6.01c-7.743-2.551-13.98-7.994-17.552-15.312
			c-3.534-7.267-4.009-15.459-1.338-23.07c0.96-2.735,0.399-5.775-1.476-7.987c-4.561-5.383-7.072-12.247-7.072-19.326
			c0-5.289,1.399-10.486,4.044-15.03c1.48-2.543,1.479-5.685-0.003-8.228c-2.643-4.531-4.039-9.726-4.039-15.023
			c0-5.295,1.399-10.496,4.044-15.04c1.48-2.543,1.479-5.685-0.003-8.228c-2.643-4.531-4.039-9.726-4.039-15.023
			c0-5.282,1.399-10.481,4.046-15.034c1.475-2.536,1.476-5.669,0.003-8.207c-2.649-4.564-4.049-9.769-4.049-15.049
			c0-5.282,1.399-10.481,4.046-15.032c1.476-2.539,1.476-5.674,0-8.214c-2.647-4.553-4.046-9.755-4.046-15.045
			s1.399-10.486,4.044-15.03c1.48-2.543,1.479-5.685-0.003-8.228c-2.643-4.531-4.039-9.726-4.039-15.024
			c0-5.282,1.399-10.481,4.046-15.032c1.475-2.537,1.476-5.67,0.003-8.208c-2.649-4.564-4.049-9.769-4.049-15.049
			c0-5.282,1.399-10.481,4.046-15.034c1.475-2.536,1.476-5.669,0.003-8.207c-2.649-4.564-4.049-9.769-4.049-15.049
			c0-3.449,0.581-6.824,1.726-10.032c0.975-2.732,0.428-5.776-1.436-7.997c-1.592-1.897-2.947-3.998-4.025-6.241
			c-1.032-2.148-1.808-4.412-2.307-6.732c-0.606-2.815-2.648-5.103-5.377-6.022c-2.248-0.758-4.424-1.792-6.446-3.06
			c-2.008-1.266-3.859-2.757-5.5-4.435c-2.014-2.06-4.969-2.905-7.765-2.224c-4.605,1.114-9.555,1.1-14.108,0.015
			c-2.799-0.667-5.741,0.185-7.747,2.245c-1.653,1.696-3.498,3.195-5.47,4.446c-2.026,1.278-4.198,2.317-6.459,3.087
			c-2.728,0.93-4.764,3.23-5.357,6.05c-0.479,2.279-1.25,4.539-2.286,6.713c-1.088,2.279-2.44,4.391-4.018,6.281
			c-1.856,2.222-2.398,5.262-1.423,7.988c1.158,3.238,1.745,6.636,1.745,10.103c0,5.293-1.397,10.498-4.038,15.049
			c-1.473,2.538-1.472,5.671,0.003,8.207c2.64,4.54,4.035,9.738,4.035,15.034s-1.395,10.494-4.034,15.032
			c-1.475,2.537-1.476,5.669-0.004,8.207c2.642,4.553,4.038,9.758,4.038,15.051c0,5.288-1.397,10.488-4.038,15.041
			c-1.473,2.538-1.472,5.671,0.003,8.207c2.64,4.54,4.035,9.738,4.035,15.034c0,5.293-1.397,10.498-4.038,15.049
			c-1.473,2.538-1.472,5.671,0.003,8.207c2.64,4.54,4.035,9.738,4.035,15.033c0,5.295-1.395,10.494-4.035,15.034
			c-1.475,2.536-1.476,5.669-0.003,8.207c2.642,4.552,4.038,9.756,4.038,15.049c0,5.295-1.395,10.494-4.035,15.034
			c-1.475,2.536-1.476,5.669-0.003,8.207c2.642,4.552,4.038,9.752,4.038,15.039c0,5.293-1.397,10.498-4.038,15.049
			c-1.473,2.538-1.472,5.671,0.003,8.207c2.64,4.54,4.035,9.738,4.035,15.034c0,7.093-2.526,13.98-7.115,19.392
			c-1.87,2.206-2.435,5.238-1.484,7.969c2.656,7.628,2.16,15.819-1.392,23.056c-3.599,7.324-9.85,12.75-17.602,15.283
			c-2.743,0.895-4.811,3.173-5.438,5.99c-1.773,7.962-6.564,14.706-13.488,18.989c-6.948,4.295-15.142,5.566-23.077,3.577
			c-2.8-0.704-5.755,0.125-7.786,2.171c-5.674,5.72-13.229,8.871-21.27,8.871h-0.285c-8.157-0.074-15.752-3.366-21.388-9.269
			c-1.995-2.09-4.945-2.972-7.761-2.316c-7.961,1.85-16.127,0.434-22.995-3.988c-6.853-4.414-11.519-11.243-13.139-19.232
			c-0.574-2.83-2.599-5.147-5.327-6.095c-7.707-2.677-13.854-8.215-17.31-15.599c-3.412-7.28-3.771-15.447-1.01-22.995
			c0.997-2.726,0.473-5.775-1.375-8.011c-4.413-5.34-6.843-12.111-6.843-19.067c0-5.3,1.404-10.506,4.06-15.053
			c1.486-2.544,1.487-5.691,0.003-8.236c-2.658-4.56-4.062-9.769-4.062-15.068c0-5.298,1.402-10.507,4.055-15.063
			c1.479-2.54,1.479-5.681,0-8.221c-2.653-4.557-4.055-9.764-4.055-15.061c0-5.296,1.402-10.506,4.055-15.061
			c1.479-2.54,1.479-5.681,0-8.221c-2.653-4.557-4.055-9.765-4.055-15.063s1.402-10.506,4.055-15.061
			c1.479-2.54,1.479-5.681,0-8.221c-2.653-4.557-4.055-9.761-4.055-15.051c0-5.307,1.404-10.517,4.059-15.064
			c1.487-2.546,1.487-5.695,0-8.24c-2.656-4.547-4.059-9.752-4.059-15.053c0-5.247,1.385-10.419,4.004-14.954
			c1.455-2.52,1.461-5.622,0.016-8.147c-2.631-4.594-4.02-9.756-4.02-14.93c0-7.879,3.199-15.602,8.768-21.179
			c5.586-5.579,13.31-8.778,21.189-8.778c7.888,0,15.609,3.198,21.185,8.774c5.575,5.574,8.773,13.296,8.773,21.184
			c0,5.181-1.389,10.345-4.018,14.933c-1.446,2.524-1.44,5.628,0.015,8.147c2.618,4.533,4.002,9.703,4.002,14.95
			c0,5.314-1.4,10.519-4.048,15.052c-1.487,2.547-1.487,5.696,0,8.242c2.648,4.533,4.048,9.741,4.048,15.063
			c0,5.306-1.4,10.508-4.048,15.041c-1.487,2.547-1.487,5.696,0,8.242c2.648,4.533,4.048,9.737,4.048,15.051
			c0,5.314-1.4,10.519-4.048,15.052c-1.487,2.547-1.487,5.696,0,8.242c2.648,4.533,4.048,9.737,4.048,15.051
			s-1.4,10.518-4.048,15.051c-1.487,2.547-1.487,5.696,0,8.242c2.648,4.533,4.048,9.738,4.048,15.052
			c0,5.295-1.403,10.51-4.058,15.079c-1.475,2.539-1.475,5.676,0.003,8.214c2.653,4.558,4.055,9.766,4.055,15.064
			c0,3.542-0.61,7.009-1.814,10.302c-0.994,2.721-0.473,5.765,1.37,8.001c1.576,1.912,2.929,4.058,4.009,6.351
			c1.023,2.192,1.777,4.463,2.239,6.749c0.573,2.834,2.602,5.154,5.335,6.1c2.219,0.769,4.372,1.82,6.412,3.134
			c1.964,1.259,3.791,2.765,5.43,4.474c1.992,2.078,4.934,2.95,7.738,2.305c2.291-0.529,4.668-0.785,7.069-0.759
			c2.386,0.016,4.753,0.315,7.033,0.887c2.795,0.7,5.751-0.119,7.782-2.162c1.636-1.646,3.506-3.128,5.518-4.383
			c2.059-1.267,4.238-2.282,6.476-3.016c2.73-0.895,4.789-3.159,5.423-5.961c0.528-2.334,1.327-4.601,2.374-6.735
			c1.081-2.203,2.445-4.289,4.055-6.198c1.855-2.202,2.415-5.218,1.473-7.938c-1.104-3.189-1.663-6.511-1.663-9.875
			c0-5.298,1.397-10.493,4.039-15.023c1.483-2.542,1.485-5.685,0.003-8.228c-2.645-4.544-4.044-9.744-4.044-15.041
			c0-5.274,1.401-10.473,4.049-15.039c1.473-2.538,1.472-5.671-0.003-8.207c-2.647-4.554-4.046-9.752-4.046-15.034
			c0-5.295,1.399-10.497,4.044-15.041c1.48-2.543,1.479-5.685-0.003-8.227c-0.358-0.613-0.721-1.313-1.144-2.199
			c-1.941-4.073-6.817-5.801-10.89-3.861c-3.819,1.82-5.576,6.22-4.181,10.119c-2.735,6-4.166,12.558-4.166,19.208
			c0,6.618,1.423,13.153,4.143,19.142c-2.72,5.996-4.143,12.53-4.143,19.137c0,6.627,1.422,13.164,4.138,19.148
			c-2.718,5.978-4.138,12.512-4.138,19.143c0,3.677,0.432,7.319,1.291,10.877c-1.31,1.898-2.476,3.884-3.485,5.94
			c-0.948,1.932-1.761,3.933-2.436,5.982c-1.972,0.869-3.899,1.882-5.77,3.035c-1.809,1.128-3.532,2.367-5.152,3.704
			c-2.129-0.315-4.281-0.481-6.429-0.497c-2.157-0.016-4.308,0.103-6.437,0.379c-1.62-1.39-3.329-2.664-5.108-3.804
			c-1.83-1.179-3.733-2.226-5.69-3.131c-0.632-2.045-1.412-4.063-2.336-6.042c-1.012-2.149-2.175-4.207-3.478-6.154
			c0.967-3.762,1.456-7.636,1.456-11.565c0-6.633-1.425-13.179-4.15-19.176c2.726-6.003,4.15-12.551,4.15-19.18
			c0-6.645-1.424-13.19-4.145-19.174c2.722-5.983,4.145-12.528,4.145-19.173s-1.424-13.189-4.145-19.173
			c2.722-5.983,4.145-12.529,4.145-19.174c0-6.645-1.423-13.189-4.145-19.173c2.722-5.982,4.145-12.522,4.145-19.162
			c0-6.651-1.424-13.2-4.145-19.184c2.722-5.983,4.145-12.529,4.145-19.174c0-6.58-1.409-13.082-4.103-19.046
			c2.694-5.984,4.103-12.466,4.103-18.983c0-12.189-4.942-24.123-13.559-32.74c-8.617-8.616-20.55-13.558-32.738-13.558
			c-12.176,0-24.106,4.94-32.743,13.563c-8.615,8.628-13.555,20.558-13.555,32.735c0,6.512,1.409,12.992,4.105,18.979
			c-2.695,5.966-4.105,12.47-4.105,19.051c0,6.636,1.427,13.182,4.155,19.174c-2.729,5.993-4.155,12.542-4.155,19.184
			c0,6.625,1.425,13.168,4.149,19.162c-2.724,5.996-4.149,12.542-4.149,19.173c0,6.632,1.425,13.178,4.149,19.174
			c-2.724,5.996-4.149,12.541-4.149,19.173s1.425,13.177,4.149,19.173c-2.724,5.996-4.149,12.542-4.149,19.174
			c0,6.634,1.427,13.182,4.156,19.18c-2.729,5.993-4.156,12.539-4.156,19.176c0,9.214,2.764,18.223,7.855,25.811
			c-2.703,10.409-1.707,21.33,2.915,31.193c4.693,10.028,12.599,17.856,22.533,22.411c3.184,10.445,9.883,19.325,19.192,25.322
			c9.338,6.01,20.224,8.426,31.075,6.981c8.274,7.148,18.693,11.093,29.842,11.193h0.359c10.911,0,21.238-3.748,29.527-10.641
			c10.83,1.643,21.758-0.585,31.198-6.421c9.409-5.819,16.267-14.573,19.65-24.958c10.011-4.37,18.065-12.052,22.953-21.997
			c4.823-9.827,6.002-20.777,3.443-31.279c5.328-7.71,8.22-16.908,8.22-26.343c0-6.625-1.419-13.162-4.132-19.143
			c2.714-5.988,4.132-12.525,4.132-19.148c0-6.617-1.418-13.15-4.132-19.137c2.714-5.982,4.132-12.517,4.132-19.142
			c0-6.622-1.418-13.159-4.132-19.148c2.713-5.982,4.132-12.518,4.132-19.143s-1.419-13.161-4.132-19.142
			c2.714-5.988,4.132-12.525,4.132-19.148c0-6.625-1.418-13.162-4.132-19.142c2.714-5.988,4.132-12.521,4.132-19.139
			c0-6.621-1.419-13.158-4.132-19.148c2.714-5.981,4.132-12.516,4.132-19.142c0-6.625-1.419-13.162-4.132-19.143
			c2.714-5.988,4.132-12.525,4.132-19.148c0-3.819-0.463-7.589-1.38-11.255c1.304-1.925,2.47-3.957,3.484-6.08
			c0.931-1.955,1.724-3.962,2.372-5.998c1.97-0.891,3.881-1.921,5.719-3.081c1.793-1.137,3.509-2.399,5.133-3.772
			c4.239,0.578,8.606,0.583,12.862-0.014c1.626,1.365,3.352,2.624,5.164,3.766c1.836,1.151,3.745,2.172,5.71,3.057
			c0.656,2.051,1.454,4.059,2.389,6.005c1.009,2.097,2.174,4.112,3.481,6.029c-0.903,3.633-1.358,7.371-1.358,11.159
			c0,6.613,1.423,13.152,4.143,19.148c-2.72,5.99-4.143,12.525-4.143,19.143c0,6.613,1.423,13.151,4.143,19.148
			c-2.72,5.989-4.143,12.524-4.143,19.142c0,6.631,1.422,13.166,4.138,19.143c-2.718,5.984-4.138,12.517-4.138,19.138
			c0,6.622,1.422,13.159,4.141,19.151c-2.719,5.988-4.141,12.522-4.141,19.139c0,6.613,1.423,13.152,4.143,19.148
			c-2.72,5.99-4.143,12.525-4.143,19.143c0,6.631,1.421,13.165,4.138,19.143c-2.717,5.984-4.138,12.52-4.138,19.147
			c0,6.63,1.422,13.165,4.138,19.142c-2.718,5.984-4.138,12.517-4.138,19.138c0,9.413,2.876,18.582,8.171,26.264
			c-2.576,10.475-1.426,21.423,3.365,31.275c4.859,9.953,12.89,17.654,22.887,22.049c3.35,10.397,10.185,19.167,19.579,25.005
			c9.42,5.869,20.344,8.12,31.188,6.508c8.307,6.949,18.666,10.723,29.638,10.723c0.096,0,0.194-0.001,0.29-0.001
			c11.079-0.069,21.503-3.983,29.8-11.111c10.845,1.476,21.739-0.915,31.092-6.9c9.317-5.964,16.038-14.822,19.257-25.259
			c4.177-1.905,8.026-4.413,11.485-7.484C487.911,458.235,488.217,453.071,485.221,449.696z"/>
	</g>
</g>
<g>
</g>
<g>
</g>
<g>
</g>
<g>
</g>
<g>
</g>
<g>
</g>
<g>
</g>
<g>
</g>
<g>
</g>
<g>
</g>
<g>
</g>
<g>
</g>
<g>
</g>
<g>
</g>
<g>
</g>
</svg>
