<?xml version="1.0" encoding="iso-8859-1"?>
<!-- Generator: Adobe Illustrator 19.0.0, SVG Export Plug-In . SVG Version: 6.00 Build 0)  -->
<svg version="1.1" id="Capa_1" xmlns="http://www.w3.org/2000/svg" xmlns:xlink="http://www.w3.org/1999/xlink" x="0px" y="0px"
	 viewBox="0 0 511.999 511.999" style="enable-background:new 0 0 511.999 511.999;" xml:space="preserve">
<g>
	<g>
		<path d="M387.341,333.912c-3.735-18.992-21.033-106.962-21.223-107.925c-9.622-49.931-51.814-86.846-101.946-90.495v-24.221
			c2.248-0.249,4.405-0.807,6.429-1.625c11.524,8.026,27.04,18.148,42.058,25.773c14.76,7.496,26.319,11.208,35.197,11.208
			c5.72,0,10.328-1.543,13.96-4.607c7.731-6.523,7.777-19.949,0.149-43.529c-3.387-10.47-7.433-20.222-9.578-25.183
			c2.146-4.961,6.192-14.713,9.578-25.183c7.628-23.58,7.581-37.006-0.149-43.53c-9.745-8.226-26.654-5.458-53.21,8.709
			c-16.715,8.916-33.482,20.365-43.556,27.579c-0.292-0.044-0.585-0.08-0.88-0.112V8.174c0-4.513-3.658-8.17-8.17-8.17
			c-4.512,0-8.17,3.657-8.17,8.17v32.598c-0.294,0.033-0.587,0.069-0.879,0.112c-10.074-7.215-26.843-18.664-43.557-27.579
			c-26.556-14.168-43.464-16.935-53.21-8.709c-7.731,6.523-7.777,19.949-0.149,43.53c3.387,10.47,7.433,20.222,9.578,25.183
			c-2.146,4.961-6.192,14.713-9.578,25.183c-7.628,23.58-7.581,37.006,0.149,43.53c3.632,3.065,8.239,4.607,13.96,4.607
			c8.878-0.001,20.44-3.714,35.197-11.208c15.018-7.625,30.534-17.747,42.058-25.773c2.024,0.818,4.181,1.375,6.429,1.625v24.221
			c-50.132,3.649-92.323,40.562-101.941,90.463l-21.209,107.858c-1.802,1.129-3.705,2.483-5.652,3.867
			c-4.796,3.412-12.034,9.104-19.278,16.845c-18.616,19.894-28.457,43.68-28.457,68.788c0,3.425,2.135,6.486,5.35,7.668
			c39.771,14.628,80.754,24.286,122.4,28.881c2.568,29.175,27.124,52.138,56.956,52.138c29.841,0,54.402-22.977,56.957-52.165
			c41.658-4.607,82.64-14.261,122.397-28.864c3.216-1.181,5.353-4.244,5.353-7.67C440.705,371.066,399.75,341.631,387.341,333.912z
			 M316.298,27.722c25.423-13.564,33.169-11.513,34.681-10.81c0.406,1.358,1.564,8.005-5.29,28.398
			c-4.342,12.919-9.61,24.483-9.664,24.599c-0.986,2.156-0.986,4.64,0,6.795c0.052,0.115,5.322,11.68,9.664,24.599
			c6.854,20.396,5.695,27.041,5.29,28.398c-1.435,0.672-8.474,2.547-30.92-8.853c-12.902-6.552-26.325-15.142-36.972-22.439
			c1.83-3.43,2.872-7.344,2.872-11.497V65.126c0-5.754-1.998-11.047-5.329-15.232C290.283,43.195,303.353,34.628,316.298,27.722z
			 M228.916,98.413c-10.646,7.295-24.069,15.885-36.971,22.437c-22.446,11.4-29.487,9.52-30.921,8.853
			c-0.406-1.358-1.564-8.003,5.29-28.398c4.342-12.919,9.61-24.483,9.664-24.599c0.986-2.156,0.986-4.64,0-6.795
			c-0.052-0.115-5.321-11.68-9.664-24.599c-6.854-20.396-5.696-27.04-5.29-28.398c1.514-0.704,9.256-2.753,34.68,10.81
			c12.944,6.904,26.015,15.472,35.67,22.173c-3.331,4.186-5.33,9.48-5.33,15.232v21.787
			C226.043,91.069,227.084,94.981,228.916,98.413z M246.054,93.727c-0.229-0.187-0.464-0.363-0.708-0.523
			c-1.807-1.499-2.962-3.762-2.962-6.289V65.129c0-3.511,2.231-6.503,5.345-7.656c0.155-0.05,0.307-0.102,0.459-0.161
			c0.749-0.227,1.543-0.352,2.365-0.352h10.894c0.821,0,1.613,0.124,2.362,0.351c0.157,0.061,0.315,0.115,0.474,0.167
			c3.109,1.157,5.335,4.145,5.335,7.653v21.787c0,2.527-1.154,4.789-2.962,6.289c-0.244,0.159-0.48,0.336-0.708,0.523
			c-1.292,0.856-2.838,1.358-4.5,1.358h-10.893v-0.001C248.892,95.086,247.346,94.585,246.054,93.727z M256.001,495.66
			c-20.272,0-37.134-14.845-40.307-34.234c13.312,1.034,26.684,1.553,40.098,1.553c13.569,0,27.076-0.527,40.521-1.576
			C293.149,480.803,276.282,495.66,256.001,495.66z M255.81,446.639c-57.278-0.002-113.754-9.753-167.972-28.987
			c2.866-39.889,35.343-63.422,45.171-69.664c39.763,12.653,81.509,19.084,123.238,19.084c19.957,0,39.915-1.468,59.636-4.422
			c4.462-0.668,7.538-4.828,6.871-9.289c-0.668-4.461-4.82-7.537-9.29-6.871c-57.308,8.581-116.635,4.08-172.066-12.987
			l20.533-104.426c8.663-44.946,48.226-77.568,94.071-77.568s85.41,32.622,94.078,77.598l20.528,104.387
			c-8.219,2.523-16.64,4.817-25.134,6.825c-4.391,1.038-7.109,5.439-6.072,9.83c0.888,3.759,4.242,6.292,7.944,6.292
			c0.622,0,1.255-0.072,1.886-0.221c10.084-2.384,20.065-5.162,29.758-8.239c9.835,6.245,42.307,29.775,45.176,69.653
			C369.842,436.886,313.238,446.64,255.81,446.639z"/>
	</g>
</g>
<g>
</g>
<g>
</g>
<g>
</g>
<g>
</g>
<g>
</g>
<g>
</g>
<g>
</g>
<g>
</g>
<g>
</g>
<g>
</g>
<g>
</g>
<g>
</g>
<g>
</g>
<g>
</g>
<g>
</g>
</svg>
