<?xml version="1.0" encoding="iso-8859-1"?>
<!-- Generator: Adobe Illustrator 19.0.0, SVG Export Plug-In . SVG Version: 6.00 Build 0)  -->
<svg version="1.1" id="Capa_1" xmlns="http://www.w3.org/2000/svg" xmlns:xlink="http://www.w3.org/1999/xlink" x="0px" y="0px"
	 viewBox="0 0 512 512" style="enable-background:new 0 0 512 512;" xml:space="preserve">
<g>
	<g>
		<path d="M437.019,74.981C388.667,26.628,324.38,0,256,0S123.333,26.628,74.981,74.981S0,187.62,0,256
			s26.628,132.667,74.981,181.019C123.333,485.372,187.62,512,256,512s132.667-26.628,181.019-74.981
			C485.372,388.667,512,324.38,512,256S485.372,123.333,437.019,74.981z M256,495.66c-132.149,0-239.66-107.51-239.66-239.66
			S123.851,16.34,256,16.34S495.66,123.851,495.66,256S388.149,495.66,256,495.66z"/>
	</g>
</g>
<g>
	<g>
		<circle cx="256" cy="405.787" r="8.17"/>
	</g>
</g>
<g>
	<g>
		<circle cx="398.456" cy="302.287" r="8.168"/>
	</g>
</g>
<g>
	<g>
		<circle cx="344.042" cy="134.819" r="8.169"/>
	</g>
</g>
<g>
	<g>
		<circle cx="167.958" cy="134.819" r="8.169"/>
	</g>
</g>
<g>
	<g>
		<circle cx="113.544" cy="302.287" r="8.168"/>
	</g>
</g>
<g>
	<g>
		<path d="M285.055,81.491c-0.151-0.101-0.3-0.205-0.46-0.297c-0.168-0.097-0.34-0.179-0.512-0.261
			c-8.302-4.702-17.881-7.4-28.084-7.4c-10.208,0-19.793,2.702-28.098,7.408c-0.167,0.082-0.334,0.16-0.498,0.255
			c-0.155,0.089-0.297,0.19-0.444,0.288c-16.833,9.965-28.151,28.303-28.151,49.241c0,4.513,3.657,8.17,8.17,8.17h98.043
			c4.513,0,8.17-3.657,8.17-8.17C313.191,109.79,301.88,91.458,285.055,81.491z M215.969,122.553
			c1.8-8.826,6.457-16.623,12.955-22.386l12.925,22.386H215.969z M256,114.383L243.065,91.98c4.068-1.362,8.415-2.108,12.935-2.108
			c4.52,0,8.867,0.746,12.935,2.108L256,114.383z M270.151,122.553l12.925-22.388c6.498,5.765,11.155,13.561,12.955,22.388H270.151z
			"/>
	</g>
</g>
<g>
	<g>
		<path d="M159.284,166.954c-0.984-1.931-2.695-3.391-4.755-4.061c-5.743-1.866-11.692-2.813-17.681-2.813
			c-24.846,0-46.701,15.887-54.383,39.533c-4.72,14.529-3.501,30.026,3.434,43.638c6.935,13.612,18.757,23.708,33.285,28.428
			c0.837,0.273,1.687,0.403,2.525,0.403c3.443,0,6.647-2.195,7.768-5.648l30.297-93.245
			C160.444,171.128,160.268,168.886,159.284,166.954z M98.003,204.664c1.389-4.276,3.429-8.195,5.986-11.667l17.324,19.241
			l-25.317,5.381C95.965,213.278,96.623,208.913,98.003,204.664z M116.711,252.842c-6.928-3.905-12.561-9.759-16.254-17.008
			c-0.375-0.736-0.719-1.484-1.048-2.234l25.303-5.379L116.711,252.842z M133.458,201.304l-17.332-19.249
			c6.128-3.606,13.231-5.633,20.72-5.633c1.541,0,3.08,0.088,4.611,0.264L133.458,201.304z"/>
	</g>
</g>
<g>
	<g>
		<path d="M230.092,384.887c-0.338-2.14-1.513-4.058-3.266-5.331l-79.319-57.627c-3.648-2.652-8.76-1.843-11.412,1.807
			c-8.98,12.359-12.608,27.475-10.219,42.562c2.389,15.088,10.511,28.343,22.871,37.322c9.837,7.148,21.447,10.925,33.575,10.926
			c18.272,0,35.583-8.814,46.31-23.579C229.905,389.214,230.43,387.026,230.092,384.887z M142.482,366.164
			c-0.175-0.8-0.337-1.607-0.465-2.423c-1.273-8.035-0.156-16.081,3.154-23.315l20.943,15.216L142.482,366.164z M170.054,396.315
			c-4.152-1.313-8.094-3.294-11.702-5.916c-3.615-2.625-6.712-5.77-9.239-9.301l23.647-10.529L170.054,396.315z M186.307,398.006
			l2.704-25.729l20.928,15.205C203.44,393.413,195.131,397.138,186.307,398.006z"/>
	</g>
</g>
<g>
	<g>
		<path d="M375.904,323.736c-2.651-3.653-7.76-4.462-11.411-1.808l-79.319,57.627c-1.753,1.273-2.928,3.192-3.267,5.332
			c-0.34,2.139,0.186,4.327,1.46,6.08c10.727,14.764,28.038,23.578,46.309,23.579c12.128,0,23.739-3.779,33.576-10.926
			c12.359-8.979,20.481-22.233,22.871-37.322C388.512,351.21,384.883,336.094,375.904,323.736z M302.063,387.483l20.927-15.204
			l2.704,25.727C316.868,397.138,308.56,393.412,302.063,387.483z M353.648,390.4c-3.609,2.621-7.55,4.604-11.702,5.916
			l-2.706-25.746l23.646,10.528C360.36,384.629,357.263,387.774,353.648,390.4z M369.984,363.741
			c-0.13,0.816-0.29,1.622-0.465,2.423l-23.631-10.521l20.942-15.216C370.139,347.66,371.256,355.706,369.984,363.741z"/>
	</g>
</g>
<g>
	<g>
		<path d="M429.539,199.616c-7.683-23.647-29.538-39.534-54.384-39.534c-5.989,0-11.938,0.947-17.681,2.813
			c-2.061,0.669-3.771,2.13-4.755,4.061c-0.984,1.931-1.16,4.173-0.49,6.234l30.297,93.245c1.121,3.453,4.325,5.648,7.768,5.648
			c0.838,0,1.689-0.13,2.526-0.402c14.529-4.72,26.349-14.816,33.285-28.428C433.041,229.642,434.26,214.143,429.539,199.616z
			 M378.542,201.304l-7.999-24.618c1.532-0.175,3.07-0.264,4.611-0.264c7.488,0,14.592,2.027,20.72,5.633L378.542,201.304z
			 M411.543,235.834c-3.693,7.25-9.326,13.103-16.255,17.009l-8-24.622l25.303,5.379
			C412.261,234.351,411.918,235.098,411.543,235.834z M390.685,212.238l17.325-19.241c2.557,3.472,4.597,7.391,5.986,11.667
			c1.381,4.25,2.038,8.615,2.007,12.956L390.685,212.238z"/>
	</g>
</g>
<g>
	<g>
		<path d="M463.833,256c0-7.995,1.654-16.353,3.402-25.202c2.874-14.526,5.843-29.547,1.208-43.823
			c-4.838-14.901-16.315-25.441-27.414-35.635c-6.413-5.89-12.47-11.454-16.875-17.507c-4.493-6.172-7.97-13.731-11.652-21.735
			c-6.262-13.612-12.736-27.686-25.222-36.774c-12.364-8.998-27.7-10.827-42.532-12.597c-8.807-1.052-17.127-2.045-24.506-4.441
			c-6.941-2.253-13.993-6.237-21.456-10.452c-13.187-7.45-26.822-15.152-42.786-15.152s-29.599,7.702-42.785,15.152
			c-7.464,4.216-14.515,8.198-21.456,10.452c-7.379,2.397-15.699,3.389-24.506,4.441c-14.832,1.77-30.168,3.6-42.532,12.597
			c-12.486,9.087-18.96,23.162-25.222,36.774c-3.682,8.004-7.159,15.563-11.652,21.735c-4.405,6.055-10.462,11.617-16.875,17.506
			c-11.098,10.194-22.576,20.735-27.414,35.637c-4.635,14.275-1.665,29.296,1.207,43.822c1.75,8.849,3.403,17.208,3.403,25.202
			c0,7.995-1.654,16.354-3.402,25.202c-2.874,14.526-5.843,29.547-1.208,43.823c4.838,14.901,16.315,25.441,27.414,35.635
			c6.413,5.89,12.47,11.454,16.875,17.507c4.493,6.172,7.97,13.731,11.652,21.735c6.262,13.612,12.736,27.686,25.222,36.774
			c12.364,8.998,27.7,10.827,42.532,12.597c8.807,1.052,17.127,2.045,24.506,4.441c6.941,2.253,13.993,6.237,21.456,10.452
			c13.186,7.45,26.821,15.152,42.785,15.152s29.599-7.702,42.785-15.152c7.464-4.216,14.515-8.199,21.456-10.452
			c7.379-2.397,15.699-3.389,24.506-4.441c14.832-1.77,30.168-3.6,42.532-12.597c12.486-9.087,18.96-23.162,25.222-36.774
			c3.682-8.004,7.159-15.563,11.652-21.735c4.405-6.055,10.462-11.617,16.875-17.506c11.098-10.194,22.576-20.735,27.414-35.637
			c4.636-14.276,1.667-29.296-1.206-43.822C465.486,272.354,463.833,263.995,463.833,256z M451.205,284.372
			c2.581,13.049,5.018,25.375,1.696,35.605c-3.512,10.818-12.942,19.48-22.926,28.649c-6.72,6.172-13.669,12.555-19.034,19.927
			c-5.447,7.484-9.431,16.144-13.284,24.522c-5.633,12.246-10.955,23.811-19.993,30.389c-8.919,6.49-21.516,7.994-34.853,9.586
			c-9.201,1.098-18.715,2.233-27.617,5.123c-8.504,2.76-16.608,7.339-24.446,11.768c-11.869,6.705-23.079,13.037-34.747,13.037
			c-11.668,0-22.879-6.332-34.747-13.039c-7.838-4.428-15.944-9.008-24.446-11.768c-8.902-2.89-18.416-4.025-27.617-5.123
			c-13.337-1.593-25.936-3.096-34.853-9.586c-9.038-6.578-14.36-18.143-19.993-30.389c-3.853-8.376-7.837-17.038-13.284-24.522
			c-5.365-7.372-12.315-13.754-19.036-19.927c-9.983-9.169-19.412-17.831-22.924-28.648c-3.323-10.231-0.886-22.556,1.696-35.607
			c1.826-9.231,3.713-18.776,3.713-28.371c0-9.595-1.887-19.14-3.713-28.372c-2.581-13.049-5.018-25.374-1.696-35.605
			c3.512-10.818,12.942-19.48,22.926-28.649c6.72-6.172,13.669-12.555,19.034-19.927c5.447-7.484,9.431-16.144,13.284-24.522
			c5.633-12.245,10.955-23.811,19.993-30.389c8.919-6.49,21.516-7.994,34.853-9.586c9.201-1.098,18.715-2.233,27.617-5.123
			c8.504-2.76,16.608-7.339,24.446-11.768c11.869-6.704,23.079-13.036,34.747-13.036c11.668,0,22.879,6.332,34.747,13.039
			c7.838,4.428,15.944,9.008,24.446,11.768c8.902,2.89,18.416,4.025,27.617,5.123c13.337,1.593,25.936,3.096,34.853,9.586
			c9.038,6.578,14.36,18.143,19.993,30.389c3.853,8.376,7.837,17.038,13.284,24.522c5.365,7.372,12.315,13.754,19.036,19.927
			c9.983,9.169,19.412,17.831,22.925,28.648c3.323,10.231,0.886,22.556-1.696,35.607c-1.826,9.231-3.713,18.776-3.713,28.371
			C447.492,265.596,449.38,275.14,451.205,284.372z"/>
	</g>
</g>
<g>
	<g>
		<path d="M256,163.404c-18.461,0-36.295,5.424-51.574,15.688c-3.745,2.516-4.742,7.593-2.226,11.338s7.593,4.743,11.338,2.226
			c12.573-8.446,27.257-12.911,42.461-12.911c42.047,0,76.255,34.208,76.255,76.255S298.047,332.255,256,332.255
			S179.745,298.047,179.745,256c0-15.206,4.465-29.889,12.912-42.461c2.516-3.745,1.521-8.822-2.226-11.338
			c-3.743-2.515-8.822-1.52-11.338,2.226c-10.265,15.277-15.689,33.11-15.689,51.574c0,51.057,41.538,92.596,92.596,92.596
			s92.596-41.538,92.596-92.596C348.596,204.943,307.057,163.404,256,163.404z"/>
	</g>
</g>
<g>
</g>
<g>
</g>
<g>
</g>
<g>
</g>
<g>
</g>
<g>
</g>
<g>
</g>
<g>
</g>
<g>
</g>
<g>
</g>
<g>
</g>
<g>
</g>
<g>
</g>
<g>
</g>
<g>
</g>
</svg>
