<?xml version="1.0" encoding="iso-8859-1"?>
<!-- Generator: Adobe Illustrator 19.0.0, SVG Export Plug-In . SVG Version: 6.00 Build 0)  -->
<svg version="1.1" id="Capa_1" xmlns="http://www.w3.org/2000/svg" xmlns:xlink="http://www.w3.org/1999/xlink" x="0px" y="0px"
	 viewBox="0 0 512 512" style="enable-background:new 0 0 512 512;" xml:space="preserve">
<g>
	<g>
		<path d="M503.83,444.698h-41.854l-31.767-244.751c-3.617-27.87-17.944-54.343-40.34-74.541
			c-22.517-20.306-50.335-31.653-78.418-31.95h-5.158c3.16-6.483,3.88-13.799,1.996-20.835c-2.071-7.729-7.029-14.189-13.958-18.19
			c-2.494-1.439-5.176-2.492-7.949-3.163c0.795-2.69,1.229-5.532,1.229-8.475c0-16.518-13.439-29.957-29.957-29.957
			c-16.518,0-29.957,13.439-29.957,29.957c0,2.943,0.434,5.787,1.229,8.476c-2.774,0.671-5.456,1.724-7.948,3.164
			c-6.929,4.001-11.887,10.462-13.958,18.19c-1.886,7.035-1.165,14.352,1.996,20.835h-0.956c-0.386-0.003-0.766-0.005-1.151-0.005
			c-57.537,0-111.111,45.904-119.736,102.844l-4.143,27.35c-0.584,1.104-0.928,2.355-0.949,3.689
			c-0.009,0.562,0.04,1.112,0.141,1.644l-32.682,215.72H8.17c-4.513,0-8.17,3.657-8.17,8.17s3.657,8.17,8.17,8.17h4.73l4.713,16.491
			c3.466,12.133,16.066,21.637,28.685,21.637h419.404c12.619,0,25.219-9.505,28.686-21.637l4.711-16.491h4.73
			c4.513,0,8.17-3.657,8.17-8.17S508.343,444.698,503.83,444.698z M279.372,66.755c2.37,0,4.717,0.632,6.788,1.828
			c3.148,1.818,5.402,4.754,6.343,8.268c0.941,3.513,0.459,7.182-1.361,10.332c-1.781,3.085-4.696,5.307-8.043,6.274h-7.494
			c-1.063-0.306-2.096-0.729-3.064-1.289c-3.854-2.226-6.194-6.067-6.691-10.179c0.062-1.116,0.061-2.236-0.002-3.359
			c0.222-1.736,0.781-3.457,1.709-5.064c0.916-1.586,2.132-2.945,3.551-4.022c1.02-0.515,2.006-1.085,2.954-1.708
			C275.72,67.135,277.521,66.755,279.372,66.755z M257.651,29.174c7.509,0,13.617,6.108,13.617,13.617
			c0,4.465-2.17,8.422-5.499,10.907c-0.976,0.498-1.926,1.045-2.842,1.646c-1.623,0.684-3.405,1.064-5.276,1.064
			c-1.868,0-3.65-0.379-5.273-1.064c-0.918-0.601-1.869-1.15-2.848-1.648c-3.328-2.485-5.497-6.441-5.497-10.906
			C244.034,35.283,250.143,29.174,257.651,29.174z M222.8,76.851c0.941-3.514,3.195-6.45,6.344-8.269
			c2.071-1.196,4.418-1.828,6.788-1.828c1.85,0,3.649,0.38,5.304,1.08c0.951,0.625,1.939,1.196,2.961,1.711
			c1.418,1.077,2.633,2.436,3.548,4.021c0.928,1.608,1.487,3.328,1.709,5.063c-0.063,1.123-0.064,2.245-0.002,3.361
			c-0.497,4.111-2.837,7.952-6.691,10.178c-0.968,0.559-2.001,0.983-3.064,1.289h-7.494c-3.347-0.966-6.262-3.189-8.043-6.274
			C222.341,84.032,221.858,80.363,222.8,76.851z M103.324,198.743c7.46-49.252,53.793-88.952,103.645-88.952
			c0.331,0,0.667,0.002,0.998,0.005h22.408c1.829,0.35,3.702,0.539,5.598,0.539c1.883,0,3.757-0.186,5.599-0.539h32.159
			c1.841,0.353,3.716,0.539,5.599,0.539c1.898,0,3.769-0.19,5.598-0.539h26.434c49.215,0.523,96.219,42.769,102.642,92.254
			l2.33,17.956c-18.345,2.87-28.888,13.777-38.327,23.551c-9.999,10.35-18.633,19.289-36.205,19.289
			c-17.57,0-26.205-8.94-36.2-19.293c-10.992-11.382-23.447-24.282-47.955-24.282c-24.506,0-36.964,12.9-47.955,24.282
			c-9.996,10.352-18.629,19.293-36.198,19.293c-17.57,0-26.205-8.939-36.202-19.289c-9.249-9.574-19.556-20.233-37.22-23.361
			L103.324,198.743z M97.619,236.391c12.263,2.352,19.627,9.933,27.92,18.519c10.993,11.379,23.451,24.278,47.955,24.278
			c24.506,0,36.963-12.9,47.954-24.282c9.996-10.352,18.629-19.293,36.198-19.293c17.569,0,26.205,8.94,36.199,19.293
			c10.992,11.382,23.447,24.282,47.955,24.282c24.506,0,36.966-12.898,47.957-24.278c8.467-8.763,15.957-16.483,28.683-18.662
			l27.055,208.45H66.063L97.619,236.391z M478.676,473.038c-1.464,5.121-7.648,9.786-12.974,9.786H46.298
			c-5.327,0-11.51-4.665-12.973-9.786l-3.428-12.001h424.867c0.008,0,0.015,0.001,0.023,0.001c0.005,0,0.011-0.001,0.016-0.001
			h27.303L478.676,473.038z"/>
	</g>
</g>
<g>
</g>
<g>
</g>
<g>
</g>
<g>
</g>
<g>
</g>
<g>
</g>
<g>
</g>
<g>
</g>
<g>
</g>
<g>
</g>
<g>
</g>
<g>
</g>
<g>
</g>
<g>
</g>
<g>
</g>
</svg>
