<?xml version="1.0" encoding="iso-8859-1"?>
<!-- Generator: Adobe Illustrator 19.0.0, SVG Export Plug-In . SVG Version: 6.00 Build 0)  -->
<svg version="1.1" id="Capa_1" xmlns="http://www.w3.org/2000/svg" xmlns:xlink="http://www.w3.org/1999/xlink" x="0px" y="0px"
	 viewBox="0 0 512 512" style="enable-background:new 0 0 512 512;" xml:space="preserve">
<g>
	<g>
		<path d="M397.617,124.187h-79.509c-3.665-28.018-25.92-50.26-53.938-53.927V45.009c11.303,6.912,26.333,14.906,35.404,14.906
			c16.518,0,29.957-13.439,29.957-29.957S316.092,0,299.574,0c-9.071,0-24.101,7.994-35.404,14.906V8.17
			c0-4.513-3.657-8.17-8.17-8.17c-4.512,0-8.17,3.657-8.17,8.17v6.736C236.527,7.993,221.497,0,212.426,0
			c-16.519,0-29.957,13.439-29.957,29.957s13.438,29.957,29.957,29.957c9.071,0,24.101-7.993,35.404-14.906v25.251
			c-28.017,3.667-50.273,25.908-53.938,53.927h-79.509c-4.512,0-8.17,3.657-8.17,8.17V503.83c0,4.513,3.658,8.17,8.17,8.17h283.234
			c4.513,0,8.17-3.657,8.17-8.17V132.357C405.787,127.844,402.13,124.187,397.617,124.187z M299.574,16.34
			c7.509,0,13.617,6.108,13.617,13.617s-6.108,13.617-13.617,13.617c-4.366,0-16.684-6.252-28.619-13.617
			C282.891,22.592,295.208,16.34,299.574,16.34z M212.426,43.574c-7.509,0-13.617-6.108-13.617-13.617s6.108-13.617,13.617-13.617
			c4.366,0,16.684,6.252,28.619,13.617C229.109,37.323,216.792,43.574,212.426,43.574z M256,140.528c4.513,0,8.17-3.657,8.17-8.17
			V121.49c3.3,2.487,5.447,6.426,5.447,10.867c0,7.509-6.108,13.617-13.617,13.617c-7.509,0-13.617-6.108-13.617-13.617
			c0-4.441,2.147-8.38,5.447-10.867v10.867C247.83,136.871,251.488,140.528,256,140.528z M389.447,495.66H122.553V140.528h78.979
			c4.512,0,8.17-3.657,8.17-8.17c0-22.74,16.484-41.69,38.128-45.562v16.746c-12.558,3.565-21.787,15.13-21.787,28.816
			c0,16.518,13.438,29.957,29.957,29.957c16.518,0,29.957-13.439,29.957-29.957c0-13.686-9.229-25.249-21.787-28.816V86.796
			c21.643,3.872,38.128,22.821,38.128,45.561c0,4.513,3.657,8.17,8.17,8.17h78.979V495.66z"/>
	</g>
</g>
<g>
	<g>
		<path d="M364.936,321.362c4.513,0,8.17-3.657,8.17-8.17v-93.685c0-4.513-3.657-8.17-8.17-8.17
			c-13.515,0-24.511-10.996-24.511-24.511c0-4.513-3.657-8.17-8.17-8.17H179.745c-4.512,0-8.17,3.657-8.17,8.17
			c0,13.515-10.995,24.511-24.511,24.511c-4.512,0-8.17,3.657-8.17,8.17v218.962c0,4.513,3.658,8.17,8.17,8.17
			c13.516,0,24.511,10.996,24.511,24.511c0,4.513,3.658,8.17,8.17,8.17h152.511c4.513,0,8.17-3.657,8.17-8.17
			c0-13.515,10.996-24.511,24.511-24.511c4.513,0,8.17-3.657,8.17-8.17v-92.596c0-4.513-3.657-8.17-8.17-8.17s-8.17,3.657-8.17,8.17
			v85.246c-15.982,3.258-28.602,15.879-31.861,31.861H187.095c-3.257-15.982-15.879-28.602-31.861-31.861V226.856
			c15.982-3.258,28.602-15.879,31.861-31.861h137.811c3.258,15.982,15.879,28.602,31.861,31.861v86.335
			C356.766,317.705,360.423,321.362,364.936,321.362z"/>
	</g>
</g>
<g>
	<g>
		<path d="M255.569,356.764l17.704-22.13c2.388-2.985,2.388-7.225,0-10.208l-17.703-22.128l17.703-22.128
			c2.819-3.523,2.247-8.665-1.276-11.484c-3.525-2.819-8.666-2.248-11.484,1.276l-21.787,27.233c-2.387,2.984-2.387,7.225,0,10.208
			l17.703,22.128l-17.703,22.13c-2.387,2.984-2.387,7.225,0,10.207l21.787,27.236c1.613,2.019,3.988,3.067,6.385,3.067
			c1.79,0,3.593-0.585,5.098-1.791c3.524-2.818,4.096-7.96,1.277-11.483L255.569,356.764z"/>
	</g>
</g>
<g>
</g>
<g>
</g>
<g>
</g>
<g>
</g>
<g>
</g>
<g>
</g>
<g>
</g>
<g>
</g>
<g>
</g>
<g>
</g>
<g>
</g>
<g>
</g>
<g>
</g>
<g>
</g>
<g>
</g>
</svg>
