<?xml version="1.0" encoding="iso-8859-1"?>
<!-- Generator: Adobe Illustrator 19.0.0, SVG Export Plug-In . SVG Version: 6.00 Build 0)  -->
<svg version="1.1" id="Capa_1" xmlns="http://www.w3.org/2000/svg" xmlns:xlink="http://www.w3.org/1999/xlink" x="0px" y="0px"
	 viewBox="0 0 512 512" style="enable-background:new 0 0 512 512;" xml:space="preserve">
<g>
	<g>
		<path d="M332.255,119.83h-19.123c10.488-12.924,16.399-29.184,16.399-46.298C329.532,32.986,296.546,0,256,0
			s-73.532,32.986-73.532,73.532c0,17.114,5.91,33.374,16.399,46.298h-19.123c-13.516,0-24.511,10.996-24.511,24.511v27.234
			c0,13.064,6.457,24.641,16.34,31.73V503.83c0,4.513,3.658,8.17,8.17,8.17h152.511c4.512,0,8.17-3.657,8.17-8.17V203.304
			c9.884-7.09,16.34-18.666,16.34-31.73V144.34C356.766,130.826,345.771,119.83,332.255,119.83z M324.085,495.66h-48.01
			l48.01-47.675V495.66z M324.085,424.956l-71.202,70.704H200.07l124.015-123.147V424.956z M324.085,349.484l-136.17,135.217
			v-52.443l136.17-135.217V349.484z M324.085,274.012l-136.17,135.217v-52.443l136.17-135.217V274.012z M259.269,210.459
			c11.201-0.935,21.077-6.603,27.596-15.01c6.099,7.868,15.141,13.336,25.455,14.774L187.915,333.756v-52.442L259.269,210.459z
			 M187.915,258.286v-48.2c2.07,0.34,4.19,0.525,6.354,0.525c12.541,0,23.719-5.944,30.866-15.163
			c3.806,4.91,8.763,8.877,14.453,11.525L187.915,258.286z M340.426,171.574c0,12.515-10.181,22.696-22.695,22.696
			c-12.515,0-22.696-10.181-22.696-22.696c0-4.513-3.658-8.17-8.17-8.17c-4.512,0-8.17,3.657-8.17,8.17
			c0,12.515-10.181,22.696-22.695,22.696c-12.513,0-22.695-10.181-22.695-22.696c0-4.513-3.658-8.17-8.17-8.17
			s-8.17,3.657-8.17,8.17c0,12.515-10.181,22.696-22.696,22.696c-12.514,0-22.695-10.181-22.695-22.696V144.34
			c0-4.506,3.665-8.17,8.17-8.17h40.131c3.603,0,6.78-2.36,7.822-5.808c1.041-3.449-0.299-7.172-3.299-9.166
			c-16.023-10.648-25.589-28.467-25.589-47.664c0-31.535,25.656-57.191,57.192-57.191s57.191,25.657,57.191,57.191
			c0,19.197-9.566,37.015-25.589,47.664c-3,1.994-4.34,5.717-3.299,9.166c1.041,3.449,4.219,5.808,7.822,5.808h40.129
			c4.506,0,8.17,3.665,8.17,8.17V171.574z"/>
	</g>
</g>
<g>
	<g>
		<path d="M259.443,119.83h-6.887c-4.512,0-8.17,3.657-8.17,8.17c0,4.513,3.658,8.17,8.17,8.17h6.887c4.512,0,8.17-3.657,8.17-8.17
			C267.614,123.487,263.956,119.83,259.443,119.83z"/>
	</g>
</g>
<g>
</g>
<g>
</g>
<g>
</g>
<g>
</g>
<g>
</g>
<g>
</g>
<g>
</g>
<g>
</g>
<g>
</g>
<g>
</g>
<g>
</g>
<g>
</g>
<g>
</g>
<g>
</g>
<g>
</g>
</svg>
