<?xml version="1.0" encoding="iso-8859-1"?>
<!-- Generator: Adobe Illustrator 19.0.0, SVG Export Plug-In . SVG Version: 6.00 Build 0)  -->
<svg version="1.1" id="Capa_1" xmlns="http://www.w3.org/2000/svg" xmlns:xlink="http://www.w3.org/1999/xlink" x="0px" y="0px"
	 viewBox="0 0 512 512" style="enable-background:new 0 0 512 512;" xml:space="preserve">
<g>
	<g>
		<path d="M166.127,157.957c-2.167,0-4.245,0.861-5.777,2.392c-1.533,1.533-2.393,3.61-2.393,5.778v32.68v87.154v119.825
			c0,4.513,3.658,8.17,8.17,8.17c34.19,0,66.333-13.315,90.51-37.49c24.176-24.176,37.49-56.32,37.49-90.51
			C294.127,215.378,236.707,157.957,166.127,157.957z M174.298,207.398c22.878,2.363,42.874,14.543,55.734,32.231l-55.734,32.178
			V207.398z M182.468,285.957l55.772-32.2c4.411,9.839,6.866,20.738,6.866,32.2c0,11.288-2.374,22.206-6.847,32.211L182.468,285.957
			z M230.076,332.312c-2.43,3.338-5.127,6.517-8.102,9.492c-12.974,12.973-29.668,20.879-47.676,22.718v-64.413L230.076,332.312z
			 M245.083,364.913c-19.153,19.152-44.036,30.49-70.786,32.412v-16.413c22.378-1.888,43.168-11.49,59.231-27.552
			c18.004-18.005,27.918-41.942,27.918-67.402c0-17.201-4.581-33.351-12.584-47.297c-0.062-0.121-0.117-0.244-0.185-0.363
			c-0.093-0.16-0.197-0.31-0.3-0.463c-15.267-25.995-42.5-44.149-74.08-46.843v-16.398c57.77,4.196,103.489,52.541,103.489,111.363
			C277.787,315.783,266.172,343.822,245.083,364.913z"/>
	</g>
</g>
<g>
	<g>
		<path d="M440.962,139.248c-21.004-15.577-53.272-16.092-86.319-1.379c-2.932,1.306-6.03,4.208-6.048,7.419v216.724
			c-0.015,2.823,1.426,5.452,3.813,6.958c1.326,0.836,2.839,1.258,4.357,1.258c1.216,0,2.434-0.271,3.563-0.818
			c25.999-12.601,50.789-33.659,69.805-59.296c24.074-32.458,37.666-69.169,38.269-103.372
			C468.936,176.739,459.191,152.769,440.962,139.248z M417.009,300.38c-14.543,19.606-31.583,36.258-50.903,47.907V150.769
			c25.79-10.235,49.862-9.712,65.121,1.604c13.873,10.291,21.274,29.497,20.837,54.081
			C451.522,237.278,439.071,270.636,417.009,300.38z"/>
	</g>
</g>
<g>
	<g>
		<path d="M460.43,112.999c-25.598-18.988-59.173-23.659-95.495-13.52V62.638c0-4.513-3.658-8.17-8.17-8.17H125.25V8.17
			c0-4.513-3.658-8.17-8.17-8.17H84.399c-4.512,0-8.17,3.657-8.17,8.17v46.298H19.063c-4.512,0-8.17,3.657-8.17,8.17v375.83
			c0,15.114,8.249,28.336,20.482,35.401c-2.614,3.898-4.142,8.584-4.142,13.62c0,13.515,10.995,24.511,24.511,24.511h272.34
			c13.516,0,24.511-10.996,24.511-24.511c0-5.036-1.526-9.723-4.142-13.62c12.234-7.065,20.482-20.287,20.482-35.401V403.16
			c34.336-14.181,66.644-40.138,91.448-73.577c28.098-37.881,43.971-81.302,44.698-122.261
			C501.803,166.476,487.367,132.979,460.43,112.999z M92.569,16.34h16.34v38.128h-16.34V16.34z M92.569,70.809h16.34v37.103
			c-6.703-1.379-11.487-4.018-16.34-7.066V70.809z M92.568,119.561h0.001c6.26,2.977,13.917,5.3,24.435,5.657
			c0.025,0,0.05,0.003,0.075,0.003c0.92,0.027,1.813,0.056,2.744,0.056c19.411,0,29.525-6.472,38.447-12.182
			c8.053-5.154,15.007-9.605,29.638-9.605c14.631,0,21.586,4.451,29.639,9.605c8.923,5.709,19.035,12.182,38.448,12.182
			c19.412,0,29.525-6.472,38.448-12.182c6.388-4.088,12.084-7.734,21.469-9.067v326.261c-28.037,0.005-122.674,0.009-190.664,0.009
			V149.732c0-4.513-3.658-8.17-8.17-8.17c-4.512,0-8.17,3.657-8.17,8.17v280.552h-16.34V119.561z M484.742,207.032
			c-0.666,37.582-15.398,77.648-41.484,112.818c-23.315,31.432-53.598,55.684-85.609,68.636c-0.769-0.085-1.56-0.06-2.353,0.086
			c-3.881,0.708-6.702,4.092-6.702,8.037v41.859c0,13.515-10.995,24.511-24.511,24.511c-4.512,0-8.17,3.657-8.17,8.17
			s3.658,8.17,8.17,8.17c4.506,0,8.17,3.665,8.17,8.17c0,4.506-3.665,8.17-8.17,8.17H51.743c-4.506,0-8.17-3.665-8.17-8.17
			c0-4.506,3.665-8.17,8.17-8.17h239.66c4.512,0,8.17-3.657,8.17-8.17s-3.658-8.17-8.17-8.17H51.743
			c-13.515,0-24.51-10.996-24.51-24.511V70.809h48.995v20.834c-6.32-2.616-14.053-4.494-24.488-4.494
			c-4.512,0-8.17,3.657-8.17,8.169l-0.023,343.053c0,1.045,0.2,2.077,0.587,3.043c1.187,3.074,4.17,5.225,7.622,5.225l229.753-0.005
			c43.553-0.004,43.553-0.004,44.541-0.249c3.645-0.903,6.204-4.174,6.204-7.929V95.319c0-4.513-3.658-8.17-8.17-8.17
			c-19.412,0-29.526,6.472-38.448,12.182c-8.054,5.154-15.008,9.605-29.639,9.605s-21.587-4.451-29.639-9.605
			c-8.924-5.71-19.037-12.182-38.449-12.182c-19.411,0-29.525,6.472-38.447,12.182c-6.985,4.471-13.152,8.408-24.212,9.374V70.809
			h223.345v39.831c0,2.656,1.29,5.145,3.459,6.676c2.169,1.529,4.947,1.914,7.448,1.022c35.178-12.505,67.565-9.74,91.194,7.785
			C473.278,142.874,485.37,171.607,484.742,207.032z M76.229,109.896v320.402h-16.34l0.023-326.27
			C66.743,104.998,71.618,107.196,76.229,109.896z"/>
	</g>
</g>
<g>
</g>
<g>
</g>
<g>
</g>
<g>
</g>
<g>
</g>
<g>
</g>
<g>
</g>
<g>
</g>
<g>
</g>
<g>
</g>
<g>
</g>
<g>
</g>
<g>
</g>
<g>
</g>
<g>
</g>
</svg>
