<?xml version="1.0" encoding="iso-8859-1"?>
<!-- Generator: Adobe Illustrator 19.0.0, SVG Export Plug-In . SVG Version: 6.00 Build 0)  -->
<svg version="1.1" id="Capa_1" xmlns="http://www.w3.org/2000/svg" xmlns:xlink="http://www.w3.org/1999/xlink" x="0px" y="0px"
	 viewBox="0 0 512 512" style="enable-background:new 0 0 512 512;" xml:space="preserve">
<g>
	<g>
		<path d="M239.66,495.66h-6.336c-16.176-24.981-43.15-41.131-72.643-43.669v-98.35c42.732-4.124,76.255-40.228,76.255-84.024V8.17
			c0-4.513-3.657-8.17-8.17-8.17H76.255c-4.513,0-8.17,3.657-8.17,8.17v261.447c0,43.796,33.523,79.899,76.255,84.024v98.35
			c-29.493,2.538-56.467,18.688-72.643,43.669h-6.336c-4.513,0-8.17,3.657-8.17,8.17c0,4.513,3.657,8.17,8.17,8.17h163.396
			c0.033,0,10.902,0,10.902,0c4.513,0,8.17-3.657,8.17-8.17C247.83,499.317,244.173,495.66,239.66,495.66z M84.425,269.617V16.34
			h103.489v125.277h-70.809V40.851c0-4.513-3.657-8.17-8.17-8.17c-4.513,0-8.17,3.657-8.17,8.17v228.766
			c0,28.531,23.213,51.745,51.745,51.745c28.531,0,51.745-23.213,51.745-51.745c0-4.513-3.657-8.17-8.17-8.17
			c-4.513,0-8.17,3.657-8.17,8.17c0,19.522-15.882,35.404-35.404,35.404c-19.522,0-35.404-15.882-35.404-35.404v-111.66h70.809
			v78.979c0,4.513,3.657,8.17,8.17,8.17c4.513,0,8.17-3.657,8.17-8.17V16.34h16.34v253.277c0,37.543-30.542,68.085-68.085,68.085
			C114.968,337.702,84.425,307.16,84.425,269.617z M92.08,495.66c15.038-17.354,37.088-27.693,60.43-27.693
			c23.342,0,45.393,10.339,60.43,27.693H92.08z"/>
	</g>
</g>
<g>
	<g>
		<path d="M446.638,495.66h-6.336c-16.176-24.981-43.15-41.131-72.643-43.669v-98.35c42.732-4.124,76.255-40.228,76.255-84.024V8.17
			c0-4.513-3.657-8.17-8.17-8.17H283.234c-4.513,0-8.17,3.657-8.17,8.17v261.447c0,43.796,33.523,79.899,76.255,84.024v98.35
			c-29.493,2.538-56.467,18.688-72.643,43.669h-6.336c-4.513,0-8.17,3.657-8.17,8.17c0,4.513,3.657,8.17,8.17,8.17h163.396
			c0.033,0,10.902,0,10.902,0c4.513,0,8.17-3.657,8.17-8.17C454.809,499.317,451.152,495.66,446.638,495.66z M291.404,269.617V16.34
			h103.489v125.277h-70.809V40.851c0-4.513-3.657-8.17-8.17-8.17c-4.513,0-8.17,3.657-8.17,8.17v228.766
			c0,28.531,23.213,51.745,51.745,51.745s51.745-23.213,51.745-51.745c0-4.513-3.657-8.17-8.17-8.17s-8.17,3.657-8.17,8.17
			c0,19.522-15.882,35.404-35.404,35.404c-19.522,0-35.404-15.882-35.404-35.404v-111.66h70.809v78.979
			c0,4.513,3.657,8.17,8.17,8.17s8.17-3.657,8.17-8.17V16.34h16.34v253.277c0,37.543-30.542,68.085-68.085,68.085
			C321.947,337.702,291.404,307.16,291.404,269.617z M299.059,495.66c15.038-17.354,37.088-27.693,60.43-27.693
			c23.342,0,45.393,10.339,60.43,27.693H299.059z"/>
	</g>
</g>
<g>
	<g>
		<circle cx="152.511" cy="264.715" r="8.17"/>
	</g>
</g>
<g>
	<g>
		<circle cx="152.511" cy="221.14" r="8.17"/>
	</g>
</g>
<g>
	<g>
		<circle cx="359.489" cy="264.715" r="8.17"/>
	</g>
</g>
<g>
	<g>
		<circle cx="359.489" cy="221.14" r="8.17"/>
	</g>
</g>
<g>
</g>
<g>
</g>
<g>
</g>
<g>
</g>
<g>
</g>
<g>
</g>
<g>
</g>
<g>
</g>
<g>
</g>
<g>
</g>
<g>
</g>
<g>
</g>
<g>
</g>
<g>
</g>
<g>
</g>
</svg>
