<?xml version="1.0" encoding="iso-8859-1"?>
<!-- Generator: Adobe Illustrator 19.0.0, SVG Export Plug-In . SVG Version: 6.00 Build 0)  -->
<svg version="1.1" id="Capa_1" xmlns="http://www.w3.org/2000/svg" xmlns:xlink="http://www.w3.org/1999/xlink" x="0px" y="0px"
	 viewBox="0 0 512 512" style="enable-background:new 0 0 512 512;" xml:space="preserve">
<g>
	<g>
		<path d="M506.425,186.016c0.611-2.86-0.354-5.829-2.529-7.785c-23.535-21.146-57.26-35.033-93.621-39.982
			c3.917-24.079,2.246-48.906-4.957-72.339c-1.067-3.474-4.28-5.813-7.939-5.768c-24.5,0.39-48.615,6.466-70.298,17.624
			C311.237,44.929,287.711,17.082,260.092,1.1c-2.532-1.466-5.653-1.466-8.185,0c-27.383,15.847-51.014,43.631-66.957,76.683
			c-21.69-11.167-45.816-17.25-70.329-17.64c-3.628-0.047-6.871,2.293-7.939,5.768c-7.2,23.421-8.872,48.235-4.962,72.303
			c-36.125,4.923-69.879,18.691-93.614,40.018c-2.175,1.955-3.141,4.925-2.529,7.785c6.61,30.945,25.729,62.008,52.229,87.386
			C40.486,290.58,27.25,311.644,19.306,334.83c-1.179,3.439,0.058,7.243,3.032,9.333c20.052,14.085,43.133,23.344,67.231,27.062
			c-6.483,35.878-3.818,72.236,9.132,101.401c1.187,2.672,3.711,4.508,6.621,4.811c4.434,0.461,8.94,0.687,13.512,0.687
			c27.883-0.001,57.965-8.435,85.739-23.352c10.984,21.775,26.924,40.872,46.519,55.591c1.454,1.093,3.181,1.637,4.908,1.637
			c1.727,0,3.453-0.546,4.908-1.637c19.587-14.714,35.522-33.8,46.506-55.564c27.603,14.827,57.636,23.329,85.683,23.329
			c4.585,0,9.122-0.228,13.583-0.692c2.91-0.303,5.435-2.138,6.621-4.812c12.838-28.916,15.625-65.283,9.096-101.395
			c24.111-3.715,47.205-12.974,67.267-27.067c2.974-2.089,4.21-5.893,3.032-9.333c-7.94-23.176-21.17-44.231-38.476-61.404
			C480.553,248.209,499.759,217.223,506.425,186.016z M391.402,76.717c5.089,19.571,5.96,40.046,2.576,59.925
			c-12.129-0.742-24.418-0.485-36.608,0.816l20.506-28.224c2.653-3.65,1.843-8.76-1.807-11.412
			c-3.648-2.653-8.76-1.842-11.412,1.807l-20.476,28.182c-2.523-11.953-6.071-23.715-10.535-35.043
			C351.498,83.416,371.227,77.923,391.402,76.717z M120.598,76.717c20.187,1.206,39.928,6.706,57.787,16.067
			c-4.453,11.306-8.007,23.073-10.537,35.068l-20.506-28.223c-2.653-3.651-7.761-4.461-11.412-1.807
			c-3.651,2.653-4.46,7.762-1.807,11.412l20.476,28.182c-12.146-1.294-24.43-1.555-36.583-0.809
			C114.639,116.738,115.512,96.277,120.598,76.717z M93.076,355.228c-19.94-2.926-39.13-10.078-56.161-20.962
			c7.385-18.819,18.711-35.891,33.126-49.983c9.373,7.728,19.46,14.742,30.082,20.855L66.971,315.91
			c-4.291,1.394-6.641,6.003-5.245,10.294c1.121,3.453,4.325,5.648,7.768,5.648c0.838,0,1.689-0.13,2.526-0.402l33.131-10.765
			C100.166,331.838,96.123,343.44,93.076,355.228z M256,493.441c-15.617-12.838-28.354-28.888-37.3-46.953
			c10.244-6.524,20.037-13.942,29.13-22.152v34.848c0,4.513,3.657,8.17,8.17,8.17c4.513,0,8.17-3.657,8.17-8.17v-34.803
			c9.061,8.181,18.856,15.592,29.12,22.128C284.344,464.568,271.612,480.608,256,493.441z M475.086,334.267
			c-17.042,10.89-36.245,18.043-56.196,20.967c-3.043-11.764-7.084-23.372-12.088-34.564l33.18,10.78
			c0.839,0.272,1.69,0.402,2.526,0.402c3.443,0,6.647-2.195,7.768-5.648c1.394-4.291-0.954-8.9-5.245-10.294l-33.099-10.755
			c10.581-6.089,20.66-13.11,30.049-20.853C456.385,298.392,467.705,315.457,475.086,334.267z M438.027,266.341
			c-0.703,0.421-1.355,0.953-1.927,1.6c-0.078,0.089-0.145,0.183-0.219,0.275c-14.372,12.481-30.711,23.126-48.125,31.025
			c-0.076,0.031-0.15,0.066-0.227,0.098c-0.089,0.038-0.178,0.078-0.266,0.12c-0.101,0.047-0.204,0.09-0.303,0.142
			c-5.824,2.609-11.756,4.927-17.782,6.885c-10.13,3.292-20.603,4.429-31.124,3.368c-4.478-0.44-8.495,2.824-8.947,7.313
			c-0.451,4.49,2.824,8.495,7.313,8.947c3.096,0.31,6.185,0.466,9.267,0.466c9.653,0,19.22-1.523,28.541-4.554
			c4.322-1.404,8.603-2.978,12.836-4.701c7.89,15.218,13.755,31.479,17.514,47.92c0.068,0.541,0.187,1.063,0.353,1.562
			c7.37,33.431,6.037,67.465-4.718,94.77c-29.403,1.815-61.917-7.386-91.062-24.366c-0.619-0.541-1.328-0.999-2.121-1.343
			c-0.112-0.049-0.227-0.084-0.34-0.127c-16.3-9.808-31.464-22.051-44.351-36.16c-0.056-0.069-0.114-0.132-0.172-0.198
			c-0.057-0.065-0.117-0.13-0.175-0.193c-0.089-0.097-0.176-0.195-0.271-0.288c-4.275-4.727-8.309-9.647-12.027-14.765
			c-6.249-8.602-10.558-18.205-12.809-28.546c-0.96-4.409-5.308-7.213-9.72-6.245c-4.409,0.959-7.205,5.311-6.245,9.72
			c2.734,12.566,7.966,24.232,15.555,34.675c2.674,3.681,5.51,7.263,8.46,10.761c-12.044,12.215-25.708,22.823-40.196,31.48
			c-0.487,0.23-0.942,0.5-1.362,0.809c-29.518,17.328-62.299,26.572-91.595,24.784c-10.805-27.389-12.105-61.146-4.97-94.106
			c0.33-0.764,0.556-1.588,0.639-2.461c0.013-0.142,0.013-0.282,0.02-0.423c4.278-18.459,11.202-36.592,20.588-53.151
			c0.18-0.266,0.337-0.551,0.486-0.842c0.07-0.134,0.129-0.22,0.174-0.318c3.14-5.448,6.532-10.73,10.201-15.78
			c6.254-8.608,14.065-15.681,23.216-21.018c3.898-2.273,5.214-7.277,2.94-11.175c-2.275-3.898-7.277-5.215-11.175-2.94
			c-11.119,6.487-20.607,15.076-28.201,25.529c-2.674,3.681-5.209,7.481-7.624,11.369c-15.324-7.672-29.623-17.377-42.325-28.466
			c-0.385-0.413-0.802-0.778-1.246-1.094c-25.592-22.716-44.505-51.028-51.849-79.438c22.733-18.76,54.48-30.434,88.072-33.818
			c0.217,0.017,0.43,0.056,0.65,0.056c0.586,0,1.182-0.064,1.778-0.196c0.141-0.032,0.275-0.075,0.412-0.113
			c18.873-1.634,38.253-0.654,56.897,3.153c0.444,0.13,0.903,0.231,1.379,0.284c6.133,1.3,12.185,2.89,18.101,4.813
			c10.11,3.286,19.241,8.522,27.14,15.565c3.369,3.004,8.534,2.707,11.535-0.66c3.003-3.368,2.707-8.533-0.66-11.535
			c-9.598-8.558-20.688-14.92-32.965-18.909c-4.322-1.404-8.712-2.64-13.148-3.733c2.563-16.959,7.379-33.571,14.007-49.089
			c0.259-0.473,0.468-0.959,0.625-1.455c13.69-31.375,34.771-58.124,59.522-73.892c24.839,15.804,45.729,42.347,59.33,73.201
			c0.182,0.816,0.488,1.618,0.936,2.377c0.072,0.121,0.154,0.233,0.231,0.35c7.391,17.454,12.449,36.2,14.59,55.12
			c0.015,0.445,0.059,0.893,0.15,1.343c0.657,6.242,1.016,12.499,1.016,18.732c0,10.654-2.159,20.967-6.419,30.651
			c-1.817,4.131,0.06,8.952,4.19,10.768c1.07,0.472,2.186,0.694,3.286,0.694c3.142,0,6.137-1.824,7.483-4.883
			c5.177-11.771,7.801-24.296,7.801-37.231c0-4.544-0.182-9.101-0.512-13.658c16.922-2.803,34.209-3.357,51.015-1.849
			c0.511,0.096,1.021,0.154,1.523,0.154c0.025,0,0.05-0.007,0.075-0.007c34.062,3.327,66.008,15.109,88.648,33.772
			C481.986,215.783,463.185,243.866,438.027,266.341z"/>
	</g>
</g>
<g>
	<g>
		<path d="M256,222.23c-22.526,0-40.851,18.325-40.851,40.851c0,22.526,18.326,40.851,40.851,40.851s40.851-18.325,40.851-40.851
			S278.526,222.23,256,222.23z M256,287.592c-13.515,0-24.511-10.996-24.511-24.511c0-13.515,10.996-24.511,24.511-24.511
			c13.515,0,24.511,10.996,24.511,24.511C280.511,276.596,269.515,287.592,256,287.592z"/>
	</g>
</g>
<g>
	<g>
		<circle cx="256" cy="197.72" r="8.17"/>
	</g>
</g>
<g>
	<g>
		<circle cx="217.578" cy="210.204" r="8.17"/>
	</g>
</g>
<g>
	<g>
		<circle cx="193.841" cy="242.885" r="8.17"/>
	</g>
</g>
<g>
	<g>
		<circle cx="193.841" cy="283.278" r="8.17"/>
	</g>
</g>
<g>
	<g>
		<circle cx="217.578" cy="315.959" r="8.17"/>
	</g>
</g>
<g>
	<g>
		<circle cx="256" cy="328.443" r="8.17"/>
	</g>
</g>
<g>
	<g>
		<circle cx="294.422" cy="315.959" r="8.17"/>
	</g>
</g>
<g>
	<g>
		<circle cx="318.159" cy="283.278" r="8.17"/>
	</g>
</g>
<g>
	<g>
		<circle cx="318.159" cy="242.885" r="8.17"/>
	</g>
</g>
<g>
	<g>
		<circle cx="294.422" cy="210.204" r="8.17"/>
	</g>
</g>
<g>
</g>
<g>
</g>
<g>
</g>
<g>
</g>
<g>
</g>
<g>
</g>
<g>
</g>
<g>
</g>
<g>
</g>
<g>
</g>
<g>
</g>
<g>
</g>
<g>
</g>
<g>
</g>
<g>
</g>
</svg>
