<?xml version="1.0" encoding="iso-8859-1"?>
<!-- Generator: Adobe Illustrator 19.0.0, SVG Export Plug-In . SVG Version: 6.00 Build 0)  -->
<svg version="1.1" id="Capa_1" xmlns="http://www.w3.org/2000/svg" xmlns:xlink="http://www.w3.org/1999/xlink" x="0px" y="0px"
	 viewBox="0 0 512 512" style="enable-background:new 0 0 512 512;" xml:space="preserve">
<g>
	<g>
		<path d="M512,319.863c0-20.912-12.633-39.572-31.461-47.596l15.059-122.985c0.387-3.16-1.098-6.258-3.804-7.936
			s-6.141-1.631-8.8,0.121l-46.42,30.581c-15.656-31.77-49.192-60.484-99.89-85.469C314.1,75.447,292.863,67.46,278.165,62.48
			c4.839-5.323,7.791-12.389,7.791-20.131c0-16.518-13.439-29.957-29.957-29.957c-16.519,0-29.957,13.439-29.957,29.957
			c0,7.742,2.952,14.809,7.791,20.131c-14.698,4.979-35.935,12.968-58.519,24.099c-50.698,24.986-84.234,53.701-99.889,85.471
			l-46.419-30.583c-2.659-1.752-6.094-1.797-8.801-0.121c-2.706,1.678-4.192,4.776-3.804,7.936l15.06,122.984
			C12.633,280.291,0,298.95,0,319.863c0,25.528,18.965,47.081,43.541,51.063l4.546,37.122c-4.853,1.109-9.379,3.08-13.407,5.75
			l-2.523-2.522c-3.191-3.192-8.364-3.191-11.555-0.001c-3.191,3.191-3.191,8.364,0,11.554l2.524,2.524
			c-2.842,4.287-4.902,9.133-5.963,14.341h-3.546c-4.512,0-8.17,3.657-8.17,8.17c0,4.513,3.658,8.17,8.17,8.17h3.546
			c3.795,18.624,20.3,32.681,40.029,32.681h35.404v2.723c0,4.513,3.658,8.17,8.17,8.17c4.512,0,8.17-3.657,8.17-8.17v-10.894
			c0-4.513-3.658-8.17-8.17-8.17H57.192c-13.516,0-24.511-10.996-24.511-24.511c0-13.515,10.995-24.511,24.511-24.511h321.362
			c4.513,0,8.17-3.657,8.17-8.17v-10.894c0-4.513-3.657-8.17-8.17-8.17c-4.513,0-8.17,3.657-8.17,8.17v2.723h-59.915v-2.723
			c0-4.513-3.657-8.17-8.17-8.17c-4.513,0-8.17,3.657-8.17,8.17v2.723H64.423L34.768,164.83l100.987,66.536
			c2.727,1.797,6.263,1.797,8.99,0l111.248-73.293l111.253,73.293c2.728,1.797,6.262,1.797,8.989,0l100.997-66.536l-29.655,242.181
			h-28.174v-2.723c0-4.513-3.657-8.17-8.17-8.17c-4.513,0-8.17,3.657-8.17,8.17v10.894c0,4.513,3.657,8.17,8.17,8.17h43.568
			c13.533,0.012,24.517,11.004,24.517,24.511c0,13.515-10.996,24.511-24.511,24.511H133.447c-4.512,0-8.17,3.657-8.17,8.17v10.894
			c0,4.513,3.658,8.17,8.17,8.17c4.512,0,8.17-3.657,8.17-8.17v-2.723h201.532v2.723c0,4.513,3.657,8.17,8.17,8.17
			s8.17-3.657,8.17-8.17v-2.723h95.319c8.314,0,16.052-2.502,22.511-6.786l2.523,2.523c1.596,1.595,3.688,2.392,5.778,2.392
			s4.182-0.797,5.778-2.392c3.191-3.192,3.191-8.364,0-11.555l-2.523-2.523c4.282-6.459,6.785-14.197,6.785-22.511
			c0-19.395-13.591-35.665-31.746-39.815l4.546-37.122C493.034,366.944,512,345.391,512,319.863z M41.431,353.695
			c-14.47-4.464-25.09-18.034-25.09-33.832c0-12.654,6.759-24.101,17.228-30.377L41.431,353.695z M256,28.731
			c7.509,0,13.617,6.108,13.617,13.617S263.509,55.965,256,55.965c-7.509,0-13.617-6.108-13.617-13.617S248.491,28.731,256,28.731z
			 M371.741,214.76l-111.253-73.294c-2.728-1.797-6.263-1.797-8.99,0L140.25,214.759l-51.052-33.635
			C120.372,114.21,238.642,77.669,256.002,72.627c17.355,5.034,135.602,41.512,166.799,108.495L371.741,214.76z M478.43,289.486
			c10.47,6.276,17.229,17.723,17.229,30.377c0,15.798-10.62,29.368-25.091,33.832L478.43,289.486z"/>
	</g>
</g>
<g>
	<g>
		<path d="M256,268.118c-28.531,0-51.745,23.213-51.745,51.745s23.213,51.745,51.745,51.745s51.745-23.213,51.745-51.745
			S284.531,268.118,256,268.118z M256,355.267c-19.521,0-35.404-15.882-35.404-35.404s15.883-35.404,35.404-35.404
			c19.522,0,35.404,15.882,35.404,35.404S275.522,355.267,256,355.267z"/>
	</g>
</g>
<g>
</g>
<g>
</g>
<g>
</g>
<g>
</g>
<g>
</g>
<g>
</g>
<g>
</g>
<g>
</g>
<g>
</g>
<g>
</g>
<g>
</g>
<g>
</g>
<g>
</g>
<g>
</g>
<g>
</g>
</svg>
