<?xml version="1.0" encoding="iso-8859-1"?>
<!-- Generator: Adobe Illustrator 19.0.0, SVG Export Plug-In . SVG Version: 6.00 Build 0)  -->
<svg version="1.1" id="Capa_1" xmlns="http://www.w3.org/2000/svg" xmlns:xlink="http://www.w3.org/1999/xlink" x="0px" y="0px"
	 viewBox="0 0 512 512" style="enable-background:new 0 0 512 512;" xml:space="preserve">
<g>
	<g>
		<path d="M471.008,430.856H40.993c-4.527,0-8.196,3.669-8.196,8.196c0,4.528,3.67,8.196,8.196,8.196h430.015
			c4.527,0,8.196-3.669,8.196-8.196C479.204,434.525,475.534,430.856,471.008,430.856z"/>
	</g>
</g>
<g>
	<g>
		<path d="M511.987,438.857l-4.012-158.476c-0.115-4.527-3.871-8.058-8.402-7.988c-4.525,0.115-8.101,3.876-7.987,8.401
			l4.012,158.476c0.164,6.49-2.222,12.605-6.72,17.218c-4.497,4.614-10.549,7.154-17.042,7.154H40.162
			c-6.493,0-12.545-2.54-17.042-7.154c-4.498-4.613-6.884-10.726-6.72-17.218l7.822-308.952h463.443l3.093,117.711
			c0.117,4.451,3.763,7.981,8.19,7.981c0.073,0,0.146-0.001,0.22-0.003c4.526-0.118,8.098-3.884,7.979-8.408l-3.281-124.844
			c0.016-0.209,0.032-0.419,0.032-0.633c0-0.361-0.032-0.714-0.077-1.062l-0.837-31.837c-0.063-31.582-25.778-57.256-57.375-57.256
			c-14.11,0-27.516,5.131-37.922,14.314c-10.406-9.182-23.812-14.314-37.922-14.314c-14.11,0-27.516,5.131-37.922,14.314
			c-10.406-9.182-23.812-14.314-37.922-14.314c-14.11,0-27.516,5.131-37.922,14.314c-10.406-9.182-23.812-14.314-37.922-14.314
			s-27.515,5.131-37.922,14.314c-10.406-9.182-23.812-14.314-37.922-14.314s-27.515,5.131-37.922,14.314
			C93.906,37.098,80.5,31.966,66.391,31.966c-31.632,0-57.371,25.735-57.374,57.368c0,4.528,3.669,8.196,8.195,8.197
			c4.528,0,8.196-3.669,8.197-8.195c0.002-22.596,18.387-40.977,40.982-40.977c12.262,0,23.781,5.428,31.605,14.891
			c1.557,1.884,3.873,2.975,6.317,2.975s4.76-1.091,6.317-2.975c7.824-9.463,19.343-14.891,31.604-14.891
			c12.262,0,23.781,5.428,31.604,14.891c1.557,1.884,3.873,2.975,6.318,2.975s4.76-1.091,6.318-2.975
			c7.824-9.463,19.342-14.891,31.604-14.891c12.262,0,23.781,5.428,31.605,14.891c1.556,1.884,3.873,2.975,6.317,2.975
			c2.444,0,4.759-1.091,6.317-2.975c7.824-9.463,19.343-14.891,31.605-14.891c12.262,0,23.78,5.428,31.604,14.891
			c1.557,1.884,3.873,2.975,6.318,2.975s4.76-1.091,6.317-2.975c7.824-9.463,19.343-14.891,31.605-14.891
			c12.262,0,23.78,5.428,31.604,14.891c1.557,1.884,3.873,2.975,6.318,2.975c2.445,0,4.76-1.091,6.318-2.975
			c7.824-9.463,19.342-14.891,31.604-14.891c22.596,0,40.98,18.382,40.982,40.977c0,0.071,0.001,0.143,0.002,0.214l0.64,24.374
			H16.231c-4.446,0-8.082,3.544-8.194,7.99L0.013,438.857c-0.276,10.946,3.76,21.272,11.37,29.075
			c7.609,7.805,17.83,12.102,28.779,12.102h431.675c10.949,0,21.171-4.298,28.779-12.102
			C508.226,460.129,512.264,449.802,511.987,438.857z"/>
	</g>
</g>
<g>
</g>
<g>
</g>
<g>
</g>
<g>
</g>
<g>
</g>
<g>
</g>
<g>
</g>
<g>
</g>
<g>
</g>
<g>
</g>
<g>
</g>
<g>
</g>
<g>
</g>
<g>
</g>
<g>
</g>
</svg>
