<?xml version="1.0" encoding="iso-8859-1"?>
<!-- Generator: Adobe Illustrator 19.0.0, SVG Export Plug-In . SVG Version: 6.00 Build 0)  -->
<svg version="1.1" id="Capa_1" xmlns="http://www.w3.org/2000/svg" xmlns:xlink="http://www.w3.org/1999/xlink" x="0px" y="0px"
	 viewBox="0 0 512 512" style="enable-background:new 0 0 512 512;" xml:space="preserve">
<g>
	<g>
		<path d="M156.115,280.559c-10.845-1.177-14.498-1.572-14.498-13.665c0-4.513-3.658-8.17-8.17-8.17c-4.512,0-8.17,3.657-8.17,8.17
			v87.414c-4.088-1.905-8.715-2.988-13.617-2.988c-16.519,0-29.957,12.217-29.957,27.234s13.438,27.234,29.957,27.234
			c16.519,0,29.957-12.217,29.957-27.234v-84.209c4.421,1.557,9.009,2.055,12.736,2.459c10.845,1.177,14.498,1.572,14.498,13.665
			c0,4.513,3.658,8.17,8.17,8.17s8.17-3.657,8.17-8.17C185.192,283.711,166.99,281.737,156.115,280.559z M111.66,389.447
			c-7.509,0-13.617-4.887-13.617-10.894c0-6.007,6.108-10.894,13.617-10.894s13.617,4.887,13.617,10.894
			C125.277,384.56,119.169,389.447,111.66,389.447z"/>
	</g>
</g>
<g>
	<g>
		<path d="M100.766,324.085H89.872c-4.512,0-8.17,3.657-8.17,8.17s3.658,8.17,8.17,8.17h10.894c4.512,0,8.17-3.657,8.17-8.17
			S105.278,324.085,100.766,324.085z"/>
	</g>
</g>
<g>
	<g>
		<path d="M324.085,324.085H166.128c-4.512,0-8.17,3.657-8.17,8.17s3.658,8.17,8.17,8.17h157.957c4.512,0,8.17-3.657,8.17-8.17
			S328.597,324.085,324.085,324.085z"/>
	</g>
</g>
<g>
	<g>
		<path d="M324.085,291.404H208.034c-4.512,0-8.17,3.657-8.17,8.17s3.658,8.17,8.17,8.17h116.051c4.512,0,8.17-3.657,8.17-8.17
			S328.597,291.404,324.085,291.404z"/>
	</g>
</g>
<g>
	<g>
		<path d="M324.085,356.766H166.128c-4.512,0-8.17,3.657-8.17,8.17s3.658,8.17,8.17,8.17h157.957c4.512,0,8.17-3.657,8.17-8.17
			S328.597,356.766,324.085,356.766z"/>
	</g>
</g>
<g>
	<g>
		<path d="M100.766,291.404H89.872c-4.512,0-8.17,3.657-8.17,8.17s3.658,8.17,8.17,8.17h10.894c4.512,0,8.17-3.657,8.17-8.17
			S105.278,291.404,100.766,291.404z"/>
	</g>
</g>
<g>
	<g>
		<path d="M303.179,128.048c-10.845-1.177-14.498-1.572-14.498-13.665c0-4.513-3.658-8.17-8.17-8.17c-4.512,0-8.17,3.657-8.17,8.17
			v87.414c-4.088-1.905-8.715-2.988-13.617-2.988c-16.519,0-29.957,12.217-29.957,27.234s13.438,27.234,29.957,27.234
			c16.519,0,29.957-12.217,29.957-27.234v-84.209c4.421,1.557,9.009,2.055,12.736,2.459c10.845,1.176,14.498,1.572,14.498,13.665
			c0,4.513,3.658,8.17,8.17,8.17c4.512,0,8.17-3.657,8.17-8.17C332.255,131.201,314.054,129.227,303.179,128.048z M258.723,236.936
			c-7.509,0-13.617-4.887-13.617-10.894c0-6.007,6.108-10.894,13.617-10.894c7.509,0,13.617,4.887,13.617,10.894
			C272.34,232.049,266.232,236.936,258.723,236.936z"/>
	</g>
</g>
<g>
	<g>
		<path d="M247.83,171.574H89.872c-4.512,0-8.17,3.657-8.17,8.17s3.658,8.17,8.17,8.17H247.83c4.512,0,8.17-3.657,8.17-8.17
			S252.342,171.574,247.83,171.574z"/>
	</g>
</g>
<g>
	<g>
		<path d="M324.085,171.574h-10.894c-4.512,0-8.17,3.657-8.17,8.17s3.658,8.17,8.17,8.17h10.894c4.512,0,8.17-3.657,8.17-8.17
			S328.597,171.574,324.085,171.574z"/>
	</g>
</g>
<g>
	<g>
		<path d="M210.8,204.255H89.872c-4.512,0-8.17,3.657-8.17,8.17s3.658,8.17,8.17,8.17H210.8c4.512,0,8.17-3.657,8.17-8.17
			S215.312,204.255,210.8,204.255z"/>
	</g>
</g>
<g>
	<g>
		<path d="M324.085,204.255h-10.894c-4.512,0-8.17,3.657-8.17,8.17s3.658,8.17,8.17,8.17h10.894c4.512,0,8.17-3.657,8.17-8.17
			S328.597,204.255,324.085,204.255z"/>
	</g>
</g>
<g>
	<g>
		<path d="M247.83,138.894H89.872c-4.512,0-8.17,3.657-8.17,8.17s3.658,8.17,8.17,8.17H247.83c4.512,0,8.17-3.657,8.17-8.17
			S252.342,138.894,247.83,138.894z"/>
	</g>
</g>
<g>
	<g>
		<path d="M437.563,147.808l46.658,20.361c2.525,1.101,5.437,0.857,7.743-0.654c2.306-1.51,3.695-4.079,3.695-6.835V73.532
			C495.66,32.986,462.674,0,422.128,0H89.872C49.326,0,16.34,32.986,16.34,73.532v364.936C16.34,479.014,49.326,512,89.872,512
			h332.255c40.546,0,73.532-32.986,73.532-73.532v-87.149c0-2.756-1.389-5.326-3.695-6.835c-2.306-1.511-5.216-1.753-7.743-0.654
			l-46.658,20.361l-39.946-17.433V165.241L437.563,147.808z M422.128,479.319c22.526,0,40.851-18.325,40.851-40.851v-32.681
			c0-4.513-3.658-8.17-8.17-8.17c-4.512,0-8.17,3.657-8.17,8.17v32.681c0,13.515-10.995,24.511-24.511,24.511
			c-13.516,0-24.511-10.996-24.511-24.511v-73.879l36.679,16.006c2.083,0.909,4.452,0.909,6.535,0l38.488-16.796v74.669
			c0,31.535-25.656,57.191-57.191,57.191H89.872c-31.536,0-57.192-25.657-57.192-57.191V73.532
			c0-31.535,25.656-57.191,57.192-57.191h332.255c31.536,0,57.191,25.657,57.191,57.191v74.669l-38.488-16.796
			c-2.083-0.909-4.452-0.909-6.535,0l-36.679,16.006V73.532c0-13.515,10.995-24.511,24.511-24.511
			c13.516,0,24.511,10.996,24.511,24.511v32.681c0,4.513,3.658,8.17,8.17,8.17c4.512,0,8.17-3.657,8.17-8.17V73.532
			c0-22.526-18.325-40.851-40.851-40.851c-22.526,0-40.851,18.325-40.851,40.851v86.411c0,0.024,0,0.048,0,0.072v191.969
			c0,0.024,0,0.048,0,0.072v86.411C381.277,460.994,399.602,479.319,422.128,479.319z"/>
	</g>
</g>
<g>
</g>
<g>
</g>
<g>
</g>
<g>
</g>
<g>
</g>
<g>
</g>
<g>
</g>
<g>
</g>
<g>
</g>
<g>
</g>
<g>
</g>
<g>
</g>
<g>
</g>
<g>
</g>
<g>
</g>
</svg>
