<?xml version="1.0" encoding="iso-8859-1"?>
<!-- Generator: Adobe Illustrator 19.0.0, SVG Export Plug-In . SVG Version: 6.00 Build 0)  -->
<svg version="1.1" id="Capa_1" xmlns="http://www.w3.org/2000/svg" xmlns:xlink="http://www.w3.org/1999/xlink" x="0px" y="0px"
	 viewBox="0 0 512.001 512.001" style="enable-background:new 0 0 512.001 512.001;" xml:space="preserve">
<g>
	<g>
		<path d="M278.548,211.591c-1.391-4.292-6.005-6.638-10.292-5.245l-4.085,1.327v-4.295c0-4.513-3.657-8.17-8.17-8.17
			c-4.513,0-8.17,3.657-8.17,8.17v4.295l-4.085-1.327c-4.286-1.392-8.9,0.953-10.294,5.245c-1.394,4.291,0.954,8.9,5.245,10.294
			l4.085,1.327l-2.525,3.475c-2.653,3.65-1.843,8.76,1.807,11.412c1.45,1.055,3.13,1.562,4.795,1.562
			c2.525,0,5.016-1.168,6.616-3.369l2.525-3.475l2.525,3.475c1.599,2.202,4.089,3.369,6.616,3.369c1.665,0,3.345-0.509,4.795-1.562
			c3.652-2.653,4.46-7.762,1.807-11.412l-2.525-3.475l4.085-1.327C277.594,220.491,279.943,215.882,278.548,211.591z"/>
	</g>
</g>
<g>
	<g>
		<path d="M166.616,211.591c-1.391-4.292-6.006-6.638-10.292-5.245l-4.085,1.327v-4.295c0-4.513-3.657-8.17-8.17-8.17
			c-4.513,0-8.17,3.657-8.17,8.17v4.295l-4.085-1.327c-4.287-1.392-8.901,0.953-10.294,5.245c-1.394,4.291,0.954,8.9,5.245,10.294
			l4.085,1.327l-2.525,3.475c-2.653,3.65-1.843,8.76,1.807,11.412c1.45,1.055,3.13,1.562,4.795,1.562
			c2.525,0,5.017-1.168,6.616-3.369l2.525-3.475l2.525,3.475c1.599,2.202,4.089,3.369,6.616,3.369c1.665,0,3.345-0.509,4.795-1.562
			c3.652-2.653,4.46-7.762,1.807-11.412l-2.525-3.475l4.085-1.327C165.662,220.491,168.011,215.882,166.616,211.591z"/>
	</g>
</g>
<g>
	<g>
		<path d="M390.48,211.591c-1.391-4.292-6.006-6.638-10.292-5.245l-4.085,1.327v-4.295c0-4.513-3.657-8.17-8.17-8.17
			c-4.513,0-8.17,3.657-8.17,8.17v4.295l-4.085-1.327c-4.287-1.392-8.901,0.953-10.294,5.245c-1.394,4.291,0.954,8.9,5.245,10.294
			l4.085,1.327l-2.525,3.475c-2.653,3.65-1.843,8.76,1.807,11.412c1.45,1.055,3.13,1.562,4.795,1.562
			c2.525,0,5.017-1.168,6.616-3.369l2.525-3.475l2.525,3.475c1.599,2.202,4.089,3.369,6.616,3.369c1.665,0,3.345-0.509,4.795-1.562
			c3.652-2.653,4.46-7.762,1.807-11.412l-2.525-3.475l4.085-1.327C389.525,220.491,391.875,215.882,390.48,211.591z"/>
	</g>
</g>
<g>
	<g>
		<path d="M503.83,343.149h-8.715V157.868C505.544,147.416,512,133.003,512,117.107c0-0.367-0.033-0.726-0.08-1.08
			c-0.011-0.085-0.025-0.168-0.038-0.253c-0.054-0.33-0.124-0.656-0.217-0.972c-0.007-0.021-0.01-0.042-0.016-0.063
			c-0.105-0.346-0.235-0.681-0.383-1.005c-0.027-0.06-0.057-0.118-0.085-0.178c-0.139-0.289-0.293-0.568-0.465-0.837
			c-0.023-0.036-0.042-0.073-0.065-0.109c-0.192-0.291-0.404-0.566-0.631-0.83c-0.05-0.059-0.104-0.114-0.156-0.171
			c-0.203-0.222-0.415-0.432-0.641-0.632c-0.045-0.039-0.086-0.081-0.132-0.12c-0.267-0.226-0.55-0.431-0.845-0.621
			c-0.058-0.037-0.119-0.072-0.179-0.108c-0.287-0.174-0.582-0.333-0.89-0.472c-0.022-0.01-0.04-0.023-0.061-0.033l-0.071-0.031
			c-0.02-0.009-0.038-0.017-0.057-0.025L259.288,0.691c-2.094-0.922-4.481-0.922-6.574,0L5.01,109.572
			c-0.019,0.008-0.037,0.016-0.056,0.024l-0.071,0.032c-0.022,0.01-0.04,0.023-0.062,0.033c-0.307,0.138-0.604,0.297-0.889,0.472
			c-0.06,0.036-0.12,0.071-0.179,0.108c-0.295,0.191-0.578,0.396-0.845,0.621c-0.046,0.039-0.087,0.081-0.132,0.12
			c-0.226,0.199-0.439,0.41-0.641,0.632c-0.052,0.057-0.106,0.113-0.156,0.171c-0.227,0.264-0.438,0.539-0.631,0.83
			c-0.023,0.035-0.042,0.073-0.065,0.109c-0.171,0.268-0.325,0.547-0.464,0.837c-0.028,0.059-0.059,0.118-0.086,0.178
			c-0.148,0.325-0.279,0.659-0.383,1.005c-0.007,0.021-0.01,0.042-0.016,0.063c-0.093,0.316-0.162,0.641-0.217,0.972
			c-0.014,0.085-0.027,0.168-0.038,0.253C0.033,116.382,0,116.741,0,117.107c0,15.895,6.457,30.309,16.885,40.761v185.282H8.17
			c-4.513,0-8.17,3.657-8.17,8.17s3.657,8.17,8.17,8.17h8.715v144.34c0,4.513,3.657,8.17,8.17,8.17h461.889
			c4.513,0,8.17-3.657,8.17-8.17V359.49h8.715c4.513,0,8.17-3.657,8.17-8.17S508.343,343.149,503.83,343.149z M256,17.096
			l208.938,91.841h-291.73c-4.513,0-8.17,3.657-8.17,8.17c0,4.513,3.657,8.17,8.17,8.17h24.242
			c-3.804,18.925-20.553,33.226-40.582,33.226s-36.778-14.3-40.582-33.226h24.242c4.513,0,8.17-3.657,8.17-8.17
			c0-4.513-3.657-8.17-8.17-8.17H47.062L256,17.096z M375.054,260.165c-1.448-2.572-4.169-4.165-7.121-4.165
			c-2.952,0-5.673,1.593-7.121,4.165l-46.679,82.984h-4.332l-46.678-82.984c-1.449-2.572-4.17-4.165-7.122-4.165
			c-2.952,0-5.673,1.593-7.121,4.165l-46.678,82.984h-4.332l-46.678-82.984c-1.448-2.572-4.169-4.165-7.121-4.165
			c-2.952,0-5.673,1.593-7.121,4.165l-46.679,82.984H65.907V174.261c17.577-2.501,32.633-12.943,41.396-27.571
			c10.095,16.849,28.536,28.152,49.566,28.152c21.03,0,39.471-11.303,49.566-28.152c10.095,16.849,28.536,28.152,49.566,28.152
			c21.03,0,39.471-11.303,49.566-28.152c10.095,16.849,28.536,28.152,49.566,28.152c21.03,0,39.471-11.303,49.566-28.152
			c8.763,14.627,23.819,25.069,41.396,27.571v168.888h-24.361L375.054,260.165z M402.983,343.149h-70.103l35.051-62.314
			L402.983,343.149z M291.052,343.149h-70.103L256,280.836L291.052,343.149z M179.12,343.149h-70.103l35.051-62.314L179.12,343.149z
			 M215.418,125.277h81.164c-3.804,18.925-20.553,33.226-40.582,33.226S219.222,144.204,215.418,125.277z M314.55,125.277h81.164
			c-3.804,18.925-20.553,33.226-40.582,33.226S318.354,144.204,314.55,125.277z M17.161,125.277h81.157
			c-3.804,18.927-20.553,33.226-40.582,33.226C37.709,158.503,20.967,144.203,17.161,125.277z M49.566,174.255v168.895h-16.34
			V169.367C38.313,171.762,43.803,173.435,49.566,174.255z M478.775,378.676c-1.498-1.709-3.691-2.793-6.141-2.793
			c-4.512,0-8.17,3.658-8.17,8.17s3.658,8.17,8.17,8.17c2.451,0,4.644-1.085,6.141-2.793v106.23H33.226V389.429
			c1.498,1.709,3.691,2.793,6.141,2.793c4.512,0,8.17-3.658,8.17-8.17s-3.658-8.17-8.17-8.17c-2.451,0-4.644,1.085-6.141,2.793
			V359.49h61.688c0.015,0,98.167,0,98.167,0c0.034,0,13.765,0,13.765,0c0.015,0,98.167,0,98.167,0c0.034,0,13.764,0,13.764,0
			c0.015,0,98.168,0,98.168,0c0.034,0,61.83,0,61.83,0V378.676z M478.775,343.149h-16.34V174.255
			c5.763-0.819,11.253-2.492,16.34-4.888V343.149z M454.264,158.503c-20.029,0-36.778-14.3-40.582-33.226h81.157
			C491.033,144.203,474.292,158.503,454.264,158.503z"/>
	</g>
</g>
<g>
	<g>
		<circle cx="317.32" cy="384.001" r="8.17"/>
	</g>
</g>
<g>
	<g>
		<circle cx="291.404" cy="409.916" r="8.17"/>
	</g>
</g>
<g>
	<g>
		<circle cx="194.68" cy="384.055" r="8.17"/>
	</g>
</g>
<g>
	<g>
		<circle cx="256.022" cy="419.405" r="8.17"/>
	</g>
</g>
<g>
	<g>
		<circle cx="220.607" cy="409.949" r="8.17"/>
	</g>
</g>
<g>
	<g>
		<circle cx="136.094" cy="409.916" r="8.17"/>
	</g>
</g>
<g>
	<g>
		<circle cx="161.999" cy="384.001" r="8.17"/>
	</g>
</g>
<g>
	<g>
		<circle cx="100.701" cy="419.405" r="8.17"/>
	</g>
</g>
<g>
	<g>
		<circle cx="65.3" cy="409.949" r="8.17"/>
	</g>
</g>
<g>
	<g>
		<circle cx="375.906" cy="409.916" r="8.17"/>
	</g>
</g>
<g>
	<g>
		<circle cx="350.001" cy="384.001" r="8.17"/>
	</g>
</g>
<g>
	<g>
		<circle cx="411.3" cy="419.405" r="8.17"/>
	</g>
</g>
<g>
	<g>
		<circle cx="446.704" cy="409.949" r="8.17"/>
	</g>
</g>
<g>
</g>
<g>
</g>
<g>
</g>
<g>
</g>
<g>
</g>
<g>
</g>
<g>
</g>
<g>
</g>
<g>
</g>
<g>
</g>
<g>
</g>
<g>
</g>
<g>
</g>
<g>
</g>
<g>
</g>
</svg>
