<?xml version="1.0" encoding="iso-8859-1"?>
<!-- Generator: Adobe Illustrator 19.0.0, SVG Export Plug-In . SVG Version: 6.00 Build 0)  -->
<svg version="1.1" id="Capa_1" xmlns="http://www.w3.org/2000/svg" xmlns:xlink="http://www.w3.org/1999/xlink" x="0px" y="0px"
	 viewBox="0 0 512 512" style="enable-background:new 0 0 512 512;" xml:space="preserve">
<g>
	<g>
		<path d="M503.83,453.447h-11.071c-0.021,0-7.993,0-7.993,0v-2.723c0-19.472-9.79-36.694-24.698-47.027
			c1.928-11.424,2.911-23.061,2.911-34.675c0-41.389-12.121-81.165-35.094-115.322l8.513-22.672
			c3.137-3.162,12.194-12.232,19.42-19.459h20.272c16.518,0,29.957-13.44,29.957-29.957c0-16.518-13.439-29.957-29.957-29.957
			h-2.723v-2.723c0-16.518-13.439-29.957-29.957-29.957c-8.002,0-15.526,3.116-21.184,8.775c-5.658,5.659-8.775,13.182-8.774,21.183
			v20.272l-19.513,19.512c-2.437,0.87-6.462,2.379-13.434,4.993c-2.799,1.049-5.886,2.207-9.17,3.439
			c-34.16-22.978-73.942-35.102-115.335-35.102c-114.129,0-206.979,92.85-206.979,206.979c0,1.621,0.025,3.238,0.062,4.85
			c0.101,4.448,3.739,7.985,8.165,7.985c0.062,0,0.125-0.001,0.188-0.002c4.511-0.102,8.085-3.841,7.983-8.353
			c-0.035-1.489-0.058-2.982-0.058-4.479c0-105.118,85.52-190.638,190.638-190.638c34.11,0,67.025,8.941,96.109,25.977
			c-1.599,0.6-3.205,1.203-4.811,1.805l-48.269,18.119c-10.603,3.977-20.045,10.06-28.068,18.082
			c-14.917,14.917-23.132,34.751-23.132,55.847c0,21.097,8.215,40.93,23.132,55.847s34.751,23.131,55.847,23.131
			c21.097,0,40.929-8.215,55.847-23.131c8.019-8.02,14.103-17.462,18.081-28.065l19.931-53.074
			c17.03,29.079,25.97,61.992,25.97,96.099c0,9.075-0.655,18.164-1.934,27.135c-5.411-1.703-11.165-2.624-17.13-2.624
			c-16.59,0-32.157,7.206-42.894,19.371c-10.737-12.165-26.304-19.371-42.894-19.371s-32.157,7.206-42.894,19.371
			c-10.737-12.165-26.304-19.371-42.894-19.371s-32.157,7.206-42.894,19.371c-10.737-12.165-26.304-19.371-42.894-19.371
			s-32.157,7.206-42.894,19.371c-10.737-12.165-26.304-19.371-42.894-19.371c-31.535,0-57.191,25.657-57.191,57.191v2.723H8.17
			c-4.513,0-8.17,3.657-8.17,8.17c0,4.513,3.657,8.17,8.17,8.17h4.73l4.713,16.491c3.466,12.132,16.066,21.637,28.685,21.637
			h419.404c12.619,0,25.219-9.505,28.686-21.637l4.711-16.491h4.73c4.513,0,8.17-3.657,8.17-8.17
			C512,457.104,508.343,453.447,503.83,453.447z M421.314,224.719l-10.202,27.164c-0.012,0.034-25.675,68.368-25.675,68.368
			c-3.154,8.407-7.977,15.893-14.337,22.252c-11.829,11.83-27.56,18.347-44.291,18.347c-16.732,0-32.462-6.515-44.291-18.347
			c-11.831-11.829-18.347-27.56-18.347-44.291s6.516-32.462,18.347-44.291c6.361-6.362,13.847-11.186,22.255-14.338
			c27.547-10.344,76.249-28.625,91.676-34.399l3.991,3.991c1.596,1.595,3.688,2.392,5.778,2.392s4.182-0.797,5.778-2.392
			c3.191-3.192,3.191-8.364,0-11.555l-1.926-1.926l17.332-17.331c1.533-1.533,2.393-3.61,2.393-5.778v-23.658
			c0-3.636,1.416-7.056,3.988-9.628c2.571-2.571,5.992-3.988,9.629-3.988c7.509,0,13.617,6.108,13.617,13.617v10.896
			c0.001,4.511,3.657,8.167,8.168,8.168h10.896c7.509,0,13.617,6.108,13.617,13.617s-6.108,13.617-13.617,13.617h-23.657
			c-2.167,0-4.244,0.861-5.778,2.392c0,0-5.771,5.773-11.543,11.552c-2.887,2.891-5.776,5.786-7.94,7.96
			C423.06,221.264,421.693,222.636,421.314,224.719z M43.574,450.723c0-22.526,18.325-40.851,40.851-40.851
			c14.84,0,28.538,8.078,35.748,21.08c1.439,2.597,4.176,4.207,7.145,4.207s5.705-1.611,7.145-4.207
			c7.21-13.003,20.908-21.08,35.748-21.08s28.538,8.078,35.749,21.08c1.439,2.597,4.175,4.207,7.145,4.207
			c2.97,0,5.705-1.611,7.145-4.207c7.211-13.003,20.908-21.08,35.749-21.08c14.84,0,28.538,8.078,35.748,21.08
			c1.439,2.597,4.176,4.207,7.145,4.207c2.97,0,5.705-1.611,7.145-4.207c7.211-13.003,20.908-21.08,35.749-21.08
			s28.538,8.078,35.748,21.08c1.439,2.597,4.176,4.207,7.145,4.207c2.97,0,5.705-1.611,7.145-4.207
			c7.211-13.003,20.908-21.08,35.749-21.08c22.526,0,40.851,18.325,40.851,40.851v2.723H43.574V450.723z M478.676,481.789
			c-1.464,5.121-7.648,9.786-12.974,9.786H46.298c-5.327,0-11.51-4.665-12.973-9.786l-3.428-12.002h452.209L478.676,481.789z"/>
	</g>
</g>
<g>
	<g>
		<path d="M239.66,54.016c0-8.437,1.995-12.261,4.52-17.102c2.988-5.726,6.374-12.216,6.374-24.659c0-4.513-3.657-8.17-8.17-8.17
			s-8.17,3.657-8.17,8.17c0,8.436-1.995,12.26-4.52,17.101c-2.988,5.726-6.374,12.216-6.374,24.66s3.386,18.934,6.374,24.66
			c2.525,4.841,4.52,8.665,4.52,17.101c0,8.435-1.995,12.259-4.52,17.098c-2.988,5.726-6.374,12.215-6.374,24.658
			c0,4.513,3.657,8.17,8.17,8.17s8.17-3.657,8.17-8.17c0-8.435,1.995-12.259,4.52-17.098c2.988-5.726,6.374-12.215,6.374-24.658
			s-3.386-18.933-6.374-24.659C241.654,66.277,239.66,62.453,239.66,54.016z"/>
	</g>
</g>
<g>
	<g>
		<path d="M305.021,54.016c0-8.437,1.995-12.261,4.52-17.102c2.988-5.726,6.374-12.216,6.374-24.659c0-4.513-3.657-8.17-8.17-8.17
			s-8.17,3.657-8.17,8.17c0,8.436-1.995,12.26-4.52,17.101c-2.988,5.726-6.374,12.216-6.374,24.66s3.386,18.934,6.374,24.66
			c2.525,4.841,4.52,8.665,4.52,17.101c0,8.435-1.995,12.259-4.52,17.098c-2.988,5.726-6.374,12.215-6.374,24.658
			c0,4.513,3.657,8.17,8.17,8.17s8.17-3.657,8.17-8.17c0-8.435,1.995-12.259,4.52-17.098c2.988-5.726,6.374-12.215,6.374-24.658
			s-3.386-18.933-6.374-24.659C307.016,66.277,305.021,62.453,305.021,54.016z"/>
	</g>
</g>
<g>
</g>
<g>
</g>
<g>
</g>
<g>
</g>
<g>
</g>
<g>
</g>
<g>
</g>
<g>
</g>
<g>
</g>
<g>
</g>
<g>
</g>
<g>
</g>
<g>
</g>
<g>
</g>
<g>
</g>
</svg>
