<?xml version="1.0" encoding="iso-8859-1"?>
<!-- Generator: Adobe Illustrator 19.0.0, SVG Export Plug-In . SVG Version: 6.00 Build 0)  -->
<svg version="1.1" id="Capa_1" xmlns="http://www.w3.org/2000/svg" xmlns:xlink="http://www.w3.org/1999/xlink" x="0px" y="0px"
	 viewBox="0 0 512 512" style="enable-background:new 0 0 512 512;" xml:space="preserve">
<g>
	<g>
		<path d="M454.809,108.936H392.17V84.426C392.17,37.874,354.296,0,307.745,0c-8.511,0-16.919,1.267-24.99,3.766
			c-4.311,1.334-6.724,5.91-5.388,10.22c1.334,4.311,5.912,6.728,10.22,5.388c6.503-2.012,13.286-3.034,20.158-3.034
			c37.543,0,68.085,30.542,68.085,68.085v24.511h-87.149V84.426C288.681,37.874,250.808,0,204.255,0
			c-46.553,0-84.426,37.874-84.426,84.426v24.511H57.192c-4.512,0-8.17,3.657-8.17,8.17V503.83c0,4.513,3.658,8.17,8.17,8.17
			h294.056c0.013,0,103.561,0,103.561,0c0.291,0,0.577-0.016,0.859-0.046c0.028-0.003,0.057-0.01,0.086-0.013
			c0.256-0.029,0.51-0.069,0.758-0.122c0.058-0.012,0.114-0.031,0.172-0.045c0.217-0.051,0.43-0.107,0.641-0.174
			c0.086-0.028,0.17-0.063,0.255-0.094c0.176-0.064,0.352-0.13,0.523-0.205c0.102-0.045,0.203-0.096,0.303-0.146
			c0.148-0.073,0.295-0.148,0.439-0.229c0.108-0.062,0.214-0.127,0.319-0.194c0.133-0.084,0.264-0.171,0.391-0.263
			c0.102-0.073,0.203-0.148,0.302-0.226c0.133-0.105,0.26-0.215,0.386-0.327c0.084-0.075,0.169-0.148,0.249-0.227
			c0.159-0.156,0.31-0.318,0.458-0.486c0.035-0.039,0.073-0.073,0.108-0.113c0.166-0.2,0.301-0.383,0.432-0.569
			c0.025-0.036,0.054-0.07,0.078-0.106c0.301-0.443,0.561-0.916,0.771-1.416c0.037-0.088,0.064-0.18,0.098-0.268
			c0.061-0.16,0.125-0.318,0.175-0.483c0.076-0.246,0.139-0.495,0.192-0.746c0.009-0.04,0.014-0.083,0.022-0.124
			c0.045-0.232,0.083-0.466,0.107-0.701c0.008-0.072,0.008-0.146,0.013-0.219c0.015-0.197,0.029-0.394,0.029-0.593
			c0.003-0.039,0.003-386.763,0.003-386.763C462.979,112.593,459.322,108.936,454.809,108.936z M136.17,84.426
			c0-37.543,30.544-68.085,68.085-68.085c37.542,0,68.085,30.542,68.085,68.085v24.511H239.66V84.426
			c0-8.813,1.675-17.41,4.977-25.555c1.696-4.181-0.319-8.946-4.501-10.642c-4.182-1.694-8.946,0.32-10.642,4.501
			c-4.097,10.105-6.174,20.769-6.174,31.696v24.511H136.17V84.426z M343.149,495.66H65.362V125.277h277.787V495.66z M373.706,495.66
			l29.358-24.723l29.359,24.723H373.706z M446.638,486.269l-35.404-29.815V149.787c0-4.513-3.657-8.17-8.17-8.17
			s-8.17,3.657-8.17,8.17v306.667l-35.404,29.814V125.277h87.149V486.269z"/>
	</g>
</g>
<g>
	<g>
		<path d="M226.805,189.153c-1.394-4.292-6.002-6.641-10.294-5.245l-4.085,1.327v-4.295c0-4.513-3.658-8.17-8.17-8.17
			s-8.17,3.657-8.17,8.17v4.295L192,183.907c-4.29-1.392-8.9,0.954-10.294,5.245c-1.396,4.292,0.953,8.902,5.245,10.296l4.085,1.327
			l-2.525,3.475c-2.653,3.65-1.843,8.76,1.807,11.412c1.451,1.055,3.131,1.562,4.795,1.562c2.526-0.001,5.018-1.169,6.617-3.369
			l2.525-3.475l2.525,3.475c1.598,2.202,4.089,3.369,6.617,3.369c1.664,0,3.345-0.508,4.795-1.562
			c3.65-2.653,4.46-7.762,1.807-11.412l-2.525-3.475l4.085-1.327C225.851,198.055,228.201,193.445,226.805,189.153z"/>
	</g>
</g>
<g>
	<g>
		<path d="M280.006,403.311l-37.27-66.258h10.563c4.512,0,8.17-3.657,8.17-8.17c0-1.659-0.495-3.204-1.344-4.494l-48.748-86.661
			c-1.447-2.572-4.169-4.165-7.121-4.165s-5.673,1.593-7.121,4.165l-49.021,87.149c-1.424,2.529-1.398,5.624,0.069,8.13
			s4.15,4.046,7.052,4.046h10.541l-37.27,66.258c-1.424,2.529-1.398,5.624,0.069,8.13c1.466,2.506,4.15,4.046,7.053,4.046h60.46
			v24.511c0,4.513,3.658,8.17,8.17,8.17s8.17-3.657,8.17-8.17v-24.511h60.46c2.902,0,5.587-1.54,7.052-4.046
			C281.403,408.935,281.429,405.841,280.006,403.311z M149.596,399.145l37.27-66.258c1.424-2.529,1.398-5.624-0.069-8.13
			c-1.466-2.506-4.151-4.046-7.053-4.046h-10.541l35.051-62.314l35.051,62.314h-10.541c-2.903,0-5.587,1.54-7.053,4.046
			c-1.465,2.505-1.491,5.6-0.069,8.13l37.269,66.258H149.596z"/>
	</g>
</g>
<g>
</g>
<g>
</g>
<g>
</g>
<g>
</g>
<g>
</g>
<g>
</g>
<g>
</g>
<g>
</g>
<g>
</g>
<g>
</g>
<g>
</g>
<g>
</g>
<g>
</g>
<g>
</g>
<g>
</g>
</svg>
