<?xml version="1.0" encoding="iso-8859-1"?>
<!-- Generator: Adobe Illustrator 19.0.0, SVG Export Plug-In . SVG Version: 6.00 Build 0)  -->
<svg version="1.1" id="Capa_1" xmlns="http://www.w3.org/2000/svg" xmlns:xlink="http://www.w3.org/1999/xlink" x="0px" y="0px"
	 viewBox="0 0 512 512" style="enable-background:new 0 0 512 512;" xml:space="preserve">
<g>
	<g>
		<path d="M511.983,187.834c-0.014-0.285-0.044-0.571-0.089-0.857c-0.013-0.088-0.026-0.174-0.042-0.261
			c-0.063-0.333-0.141-0.666-0.248-0.998c-0.118-0.358-0.249-0.67-0.392-0.974c-0.039-0.085-0.083-0.166-0.125-0.248
			c-0.129-0.25-0.268-0.491-0.419-0.723c-0.036-0.056-0.069-0.113-0.107-0.168c-0.193-0.281-0.402-0.548-0.625-0.8
			c-0.042-0.047-0.088-0.09-0.131-0.136c-0.19-0.204-0.388-0.395-0.596-0.576c-0.069-0.06-0.136-0.12-0.207-0.178
			c-0.254-0.207-0.515-0.404-0.791-0.58c-0.039-0.025-0.082-0.045-0.121-0.069c-0.245-0.149-0.497-0.284-0.756-0.407
			c-0.094-0.045-0.188-0.087-0.285-0.129c-0.266-0.114-0.536-0.216-0.814-0.302c-0.044-0.013-0.086-0.031-0.13-0.044
			c-0.327-0.096-0.662-0.164-1-0.219c-0.034-0.005-0.066-0.017-0.101-0.022l-166.996-24.266L263.326,4.555
			c-0.014-0.028-0.033-0.052-0.047-0.081c-0.159-0.313-0.332-0.615-0.528-0.903c-0.014-0.021-0.031-0.039-0.045-0.06
			c-0.18-0.258-0.376-0.502-0.584-0.737c-0.06-0.068-0.119-0.134-0.181-0.199c-0.217-0.23-0.442-0.45-0.684-0.654
			c-0.015-0.013-0.028-0.027-0.044-0.04c-0.26-0.216-0.537-0.411-0.822-0.594c-0.064-0.041-0.13-0.08-0.195-0.119
			c-0.253-0.151-0.514-0.291-0.783-0.415c-0.044-0.021-0.086-0.044-0.13-0.062c-0.315-0.138-0.639-0.257-0.974-0.355
			c-0.054-0.016-0.11-0.027-0.164-0.042c-0.277-0.075-0.559-0.135-0.848-0.182c-0.086-0.014-0.171-0.028-0.257-0.039
			C256.698,0.029,256.352,0,255.999,0c-0.353,0-0.699,0.029-1.041,0.073c-0.086,0.011-0.172,0.025-0.257,0.039
			c-0.288,0.046-0.57,0.107-0.847,0.182c-0.055,0.015-0.11,0.026-0.164,0.042c-0.334,0.098-0.659,0.217-0.974,0.355
			c-0.044,0.02-0.086,0.042-0.13,0.062c-0.27,0.124-0.531,0.264-0.783,0.415c-0.065,0.039-0.131,0.077-0.195,0.119
			c-0.285,0.183-0.562,0.378-0.823,0.594c-0.015,0.012-0.029,0.027-0.044,0.04c-0.242,0.204-0.467,0.424-0.684,0.654
			c-0.061,0.065-0.121,0.132-0.181,0.199c-0.207,0.235-0.404,0.479-0.584,0.738c-0.014,0.021-0.031,0.039-0.045,0.06
			c-0.196,0.288-0.369,0.59-0.528,0.903c-0.014,0.028-0.033,0.052-0.047,0.081L173.99,155.879L6.994,180.143
			c-0.038,0.005-0.074,0.019-0.112,0.024c-0.332,0.053-0.662,0.121-0.984,0.215c-0.053,0.015-0.105,0.037-0.158,0.053
			c-0.267,0.084-0.527,0.181-0.783,0.291c-0.1,0.044-0.199,0.087-0.298,0.135c-0.252,0.12-0.498,0.252-0.736,0.397
			c-0.045,0.027-0.091,0.049-0.136,0.077c-0.274,0.174-0.535,0.37-0.788,0.576c-0.071,0.058-0.139,0.119-0.208,0.18
			c-0.207,0.181-0.405,0.373-0.594,0.575c-0.044,0.046-0.089,0.09-0.132,0.137c-0.224,0.252-0.432,0.519-0.625,0.8
			c-0.037,0.054-0.07,0.112-0.106,0.167c-0.151,0.232-0.291,0.475-0.419,0.725c-0.042,0.082-0.085,0.163-0.124,0.247
			c-0.143,0.304-0.275,0.615-0.382,0.943c-0.118,0.363-0.195,0.695-0.258,1.028c-0.016,0.087-0.029,0.174-0.042,0.261
			c-0.045,0.286-0.075,0.572-0.089,0.857c-0.003,0.058-0.009,0.114-0.011,0.172c-0.01,0.348,0.002,0.693,0.037,1.035
			c0.004,0.048,0.014,0.095,0.02,0.142c0.035,0.295,0.087,0.587,0.154,0.876c0.017,0.073,0.033,0.147,0.052,0.22
			c0.086,0.329,0.185,0.654,0.31,0.969c0.141,0.341,0.282,0.627,0.436,0.907c0.042,0.076,0.085,0.153,0.13,0.228
			c0.161,0.273,0.336,0.539,0.527,0.793c0.013,0.017,0.024,0.035,0.037,0.051c0.215,0.278,0.451,0.538,0.7,0.788
			c0.021,0.021,0.037,0.045,0.059,0.065l120.839,117.788L94.779,478.19c-0.005,0.031-0.004,0.062-0.009,0.093
			c-0.054,0.345-0.094,0.692-0.103,1.039c-0.001,0.028,0.002,0.057,0.001,0.085c-0.005,0.31,0.009,0.619,0.038,0.927
			c0.009,0.092,0.019,0.182,0.031,0.273c0.039,0.308,0.093,0.614,0.167,0.917c0.005,0.023,0.009,0.047,0.014,0.07
			c0.083,0.326,0.192,0.644,0.315,0.958c0.028,0.073,0.06,0.145,0.091,0.218c0.114,0.269,0.242,0.532,0.386,0.788
			c0.025,0.045,0.046,0.089,0.072,0.134c0.173,0.295,0.365,0.582,0.577,0.857c0.035,0.046,0.074,0.088,0.111,0.134
			c0.179,0.223,0.372,0.437,0.576,0.642c0.062,0.062,0.123,0.124,0.187,0.185c0.251,0.235,0.512,0.463,0.797,0.67
			c0.337,0.245,0.691,0.456,1.053,0.644c0.144,0.074,0.292,0.13,0.438,0.195c0.221,0.098,0.442,0.197,0.671,0.275
			c0.177,0.061,0.355,0.106,0.535,0.154c0.206,0.054,0.412,0.108,0.622,0.146c0.186,0.034,0.373,0.058,0.56,0.08
			c0.21,0.024,0.419,0.04,0.631,0.048c0.096,0.003,0.191,0.022,0.286,0.022c0.114,0,0.228-0.015,0.341-0.02
			c0.119-0.004,0.236-0.011,0.355-0.021c0.244-0.021,0.486-0.056,0.727-0.098c0.108-0.018,0.215-0.033,0.321-0.056
			c0.324-0.071,0.642-0.159,0.955-0.268c0.02-0.007,0.039-0.01,0.058-0.017c0.34-0.121,0.67-0.269,0.994-0.435
			c0.018-0.01,0.039-0.015,0.058-0.025l106.646-56.067l-8.074,64.925h-3.677c-4.512,0-8.17,3.657-8.17,8.17s3.658,8.17,8.17,8.17
			h10.887c0.04,0,87.123,0,87.123,0c0.04,0,10.926,0,10.926,0c4.512,0,8.17-3.657,8.17-8.17s-3.658-8.17-8.17-8.17h-3.677
			l-5.091-40.932c-0.557-4.477-4.632-7.665-9.117-7.099c-4.477,0.557-7.656,4.638-7.099,9.116l4.84,38.915h-68.65l9.226-74.188
			l25.1-13.195l149.365,78.526c0.02,0.01,0.04,0.017,0.06,0.027c0.198,0.101,0.402,0.187,0.607,0.272
			c0.099,0.041,0.196,0.09,0.297,0.127c0.199,0.074,0.404,0.131,0.608,0.188c0.109,0.031,0.216,0.07,0.325,0.096
			c0.217,0.052,0.438,0.086,0.659,0.12c0.097,0.015,0.192,0.039,0.289,0.05c0.32,0.038,0.643,0.059,0.965,0.059
			c1.665,0,3.345-0.508,4.795-1.562c0.285-0.207,0.548-0.435,0.799-0.671c0.064-0.06,0.125-0.122,0.186-0.184
			c0.205-0.205,0.398-0.419,0.576-0.642c0.036-0.046,0.075-0.088,0.111-0.134c0.211-0.276,0.404-0.562,0.577-0.857
			c0.025-0.044,0.047-0.088,0.071-0.132c0.144-0.257,0.272-0.521,0.387-0.79c0.031-0.072,0.062-0.143,0.09-0.217
			c0.123-0.314,0.232-0.633,0.315-0.959c0.005-0.023,0.009-0.047,0.014-0.07c0.074-0.303,0.127-0.61,0.168-0.918
			c0.012-0.09,0.021-0.181,0.029-0.271c0.029-0.31,0.045-0.621,0.038-0.934c0-0.026,0.002-0.052,0.001-0.08
			c-0.01-0.349-0.049-0.696-0.103-1.044c-0.004-0.029-0.003-0.06-0.009-0.09l-28.526-166.322l120.839-117.788
			c0.021-0.021,0.037-0.045,0.059-0.065c0.249-0.248,0.486-0.509,0.7-0.787c0.013-0.017,0.024-0.035,0.037-0.051
			c0.193-0.254,0.366-0.52,0.527-0.793c0.045-0.075,0.088-0.151,0.13-0.228c0.154-0.28,0.295-0.566,0.415-0.863
			c0.146-0.361,0.245-0.684,0.331-1.013c0.019-0.073,0.035-0.147,0.052-0.22c0.066-0.289,0.119-0.58,0.154-0.876
			c0.005-0.047,0.014-0.094,0.02-0.142c0.034-0.342,0.047-0.687,0.037-1.035C511.992,187.949,511.986,187.892,511.983,187.834z
			 M468.004,191.279l-105.347,34.229l-58.918-8.561l32.553-44.807L468.004,191.279z M264.169,43.186l58.903,119.35l-32.553,44.805
			l-26.349-53.39V43.186z M247.829,43.186v110.766l-26.349,53.39l-32.553-44.805L247.829,43.186z M175.706,172.141l32.553,44.807
			l-58.919,8.56L43.995,191.28L175.706,172.141z M38.946,206.82l105.345,34.228l42.634,41.558l-52.673,17.114L38.946,206.82z
			 M139.302,315.261l52.673-17.114l-10.065,58.682l-65.107,89.612L139.302,315.261z M247.829,394.11l-117.806,61.935l65.106-89.611
			l52.7-27.706V394.11z M259.801,317.972c-0.033-0.017-0.068-0.028-0.101-0.046c-0.233-0.119-0.473-0.227-0.719-0.322
			c-0.077-0.031-0.155-0.058-0.233-0.086c-0.215-0.076-0.432-0.144-0.655-0.204c-0.085-0.023-0.17-0.046-0.256-0.065
			c-0.224-0.051-0.452-0.092-0.683-0.124c-0.078-0.011-0.156-0.026-0.234-0.036c-0.303-0.034-0.609-0.056-0.922-0.056
			c-0.313,0-0.619,0.022-0.922,0.056c-0.078,0.009-0.156,0.024-0.234,0.036c-0.231,0.033-0.459,0.073-0.683,0.124
			c-0.086,0.02-0.17,0.044-0.256,0.065c-0.222,0.059-0.44,0.126-0.655,0.204c-0.078,0.028-0.156,0.056-0.233,0.086
			c-0.246,0.096-0.485,0.205-0.719,0.322c-0.033,0.017-0.069,0.028-0.101,0.046l-0.073,0.038
			c-0.029,0.015-51.633,27.145-51.633,27.145l9.854-57.458c0.007-0.04,0.02-0.118,0.02-0.118c0.005-0.035,0.005-0.07,0.012-0.106
			c0.041-0.26,0.07-0.523,0.086-0.788c0.005-0.083,0.007-0.166,0.009-0.249c0.007-0.227,0.003-0.454-0.009-0.682
			c-0.005-0.09-0.009-0.18-0.017-0.269c-0.02-0.225-0.052-0.451-0.091-0.677c-0.014-0.083-0.024-0.164-0.04-0.246
			c-0.059-0.284-0.131-0.568-0.221-0.851c-0.009-0.026-0.017-0.052-0.026-0.08c-0.093-0.281-0.2-0.552-0.32-0.816
			c-0.035-0.076-0.076-0.15-0.113-0.226c-0.1-0.205-0.206-0.405-0.322-0.597c-0.047-0.078-0.097-0.155-0.147-0.231
			c-0.123-0.191-0.253-0.375-0.39-0.552c-0.052-0.069-0.104-0.136-0.158-0.202c-0.164-0.2-0.339-0.391-0.521-0.574
			c-0.028-0.028-0.052-0.061-0.081-0.089l-0.064-0.063c-0.015-0.015-41.766-40.711-41.766-40.711l57.808-8.4
			c0.131-0.021,0.233-0.05,0.337-0.07c0.275-0.051,0.546-0.112,0.812-0.191c0.136-0.04,0.269-0.089,0.403-0.136
			c0.247-0.088,0.489-0.186,0.725-0.297c0.117-0.055,0.232-0.106,0.346-0.167c0.369-0.194,0.724-0.411,1.059-0.658
			c0.23-0.169,0.447-0.349,0.654-0.537c0.065-0.06,0.125-0.125,0.19-0.187c0.16-0.156,0.314-0.315,0.459-0.48
			c0.062-0.071,0.121-0.144,0.18-0.218c0.141-0.173,0.273-0.352,0.399-0.534c0.049-0.072,0.099-0.144,0.146-0.218
			c0.139-0.219,0.268-0.444,0.386-0.674c0.017-0.035,0.04-0.066,0.058-0.101l0.038-0.077c0.017-0.025,25.819-52.306,25.819-52.306
			l25.801,52.282c0.012,0.025,0.05,0.102,0.05,0.102c0.017,0.035,0.04,0.066,0.058,0.101c0.118,0.23,0.246,0.454,0.386,0.674
			c0.047,0.074,0.097,0.145,0.146,0.218c0.125,0.182,0.258,0.361,0.399,0.534c0.06,0.073,0.118,0.147,0.18,0.218
			c0.145,0.166,0.3,0.325,0.459,0.48c0.063,0.062,0.124,0.127,0.19,0.187c0.206,0.187,0.424,0.367,0.654,0.537
			c0.334,0.247,0.69,0.464,1.059,0.658c0.114,0.061,0.23,0.112,0.346,0.167c0.236,0.111,0.478,0.209,0.726,0.297
			c0.134,0.048,0.267,0.096,0.403,0.136c0.265,0.078,0.536,0.139,0.812,0.191c0.105,0.02,0.206,0.049,0.31,0.065
			c0.026,0.005,57.834,8.406,57.834,8.406l-41.739,40.684c-0.015,0.014-0.029,0.028-0.044,0.042l-0.046,0.046
			c-0.021,0.021-0.038,0.045-0.059,0.065c-0.193,0.192-0.376,0.393-0.549,0.606c-0.05,0.061-0.097,0.123-0.145,0.184
			c-0.142,0.183-0.276,0.373-0.402,0.569c-0.047,0.073-0.095,0.145-0.139,0.22c-0.118,0.196-0.226,0.4-0.328,0.608
			c-0.036,0.073-0.076,0.144-0.11,0.218c-0.121,0.267-0.23,0.54-0.324,0.824c-0.008,0.023-0.014,0.045-0.022,0.066
			c-0.092,0.284-0.163,0.571-0.222,0.857c-0.016,0.082-0.026,0.164-0.04,0.246c-0.039,0.225-0.071,0.451-0.092,0.677
			c-0.008,0.09-0.012,0.18-0.017,0.269c-0.012,0.228-0.015,0.455-0.009,0.682c0.002,0.083,0.004,0.166,0.009,0.249
			c0.016,0.265,0.045,0.527,0.086,0.788c0.005,0.035,0.005,0.07,0.012,0.106l0.013,0.077c0.007,0.04,9.862,57.498,9.862,57.498
			l-51.603-27.129C259.874,318.01,259.801,317.972,259.801,317.972z M264.169,394.11v-55.382l52.7,27.706l65.106,89.611
			L264.169,394.11z M395.194,446.439l-65.106-89.611l-10.065-58.682l52.673,17.114L395.194,446.439z M377.745,299.72l-52.673-17.114
			l42.634-41.558l105.345-34.228L377.745,299.72z"/>
	</g>
</g>
<g>
</g>
<g>
</g>
<g>
</g>
<g>
</g>
<g>
</g>
<g>
</g>
<g>
</g>
<g>
</g>
<g>
</g>
<g>
</g>
<g>
</g>
<g>
</g>
<g>
</g>
<g>
</g>
<g>
</g>
</svg>
