<?xml version="1.0" encoding="iso-8859-1"?>
<!-- Generator: Adobe Illustrator 19.0.0, SVG Export Plug-In . SVG Version: 6.00 Build 0)  -->
<svg version="1.1" id="Capa_1" xmlns="http://www.w3.org/2000/svg" xmlns:xlink="http://www.w3.org/1999/xlink" x="0px" y="0px"
	 viewBox="0 0 512 512" style="enable-background:new 0 0 512 512;" xml:space="preserve">
<g>
	<g>
		<path d="M487.489,5.447H47.148C42.124,1.915,36.131,0,29.957,0C13.438,0,0,13.439,0,29.957s13.438,29.957,29.957,29.957
			c6.173,0,12.167-1.915,17.19-5.447h440.342c13.516,0,24.511-10.996,24.511-24.511C512,16.443,501.005,5.447,487.489,5.447z
			 M487.489,38.128H44.335c-1.988,0-3.909,0.726-5.401,2.039c-2.494,2.197-5.682,3.408-8.976,3.408
			c-7.509,0-13.617-6.108-13.617-13.617S22.448,16.34,29.957,16.34c3.294,0,6.483,1.21,8.977,3.408
			c1.491,1.314,3.412,2.039,5.4,2.039h443.155c4.506,0,8.17,3.665,8.17,8.17S491.995,38.128,487.489,38.128z"/>
	</g>
</g>
<g>
	<g>
		<path d="M482.043,76.255c-6.173,0-12.166,1.915-17.19,5.447H24.511C10.995,81.702,0,92.698,0,106.213
			c0,13.515,10.995,24.511,24.511,24.511h440.342c5.023,3.532,11.017,5.447,17.19,5.447c16.519,0,29.957-13.439,29.957-29.957
			S498.562,76.255,482.043,76.255z M482.043,119.83c-3.294,0-6.483-1.21-8.977-3.407c-1.492-1.314-3.412-2.039-5.401-2.039H24.511
			c-4.506,0-8.17-3.665-8.17-8.17s3.665-8.17,8.17-8.17h443.154c1.988,0,3.908-0.724,5.4-2.038c2.496-2.198,5.684-3.409,8.977-3.409
			c7.509,0,13.617,6.108,13.617,13.617S489.552,119.83,482.043,119.83z"/>
	</g>
</g>
<g>
	<g>
		<path d="M503.83,223.319c4.512,0,8.17-3.657,8.17-8.17v-54.468c0-4.513-3.658-8.17-8.17-8.17H8.17c-4.512,0-8.17,3.657-8.17,8.17
			v54.468c0,4.513,3.658,8.17,8.17,8.17h8.17v112.79c-0.132,0.046-0.264,0.086-0.394,0.139c-4.171,1.721-6.156,6.499-4.435,10.669
			l4.829,11.698v82.576H8.17c-4.512,0-8.17,3.657-8.17,8.17v54.468c0,4.513,3.658,8.17,8.17,8.17h495.66
			c4.512,0,8.17-3.657,8.17-8.17v-54.468c0-4.513-3.658-8.17-8.17-8.17h-8.17v-82.576l4.829-11.698
			c1.722-4.17-0.264-8.948-4.435-10.669c-0.131-0.053-0.263-0.094-0.394-0.139v-112.79H503.83z M495.66,495.66H16.34v-38.128h38.128
			v13.617c0,4.513,3.658,8.17,8.17,8.17s8.17-3.657,8.17-8.17v-13.617H247.83v13.617c0,4.513,3.658,8.17,8.17,8.17
			c4.512,0,8.17-3.657,8.17-8.17v-13.617h177.021v13.617c0,4.513,3.658,8.17,8.17,8.17s8.17-3.657,8.17-8.17v-13.617h38.128V495.66z
			 M32.681,441.191v-42.991l17.746,42.991H32.681z M449.362,427.949l-84.469-204.63h114.427v132.058L449.362,427.949z
			 M479.319,398.201v42.991h-17.746L479.319,398.201z M437.15,441.191H268.212l84.469-204.63L437.15,441.191z M256,427.949
			l-84.469-204.63h168.938L256,427.949z M243.788,441.191H74.85l84.469-204.63L243.788,441.191z M360.851,206.979v-13.617
			c0-4.513-3.658-8.17-8.17-8.17s-8.17,3.657-8.17,8.17v13.617H167.489v-13.617c0-4.513-3.658-8.17-8.17-8.17s-8.17,3.657-8.17,8.17
			v13.617H84.426c-4.512,0-8.17,3.657-8.17,8.17c0,4.513,3.658,8.17,8.17,8.17h62.682l-84.469,204.63l-29.957-72.572V223.319h19.064
			c4.512,0,8.17-3.657,8.17-8.17c0-4.513-3.658-8.17-8.17-8.17H16.34v-38.128H495.66v38.128H360.851z"/>
	</g>
</g>
<g>
</g>
<g>
</g>
<g>
</g>
<g>
</g>
<g>
</g>
<g>
</g>
<g>
</g>
<g>
</g>
<g>
</g>
<g>
</g>
<g>
</g>
<g>
</g>
<g>
</g>
<g>
</g>
<g>
</g>
</svg>
