<?xml version="1.0" encoding="iso-8859-1"?>
<!-- Generator: Adobe Illustrator 19.0.0, SVG Export Plug-In . SVG Version: 6.00 Build 0)  -->
<svg version="1.1" id="Capa_1" xmlns="http://www.w3.org/2000/svg" xmlns:xlink="http://www.w3.org/1999/xlink" x="0px" y="0px"
	 viewBox="0 0 511.999 511.999" style="enable-background:new 0 0 511.999 511.999;" xml:space="preserve">
<g>
	<g>
		<path d="M454.276,196.401l-119.242-32.816l35.82-63.022c1.817-3.197,1.275-7.214-1.326-9.815c-2.6-2.598-6.617-3.144-9.815-1.326
			l-63.022,35.82L263.877,6.002C262.902,2.457,259.677,0,255.999,0c-3.678,0-6.902,2.457-7.877,6.002l-32.816,119.242l-63.022-35.82
			c-3.196-1.818-7.214-1.275-9.815,1.326c-2.6,2.601-3.143,6.618-1.326,9.815l35.82,63.022L57.723,196.401
			c-3.546,0.976-6.002,4.2-6.002,7.877s2.457,6.901,6.002,7.877l119.242,32.816l-35.82,63.022c-1.817,3.197-1.275,7.214,1.326,9.815
			c2.603,2.599,6.619,3.144,9.815,1.326l61.831-35.143l33.807,221.073c0.611,3.989,4.042,6.935,8.077,6.935
			c4.035,0,7.466-2.946,8.077-6.935l15.331-100.251c0.682-4.461-2.381-8.63-6.841-9.312c-4.458-0.672-8.629,2.381-9.312,6.841
			l-7.254,47.44l-27.115-177.31l27.115-50.833l27.115,50.834l-14.921,97.567c-0.682,4.461,2.381,8.63,6.841,9.312
			c4.466,0.684,8.63-2.381,9.312-6.841l13.536-88.518l61.831,35.143c3.194,1.817,7.213,1.273,9.815-1.326
			c2.6-2.601,3.143-6.618,1.326-9.815l-35.82-63.022l119.242-32.816c3.546-0.976,6.002-4.199,6.002-7.877
			C460.279,200.602,457.822,197.378,454.276,196.401z M297.697,143.469l44.281-25.169l-25.169,44.281l-40.963,21.85L297.697,143.469
			z M170.02,118.3l44.281,25.169l21.85,40.963l-40.963-21.85L170.02,118.3z M214.302,265.089l-44.283,25.169l25.17-44.281
			l40.964-21.852L214.302,265.089z M188.284,231.139l-97.601-26.86l97.601-26.86l50.356,26.86L188.284,231.139z M229.139,136.563
			l26.86-97.601l26.86,97.602l-26.86,50.355L229.139,136.563z M341.979,290.258l-44.283-25.169l-21.852-40.964l40.964,21.852
			L341.979,290.258z M323.714,231.14l-50.356-26.86l50.356-26.86l97.601,26.86L323.714,231.14z"/>
	</g>
</g>
<g>
</g>
<g>
</g>
<g>
</g>
<g>
</g>
<g>
</g>
<g>
</g>
<g>
</g>
<g>
</g>
<g>
</g>
<g>
</g>
<g>
</g>
<g>
</g>
<g>
</g>
<g>
</g>
<g>
</g>
</svg>
