<?xml version="1.0" encoding="iso-8859-1"?>
<!-- Generator: Adobe Illustrator 19.0.0, SVG Export Plug-In . SVG Version: 6.00 Build 0)  -->
<svg version="1.1" id="Capa_1" xmlns="http://www.w3.org/2000/svg" xmlns:xlink="http://www.w3.org/1999/xlink" x="0px" y="0px"
	 viewBox="0 0 512 512" style="enable-background:new 0 0 512 512;" xml:space="preserve">
<g>
	<g>
		<path d="M224.604,31.396H80.708c-4.336,0-7.849,3.513-7.849,7.849v62.791c0,4.336,3.513,7.849,7.849,7.849
			c4.336,0,7.849-3.513,7.849-7.849V47.093h128.199v258.742H88.557V133.431c0-4.336-3.513-7.849-7.849-7.849
			c-4.336,0-7.849,3.513-7.849,7.849v180.253c0,4.336,3.514,7.849,7.849,7.849h143.897c4.336,0,7.849-3.513,7.849-7.849V39.245
			C232.453,34.909,228.94,31.396,224.604,31.396z"/>
	</g>
</g>
<g>
	<g>
		<path d="M431.292,31.395H287.396c-4.336,0-7.849,3.513-7.849,7.849v180.254c0,4.336,3.513,7.849,7.849,7.849
			s7.849-3.513,7.849-7.849V47.092h128.199v258.743H295.245v-54.942c0-4.335-3.513-7.849-7.849-7.849s-7.849,3.513-7.849,7.849
			v62.791c0,4.336,3.513,7.849,7.849,7.849h143.897c4.336,0,7.849-3.513,7.849-7.849V39.243
			C439.141,34.908,435.628,31.395,431.292,31.395z"/>
	</g>
</g>
<g>
	<g>
		<path d="M470.537,338.021V7.849c0-4.336-3.513-7.849-7.849-7.849H256.041C255.959,0,49.312,0,49.312,0
			c-4.336,0-7.849,3.513-7.849,7.849v330.172c-17.891,3.646-31.396,19.502-31.396,38.454v68.155c0,37.147,30.223,67.37,67.37,67.37
			c25.761,0,48.19-14.532,59.521-35.831c11.331,21.3,33.76,35.831,59.521,35.831s48.19-14.532,59.521-35.831
			c11.331,21.3,33.76,35.831,59.521,35.831c25.761,0,48.19-14.532,59.521-35.831c11.331,21.3,33.76,35.831,59.521,35.831
			c37.147,0,67.37-30.222,67.37-67.37v-68.155C501.932,357.523,488.428,341.667,470.537,338.021z M263.849,15.698h190.99v321.533
			h-190.99V15.698z M57.161,15.698h190.99v321.533H57.161V15.698z M486.235,444.63c0,28.493-23.179,51.672-51.672,51.672
			s-51.672-23.179-51.672-51.672c0-4.336-3.513-7.849-7.849-7.849s-7.849,3.513-7.849,7.849c0,28.493-23.179,51.672-51.672,51.672
			c-28.493,0-51.672-23.179-51.672-51.672c0-4.336-3.513-7.849-7.849-7.849s-7.849,3.513-7.849,7.849
			c0,28.493-23.179,51.672-51.672,51.672c-28.493,0-51.672-23.179-51.672-51.672c0-4.336-3.513-7.849-7.849-7.849
			c-4.336,0-7.849,3.513-7.849,7.849c0,28.493-23.179,51.672-51.672,51.672c-28.493,0-51.672-23.179-51.672-51.672v-68.155
			c0-12.979,10.556-23.539,23.533-23.547c0.034,0,206.682,0,206.682,0c0.041,0,206.688,0,206.688,0
			c13.01,0.007,23.567,10.568,23.567,23.547V444.63z"/>
	</g>
</g>
<g>
	<g>
		<path d="M198.881,195.512c-3.066-3.064-8.035-3.064-11.1,0l-81.227,81.228c-3.065,3.065-3.065,8.034-0.001,11.1
			c1.533,1.532,3.542,2.298,5.551,2.298c2.008,0,4.018-0.766,5.551-2.298l81.227-81.228
			C201.946,203.546,201.946,198.577,198.881,195.512z"/>
	</g>
</g>
<g>
	<g>
		<path d="M405.447,65.089c-3.066-3.064-8.035-3.064-11.1,0l-29.514,29.514c-3.065,3.066-3.065,8.035,0,11.1
			c1.533,1.532,3.543,2.298,5.551,2.298s4.017-0.766,5.55-2.298l29.514-29.514C408.513,73.124,408.513,68.155,405.447,65.089z"/>
	</g>
</g>
<g>
	<g>
		<path d="M198.881,151.558c-3.066-3.064-8.035-3.064-11.1,0l-29.514,29.514c-3.065,3.066-3.065,8.035,0,11.1
			c1.533,1.532,3.542,2.298,5.551,2.298s4.017-0.766,5.55-2.298l29.514-29.514C201.946,159.592,201.946,154.624,198.881,151.558z"/>
	</g>
</g>
<g>
	<g>
		<path d="M353.733,116.803c-3.064-3.064-8.034-3.065-11.099,0.001l-29.514,29.513c-3.065,3.065-3.065,8.034,0.001,11.099
			c1.532,1.532,3.541,2.298,5.55,2.298s4.018-0.765,5.551-2.298l29.513-29.514C356.799,124.837,356.799,119.869,353.733,116.803z"/>
	</g>
</g>
<g>
</g>
<g>
</g>
<g>
</g>
<g>
</g>
<g>
</g>
<g>
</g>
<g>
</g>
<g>
</g>
<g>
</g>
<g>
</g>
<g>
</g>
<g>
</g>
<g>
</g>
<g>
</g>
<g>
</g>
</svg>
