<?xml version="1.0" encoding="iso-8859-1"?>
<!-- Generator: Adobe Illustrator 19.0.0, SVG Export Plug-In . SVG Version: 6.00 Build 0)  -->
<svg version="1.1" id="Capa_1" xmlns="http://www.w3.org/2000/svg" xmlns:xlink="http://www.w3.org/1999/xlink" x="0px" y="0px"
	 viewBox="0 0 512 512" style="enable-background:new 0 0 512 512;" xml:space="preserve">
<g>
	<g>
		<path d="M424.897,266.306c-7.144-4.124-14.496-7.557-21.912-10.309c7.415-2.752,14.769-6.178,21.912-10.302
			c23.739-13.704,42.38-33.161,52.493-54.785c10.574-22.609,10.686-44.951,0.317-62.91s-29.774-29.031-54.64-31.179
			c-23.791-2.062-49.954,4.362-73.693,18.066c-7.141,4.123-13.788,8.772-19.877,13.816c1.324-7.795,2.026-15.876,2.026-24.121
			c0-27.41-7.529-53.283-21.199-72.852C296.029,11.269,276.738,0,256,0s-40.029,11.269-54.324,31.729
			c-13.671,19.569-21.199,45.442-21.199,72.852c0,8.246,0.704,16.327,2.027,24.121c-6.089-5.044-12.736-9.692-19.877-13.816
			c-23.739-13.706-49.909-20.129-73.693-18.066c-24.867,2.148-44.273,13.221-54.641,31.179s-10.257,40.301,0.317,62.91
			c10.112,21.624,28.754,41.081,52.493,54.785c7.144,4.124,14.496,7.552,21.912,10.302c-7.415,2.752-14.768,6.184-21.912,10.309
			c-23.739,13.704-42.38,33.161-52.493,54.785c-10.574,22.609-10.686,44.951-0.317,62.91s29.774,29.031,54.641,31.179
			c2.911,0.252,5.853,0.377,8.826,0.377c21.323-0.001,44.033-6.415,64.866-18.443c7.141-4.123,13.788-8.772,19.877-13.816
			c-1.324,7.795-2.027,15.876-2.027,24.121c0,27.41,7.529,53.283,21.199,72.852C215.971,500.731,235.262,512,256,512
			s40.029-11.269,54.324-31.729c13.671-19.569,21.199-45.442,21.199-72.852c0-8.246-0.703-16.327-2.026-24.121
			c6.089,5.043,12.735,9.692,19.876,13.816c20.836,12.029,43.544,18.443,64.867,18.443c2.972,0,5.918-0.124,8.826-0.377
			c24.867-2.148,44.273-13.222,54.64-31.179c10.369-17.958,10.257-40.301-0.317-62.91
			C467.279,299.468,448.636,280.01,424.897,266.306z M357.545,129.038c42.136-24.327,89.693-21.129,106.011,7.132
			c7.622,13.202,7.279,30.184-0.968,47.819c-8.706,18.62-24.994,35.508-45.861,47.555c-27.837,16.072-58.732,20.516-81.512,12.281
			c0.879-1.881,1.608-3.848,2.157-5.896c1.727-6.441,1.601-13.085-0.276-19.314l109.315-63.114c3.908-2.256,5.246-7.253,2.99-11.161
			c-2.255-3.909-7.254-5.245-11.161-2.99l-109.343,63.129c-5.937-6.272-14.037-10.233-22.748-10.979
			C310.405,169.65,329.705,145.11,357.545,129.038z M286.663,273.703c3.375-5.846,9.653-9.486,16.408-9.532
			c0.042,0,0.085,0.004,0.127,0.004s0.085-0.004,0.129-0.004c3.277,0.023,6.518,0.903,9.38,2.555
			c4.41,2.546,7.565,6.657,8.882,11.576c1.318,4.92,0.643,10.056-1.904,14.466c-3.397,5.883-9.733,9.536-16.536,9.536
			c-3.32,0-6.608-0.886-9.508-2.559c-4.41-2.546-7.565-6.657-8.882-11.576C283.44,283.249,284.116,278.112,286.663,273.703z
			 M284.758,223.832c1.317-4.919,4.472-9.03,8.882-11.576c2.9-1.674,6.188-2.559,9.508-2.559c6.804,0,13.14,3.655,16.536,9.536
			c2.547,4.41,3.222,9.547,1.904,14.466c-1.317,4.919-4.472,9.03-8.882,11.576c-2.862,1.651-6.103,2.532-9.38,2.555
			c-0.043,0-0.085-0.004-0.129-0.004c-0.042,0-0.085,0.004-0.127,0.004c-6.755-0.046-13.033-3.687-16.408-9.532
			C284.115,233.888,283.439,228.75,284.758,223.832z M256,16.341c32.634,0,59.183,39.585,59.183,88.24
			c0,32.15-11.605,61.134-30.136,76.742c-4.904-7.029-12.289-12.198-20.877-14.235V40.852c0-4.513-3.657-8.17-8.17-8.17
			c-4.512,0-8.17,3.657-8.17,8.17v126.236c-8.588,2.037-15.973,7.206-20.877,14.235c-18.53-15.608-30.136-44.592-30.136-76.742
			C196.817,55.926,223.366,16.341,256,16.341z M256,275.064c-10.513,0-19.064-8.552-19.064-19.064
			c0-10.511,8.553-19.064,19.064-19.064c10.513,0,19.065,8.553,19.065,19.064S266.513,275.064,256,275.064z M275.065,310.469
			c0,10.511-8.552,19.064-19.065,19.064c-10.513,0-19.064-8.553-19.064-19.064s8.553-19.064,19.064-19.064
			C266.513,291.405,275.065,299.958,275.065,310.469z M256,220.595c-10.513,0-19.064-8.553-19.064-19.064
			s8.552-19.064,19.064-19.064c10.513,0,19.065,8.553,19.065,19.064S266.513,220.595,256,220.595z M225.338,238.297
			c-3.375,5.846-9.654,9.486-16.409,9.532c-0.042,0-0.085-0.004-0.127-0.004s-0.085,0.004-0.129,0.004
			c-3.277-0.023-6.518-0.903-9.38-2.555c-4.41-2.546-7.565-6.657-8.883-11.576c-1.317-4.92-0.642-10.056,1.905-14.466
			c3.398-5.882,9.734-9.536,16.537-9.536c3.32,0,6.608,0.886,9.507,2.559c4.41,2.546,7.565,6.657,8.883,11.576
			C228.561,228.751,227.884,233.888,225.338,238.297z M227.242,288.168c-1.318,4.919-4.472,9.03-8.883,11.576
			c-2.9,1.674-6.187,2.559-9.507,2.559c-6.803,0-13.139-3.654-16.536-9.536c-2.546-4.41-3.222-9.547-1.905-14.466
			c1.318-4.919,4.473-9.03,8.883-11.576c2.862-1.651,6.103-2.532,9.379-2.555c0.042,0,0.085,0.004,0.129,0.004
			c0.042,0,0.085-0.004,0.127-0.004c6.755,0.046,13.033,3.687,16.409,9.532C227.884,278.112,228.561,283.25,227.242,288.168z
			 M95.272,231.543c-20.866-12.047-37.152-28.936-45.86-47.555c-8.247-17.635-8.59-34.615-0.968-47.819
			c16.317-28.26,63.874-31.46,106.011-7.132c27.841,16.074,47.14,40.612,51.394,64.462c-8.712,0.746-16.811,4.706-22.749,10.979
			L73.758,141.35c-3.908-2.255-8.905-0.918-11.161,2.99c-2.256,3.908-0.917,8.905,2.99,11.161l109.317,63.114
			c-1.877,6.23-2.001,12.872-0.276,19.314c0.549,2.047,1.278,4.014,2.156,5.895C154.004,252.057,123.108,247.613,95.272,231.543z
			 M154.456,382.962c-42.137,24.326-89.694,21.129-106.011-7.132c-7.622-13.202-7.278-30.184,0.968-47.819
			c8.707-18.62,24.994-35.509,45.861-47.555c27.836-16.071,58.731-20.516,81.512-12.281c-0.879,1.881-1.608,3.848-2.157,5.896
			c-1.727,6.442-1.601,13.085,0.276,19.314L65.588,356.499c-3.908,2.256-5.247,7.253-2.99,11.161
			c1.513,2.621,4.259,4.086,7.083,4.086c1.386,0,2.791-0.353,4.078-1.096l109.344-63.129c5.937,6.272,14.037,10.232,22.749,10.978
			C201.596,342.35,182.298,366.888,154.456,382.962z M256,495.659c-32.634,0-59.183-39.585-59.183-88.24
			c0-32.15,11.605-61.135,30.136-76.743c4.904,7.029,12.289,12.198,20.877,14.235v126.237c0,4.513,3.658,8.17,8.17,8.17
			c4.513,0,8.17-3.657,8.17-8.17V344.912c8.588-2.037,15.973-7.206,20.877-14.235c18.53,15.608,30.136,44.593,30.136,76.742
			C315.183,456.074,288.634,495.659,256,495.659z M463.556,375.83c-16.316,28.259-63.873,31.46-106.011,7.132
			c-27.841-16.074-47.14-40.612-51.394-64.462c8.712-0.747,16.811-4.707,22.749-10.979l109.343,63.129
			c1.288,0.743,2.692,1.096,4.078,1.096c2.824,0,5.57-1.465,7.083-4.086c2.256-3.908,0.917-8.905-2.99-11.161l-109.315-63.113
			c1.877-6.23,2.001-12.872,0.276-19.314c-0.549-2.047-1.278-4.014-2.156-5.895c22.78-8.235,53.676-3.79,81.511,12.28
			c20.866,12.047,37.154,28.936,45.861,47.555C470.834,345.647,471.179,362.628,463.556,375.83z"/>
	</g>
</g>
<g>
</g>
<g>
</g>
<g>
</g>
<g>
</g>
<g>
</g>
<g>
</g>
<g>
</g>
<g>
</g>
<g>
</g>
<g>
</g>
<g>
</g>
<g>
</g>
<g>
</g>
<g>
</g>
<g>
</g>
</svg>
