<?xml version="1.0" encoding="iso-8859-1"?>
<!-- Generator: Adobe Illustrator 19.0.0, SVG Export Plug-In . SVG Version: 6.00 Build 0)  -->
<svg version="1.1" id="Capa_1" xmlns="http://www.w3.org/2000/svg" xmlns:xlink="http://www.w3.org/1999/xlink" x="0px" y="0px"
	 viewBox="0 0 512 512" style="enable-background:new 0 0 512 512;" xml:space="preserve">
<g>
	<g>
		<path d="M293.051,276.261c-4.251-1.514-8.923,0.709-10.435,4.962c-2.304,6.482-16.35,14.25-26.622,18.25
			c-10.267-3.984-24.296-11.737-26.611-18.25c-1.511-4.253-6.184-6.476-10.435-4.962c-4.252,1.511-6.473,6.183-4.962,10.434
			c6.029,16.958,33.835,27.304,39.349,29.206c0.863,0.297,1.764,0.447,2.665,0.447c0.901,0,1.801-0.149,2.665-0.447
			c5.513-1.901,33.32-12.247,39.349-29.206C299.524,282.443,297.303,277.771,293.051,276.261z"/>
	</g>
</g>
<g>
	<g>
		<path d="M227.25,237.661h-18.519c-4.512,0-8.17,3.657-8.17,8.17c0,4.513,3.658,8.17,8.17,8.17h10.814
			c1.121,3.173,4.147,5.447,7.705,5.447c4.512,0,8.17-3.657,8.17-8.17v-5.447C235.42,241.318,231.762,237.661,227.25,237.661z"/>
	</g>
</g>
<g>
	<g>
		<path d="M303.269,237.661H284.75c-4.512,0-8.17,3.657-8.17,8.17v5.447c0,4.513,3.658,8.17,8.17,8.17
			c3.558,0,6.584-2.273,7.705-5.447h10.814c4.512,0,8.17-3.657,8.17-8.17C311.44,241.318,307.781,237.661,303.269,237.661z"/>
	</g>
</g>
<g>
	<g>
		<path d="M238.143,204.98h-40.306c-4.512,0-8.17,3.657-8.17,8.17c0,4.513,3.658,8.17,8.17,8.17h40.306
			c4.512,0,8.17-3.657,8.17-8.17C246.313,208.637,242.655,204.98,238.143,204.98z"/>
	</g>
</g>
<g>
	<g>
		<path d="M314.163,204.98h-40.306c-4.512,0-8.17,3.657-8.17,8.17c0,4.513,3.658,8.17,8.17,8.17h40.306
			c4.512,0,8.17-3.657,8.17-8.17C322.333,208.637,318.675,204.98,314.163,204.98z"/>
	</g>
</g>
<g>
	<g>
		<path d="M413.02,500.03c-7.505-14.301-16.899-27.431-28.001-39.191c8.58-5.271,14.316-14.754,14.316-25.556
			c0-16.518-13.439-29.956-29.958-29.956H143.041c-16.519,0-29.958,13.438-29.958,29.956c0,10.691,5.623,20.087,14.058,25.39
			c-11.172,11.804-20.622,24.99-28.162,39.359c-2.097,3.995-0.559,8.934,3.437,11.031c1.212,0.636,2.511,0.938,3.79,0.938
			c2.939,0,5.78-1.592,7.241-4.376c8.295-15.803,19.129-30.047,32.231-42.383h158.395c4.512,0,8.17-3.657,8.17-8.17
			c0-4.513-3.658-8.17-8.17-8.17H144.841c-1.163-0.303-2.381-0.341-3.565-0.121c-6.672-0.849-11.851-6.571-11.851-13.497
			c0-7.508,6.109-13.616,13.618-13.616h226.336c7.509,0,13.618,6.108,13.618,13.616c0,7.007-5.298,12.79-12.081,13.533
			c-1.242-0.261-2.527-0.233-3.753,0.085h-30.409c-4.512,0-8.17,3.657-8.17,8.17c0,4.513,3.658,8.17,8.17,8.17h29.57
			c13.101,12.334,23.934,26.576,32.23,42.381c1.461,2.784,4.301,4.376,7.241,4.376c1.28,0,2.578-0.302,3.79-0.938
			C413.578,508.964,415.117,504.025,413.02,500.03z"/>
	</g>
</g>
<g>
	<g>
		<path d="M413.7,272.358h-8.806c-0.901-5.85-2.751-11.415-5.399-16.523l7.148-5.194c3.65-2.653,4.46-7.762,1.807-11.412
			c-2.653-3.652-7.762-4.458-11.412-1.807l-7.153,5.197c-6.745-6.824-15.307-11.887-24.959-14.346
			c-2.709-15.433-8.755-29.835-17.762-42.461c15.172-5.97,25.943-20.757,25.943-38.022c0-22.525-18.325-40.849-40.851-40.849h-2.723
			V56.627c4.088,2.096,8.715,3.288,13.617,3.288c16.519,0,29.957-13.439,29.957-29.957C373.107,13.439,359.668,0,343.149,0
			c-13.686,0-25.249,9.229-28.816,21.787h-42.922c-24.21,0-51.666,16.956-62.506,38.604l-23.312,46.549h-5.848
			c-22.526,0-40.851,18.324-40.851,40.849c0,17.265,10.772,32.052,25.943,38.022c-9.007,12.627-15.054,27.028-17.763,42.461
			c-9.653,2.46-18.214,7.522-24.959,14.346l-7.153-5.197c-3.653-2.655-8.762-1.844-11.412,1.807
			c-2.653,3.65-1.843,8.76,1.807,11.412l7.148,5.194c-2.648,5.109-4.498,10.675-5.399,16.523H98.3c-4.512,0-8.17,3.657-8.17,8.17
			s3.658,8.17,8.17,8.17h8.797c0.893,5.828,2.73,11.407,5.381,16.545l-7.121,5.173c-3.65,2.653-4.46,7.762-1.808,11.412
			c1.599,2.202,4.091,3.369,6.617,3.369c1.665,0,3.345-0.508,4.795-1.562l7.122-5.174c4.682,4.733,10.273,8.646,16.591,11.431
			l71.783,31.639c8.979,16.617,26.518,27.188,45.543,27.188s36.563-10.571,45.543-27.188l71.782-31.639
			c6.318-2.785,11.91-6.697,16.592-11.431l7.122,5.174c1.45,1.055,3.131,1.562,4.795,1.562c2.526,0,5.018-1.169,6.617-3.369
			c2.653-3.65,1.842-8.76-1.808-11.412l-7.121-5.173c2.651-5.137,4.488-10.717,5.381-16.545h8.797c4.512,0,8.17-3.657,8.17-8.17
			C421.87,276.014,418.212,272.358,413.7,272.358z M343.149,16.34c7.509,0,13.617,6.108,13.617,13.617
			c0,7.509-6.108,13.617-13.617,13.617s-13.617-6.108-13.617-13.617C329.532,22.448,335.64,16.34,343.149,16.34z M155.234,147.789
			c0-13.513,10.995-24.508,24.51-24.508h10.85c0.069,0,21.831,0,21.831,0c4.512,0,8.17-3.657,8.17-8.17s-3.658-8.17-8.17-8.17
			h-8.558l19.648-39.233c8.03-16.033,29.964-29.579,47.896-29.579h41.78v68.813h-68.085c-4.512,0-8.17,3.657-8.17,8.17
			s3.658,8.17,8.17,8.17h87.149c13.516,0,24.51,10.995,24.51,24.508c0,13.515-10.995,24.511-24.51,24.511h-152.51
			C166.229,172.299,155.234,161.303,155.234,147.789z M366.734,314.938l-74.469,32.824c-1.82,0.803-3.285,2.242-4.12,4.047
			c-5.779,12.496-18.396,20.569-32.145,20.569c-13.749,0-26.367-8.073-32.145-20.569c-0.834-1.805-2.3-3.244-4.12-4.047
			l-74.47-32.824c-13.64-6.012-22.454-19.519-22.454-34.411c0-18.764,14.007-34.778,32.582-37.248
			c3.701-0.492,6.597-3.43,7.036-7.139c2.101-17.763,9.324-34.112,20.945-47.5h145.251c11.62,13.388,18.843,29.738,20.944,47.5
			c0.439,3.708,3.336,6.647,7.036,7.14c18.575,2.472,32.582,18.485,32.582,37.248C389.189,295.419,380.375,308.926,366.734,314.938z
			"/>
	</g>
</g>
<g>
</g>
<g>
</g>
<g>
</g>
<g>
</g>
<g>
</g>
<g>
</g>
<g>
</g>
<g>
</g>
<g>
</g>
<g>
</g>
<g>
</g>
<g>
</g>
<g>
</g>
<g>
</g>
<g>
</g>
</svg>
