<?xml version="1.0" encoding="iso-8859-1"?>
<!-- Generator: Adobe Illustrator 19.0.0, SVG Export Plug-In . SVG Version: 6.00 Build 0)  -->
<svg version="1.1" id="Capa_1" xmlns="http://www.w3.org/2000/svg" xmlns:xlink="http://www.w3.org/1999/xlink" x="0px" y="0px"
	 viewBox="0 0 512 512" style="enable-background:new 0 0 512 512;" xml:space="preserve">
<g>
	<g>
		<path d="M327.708,214.437l-65.237-87.432c-1.541-2.067-3.97-3.284-6.548-3.284c-2.579,0-5.007,1.217-6.548,3.284l-22.847,30.619
			c-2.699,3.617-1.954,8.737,1.661,11.434c3.617,2.701,8.738,1.955,11.434-1.661l16.299-21.844l58.715,78.692
			c9.532,12.626,14.569,27.862,14.569,44.061c0,40.411-32.876,73.286-73.285,73.286c-40.411,0-73.286-32.876-73.286-73.286
			c0-16.199,5.038-31.435,14.595-44.097l22.847-30.619c2.699-3.617,1.954-8.737-1.661-11.434c-3.616-2.697-8.738-1.954-11.434,1.661
			l-22.82,30.583c-11.688,15.485-17.867,34.125-17.867,53.906c0,49.42,40.206,89.626,89.626,89.626
			c49.42,0.001,89.626-40.205,89.626-89.625C345.548,248.525,339.369,229.884,327.708,214.437z"/>
	</g>
</g>
<g>
	<g>
		<path d="M408.434,373.651h-83.737c47.153-24.819,79.384-74.309,79.384-131.194c0-32.608-10.267-63.444-29.664-89.139L262.47,3.284
			C260.929,1.217,258.502,0,255.923,0c-2.579,0-5.007,1.217-6.548,3.284L137.456,153.282c-19.423,25.73-29.691,56.567-29.691,89.175
			c0,56.884,32.23,106.375,79.384,131.194h-83.582c-38.143,0-69.174,31.032-69.174,69.174c0,7.87,1.339,15.429,3.771,22.482
			c0.098,0.361,0.212,0.715,0.357,1.053C48.173,492.951,73.686,512,103.567,512h304.865c38.143,0,69.174-31.032,69.174-69.174
			C477.607,404.683,446.576,373.651,408.434,373.651z M124.106,242.457c0-29.027,9.127-56.458,26.419-79.367L255.923,21.832
			l105.423,141.295c17.268,22.873,26.394,50.306,26.394,79.331c0,68.369-52.322,124.741-119.027,131.194h-25.58
			C176.428,367.198,124.106,310.826,124.106,242.457z M103.567,495.66c-18.639,0-35.042-9.711-44.449-24.329h257.86
			c4.513,0,8.17-3.657,8.17-8.17s-3.657-8.17-8.17-8.17H52.162c-0.925-3.909-1.429-7.977-1.429-12.165
			c0-29.133,23.701-52.834,52.834-52.834h138.846c4.451,0.404,8.956,0.622,13.51,0.622c4.555,0,9.059-0.218,13.51-0.622h94.419
			c-7.814,6.604-14.14,14.905-18.421,24.329h-27.207c-4.513,0-8.17,3.657-8.17,8.17s3.657,8.17,8.17,8.17h22.128
			c-0.705,3.952-1.093,8.012-1.093,12.165c0,21.168,9.567,40.135,24.593,52.834H103.567z M408.434,495.66
			c-29.133,0-52.834-23.701-52.834-52.834s23.701-52.834,52.834-52.834s52.834,23.701,52.834,52.834S437.567,495.66,408.434,495.66z
			"/>
	</g>
</g>
<g>
	<g>
		<path d="M408.434,406.332c-20.123,0-36.494,16.371-36.494,36.494c0,4.513,3.657,8.17,8.17,8.17s8.17-3.657,8.17-8.17
			c0-11.113,9.041-20.153,20.153-20.153s20.153,9.041,20.153,20.153c0,11.113-9.041,20.153-20.153,20.153
			c-4.513,0-8.17,3.657-8.17,8.17s3.657,8.17,8.17,8.17c20.123,0,36.494-16.371,36.494-36.494
			C444.927,422.703,428.555,406.332,408.434,406.332z"/>
	</g>
</g>
<g>
	<g>
		<path d="M285.543,414.32H83.725c-4.513,0-8.17,3.657-8.17,8.17s3.657,8.17,8.17,8.17h201.818c4.513,0,8.17-3.657,8.17-8.17
			S290.056,414.32,285.543,414.32z"/>
	</g>
</g>
<g>
</g>
<g>
</g>
<g>
</g>
<g>
</g>
<g>
</g>
<g>
</g>
<g>
</g>
<g>
</g>
<g>
</g>
<g>
</g>
<g>
</g>
<g>
</g>
<g>
</g>
<g>
</g>
<g>
</g>
</svg>
