<?xml version="1.0" encoding="iso-8859-1"?>
<!-- Generator: Adobe Illustrator 19.0.0, SVG Export Plug-In . SVG Version: 6.00 Build 0)  -->
<svg version="1.1" id="Capa_1" xmlns="http://www.w3.org/2000/svg" xmlns:xlink="http://www.w3.org/1999/xlink" x="0px" y="0px"
	 viewBox="0 0 512 512" style="enable-background:new 0 0 512 512;" xml:space="preserve">
<g>
	<g>
		<path d="M512,256c0-13.819-3.816-27.147-11.073-38.792c3.303-13.319,2.814-27.173-1.456-40.315
			c-4.269-13.142-12.018-24.64-22.518-33.475c-0.975-13.687-5.722-26.713-13.844-37.89c-8.121-11.179-19.043-19.721-31.76-24.876
			c-5.155-12.717-13.697-23.639-24.875-31.759c-11.178-8.122-24.206-12.87-37.892-13.845c-8.834-10.5-20.332-18.249-33.474-22.518
			c-13.059-4.244-27.066-4.735-40.314-1.456C283.148,3.817,269.819,0,256,0c-13.819,0-27.148,3.817-38.793,11.073
			c-13.248-3.28-27.255-2.789-40.314,1.456c-13.141,4.269-24.639,12.018-33.474,22.518c-13.687,0.975-26.714,5.722-37.891,13.844
			c-11.179,8.121-19.721,19.043-24.876,31.76c-12.717,5.155-23.639,13.697-31.759,24.875c-8.122,11.178-12.87,24.205-13.845,37.891
			c-10.5,8.834-18.249,20.332-22.518,33.475c-4.27,13.141-4.759,26.997-1.456,40.315C3.816,228.853,0,242.181,0,256
			c0,13.819,3.816,27.147,11.073,38.792c-3.303,13.319-2.814,27.173,1.456,40.315c4.27,13.142,12.018,24.64,22.518,33.474
			c0.975,13.688,5.722,26.714,13.844,37.891c8.121,11.179,19.043,19.721,31.76,24.876c5.155,12.717,13.697,23.639,24.875,31.759
			c11.178,8.122,24.206,12.87,37.892,13.845c8.834,10.5,20.332,18.249,33.474,22.518c13.06,4.244,27.067,4.737,40.314,1.456
			C228.852,508.183,242.181,512,256,512c13.819,0,27.148-3.817,38.793-11.073c5.773,1.429,11.682,2.153,17.62,2.153
			c7.69,0,15.324-1.214,22.694-3.609c13.141-4.269,24.639-12.018,33.474-22.518c13.687-0.975,26.714-5.722,37.891-13.844
			c11.179-8.121,19.721-19.043,24.876-31.76c12.717-5.155,23.639-13.697,31.759-24.875c8.122-11.178,12.87-24.204,13.845-37.892
			c10.5-8.833,18.248-20.331,22.518-33.474c4.27-13.141,4.759-26.997,1.456-40.315C508.184,283.147,512,269.819,512,256z
			 M488.049,284.482l-12.875-2.039c-4.458-0.712-8.641,2.336-9.347,6.791c-0.706,4.456,2.334,8.642,6.791,9.347l12.875,2.039
			c2.071,9.764,1.553,19.845-1.564,29.438c-3.117,9.594-8.623,18.055-16.039,24.736l-11.616-5.918
			c-4.021-2.049-8.94-0.45-10.988,3.571c-2.049,4.02-0.45,8.94,3.571,10.988l11.615,5.917c-1.047,9.927-4.656,19.356-10.585,27.515
			c-5.928,8.16-13.778,14.505-22.896,18.568l-9.218-9.217c-3.19-3.19-8.363-3.191-11.554,0.001
			c-3.191,3.191-3.191,8.364,0.001,11.554l9.217,9.216c-4.063,9.118-10.408,16.969-18.569,22.897
			c-8.158,5.928-17.586,9.537-27.513,10.584l-5.919-11.616c-2.049-4.019-6.968-5.617-10.99-3.57c-4.02,2.049-5.619,6.969-3.57,10.99
			l5.919,11.616c-6.682,7.415-15.143,12.921-24.736,16.038c-5.737,1.864-11.672,2.808-17.643,2.808
			c-3.965,0-7.914-0.425-11.796-1.246l-2.039-12.874c-0.705-4.458-4.897-7.504-9.347-6.791c-4.458,0.705-7.498,4.89-6.791,9.347
			l2.039,12.875c-8.647,4.989-18.396,7.612-28.482,7.612c-10.086,0-19.835-2.623-28.481-7.61l2.039-12.875
			c0.706-4.457-2.335-8.642-6.791-9.347c-4.459-0.709-8.641,2.334-9.347,6.791l-2.038,12.871c-9.736,2.052-19.895,1.541-29.439-1.56
			c-9.593-3.117-18.054-8.623-24.736-16.039l5.919-11.616c2.049-4.02,0.45-8.94-3.571-10.988c-4.02-2.048-8.941-0.45-10.988,3.571
			l-5.917,11.615c-9.927-1.047-19.356-4.656-27.515-10.585c-8.16-5.928-14.505-13.778-18.568-22.897l9.217-9.218
			c3.191-3.191,3.191-8.364-0.001-11.554c-3.19-3.19-8.363-3.191-11.554,0.001l-9.216,9.217
			c-9.118-4.063-16.969-10.409-22.897-18.569c-5.928-8.158-9.537-17.586-10.584-27.513l11.616-5.919
			c4.02-2.049,5.619-6.969,3.57-10.99c-2.049-4.019-6.968-5.617-10.989-3.57l-11.618,5.918
			c-7.415-6.681-12.921-15.142-16.038-24.736c-3.117-9.593-3.635-19.675-1.563-29.438l12.875-2.039
			c4.458-0.705,7.498-4.89,6.791-9.347c-0.705-4.457-4.896-7.5-9.347-6.791l-12.875,2.039c-4.988-8.647-7.611-18.396-7.611-28.482
			c0-10.086,2.623-19.835,7.61-28.482l12.875,2.039c0.432,0.069,0.863,0.102,1.288,0.102c3.949,0,7.422-2.869,8.059-6.893
			c0.706-4.457-2.335-8.642-6.791-9.347l-12.875-2.039c-2.071-9.764-1.553-19.845,1.563-29.438
			c3.117-9.594,8.623-18.054,16.038-24.736l11.616,5.918c1.189,0.606,2.454,0.892,3.702,0.892c2.974,0,5.843-1.631,7.286-4.464
			c2.049-4.02,0.45-8.94-3.571-10.988l-11.613-5.917c1.047-9.927,4.656-19.356,10.585-27.515
			c5.928-8.16,13.778-14.505,22.896-18.568l9.218,9.217c1.595,1.595,3.686,2.392,5.777,2.392c2.09,0,4.182-0.797,5.778-2.393
			c3.191-3.191,3.191-8.364-0.001-11.554l-9.217-9.216c4.063-9.118,10.408-16.969,18.569-22.897
			c8.158-5.928,17.586-9.537,27.513-10.584l5.919,11.616c1.443,2.832,4.312,4.463,7.286,4.463c1.248,0,2.515-0.288,3.703-0.892
			c4.02-2.049,5.619-6.969,3.57-10.99l-5.916-11.617c6.682-7.415,15.143-12.921,24.736-16.038c9.544-3.101,19.704-3.612,29.439-1.56
			l2.038,12.871c0.637,4.024,4.11,6.893,8.059,6.893c0.425,0,0.855-0.033,1.288-0.102c4.458-0.705,7.498-4.89,6.791-9.347
			l-2.039-12.875c8.647-4.987,18.396-7.61,28.482-7.61c10.086,0,19.835,2.623,28.481,7.61l-2.039,12.875
			c-0.706,4.457,2.334,8.642,6.791,9.347c0.432,0.069,0.863,0.102,1.288,0.102c3.949,0,7.422-2.869,8.059-6.893l2.038-12.871
			c9.735-2.052,19.895-1.541,29.439,1.56c9.593,3.117,18.054,8.623,24.736,16.039l-5.919,11.616c-2.049,4.02-0.45,8.94,3.571,10.988
			c1.188,0.606,2.454,0.892,3.702,0.892c2.974,0,5.843-1.631,7.286-4.464l5.917-11.615c9.927,1.047,19.356,4.656,27.515,10.585
			c8.16,5.928,14.505,13.778,18.568,22.897l-9.217,9.218c-3.191,3.191-3.191,8.364,0.001,11.554
			c1.595,1.595,3.686,2.392,5.777,2.392s4.182-0.797,5.778-2.393l9.216-9.217c9.118,4.063,16.969,10.409,22.897,18.569
			c5.928,8.158,9.537,17.587,10.584,27.513l-11.616,5.919c-4.02,2.049-5.619,6.969-3.57,10.989c1.443,2.832,4.312,4.463,7.286,4.463
			c1.248,0,2.515-0.288,3.703-0.892l11.616-5.918c7.414,6.681,12.921,15.142,16.038,24.736c3.117,9.593,3.635,19.675,1.564,29.438
			l-12.875,2.039c-4.458,0.705-7.498,4.89-6.791,9.347c0.637,4.024,4.109,6.893,8.059,6.893c0.425,0,0.855-0.033,1.288-0.102
			l12.875-2.039c4.99,8.647,7.614,18.396,7.614,28.482C495.66,266.086,493.036,275.835,488.049,284.482z"/>
	</g>
</g>
<g>
	<g>
		<path d="M256,59.915c-46.066,0-90.838,16.304-126.07,45.909c-3.454,2.903-3.901,8.057-0.999,11.511
			c2.902,3.453,8.056,3.9,11.511,0.999c28.66-24.084,64.212-38.554,101.367-41.506l-50.198,90.55L89.983,187.137
			c6.971-16.813,16.497-32.589,28.351-46.694c2.902-3.455,2.455-8.608-0.999-11.511c-3.455-2.904-8.609-2.454-11.511,0.999
			c-16.211,19.293-28.422,41.448-36.165,65.108c-0.047,0.124-0.107,0.241-0.147,0.367c-0.038,0.118-0.057,0.239-0.09,0.357
			c-6.242,19.332-9.507,39.654-9.507,60.237c0,49.403,18.433,96.595,51.904,132.886c33.271,36.076,78.424,58.257,127.141,62.454
			c0.239,0.021,0.476,0.029,0.71,0.029c4.195,0,7.764-3.211,8.131-7.469c0.387-4.496-2.943-8.455-7.439-8.841
			c-28.396-2.447-54.889-11.635-77.955-25.879L256,365.543l93.595,43.639c-23.067,14.243-49.559,23.432-77.955,25.879
			c-4.496,0.387-7.827,4.346-7.439,8.841c0.367,4.257,3.936,7.469,8.131,7.469c0.235,0,0.473-0.01,0.71-0.029
			c48.716-4.198,93.869-26.378,127.14-62.454c33.47-36.292,51.903-83.484,51.903-132.887C452.085,147.879,364.121,59.915,256,59.915
			z M422.022,187.139l-101.634-19.76l-50.206-90.565C338.781,82.193,396.674,126.254,422.022,187.139z M139.255,392.216
			c-38.567-33.24-63-82.382-63-136.216c0-14.186,1.694-28.235,4.963-41.867l70.6,75.718L139.255,392.216z M259.452,349.123
			c-1.094-0.51-2.273-0.766-3.452-0.766c-1.179,0-2.358,0.255-3.452,0.765l-97.097,45.272l13.051-106.333
			c0.294-2.397-0.487-4.801-2.134-6.567l-73.059-78.356l105.163-20.447c2.37-0.461,4.415-1.947,5.586-4.059L256,84.936
			l51.943,93.697c1.171,2.111,3.216,3.598,5.586,4.059l105.163,20.447l-73.059,78.356c-1.647,1.766-2.428,4.17-2.134,6.567
			l13.051,106.333L259.452,349.123z M372.745,392.216l-12.564-102.365l70.623-75.742c3.222,13.446,4.94,27.472,4.94,41.891
			C435.745,309.834,411.311,358.976,372.745,392.216z"/>
	</g>
</g>
<g>
</g>
<g>
</g>
<g>
</g>
<g>
</g>
<g>
</g>
<g>
</g>
<g>
</g>
<g>
</g>
<g>
</g>
<g>
</g>
<g>
</g>
<g>
</g>
<g>
</g>
<g>
</g>
<g>
</g>
</svg>
