<?xml version="1.0" encoding="iso-8859-1"?>
<!-- Generator: Adobe Illustrator 19.0.0, SVG Export Plug-In . SVG Version: 6.00 Build 0)  -->
<svg version="1.1" id="Capa_1" xmlns="http://www.w3.org/2000/svg" xmlns:xlink="http://www.w3.org/1999/xlink" x="0px" y="0px"
	 viewBox="0 0 512 512" style="enable-background:new 0 0 512 512;" xml:space="preserve">
<g>
	<g>
		<path d="M293.105,58.286L272.34,46.298l20.764-11.988c3.908-2.256,5.246-7.253,2.99-11.161c-2.255-3.909-7.254-5.245-11.16-2.99
			L264.17,32.147V8.17c0-4.513-3.657-8.17-8.17-8.17c-4.512,0-8.17,3.657-8.17,8.17v23.977l-20.764-11.988
			c-3.909-2.255-8.906-0.918-11.161,2.99c-2.256,3.908-0.917,8.904,2.99,11.161l20.764,11.988l-20.764,11.988
			c-3.908,2.256-5.246,7.253-2.99,11.161c1.513,2.621,4.259,4.086,7.083,4.086c1.386,0,2.791-0.353,4.078-1.096l20.764-11.988
			v23.977c0,4.513,3.658,8.17,8.17,8.17c4.513,0,8.17-3.657,8.17-8.17V60.449l20.764,11.988c1.288,0.743,2.692,1.096,4.077,1.096
			c2.824,0,5.57-1.465,7.083-4.086C298.351,65.539,297.012,60.542,293.105,58.286z"/>
	</g>
</g>
<g>
	<g>
		<path d="M152.441,95.735c-1.167-4.359-5.652-6.95-10.007-5.777l-23.16,6.205l6.206-23.16c1.168-4.359-1.419-8.839-5.778-10.007
			c-4.354-1.169-8.838,1.418-10.007,5.777l-6.206,23.16L86.536,74.98c-3.19-3.189-8.363-3.191-11.554,0
			c-3.191,3.192-3.191,8.364,0,11.555l16.953,16.955l-23.16,6.205c-4.359,1.167-6.945,5.648-5.778,10.007
			c0.979,3.649,4.28,6.057,7.888,6.057c0.701,0,1.412-0.09,2.12-0.281l23.16-6.205l-6.206,23.16
			c-1.168,4.359,1.419,8.839,5.778,10.007c0.708,0.191,1.419,0.281,2.12,0.281c3.607,0,6.909-2.407,7.887-6.058l6.206-23.16
			l16.954,16.954c1.595,1.595,3.686,2.392,5.777,2.392c2.09,0,4.182-0.797,5.777-2.392c3.191-3.192,3.191-8.364,0-11.555
			l-16.954-16.954l23.16-6.205C151.021,104.575,153.608,100.094,152.441,95.735z"/>
	</g>
</g>
<g>
	<g>
		<path d="M84.426,247.83H60.449l11.988-20.764c2.256-3.908,0.917-8.904-2.99-11.161c-3.909-2.255-8.904-0.918-11.161,2.99
			L46.298,239.66l-11.988-20.764c-2.256-3.909-7.253-5.245-11.161-2.99c-3.908,2.256-5.246,7.253-2.99,11.161l11.988,20.764H8.17
			C3.658,247.83,0,251.487,0,256s3.658,8.17,8.17,8.17h23.977l-11.988,20.764c-2.256,3.908-0.917,8.904,2.99,11.16
			c1.287,0.743,2.692,1.096,4.078,1.096c2.824,0,5.57-1.465,7.083-4.086l11.988-20.764l11.988,20.764
			c1.513,2.621,4.259,4.086,7.083,4.086c1.386,0,2.791-0.354,4.078-1.096c3.908-2.256,5.246-7.253,2.99-11.16L60.449,264.17h23.977
			c4.512,0,8.17-3.657,8.17-8.17S88.938,247.83,84.426,247.83z"/>
	</g>
</g>
<g>
	<g>
		<path d="M146.661,406.259l-23.16-6.205l16.954-16.954c3.191-3.192,3.191-8.364,0-11.555c-3.191-3.19-8.364-3.19-11.554,0
			l-16.954,16.954l-6.206-23.16c-1.168-4.359-5.648-6.948-10.007-5.777c-4.359,1.167-6.945,5.648-5.778,10.007l6.206,23.16
			l-23.16-6.205c-4.353-1.17-8.838,1.418-10.007,5.777c-1.168,4.359,1.419,8.839,5.778,10.007l23.161,6.203l-16.954,16.954
			c-3.191,3.192-3.191,8.364,0,11.555c1.595,1.595,3.686,2.392,5.777,2.392c2.09,0,4.182-0.797,5.777-2.392l16.955-16.953
			l6.205,23.159c0.978,3.65,4.279,6.058,7.887,6.058c0.7,0,1.412-0.09,2.12-0.281c4.359-1.167,6.945-5.648,5.778-10.007
			l-6.206-23.16l23.16,6.205c0.708,0.191,1.419,0.281,2.12,0.281c3.607,0,6.909-2.407,7.887-6.058
			C153.607,411.906,151.019,407.426,146.661,406.259z"/>
	</g>
</g>
<g>
	<g>
		<path d="M293.105,477.691l-20.764-11.988l20.764-11.988c3.906-2.256,5.246-7.253,2.99-11.16c-2.255-3.909-7.254-5.245-11.16-2.99
			l-20.764,11.988v-23.977c0-4.513-3.657-8.17-8.17-8.17c-4.512,0-8.17,3.657-8.17,8.17v23.977l-20.764-11.988
			c-3.909-2.256-8.906-0.918-11.161,2.99c-2.256,3.908-0.917,8.904,2.99,11.16l20.764,11.988l-20.764,11.988
			c-3.908,2.256-5.246,7.253-2.99,11.161c1.513,2.621,4.259,4.086,7.083,4.086c1.386,0,2.791-0.353,4.078-1.096l20.764-11.988
			v23.977c0,4.513,3.658,8.17,8.17,8.17c4.513,0,8.17-3.657,8.17-8.17v-23.977l20.764,11.988c1.288,0.743,2.692,1.096,4.077,1.096
			c2.824,0,5.57-1.465,7.083-4.086C298.351,484.944,297.012,479.947,293.105,477.691z"/>
	</g>
</g>
<g>
	<g>
		<path d="M449.003,392.299c-1.168-4.359-5.646-6.948-10.008-5.777l-23.16,6.205l6.206-23.16c1.168-4.359-1.418-8.839-5.777-10.007
			c-4.36-1.171-8.839,1.418-10.007,5.777l-6.205,23.16l-16.954-16.954c-3.192-3.19-8.364-3.19-11.555,0
			c-3.191,3.192-3.191,8.364,0,11.555l16.954,16.954l-23.16,6.205c-4.359,1.167-6.945,5.648-5.777,10.007
			c0.977,3.65,4.279,6.058,7.886,6.058c0.701,0,1.412-0.09,2.12-0.281l23.16-6.205l-6.206,23.16
			c-1.168,4.359,1.418,8.839,5.777,10.007c0.708,0.191,1.421,0.281,2.12,0.281c3.608,0,6.909-2.407,7.886-6.058l6.205-23.16
			l16.954,16.954c1.596,1.595,3.688,2.392,5.778,2.392s4.182-0.797,5.778-2.392c3.191-3.192,3.191-8.364,0-11.555l-16.952-16.954
			l23.16-6.205C447.585,401.139,450.171,396.657,449.003,392.299z"/>
	</g>
</g>
<g>
	<g>
		<path d="M503.83,247.83h-23.977l11.988-20.764c2.256-3.908,0.917-8.904-2.99-11.161c-3.91-2.255-8.906-0.918-11.161,2.99
			l-11.988,20.764l-11.988-20.764c-2.256-3.909-7.255-5.245-11.16-2.99c-3.908,2.256-5.246,7.253-2.99,11.161l11.988,20.764h-23.977
			c-4.513,0-8.17,3.657-8.17,8.17s3.657,8.17,8.17,8.17h23.977l-11.988,20.764c-2.256,3.908-0.917,8.904,2.99,11.16
			c1.288,0.743,2.692,1.096,4.077,1.096c2.824,0,5.57-1.465,7.083-4.086l11.988-20.764l11.988,20.764
			c1.514,2.621,4.259,4.086,7.083,4.086c1.386,0,2.792-0.353,4.077-1.096c3.908-2.256,5.246-7.253,2.99-11.16l-11.988-20.764h23.977
			c4.513,0,8.17-3.657,8.17-8.17S508.343,247.83,503.83,247.83z"/>
	</g>
</g>
<g>
	<g>
		<path d="M443.224,109.692l-23.158-6.203l16.954-16.954c3.191-3.192,3.191-8.364,0-11.555c-3.192-3.19-8.364-3.19-11.555,0
			l-16.955,16.954l-6.205-23.16c-1.167-4.359-5.646-6.947-10.007-5.777c-4.359,1.167-6.945,5.648-5.777,10.007l6.206,23.16
			l-23.16-6.205c-4.361-1.173-8.839,1.418-10.007,5.777c-1.168,4.357,1.418,8.838,5.777,10.005l23.16,6.205L371.544,128.9
			c-3.191,3.192-3.191,8.364,0,11.555c1.596,1.595,3.688,2.392,5.778,2.392s4.182-0.797,5.778-2.392l16.954-16.954l6.205,23.16
			c0.977,3.65,4.279,6.058,7.886,6.058c0.7,0,1.412-0.09,2.12-0.281c4.359-1.167,6.945-5.648,5.777-10.007l-6.206-23.16l23.16,6.205
			c0.708,0.191,1.421,0.281,2.12,0.281c3.608,0,6.909-2.407,7.886-6.058C450.169,115.341,447.583,110.86,443.224,109.692z"/>
	</g>
</g>
<g>
	<g>
		<path d="M324.942,138.617c-0.509-0.386-1.061-0.7-1.637-0.955c-19.865-11.342-42.84-17.832-67.305-17.832
			c-75.084,0-136.17,61.086-136.17,136.17S180.916,392.17,256,392.17c24.523,0,47.55-6.519,67.446-17.91
			c0.499-0.233,0.982-0.503,1.428-0.837C365.107,349.734,392.17,305.971,392.17,256C392.17,206.057,365.138,162.315,324.942,138.617
			z M319.96,357.288c-29.961-19.021-50.324-50.814-54.807-85.981c-0.57-4.475-4.656-7.641-9.138-7.071
			c-4.476,0.57-7.642,4.661-7.072,9.138c4.709,36.945,24.829,70.606,54.722,92.558c-14.616,6.362-30.734,9.899-47.665,9.899
			c-66.074,0-119.83-53.756-119.83-119.83S189.926,136.17,256,136.17c16.932,0,33.051,3.538,47.668,9.9
			c-29.894,21.951-50.016,55.612-54.725,92.557c-0.57,4.475,2.596,8.567,7.072,9.138c0.351,0.045,0.699,0.068,1.044,0.068
			c4.051,0,7.569-3.013,8.094-7.139c4.483-35.167,24.847-66.958,54.812-85.978c33.546,21.26,55.865,58.712,55.865,101.284
			C375.83,298.574,353.509,336.028,319.96,357.288z"/>
	</g>
</g>
<g>
</g>
<g>
</g>
<g>
</g>
<g>
</g>
<g>
</g>
<g>
</g>
<g>
</g>
<g>
</g>
<g>
</g>
<g>
</g>
<g>
</g>
<g>
</g>
<g>
</g>
<g>
</g>
<g>
</g>
</svg>
