<?xml version="1.0" encoding="iso-8859-1"?>
<!-- Generator: Adobe Illustrator 19.0.0, SVG Export Plug-In . SVG Version: 6.00 Build 0)  -->
<svg version="1.1" id="Capa_1" xmlns="http://www.w3.org/2000/svg" xmlns:xlink="http://www.w3.org/1999/xlink" x="0px" y="0px"
	 viewBox="0 0 512 512" style="enable-background:new 0 0 512 512;" xml:space="preserve">
<g>
	<g>
		<path d="M310.674,95.064c-0.154-4.324-3.604-7.788-7.925-7.912c-0.541-0.016-1.072,0.023-1.588,0.109
			c-17.522,0.298-26.861,6.243-35.105,11.518c-7.52,4.813-14.015,8.969-27.651,8.969s-20.131-4.156-27.651-8.969
			c-8.457-5.412-18.042-11.546-36.46-11.546s-28.002,6.134-36.459,11.546c-7.519,4.813-14.014,8.969-27.649,8.969
			c-13.636,0-20.13-4.156-27.649-8.968c-8.24-5.274-17.575-11.216-35.086-11.518c-0.528-0.089-1.073-0.127-1.629-0.109
			c-4.315,0.136-7.753,3.604-7.898,7.886c-0.003,0.104-0.014,0.191-0.014,0.28v0.084c0,0.078,0.015,0.155,0.017,0.233
			c0.002,0.084-0.003,0.167,0.002,0.251l8.189,137.999c0.257,4.339,3.857,7.687,8.148,7.687c0.162,0,0.327-0.004,0.491-0.015
			c4.505-0.267,7.939-4.135,7.671-8.64l-7.634-128.671c8.105,1.365,13.224,4.641,18.933,8.296
			c8.457,5.412,18.041,11.546,36.458,11.546s28.002-6.134,36.458-11.546c7.52-4.813,14.014-8.969,27.65-8.969
			c13.638,0,20.131,4.156,27.651,8.969c8.457,5.412,18.042,11.546,36.46,11.546c18.419,0,28.003-6.134,36.46-11.546
			c5.712-3.655,10.832-6.931,18.938-8.296l-4.111,69.279c-0.267,4.505,3.168,8.373,7.672,8.64c4.515,0.288,8.373-3.167,8.64-7.671
			l4.665-78.606c0.004-0.075-0.001-0.149,0.002-0.224c0.004-0.114,0.017-0.228,0.017-0.344
			C310.687,95.233,310.677,95.149,310.674,95.064z"/>
	</g>
</g>
<g>
	<g>
		<path d="M186.996,428.478h-87.98c-13.542-0.001-25.659-11.421-26.461-24.938l-8.189-137.998c-0.267-4.505-4.122-7.926-8.64-7.672
			c-4.505,0.268-7.939,4.136-7.671,8.641l8.189,137.998c1.318,22.226,20.506,40.31,42.773,40.31h87.979
			c4.512,0,8.17-3.657,8.17-8.17S191.508,428.478,186.996,428.478z"/>
	</g>
</g>
<g>
	<g>
		<path d="M351.319,190.638c-88.6,0-160.681,72.081-160.681,160.681c0,59.15,32.132,110.931,79.854,138.823
			c-7.827,3.626-16.235,5.518-24.841,5.518H102.945c-31.795,0-59.194-25.821-61.077-57.561L16.841,16.34h314.916l-8.926,150.424
			c-0.267,4.505,3.168,8.373,7.671,8.641c4.501,0.269,8.373-3.168,8.64-7.672l9.44-159.078c0.134-2.247-0.667-4.449-2.21-6.087
			C344.828,0.929,342.676,0,340.426,0H8.17C5.92,0,3.768,0.929,2.225,2.567c-1.544,1.637-2.343,3.84-2.21,6.087l25.541,430.413
			C27.941,479.282,62.658,512,102.945,512h142.706c14.827,0,29.681-4.603,42.342-13.016c19.442,8.37,40.85,13.016,63.326,13.016
			C439.919,512,512,439.919,512,351.319S439.919,190.638,351.319,190.638z M351.319,495.66c-79.59,0-144.34-64.751-144.34-144.34
			s64.751-144.34,144.34-144.34s144.34,64.751,144.34,144.34S430.909,495.66,351.319,495.66z"/>
	</g>
</g>
<g>
	<g>
		<path d="M351.319,234.213c-22.526,0-40.851,18.325-40.851,40.851s18.325,40.851,40.851,40.851s40.851-18.325,40.851-40.851
			S373.845,234.213,351.319,234.213z M351.319,299.574c-13.516,0-24.511-10.996-24.511-24.511s10.995-24.511,24.511-24.511
			s24.511,10.996,24.511,24.511S364.835,299.574,351.319,299.574z"/>
	</g>
</g>
<g>
	<g>
		<path d="M297.398,364.388c-22.526,0-40.851,18.325-40.851,40.851c0,22.526,18.325,40.851,40.851,40.851
			s40.851-18.325,40.851-40.851C338.249,382.713,319.924,364.388,297.398,364.388z M297.398,429.75
			c-13.516,0-24.511-10.996-24.511-24.511c0-13.515,10.995-24.511,24.511-24.511s24.511,10.996,24.511,24.511
			C321.909,418.754,310.914,429.75,297.398,429.75z"/>
	</g>
</g>
<g>
	<g>
		<path d="M438.468,321.362c-16.519,0-29.957,13.439-29.957,29.957s13.438,29.957,29.957,29.957s29.957-13.439,29.957-29.957
			S454.987,321.362,438.468,321.362z M438.468,364.936c-7.509,0-13.617-6.108-13.617-13.617s6.108-13.617,13.617-13.617
			s13.617,6.108,13.617,13.617S445.977,364.936,438.468,364.936z"/>
	</g>
</g>
<g>
</g>
<g>
</g>
<g>
</g>
<g>
</g>
<g>
</g>
<g>
</g>
<g>
</g>
<g>
</g>
<g>
</g>
<g>
</g>
<g>
</g>
<g>
</g>
<g>
</g>
<g>
</g>
<g>
</g>
</svg>
