<?xml version="1.0" encoding="iso-8859-1"?>
<!-- Generator: Adobe Illustrator 19.0.0, SVG Export Plug-In . SVG Version: 6.00 Build 0)  -->
<svg version="1.1" id="Capa_1" xmlns="http://www.w3.org/2000/svg" xmlns:xlink="http://www.w3.org/1999/xlink" x="0px" y="0px"
	 viewBox="0 0 512.002 512.002" style="enable-background:new 0 0 512.002 512.002;" xml:space="preserve">
<g>
	<g>
		<path d="M509.608,104.183c-4.988-4.988-6.111-8.397-7.535-12.712c-1.678-5.085-3.764-11.413-11.499-19.147
			c-7.736-7.737-14.064-9.824-19.149-11.501c-4.315-1.423-7.724-2.547-12.712-7.534c-4.988-4.989-6.112-8.398-7.535-12.713
			c-1.678-5.085-3.764-11.413-11.499-19.149c-7.736-7.734-14.063-9.822-19.147-11.498c-4.315-1.424-7.724-2.547-12.712-7.535
			c-1.804-1.804-4.345-2.665-6.875-2.319c-2.528,0.342-4.751,1.846-6.01,4.065c-1.129,1.99-24.236,43.363-23.151,87.664
			c-32.753-23.162-72.705-36.79-115.784-36.79c-54.953,0-104.818,22.176-141.137,58.041c-0.342,0.249-0.673,0.519-0.982,0.826
			c-0.308,0.308-0.577,0.639-0.826,0.982c-35.865,36.318-58.042,86.185-58.042,141.138c0,43.078,13.628,83.03,36.791,115.781
			c-44.301-1.085-85.673,22.024-87.663,23.152c-2.219,1.258-3.723,3.481-4.067,6.01c-0.342,2.527,0.515,5.071,2.319,6.875
			c4.988,4.988,6.111,8.397,7.535,12.712c1.678,5.085,3.764,11.413,11.499,19.147c7.736,7.737,14.064,9.824,19.149,11.501
			c4.315,1.423,7.724,2.547,12.712,7.534c4.988,4.989,6.112,8.398,7.535,12.713c1.678,5.085,3.764,11.413,11.499,19.149
			c7.736,7.734,14.063,9.822,19.147,11.498c4.315,1.424,7.724,2.547,12.712,7.535c1.543,1.542,3.625,2.393,5.777,2.393
			c0.365,0,0.732-0.024,1.098-0.074c2.528-0.342,4.751-1.846,6.01-4.065c0.661-1.167,16.271-28.985,21.504-63.38
			c0.679-4.461-2.387-8.627-6.848-9.306c-4.458-0.673-8.627,2.387-9.306,6.849c-3.126,20.541-10.508,38.885-15.258,49.148
			c-3.998-2.449-7.51-3.608-10.571-4.617c-4.314-1.424-7.722-2.547-12.711-7.534c-4.988-4.989-6.112-8.398-7.535-12.713
			c-1.677-5.085-3.764-11.413-11.499-19.149c-7.736-7.736-14.064-9.822-19.148-11.499c-4.315-1.423-7.724-2.547-12.712-7.536
			c-4.988-4.987-6.111-8.396-7.535-12.711c-1.01-3.062-2.168-6.574-4.62-10.574c16.042-7.428,51.848-21.278,85.129-15.268
			c2.302,2.584,4.668,5.108,7.098,7.57c0.248,0.342,0.517,0.673,0.826,0.982s0.639,0.576,0.98,0.826
			c36.319,35.864,86.185,58.041,141.138,58.041c54.954,0,104.819-22.177,141.138-58.041c0.341-0.25,0.672-0.517,0.98-0.826
			c0.308-0.308,0.577-0.639,0.826-0.982c35.865-36.319,58.042-86.185,58.042-141.138s-22.177-104.819-58.042-141.139
			c-0.248-0.342-0.517-0.673-0.826-0.982c-0.308-0.308-0.639-0.576-0.98-0.826c-2.461-2.43-4.986-4.795-7.57-7.097
			c-5.985-33.194,7.861-69.058,15.279-85.124c3.995,2.448,7.505,3.606,10.565,4.613c4.314,1.424,7.722,2.547,12.711,7.534
			c4.988,4.989,6.112,8.398,7.535,12.713c1.678,5.085,3.764,11.413,11.499,19.149c7.736,7.736,14.064,9.822,19.148,11.499
			c4.315,1.423,7.724,2.547,12.712,7.536c4.988,4.987,6.111,8.396,7.535,12.711c1.01,3.063,2.169,6.576,4.622,10.578
			c-10.239,4.745-28.542,12.113-49.154,15.249c-4.461,0.679-7.526,4.845-6.848,9.306c0.615,4.045,4.097,6.943,8.067,6.943
			c0.409,0,0.822-0.031,1.24-0.094c34.394-5.234,62.212-20.843,63.379-21.504c2.219-1.258,3.723-3.481,4.067-6.01
			C512.27,108.53,511.412,105.987,509.608,104.183z M380.596,119.851l-46.263,46.264c-11.493-10.029-24.918-17.892-39.637-22.953
			l16.944-63.235C337.552,88.133,361.008,101.91,380.596,119.851z M355.421,229.276c0.007,0.027,0.01,0.055,0.017,0.082
			c0.004,0.018,0.014,0.034,0.018,0.052c2.271,8.486,3.489,17.399,3.489,26.591c0,9.179-1.215,18.079-3.479,26.553
			c-0.009,0.031-0.021,0.059-0.029,0.09c-0.008,0.027-0.011,0.054-0.017,0.082c-9.505,35.324-37.377,63.194-72.702,72.695
			c-0.024,0.007-0.049,0.01-0.074,0.016c-0.027,0.008-0.053,0.019-0.081,0.026c-8.479,2.266-17.381,3.482-26.563,3.482
			c-9.182,0-18.085-1.216-26.562-3.482c-0.027-0.008-0.052-0.019-0.081-0.026c-0.024-0.007-0.049-0.01-0.073-0.016
			c-35.326-9.502-63.197-37.372-72.702-72.695c-0.007-0.027-0.01-0.054-0.017-0.082c-0.009-0.031-0.021-0.06-0.029-0.09
			c-2.265-8.474-3.478-17.374-3.478-26.553c0-9.192,1.218-18.105,3.489-26.591c0.005-0.018,0.014-0.034,0.019-0.052
			c0.008-0.027,0.011-0.054,0.017-0.082c9.507-35.33,37.386-63.202,72.718-72.701c0.02-0.004,0.038-0.005,0.057-0.011
			c0.027-0.008,0.053-0.018,0.081-0.026c8.479-2.266,17.381-3.482,26.563-3.482c9.182,0,18.086,1.216,26.563,3.482
			c0.027,0.008,0.052,0.018,0.081,0.026c0.02,0.005,0.038,0.007,0.058,0.012C318.036,166.075,345.914,193.947,355.421,229.276z
			 M200.364,79.926l4.185,15.618c0.978,3.65,4.279,6.058,7.887,6.058c0.7,0,1.412-0.09,2.12-0.281
			c4.359-1.168,6.945-5.648,5.777-10.007l-4.184-15.616c12.84-2.837,26.173-4.344,39.853-4.344s27.012,1.509,39.852,4.345
			l-16.944,63.233c-7.417-1.449-15.075-2.217-22.909-2.217c-7.835,0-15.493,0.768-22.909,2.217l-4.301-16.05
			c-1.168-4.359-5.648-6.949-10.007-5.777c-4.359,1.167-6.945,5.648-5.777,10.007l4.301,16.048
			c-14.719,5.061-28.145,12.925-39.637,22.953l-46.263-46.264C150.996,101.909,174.452,88.132,200.364,79.926z M119.852,131.406
			l46.263,46.264c-10.029,11.493-17.892,24.919-22.954,39.638l-63.235-16.944C88.134,174.451,101.911,150.995,119.852,131.406z
			 M71.355,256.001c0-13.68,1.509-27.013,4.344-39.853l63.234,16.943c-1.449,7.417-2.217,15.075-2.217,22.91
			c0,7.836,0.768,15.493,2.217,22.91l-63.234,16.943C72.863,283.014,71.355,269.682,71.355,256.001z M79.927,311.637l63.235-16.944
			c5.061,14.719,12.925,28.145,22.954,39.638l-46.263,46.264C101.911,361.008,88.134,337.551,79.927,311.637z M131.407,392.151
			l46.263-46.264c11.493,10.029,24.918,17.892,39.637,22.953l-16.944,63.235C174.451,423.868,150.995,410.091,131.407,392.151z
			 M256.001,440.647c-13.68,0-27.013-1.508-39.853-4.344l16.944-63.233c7.417,1.449,15.075,2.217,22.909,2.217
			s15.493-0.768,22.909-2.217l16.944,63.233C283.014,439.139,269.681,440.647,256.001,440.647z M311.639,432.075l-16.944-63.235
			c14.719-5.061,28.145-12.925,39.637-22.953l46.263,46.264C361.008,410.091,337.552,423.868,311.639,432.075z M392.15,380.596
			l-46.263-46.264c10.029-11.493,17.892-24.919,22.954-39.638l63.235,16.944C423.869,337.551,410.091,361.008,392.15,380.596z
			 M440.648,256.001c0,13.68-1.509,27.013-4.344,39.853l-63.234-16.943c1.449-7.417,2.217-15.075,2.217-22.91
			c0-7.836-0.768-15.493-2.217-22.91l63.234-16.943C439.139,228.988,440.648,242.32,440.648,256.001z M392.149,131.406
			c17.942,19.589,31.72,43.045,39.926,68.959l-63.235,16.944c-5.061-14.719-12.925-28.145-22.954-39.638L392.149,131.406z"/>
	</g>
</g>
<g>
</g>
<g>
</g>
<g>
</g>
<g>
</g>
<g>
</g>
<g>
</g>
<g>
</g>
<g>
</g>
<g>
</g>
<g>
</g>
<g>
</g>
<g>
</g>
<g>
</g>
<g>
</g>
<g>
</g>
</svg>
