<?xml version="1.0" encoding="iso-8859-1"?>
<!-- Generator: Adobe Illustrator 19.0.0, SVG Export Plug-In . SVG Version: 6.00 Build 0)  -->
<svg version="1.1" id="Capa_1" xmlns="http://www.w3.org/2000/svg" xmlns:xlink="http://www.w3.org/1999/xlink" x="0px" y="0px"
	 viewBox="0 0 512 512" style="enable-background:new 0 0 512 512;" xml:space="preserve">
<g>
	<g>
		<path d="M392.17,363.484c4.513,0,8.17-3.658,8.17-8.17v-70.446c0-37.5-14.456-73.105-40.117-99.861
			c14.161-6.423,24.04-20.683,24.04-37.217c0-22.525-18.325-40.85-40.851-40.85h-2.723V56.627c4.088,2.096,8.715,3.288,13.617,3.288
			c16.518,0,29.957-13.438,29.957-29.957S370.824,0,354.306,0c-13.686,0-25.249,9.229-28.816,21.787h-65.236
			c-24.21,0-51.667,16.956-62.508,38.604l-23.311,46.55h-5.848c-22.526,0-40.851,18.325-40.851,40.85
			c0,16.534,9.879,30.794,24.039,37.217c-25.66,26.756-40.116,62.359-40.116,99.861v173.571c0,29.533,24.028,53.561,53.561,53.561
			c19.105,0,35.908-10.056,45.389-25.152C220.092,501.944,236.895,512,256,512s35.908-10.056,45.39-25.152
			C310.872,501.944,327.675,512,346.78,512c29.533,0,53.561-24.027,53.561-53.561v-70.446c0-4.512-3.657-8.17-8.17-8.17
			s-8.17,3.658-8.17,8.17v70.446c0,20.522-16.697,37.22-37.22,37.22c-20.522,0-37.219-16.697-37.219-37.22
			c0-4.512-3.657-8.17-8.17-8.17s-8.17,3.658-8.17,8.17c0,20.524-16.697,37.22-37.22,37.22s-37.22-16.697-37.22-37.22
			c0-4.512-3.657-8.17-8.17-8.17c-4.513,0-8.17,3.658-8.17,8.17c0,20.522-16.697,37.22-37.219,37.22
			c-20.524,0-37.22-16.697-37.22-37.22V284.868c0-36.981,15.858-71.88,43.602-96.227h168.795
			c27.745,24.347,43.602,59.247,43.602,96.227v70.446C384,359.826,387.657,363.484,392.17,363.484z M354.306,16.34
			c7.509,0,13.617,6.108,13.617,13.617s-6.108,13.617-13.617,13.617s-13.617-6.108-13.617-13.617S346.798,16.34,354.306,16.34z
			 M343.554,172.298c-0.081-0.001-0.16,0.002-0.241,0.003H168.739c-0.106-0.002-0.212-0.007-0.318-0.004
			c-13.438-0.09-24.344-11.047-24.344-24.506c0-13.515,10.996-24.51,24.511-24.51h10.86c0.051,0,24.834,0,24.834,0
			c4.513,0,8.17-3.658,8.17-8.17c0-4.512-3.657-8.17-8.17-8.17H192.71l19.648-39.233c8.03-16.033,29.963-29.579,47.896-29.579
			h64.095v68.813h-87.388c-4.513,0-8.17,3.658-8.17,8.17c0,4.512,3.657,8.17,8.17,8.17h106.451c13.515,0,24.511,10.995,24.511,24.51
			C367.923,161.258,357.003,172.22,343.554,172.298z"/>
	</g>
</g>
<g>
	<g>
		<path d="M276.71,295.338c-4.25-1.51-8.923,0.709-10.434,4.962c-1.543,4.337-5.672,7.252-10.277,7.252
			c-4.605,0-8.734-2.914-10.277-7.252c-1.511-4.252-6.188-6.471-10.434-4.962c-4.252,1.512-6.473,6.183-4.962,10.435
			c3.854,10.837,14.17,18.118,25.674,18.118c11.504,0,21.82-7.281,25.672-18.118C283.184,301.521,280.963,296.85,276.71,295.338z"/>
	</g>
</g>
<g>
	<g>
		<path d="M227.25,245.845H208.73c-4.513,0-8.17,3.658-8.17,8.17c0,4.512,3.657,8.17,8.17,8.17h10.814
			c1.121,3.173,4.148,5.447,7.705,5.447c4.513,0,8.17-3.658,8.17-8.17v-5.447C235.42,249.503,231.763,245.845,227.25,245.845z"/>
	</g>
</g>
<g>
	<g>
		<path d="M303.27,245.845H284.75c-4.513,0-8.17,3.658-8.17,8.17v5.447c0,4.512,3.657,8.17,8.17,8.17
			c3.557,0,6.584-2.273,7.705-5.447h10.814c4.513,0,8.17-3.658,8.17-8.17C311.44,249.503,307.783,245.845,303.27,245.845z"/>
	</g>
</g>
<g>
</g>
<g>
</g>
<g>
</g>
<g>
</g>
<g>
</g>
<g>
</g>
<g>
</g>
<g>
</g>
<g>
</g>
<g>
</g>
<g>
</g>
<g>
</g>
<g>
</g>
<g>
</g>
<g>
</g>
</svg>
