<?xml version="1.0" encoding="iso-8859-1"?>
<!-- Generator: Adobe Illustrator 19.0.0, SVG Export Plug-In . SVG Version: 6.00 Build 0)  -->
<svg version="1.1" id="Capa_1" xmlns="http://www.w3.org/2000/svg" xmlns:xlink="http://www.w3.org/1999/xlink" x="0px" y="0px"
	 viewBox="0 0 512 512" style="enable-background:new 0 0 512 512;" xml:space="preserve">
<g>
	<g>
		<path d="M227.25,226.768h-18.519c-4.512,0-8.17,3.658-8.17,8.17c0,4.512,3.657,8.17,8.17,8.17h10.814
			c1.121,3.173,4.148,5.447,7.705,5.447c4.513,0,8.17-3.658,8.17-8.17v-5.447C235.42,230.426,231.763,226.768,227.25,226.768z"/>
	</g>
</g>
<g>
	<g>
		<path d="M303.269,226.768H284.75c-4.513,0-8.17,3.658-8.17,8.17v5.447c0,4.512,3.658,8.17,8.17,8.17
			c3.558,0,6.584-2.273,7.705-5.447h10.814c4.513,0,8.17-3.658,8.17-8.17C311.439,230.426,307.782,226.768,303.269,226.768z"/>
	</g>
</g>
<g>
	<g>
		<path d="M256.001,266.687c-13.515,0-24.511,10.995-24.511,24.511v21.787c0,13.516,10.996,24.511,24.511,24.511
			c13.515,0,24.511-10.995,24.511-24.511v-21.787C280.511,277.683,269.515,266.687,256.001,266.687z M264.171,312.985
			c0,4.506-3.665,8.17-8.17,8.17c-4.506,0-8.17-3.665-8.17-8.17v-21.787c0-4.505,3.665-8.17,8.17-8.17c4.506,0,8.17,3.665,8.17,8.17
			V312.985z"/>
	</g>
</g>
<g>
	<g>
		<path d="M473.848,315.188c0-23.804-11.276-45.394-29.549-58.967c0.565-0.371,1.131-0.745,1.677-1.155
			c6.988-5.231,11.521-12.871,12.764-21.512s-0.954-17.248-6.186-24.236c-1.338-1.787-2.833-3.41-4.462-4.862
			c1.629-1.452,3.125-3.075,4.462-4.862c5.232-6.988,7.428-15.595,6.186-24.236c-1.621-11.272-8.849-20.374-18.449-24.907
			c5.627-9.004,6.784-20.571,2.055-30.931c-4.728-10.351-14.217-17.049-24.697-18.699c0.589-2.109,0.973-4.291,1.133-6.525
			c0.622-8.707-2.183-17.136-7.9-23.733c-5.716-6.597-13.658-10.574-22.366-11.196c-2.233-0.16-4.449-0.09-6.62,0.192
			c-0.143-10.607-5.422-20.953-14.995-27.105c-7.342-4.72-16.087-6.298-24.615-4.441c-2.181,0.475-4.279,1.161-6.276,2.04
			c-0.644-2.085-1.499-4.121-2.569-6.08c-4.182-7.657-11.099-13.231-19.474-15.69c-8.375-2.458-17.207-1.51-24.87,2.674
			c-1.965,1.073-3.791,2.329-5.464,3.741C277.777,5.85,267.743,0,256.363,0c-11.379,0-21.414,5.85-27.268,14.695
			c-1.673-1.411-3.498-2.667-5.464-3.74c-7.663-4.184-16.496-5.133-24.87-2.674c-8.375,2.46-15.292,8.033-19.477,15.694
			c-1.07,1.959-1.924,3.995-2.568,6.079c-1.997-0.878-4.095-1.565-6.276-2.039c-8.533-1.856-17.272-0.278-24.616,4.441
			c-9.58,6.157-14.86,16.514-14.994,27.129c-10.526-1.377-21.529,2.374-28.987,10.98c-5.717,6.597-8.522,15.026-7.899,23.733
			c0.159,2.226,0.54,4.401,1.125,6.501c-2.155,0.341-4.291,0.898-6.381,1.679c-8.18,3.05-14.681,9.103-18.308,17.044
			c-4.731,10.36-3.573,21.928,2.055,30.932c-9.601,4.532-16.83,13.634-18.45,24.906c-1.243,8.641,0.954,17.248,6.186,24.236
			c1.338,1.787,2.835,3.41,4.463,4.862c-1.629,1.452-3.125,3.075-4.463,4.861c-5.232,6.988-7.428,15.595-6.186,24.236
			c1.243,8.641,5.776,16.28,12.764,21.512c0.423,0.317,0.864,0.599,1.299,0.893c-18.479,13.556-29.896,35.272-29.896,59.227
			c0,40.546,32.986,73.532,73.532,73.532h44.413c-5.141,6.832-8.192,15.321-8.192,24.511v28.614
			c-20.22,15.597-37.087,35.632-48.926,58.187c-2.097,3.996-0.559,8.935,3.437,11.031c1.211,0.636,2.51,0.938,3.79,0.938
			c2.94,0,5.781-1.592,7.241-4.375c10.931-20.824,26.589-39.28,45.365-53.544h64.508c4.513,0,8.17-3.658,8.17-8.17v-16.34
			c0-4.506,3.665-8.17,8.17-8.17h32.681c4.506,0,8.17,3.665,8.17,8.17v16.34c0,4.512,3.657,8.17,8.17,8.17h64.505
			c18.776,14.265,34.434,32.72,45.363,53.542c1.461,2.783,4.301,4.375,7.241,4.375c1.279,0,2.577-0.302,3.79-0.938
			c3.996-2.097,5.534-7.036,3.437-11.031c-11.837-22.552-28.702-42.584-48.921-58.181v-28.617c0-9.19-3.051-17.678-8.192-24.511
			h44.413C440.863,388.719,473.848,355.734,473.848,315.188z M442.566,177.687c0.621,4.32-0.477,8.623-3.093,12.118
			c-1.099,1.467-2.419,2.703-3.89,3.706c-0.599-9.909-1.998-19.605-4.146-29.021C437.169,166.362,441.652,171.328,442.566,177.687z
			 M435.572,215.411c4.989,3.405,7.911,9.447,6.994,15.819c-0.621,4.32-2.887,8.141-6.38,10.756c-1.46,1.092-3.065,1.902-4.75,2.45
			C433.601,234.913,434.981,225.21,435.572,215.411z M427.482,126.311c2.67,5.847,1.576,12.456-2.236,17.128
			c-3.357-9.263-7.46-18.169-12.229-26.656C419.066,116.941,424.802,120.445,427.482,126.311z M387.35,75.669
			c4.353,0.312,8.325,2.3,11.183,5.598s4.26,7.512,3.95,11.866c-0.133,1.855-0.587,3.633-1.301,5.293
			c-5.817-7.923-12.267-15.352-19.276-22.215C383.657,75.738,385.488,75.538,387.35,75.669z M345.759,43.983
			c4.263-0.926,8.636-0.139,12.308,2.221c5.437,3.495,8.09,9.693,7.366,15.717c-7.757-5.95-16.01-11.283-24.688-15.923
			C342.277,45.069,343.958,44.375,345.759,43.983z M309.362,23.96c4.189,1.23,7.647,4.016,9.738,7.848
			c0.878,1.608,1.453,3.32,1.755,5.073c-9.046-3.494-18.438-6.282-28.119-8.281C296.82,24.169,303.199,22.15,309.362,23.96z
			 M256.363,16.34c6.431,0,11.988,3.743,14.654,9.156c-4.835-0.392-9.72-0.601-14.654-0.601c-4.934,0-9.819,0.208-14.654,0.601
			C244.374,20.083,249.933,16.34,256.363,16.34z M193.625,31.808c2.094-3.831,5.552-6.618,9.74-7.848
			c4.188-1.23,8.605-0.754,12.434,1.337c1.599,0.874,3.003,1.997,4.202,3.301c-9.683,1.999-19.08,4.789-28.129,8.284
			C192.173,35.129,192.748,33.415,193.625,31.808z M154.659,46.204c3.673-2.361,8.048-3.147,12.309-2.221
			c1.802,0.392,3.483,1.086,5.013,2.015c-8.678,4.64-16.931,9.972-24.688,15.922C146.57,55.897,149.222,49.698,154.659,46.204z
			 M114.193,81.267c4.237-4.889,10.759-6.631,16.623-5.051c-7.007,6.862-13.456,14.289-19.271,22.211
			c-0.714-1.66-1.168-3.439-1.301-5.294C109.933,88.781,111.335,84.566,114.193,81.267z M256.363,41.237
			c90.002,0,163.223,73.221,163.223,163.222c0,7.666-0.541,15.288-1.595,22.819l-27.748-64.753
			c-9.058-21.14-29.707-34.8-52.603-34.8H174.36c-22.897,0-43.545,13.659-52.603,34.8l-27.186,63.442
			c-0.935-7.105-1.429-14.286-1.429-21.508C93.141,114.457,166.363,41.237,256.363,41.237z M85.246,126.311
			c1.813-3.971,5.063-6.997,9.153-8.522c1.731-0.646,3.524-0.972,5.318-1.016c-4.77,8.489-8.876,17.399-12.233,26.666
			C83.669,138.766,82.576,132.158,85.246,126.311z M70.16,177.685c0.914-6.357,5.402-11.325,11.13-13.197
			c-2.148,9.416-3.547,19.112-4.146,29.022c-1.472-1.003-2.792-2.24-3.891-3.707C70.637,186.31,69.539,182.006,70.16,177.685z
			 M77.156,215.41c0.59,9.8,1.97,19.505,4.135,29.028c-1.684-0.548-3.289-1.36-4.749-2.452c-3.495-2.616-5.76-6.436-6.381-10.756
			C69.244,224.857,72.167,218.815,77.156,215.41z M347.755,437.741H296.85v-8.17c0-13.516-10.996-24.511-24.511-24.511h-32.681
			c-13.515,0-24.511,10.995-24.511,24.511v8.17h-50.905V413.23c0-13.516,10.996-24.511,24.511-24.511h134.489
			c13.516,0,24.512,10.996,24.512,24.511V437.741z M313.908,372.379c7.098-4.379,13.751-9.59,19.825-15.593
			c20.814-20.576,32.476-48.013,32.834-77.359v-32.681c0-21.654-6.494-42.421-18.779-60.055c-1.526-2.193-4.031-3.5-6.703-3.5
			l-104.807-0.002c-4.512,0-8.17,3.658-8.17,8.17s3.657,8.17,8.17,8.17l100.422,0.002c8.865,14.097,13.529,30.332,13.529,47.215
			l0.001,32.581c-0.629,51.309-42.899,93.051-94.228,93.051c-51.326,0-93.594-41.742-94.222-92.954l-0.008-32.679
			c0-16.881,4.666-33.115,13.532-47.217h28.295c4.513,0,8.17-3.658,8.17-8.17c0-4.512-3.657-8.17-8.17-8.17h-32.681
			c-2.672,0-5.177,1.307-6.704,3.5c-12.287,17.638-18.782,38.405-18.782,60.06l0.009,32.778
			c0.357,29.245,12.017,56.683,32.831,77.257c6.073,6.003,12.725,11.214,19.823,15.593h-86.409
			c-31.537,0.003-57.194-25.652-57.194-57.188c0-24.368,15.182-45.76,37.985-53.86c0.61-0.037,1.224-0.135,1.836-0.316
			c3.012-0.891,5.119-3.365,5.693-6.244l36.77-85.808c6.481-15.124,21.233-24.895,37.584-24.895H337.64
			c16.351,0,31.103,9.772,37.584,24.895l37.345,87.149c0.854,1.992,2.463,3.546,4.458,4.35c0.437,0.222,0.897,0.413,1.383,0.557
			c0.182,0.053,0.364,0.08,0.546,0.12c23.115,7.947,38.55,29.485,38.55,54.053c0,31.536-25.657,57.191-57.191,57.191H313.908z"/>
	</g>
</g>
<g>
	<g>
		<path d="M256.001,437.741c-4.513,0-8.17,3.658-8.17,8.17v57.916c0,4.512,3.657,8.17,8.17,8.17c4.513,0,8.17-3.658,8.17-8.17
			v-57.916C264.171,441.399,260.513,437.741,256.001,437.741z"/>
	</g>
</g>
<g>
</g>
<g>
</g>
<g>
</g>
<g>
</g>
<g>
</g>
<g>
</g>
<g>
</g>
<g>
</g>
<g>
</g>
<g>
</g>
<g>
</g>
<g>
</g>
<g>
</g>
<g>
</g>
<g>
</g>
</svg>
