<?xml version="1.0" encoding="iso-8859-1"?>
<!-- Generator: Adobe Illustrator 19.0.0, SVG Export Plug-In . SVG Version: 6.00 Build 0)  -->
<svg version="1.1" id="Capa_1" xmlns="http://www.w3.org/2000/svg" xmlns:xlink="http://www.w3.org/1999/xlink" x="0px" y="0px"
	 viewBox="0 0 512 512" style="enable-background:new 0 0 512 512;" xml:space="preserve">
<g>
	<g>
		<path d="M387.939,180.237v-27.182c0-4.512-3.657-8.17-8.17-8.17s-8.17,3.658-8.17,8.17v27.182
			c-30.691,4.019-54.468,30.32-54.468,62.088c0,34.539,28.099,62.638,62.638,62.638s62.638-28.099,62.638-62.638
			C442.407,210.557,418.63,184.256,387.939,180.237z M379.769,288.623c-25.529,0-46.298-20.769-46.298-46.298
			s20.769-46.298,46.298-46.298s46.298,20.769,46.298,46.298S405.298,288.623,379.769,288.623z"/>
	</g>
</g>
<g>
	<g>
		<path d="M140.401,163.769V96.953c0-4.512-3.658-8.17-8.17-8.17s-8.17,3.658-8.17,8.17v66.816
			c-39.725,4.102-70.808,37.766-70.808,78.556c0,43.549,35.429,78.979,78.979,78.979c43.549,0,78.979-35.429,78.979-78.979
			C211.21,201.535,180.126,167.87,140.401,163.769z M132.231,304.964c-34.539,0-62.638-28.099-62.638-62.638
			s28.099-62.638,62.638-62.638s62.638,28.099,62.638,62.638S166.769,304.964,132.231,304.964z"/>
	</g>
</g>
<g>
	<g>
		<path d="M264.17,321.716V96.953c0-4.512-3.657-8.17-8.17-8.17c-4.512,0-8.17,3.658-8.17,8.17v224.763
			c-48.749,4.158-87.149,45.159-87.149,94.965C160.681,469.24,203.44,512,256,512s95.319-42.76,95.319-95.319
			C351.319,366.874,312.919,325.874,264.17,321.716z M256,495.66c-43.549,0-78.979-35.429-78.979-78.979
			s35.429-78.979,78.979-78.979c43.549,0,78.979,35.429,78.979,78.979S299.549,495.66,256,495.66z"/>
	</g>
</g>
<g>
	<g>
		<path d="M435.096,51.826c-3.191-3.19-8.364-3.191-11.555,0c-3.192,3.191-3.192,8.364-0.001,11.555
			c3.186,3.185,3.186,8.37,0,11.555c-3.191,3.191-3.191,8.364,0.001,11.555c1.595,1.595,3.686,2.392,5.777,2.392
			c2.091,0,4.182-0.797,5.778-2.393C444.651,76.933,444.651,61.383,435.096,51.826z"/>
	</g>
</g>
<g>
	<g>
		<path d="M393.5,37.432c-3.191-3.189-8.364-3.19-11.555,0c-3.192,3.191-3.192,8.364-0.001,11.555c3.186,3.185,3.186,8.37,0,11.555
			c-3.191,3.191-3.191,8.364,0.001,11.555c1.595,1.595,3.686,2.392,5.777,2.392c2.091,0,4.182-0.797,5.778-2.393
			C403.055,62.538,403.055,46.989,393.5,37.432z"/>
	</g>
</g>
<g>
	<g>
		<path d="M474.004,17.379L398.238,1.393C393.859,0.468,389.375,0,384.91,0c-32.67,0-59.706,24.508-63.735,56.102h-45.449
			l25.534-25.532c3.191-3.191,3.191-8.364,0-11.554s-8.363-3.192-11.555,0l-37.087,37.086h-38.776l25.532-25.532
			c3.191-3.191,3.191-8.364,0-11.554c-3.191-3.191-8.364-3.191-11.554,0l-37.088,37.086h-38.776l25.534-25.532
			c3.191-3.191,3.191-8.364,0-11.554c-3.19-3.191-8.363-3.191-11.554,0l-37.088,37.086H90.072l25.532-25.532
			c3.191-3.191,3.191-8.364,0-11.554c-3.191-3.191-8.364-3.191-11.554,0L66.963,56.102H8.17c-4.512,0-8.17,3.657-8.17,8.17
			c0,4.513,3.658,8.17,8.17,8.17h153.357l37.087,37.087c1.595,1.595,3.686,2.393,5.777,2.393s4.182-0.797,5.777-2.393
			c3.191-3.191,3.191-8.364,0-11.554l-25.532-25.534h136.538c4.029,31.594,31.064,56.102,63.735,56.102
			c4.462,0,8.946-0.468,13.327-1.393l75.768-15.986C496.021,106.519,512,86.797,512,64.272S496.021,22.026,474.004,17.379z
			 M470.63,95.178l-75.766,15.986c-3.276,0.691-6.624,1.041-9.956,1.041c-26.312,0-47.733-21.313-47.923-47.581
			c0.005-0.118,0.017-0.232,0.017-0.351c0-0.119-0.013-0.233-0.017-0.351c0.192-26.27,21.612-47.582,47.924-47.582
			c3.333,0,6.682,0.35,9.956,1.041l75.766,15.985c14.502,3.061,25.028,16.059,25.028,30.905
			C495.66,79.119,485.133,92.116,470.63,95.178z"/>
	</g>
</g>
<g>
</g>
<g>
</g>
<g>
</g>
<g>
</g>
<g>
</g>
<g>
</g>
<g>
</g>
<g>
</g>
<g>
</g>
<g>
</g>
<g>
</g>
<g>
</g>
<g>
</g>
<g>
</g>
<g>
</g>
</svg>
