<?xml version="1.0" encoding="iso-8859-1"?>
<!-- Generator: Adobe Illustrator 19.0.0, SVG Export Plug-In . SVG Version: 6.00 Build 0)  -->
<svg version="1.1" id="Capa_1" xmlns="http://www.w3.org/2000/svg" xmlns:xlink="http://www.w3.org/1999/xlink" x="0px" y="0px"
	 viewBox="0 0 512 512" style="enable-background:new 0 0 512 512;" xml:space="preserve">
<g>
	<g>
		<path d="M503.83,495.66h-10.894V76.255h10.894c4.512,0,8.17-3.658,8.17-8.17c0-4.512-3.658-8.17-8.17-8.17h-76.763
			C423.016,26.213,394.265,0,359.489,0H152.511c-34.776,0-63.526,26.213-67.577,59.915H8.17c-4.512,0-8.17,3.658-8.17,8.17
			c0,4.512,3.658,8.17,8.17,8.17h10.894V495.66H8.17c-4.512,0-8.17,3.658-8.17,8.17S3.658,512,8.17,512h495.66
			c4.512,0,8.17-3.658,8.17-8.17S508.342,495.66,503.83,495.66z M476.596,495.66H35.404V76.255h89.872c4.512,0,8.17-3.658,8.17-8.17
			c0-4.512-3.658-8.17-8.17-8.17h-23.859c3.929-24.663,25.342-43.574,51.093-43.574h206.979c25.751,0,47.164,18.911,51.093,43.574
			H157.957c-4.512,0-8.17,3.658-8.17,8.17c0,4.512,3.658,8.17,8.17,8.17h318.638V495.66z"/>
	</g>
</g>
<g>
	<g>
		<path d="M452.085,92.596H59.915c-4.512,0-8.17,3.658-8.17,8.17v370.383c0,4.512,3.658,8.17,8.17,8.17h392.17
			c4.512,0,8.17-3.658,8.17-8.17V100.766C460.255,96.254,456.597,92.596,452.085,92.596z M182.468,462.979H68.085v-107.12h114.383
			V462.979z M182.468,339.517H68.085v-107.12h114.383V339.517z M182.468,216.056H68.085v-107.12h114.383V216.056z M313.191,462.979
			H198.809v-107.12h114.383V462.979z M313.191,339.518H198.809v-107.12h114.383V339.518z M313.191,216.056H198.809v-107.12h114.383
			V216.056z M443.915,462.979H329.532v-107.12h114.383V462.979z M443.915,339.517H329.532v-107.12h114.383V339.517z
			 M443.915,216.056H329.532v-107.12h114.383V216.056z"/>
	</g>
</g>
<g>
	<g>
		<path d="M125.277,137.986c-13.516,0-24.511,10.995-24.511,24.511c0,13.516,10.995,24.511,24.511,24.511
			s24.511-10.995,24.511-24.511C149.787,148.981,138.792,137.986,125.277,137.986z M125.277,170.667c-4.506,0-8.17-3.665-8.17-8.17
			s3.665-8.17,8.17-8.17s8.17,3.665,8.17,8.17S129.782,170.667,125.277,170.667z"/>
	</g>
</g>
<g>
	<g>
		<path d="M256,137.986c-13.516,0-24.511,10.995-24.511,24.511s10.995,24.511,24.511,24.511c13.516,0,24.511-10.995,24.511-24.511
			S269.516,137.986,256,137.986z M256,170.667c-4.506,0-8.17-3.665-8.17-8.17s3.665-8.17,8.17-8.17c4.506,0,8.17,3.665,8.17,8.17
			S260.506,170.667,256,170.667z"/>
	</g>
</g>
<g>
	<g>
		<path d="M386.723,137.986c-13.516,0-24.511,10.995-24.511,24.511c0,13.516,10.995,24.511,24.511,24.511
			c13.516,0,24.511-10.995,24.511-24.511C411.234,148.981,400.239,137.986,386.723,137.986z M386.723,170.667
			c-4.506,0-8.17-3.665-8.17-8.17s3.665-8.17,8.17-8.17c4.506,0,8.17,3.665,8.17,8.17S391.229,170.667,386.723,170.667z"/>
	</g>
</g>
<g>
	<g>
		<path d="M125.277,261.447c-13.516,0-24.511,10.995-24.511,24.511s10.995,24.511,24.511,24.511s24.511-10.995,24.511-24.511
			S138.792,261.447,125.277,261.447z M125.277,294.128c-4.506,0-8.17-3.665-8.17-8.17c0-4.506,3.665-8.17,8.17-8.17
			s8.17,3.665,8.17,8.17C133.447,290.463,129.782,294.128,125.277,294.128z"/>
	</g>
</g>
<g>
	<g>
		<path d="M256,261.447c-13.516,0-24.511,10.995-24.511,24.511s10.995,24.511,24.511,24.511c13.516,0,24.511-10.995,24.511-24.511
			S269.516,261.447,256,261.447z M256,294.128c-4.506,0-8.17-3.665-8.17-8.17c0-4.506,3.665-8.17,8.17-8.17
			c4.506,0,8.17,3.665,8.17,8.17C264.17,290.463,260.506,294.128,256,294.128z"/>
	</g>
</g>
<g>
	<g>
		<path d="M386.723,261.447c-13.516,0-24.511,10.995-24.511,24.511s10.995,24.511,24.511,24.511
			c13.516,0,24.511-10.995,24.511-24.511S400.239,261.447,386.723,261.447z M386.723,294.128c-4.506,0-8.17-3.665-8.17-8.17
			c0-4.506,3.665-8.17,8.17-8.17c4.506,0,8.17,3.665,8.17,8.17C394.894,290.463,391.229,294.128,386.723,294.128z"/>
	</g>
</g>
<g>
	<g>
		<path d="M125.277,384.907c-13.516,0-24.511,10.995-24.511,24.511s10.995,24.511,24.511,24.511s24.511-10.995,24.511-24.511
			S138.792,384.907,125.277,384.907z M125.277,417.588c-4.506,0-8.17-3.665-8.17-8.17c0-4.506,3.665-8.17,8.17-8.17
			s8.17,3.665,8.17,8.17C133.447,413.924,129.782,417.588,125.277,417.588z"/>
	</g>
</g>
<g>
	<g>
		<path d="M256,384.907c-13.516,0-24.511,10.995-24.511,24.511s10.995,24.511,24.511,24.511c13.516,0,24.511-10.995,24.511-24.511
			S269.516,384.907,256,384.907z M256,417.588c-4.506,0-8.17-3.665-8.17-8.17c0-4.506,3.665-8.17,8.17-8.17
			c4.506,0,8.17,3.665,8.17,8.17C264.17,413.924,260.506,417.588,256,417.588z"/>
	</g>
</g>
<g>
	<g>
		<path d="M386.723,384.907c-13.516,0-24.511,10.995-24.511,24.511s10.995,24.511,24.511,24.511
			c13.516,0,24.511-10.995,24.511-24.511S400.239,384.907,386.723,384.907z M386.723,417.588c-4.506,0-8.17-3.665-8.17-8.17
			c0-4.506,3.665-8.17,8.17-8.17c4.506,0,8.17,3.665,8.17,8.17C394.894,413.924,391.229,417.588,386.723,417.588z"/>
	</g>
</g>
<g>
</g>
<g>
</g>
<g>
</g>
<g>
</g>
<g>
</g>
<g>
</g>
<g>
</g>
<g>
</g>
<g>
</g>
<g>
</g>
<g>
</g>
<g>
</g>
<g>
</g>
<g>
</g>
<g>
</g>
</svg>
