<?xml version="1.0" encoding="iso-8859-1"?>
<!-- Generator: Adobe Illustrator 19.0.0, SVG Export Plug-In . SVG Version: 6.00 Build 0)  -->
<svg version="1.1" id="Capa_1" xmlns="http://www.w3.org/2000/svg" xmlns:xlink="http://www.w3.org/1999/xlink" x="0px" y="0px"
	 viewBox="0 0 512 512" style="enable-background:new 0 0 512 512;" xml:space="preserve">
<g>
	<g>
		<path d="M246.658,393.477c-1.532-4.245-6.216-6.441-10.459-4.912c-21.233,7.661-33.036,4.051-46.704-0.127
			c-11.664-3.567-24.588-7.518-43.119-3.811c6.744-13.751,24.06-27.631,42.158-42.139c28.377-22.748,57.72-46.271,57.72-77.873
			c0-34.606-30.704-53.279-59.592-53.279s-59.592,18.673-59.592,53.279c0,4.512,3.657,8.17,8.17,8.17c4.513,0,8.17-3.658,8.17-8.17
			c0-24.25,21.759-36.938,43.252-36.938s43.252,12.688,43.252,36.938c0.001,23.758-26.231,44.786-51.6,65.122
			c-26.352,21.125-51.244,41.079-51.244,66.511c0,2.661,1.296,5.156,3.474,6.687c2.179,1.528,4.963,1.905,7.469,0.999
			c21.232-7.661,33.035-4.052,46.704,0.129c8.343,2.551,17.334,5.301,28.561,5.301c8.119,0,17.408-1.438,28.468-5.428
			C245.99,402.404,248.189,397.722,246.658,393.477z"/>
	</g>
</g>
<g>
	<g>
		<path d="M318.828,277.394c-10.757,0-21.235,2.614-30.611,7.53l0.014-57.023h75.172c4.513,0,8.17-3.658,8.17-8.17
			c0-4.512-3.657-8.17-8.17-8.17h-83.341c-4.512,0-8.169,3.657-8.17,8.168l-0.021,80.773c-0.001,3.229,1.9,6.156,4.851,7.468
			c2.947,1.312,6.397,0.764,8.793-1.401c9.168-8.276,20.997-12.834,33.31-12.834c27.439,0,49.763,22.323,49.763,49.762
			c0,27.44-22.323,49.763-49.762,49.763c-19.225,0-36.389-10.751-44.792-28.057c-1.973-4.059-6.855-5.751-10.919-3.781
			c-4.059,1.971-5.751,6.859-3.781,10.918c10.991,22.635,34.343,37.26,59.492,37.26c36.449,0,66.104-29.654,66.104-66.104
			C384.931,307.047,355.277,277.394,318.828,277.394z"/>
	</g>
</g>
<g>
	<g>
		<path d="M503.83,0H8.17C3.657,0,0,3.658,0,8.17v495.66c0,4.512,3.657,8.17,8.17,8.17h495.66c4.513,0,8.17-3.658,8.17-8.17V8.17
			C512,3.658,508.343,0,503.83,0z M495.66,495.66H16.34V136.17H495.66V495.66z M495.66,119.83H16.34V16.34H495.66V119.83z"/>
	</g>
</g>
<g>
	<g>
		<path d="M471.149,307.745c4.513,0,8.17-3.658,8.17-8.17V193.362c0-4.512-3.657-8.17-8.17-8.17
			c-13.515,0-24.511-10.995-24.511-24.511c0-4.512-3.657-8.17-8.17-8.17H73.532c-4.513,0-8.17,3.658-8.17,8.17
			c0,13.516-10.996,24.511-24.511,24.511c-4.513,0-8.17,3.658-8.17,8.17v245.106c0,4.512,3.657,8.17,8.17,8.17
			c13.515,0,24.511,10.995,24.511,24.511c0,4.512,3.657,8.17,8.17,8.17h364.936c4.513,0,8.17-3.658,8.17-8.17
			c0-13.516,10.996-24.511,24.511-24.511c4.513,0,8.17-3.658,8.17-8.17V332.255c0-4.512-3.657-8.17-8.17-8.17s-8.17,3.658-8.17,8.17
			v98.863c-15.982,3.257-28.602,15.879-31.861,31.861H80.882c-3.258-15.982-15.879-28.602-31.861-31.861V200.712
			c15.982-3.257,28.602-15.879,31.861-31.861h350.236c3.258,15.982,15.879,28.602,31.861,31.861v98.863
			C462.979,304.087,466.636,307.745,471.149,307.745z"/>
	</g>
</g>
<g>
	<g>
		<path d="M167.944,43.574c-13.515,0-24.511,10.995-24.511,24.511c0,13.516,10.996,24.511,24.511,24.511
			c13.515,0,24.511-10.995,24.511-24.511C192.454,54.569,181.458,43.574,167.944,43.574z M167.944,76.255
			c-4.506,0-8.17-3.665-8.17-8.17c0-4.506,3.665-8.17,8.17-8.17c4.506,0,8.17,3.665,8.17,8.17
			C176.114,72.591,172.449,76.255,167.944,76.255z"/>
	</g>
</g>
<g>
	<g>
		<path d="M344.056,43.574c-13.515,0-24.511,10.995-24.511,24.511c0,13.516,10.996,24.511,24.511,24.511
			s24.511-10.995,24.511-24.511C368.567,54.569,357.571,43.574,344.056,43.574z M344.056,76.255c-4.506,0-8.17-3.665-8.17-8.17
			c0-4.506,3.665-8.17,8.17-8.17c4.506,0,8.17,3.665,8.17,8.17C352.227,72.591,348.562,76.255,344.056,76.255z"/>
	</g>
</g>
<g>
</g>
<g>
</g>
<g>
</g>
<g>
</g>
<g>
</g>
<g>
</g>
<g>
</g>
<g>
</g>
<g>
</g>
<g>
</g>
<g>
</g>
<g>
</g>
<g>
</g>
<g>
</g>
<g>
</g>
</svg>
