<?xml version="1.0" encoding="iso-8859-1"?>
<!-- Generator: Adobe Illustrator 19.0.0, SVG Export Plug-In . SVG Version: 6.00 Build 0)  -->
<svg version="1.1" id="Capa_1" xmlns="http://www.w3.org/2000/svg" xmlns:xlink="http://www.w3.org/1999/xlink" x="0px" y="0px"
	 viewBox="0 0 512 512" style="enable-background:new 0 0 512 512;" xml:space="preserve">
<g>
	<g>
		<path d="M321.362,230.945H272.34c-4.513,0-8.17,3.658-8.17,8.17v27.234c0,4.506-3.665,8.17-8.17,8.17
			c-4.506,0-8.17-3.665-8.17-8.17v-27.234c0-4.512-3.657-8.17-8.17-8.17h-49.021c-4.513,0-8.17,3.658-8.17,8.17
			c0,4.512,3.657,8.17,8.17,8.17h8.17v8.17c0,4.512,3.657,8.17,8.17,8.17c4.513,0,8.17-3.658,8.17-8.17v-8.17h16.34v19.064
			c0,13.516,10.996,24.511,24.511,24.511c13.515,0,24.511-10.995,24.511-24.511v-19.064h16.34v8.17c0,4.512,3.657,8.17,8.17,8.17
			c4.513,0,8.17-3.658,8.17-8.17v-8.17h8.17c4.513,0,8.17-3.658,8.17-8.17C329.532,234.603,325.875,230.945,321.362,230.945z"/>
	</g>
</g>
<g>
	<g>
		<path d="M166.128,441.191c-13.515,0-24.511,10.995-24.511,24.511c0,13.516,10.996,24.511,24.511,24.511
			c13.515,0,24.511-10.995,24.511-24.511C190.638,452.186,179.642,441.191,166.128,441.191z M166.128,473.872
			c-4.506,0-8.17-3.665-8.17-8.17c0-4.506,3.665-8.17,8.17-8.17s8.17,3.665,8.17,8.17
			C174.298,470.208,170.633,473.872,166.128,473.872z"/>
	</g>
</g>
<g>
	<g>
		<path d="M345.872,441.191c-13.515,0-24.511,10.995-24.511,24.511c0,13.516,10.996,24.511,24.511,24.511
			c13.515,0,24.511-10.995,24.511-24.511C370.383,452.186,359.387,441.191,345.872,441.191z M345.872,473.872
			c-4.506,0-8.17-3.665-8.17-8.17c0-4.506,3.665-8.17,8.17-8.17c4.506,0,8.17,3.665,8.17,8.17
			C354.043,470.208,350.378,473.872,345.872,473.872z"/>
	</g>
</g>
<g>
	<g>
		<path d="M468.097,335.728c-2.88-30.959-25.004-56.878-55.285-64.436l-20.294-56.811c-4.795-13.423-16.217-23.193-29.777-26.162
			l8.049-114.294c0.771-10.958-2.835-21.317-10.152-29.168s-17.398-12.177-28.383-12.177h-53.15c0.907-2.558,1.405-5.306,1.405-8.17
			C280.511,10.995,269.515,0,256,0c-13.515,0-24.511,10.995-24.511,24.511c0,2.864,0.499,5.612,1.405,8.17h-53.15
			c-10.985,0-21.065,4.325-28.383,12.176c-7.318,7.851-10.923,18.211-10.152,29.168l8.049,114.294
			c-13.558,2.97-24.98,12.739-29.774,26.162l-20.296,56.811c-30.281,7.558-52.405,33.477-55.285,64.436
			c-9.68,3.279-16.669,12.445-16.669,23.218v66.451c0,4.512,3.657,8.17,8.17,8.17h13.617v70.264c0,4.512,3.657,8.17,8.17,8.17
			c4.513,0,8.17-3.658,8.17-8.17v-70.264h43.574v70.264c0,4.512,3.657,8.17,8.17,8.17c4.513,0,8.17-3.658,8.17-8.17V367.115h81.702
			V435.2c0,13.516,10.996,24.511,24.511,24.511h49.021c13.515,0,24.511-10.995,24.511-24.511v-68.085h81.702V503.83
			c0,4.512,3.657,8.17,8.17,8.17s8.17-3.658,8.17-8.17v-70.264h43.574v70.264c0,4.512,3.657,8.17,8.17,8.17
			c4.513,0,8.17-3.658,8.17-8.17v-70.264h13.617c4.513,0,8.17-3.658,8.17-8.17v-66.451
			C484.766,348.172,477.777,339.006,468.097,335.728z M256,16.34c4.506,0,8.17,3.665,8.17,8.17c0,4.506-3.665,8.17-8.17,8.17
			c-4.506,0-8.17-3.665-8.17-8.17C247.83,20.005,251.494,16.34,256,16.34z M108.936,417.226H43.574v-58.281
			c0-4.506,3.665-8.17,8.17-8.17h49.021c4.506,0,8.17,3.665,8.17,8.17V417.226z M247.83,443.37h-16.34
			c-4.506,0-8.17-3.665-8.17-8.17v-13.617h24.511V443.37z M288.681,435.2c0,4.506-3.665,8.17-8.17,8.17h-16.34v-21.787h24.511V435.2
			z M288.681,405.243h-65.362v-38.128h65.362V405.243z M223.319,350.774v-13.617c0-4.506,3.665-8.17,8.17-8.17h16.34v21.787H223.319
			z M288.681,350.774H264.17v-21.787h16.34c4.506,0,8.17,3.665,8.17,8.17V350.774z M345.871,350.774h-40.85v-13.617
			c0-13.516-10.996-24.511-24.511-24.511h-49.021c-13.515,0-24.511,10.995-24.511,24.511v13.617h-40.851v-57.191
			c0-4.512-3.657-8.17-8.17-8.17s-8.17,3.658-8.17,8.17v57.191h-25.916c-3.373-9.509-12.455-16.34-23.105-16.34H60.504
			c3.443-24.034,21.856-43.635,46.31-48.078c2.874-0.522,5.251-2.539,6.233-5.29l21.824-61.088
			c2.52-7.058,8.101-12.419,14.914-14.841v55.766c0,4.512,3.657,8.17,8.17,8.17s8.17-3.658,8.17-8.17v-57.192h179.745V350.774z
			 M346.428,187.37H165.572l-3.747-53.21l19.37,18.298c3.149,2.974,8.072,2.975,11.221,0l28.982-27.38l28.985,27.381
			c3.149,2.974,8.072,2.974,11.221,0l28.984-27.381l28.989,27.381c1.574,1.487,3.593,2.231,5.61,2.231
			c2.018,0,4.036-0.744,5.61-2.231l19.375-18.3L346.428,187.37z M354.49,72.877l-2.62,37.202l-26.682,25.201L296.2,107.899
			c-3.152-2.974-8.072-2.974-11.221,0l-28.984,27.381l-28.985-27.381c-3.149-2.974-8.072-2.975-11.221,0l-28.982,27.38l-26.676-25.2
			l-2.62-37.202c-0.45-6.386,1.611-12.381,5.805-16.88s10.028-6.976,16.43-6.976h152.511c6.402,0,12.236,2.477,16.43,6.976
			C352.879,60.497,354.94,66.491,354.49,72.877z M388.129,350.773h-25.916V205.137c6.815,2.421,12.396,7.783,14.917,14.84
			l21.822,61.088c0.982,2.751,3.36,4.768,6.233,5.29c24.454,4.442,42.866,24.045,46.31,48.078h-40.261
			C400.583,334.433,391.501,341.264,388.129,350.773z M468.426,417.226h-65.362v-58.281c0-4.506,3.665-8.17,8.17-8.17h49.021
			c4.506,0,8.17,3.665,8.17,8.17V417.226z"/>
	</g>
</g>
<g>
</g>
<g>
</g>
<g>
</g>
<g>
</g>
<g>
</g>
<g>
</g>
<g>
</g>
<g>
</g>
<g>
</g>
<g>
</g>
<g>
</g>
<g>
</g>
<g>
</g>
<g>
</g>
<g>
</g>
</svg>
