<?xml version="1.0" encoding="iso-8859-1"?>
<!-- Generator: Adobe Illustrator 19.0.0, SVG Export Plug-In . SVG Version: 6.00 Build 0)  -->
<svg version="1.1" id="Capa_1" xmlns="http://www.w3.org/2000/svg" xmlns:xlink="http://www.w3.org/1999/xlink" x="0px" y="0px"
	 viewBox="0 0 512 512" style="enable-background:new 0 0 512 512;" xml:space="preserve">
<g>
	<g>
		<path d="M438.468,225.498H73.532c-4.512,0-8.17,3.658-8.17,8.17s3.658,8.17,8.17,8.17h364.936c4.513,0,8.17-3.658,8.17-8.17
			S442.981,225.498,438.468,225.498z"/>
	</g>
</g>
<g>
	<g>
		<path d="M471.149,0H40.851C18.325,0,0,18.325,0,40.851v70.945c0,17.086,6.149,32.757,16.34,44.936v60.596
			c0,10.652,6.83,19.739,16.34,23.111v58.591c0,4.512,3.658,8.17,8.17,8.17h13.617v196.63c0,4.512,3.658,8.17,8.17,8.17h386.723
			c4.513,0,8.17-3.658,8.17-8.17V307.2h13.617c4.513,0,8.17-3.658,8.17-8.17v-58.591c9.51-3.372,16.34-12.459,16.34-23.111v-60.596
			c10.191-12.179,16.34-27.851,16.34-44.936V40.851C512,18.325,493.675,0,471.149,0z M183.376,495.66H70.809v-51.927h72.17
			c4.512,0,8.17-3.658,8.17-8.17c0-4.512-3.658-8.17-8.17-8.17h-7.716v-51.927H247.83v51.927h-72.17c-4.512,0-8.17,3.658-8.17,8.17
			c0,4.512,3.658,8.17,8.17,8.17h7.716V495.66z M118.922,375.466v51.927H70.809v-51.927H118.922z M70.809,359.127V307.2h112.567
			v51.927H70.809z M199.716,359.127V307.2h112.568v51.927H199.716z M312.284,495.66H199.716v-51.927h112.568V495.66z
			 M441.191,495.66H328.624v-51.927h112.567V495.66z M441.191,427.394h-48.114v-51.927h48.114V427.394z M441.191,359.127h-72.17
			c-4.513,0-8.17,3.658-8.17,8.17s3.657,8.17,8.17,8.17h7.716v51.927H264.17v-51.927h72.17c4.513,0,8.17-3.658,8.17-8.17
			s-3.657-8.17-8.17-8.17h-7.716V307.2h112.567V359.127z M479.319,217.328c0,4.506-3.665,8.17-8.17,8.17
			c-4.513,0-8.17,3.658-8.17,8.17v57.191H49.021v-57.191c0-4.512-3.658-8.17-8.17-8.17c-4.506,0-8.17-3.665-8.17-8.17v-46.284
			c10.844,6.878,23.683,10.879,37.447,10.879c26.816,0,50.164-15.127,61.957-37.298c11.794,22.171,35.142,37.298,61.957,37.298
			c26.816,0,50.164-15.127,61.957-37.298c11.795,22.171,35.142,37.298,61.957,37.298s50.163-15.127,61.957-37.298
			c11.794,22.171,35.142,37.298,61.957,37.298c13.764,0,26.603-4.001,37.447-10.879V217.328z M495.66,111.796
			c0,29.658-24.128,53.787-53.787,53.787c-29.659,0-53.787-24.129-53.787-53.787c0-4.512-3.657-8.17-8.17-8.17
			c-4.513,0-8.17,3.658-8.17,8.17c0,29.659-24.128,53.787-53.787,53.787s-53.787-24.129-53.787-53.787c0-4.512-3.657-8.17-8.17-8.17
			c-4.512,0-8.17,3.658-8.17,8.17c0,29.659-24.129,53.787-53.787,53.787c-29.658,0-53.787-24.129-53.787-53.787
			c0-4.512-3.658-8.17-8.17-8.17c-4.512,0-8.17,3.658-8.17,8.17c0,29.658-24.129,53.787-53.787,53.787
			c-29.659,0-53.787-24.129-53.787-53.787V40.851c0-13.516,10.995-24.511,24.511-24.511h430.298
			c13.515,0,24.511,10.995,24.511,24.511V111.796z"/>
	</g>
</g>
<g>
</g>
<g>
</g>
<g>
</g>
<g>
</g>
<g>
</g>
<g>
</g>
<g>
</g>
<g>
</g>
<g>
</g>
<g>
</g>
<g>
</g>
<g>
</g>
<g>
</g>
<g>
</g>
<g>
</g>
</svg>
