<?xml version="1.0" encoding="iso-8859-1"?>
<!-- Generator: Adobe Illustrator 19.0.0, SVG Export Plug-In . SVG Version: 6.00 Build 0)  -->
<svg version="1.1" id="Capa_1" xmlns="http://www.w3.org/2000/svg" xmlns:xlink="http://www.w3.org/1999/xlink" x="0px" y="0px"
	 viewBox="0 0 512 512" style="enable-background:new 0 0 512 512;" xml:space="preserve">
<g>
	<g>
		<path d="M256,266.894c-13.516,0-24.511,10.995-24.511,24.511c0,13.516,10.995,24.511,24.511,24.511s24.511-10.995,24.511-24.511
			C280.511,277.889,269.516,266.894,256,266.894z M256,299.574c-4.506,0-8.17-3.665-8.17-8.17c0-4.506,3.665-8.17,8.17-8.17
			s8.17,3.665,8.17,8.17C264.17,295.91,260.506,299.574,256,299.574z"/>
	</g>
</g>
<g>
	<g>
		<path d="M256,201.532c-13.516,0-24.511,10.995-24.511,24.511c0,13.516,10.995,24.511,24.511,24.511s24.511-10.995,24.511-24.511
			C280.511,212.527,269.516,201.532,256,201.532z M256,234.213c-4.506,0-8.17-3.665-8.17-8.17c0-4.506,3.665-8.17,8.17-8.17
			s8.17,3.665,8.17,8.17C264.17,230.548,260.506,234.213,256,234.213z"/>
	</g>
</g>
<g>
	<g>
		<path d="M256,136.17c-13.516,0-24.511,10.995-24.511,24.511c0,13.516,10.995,24.511,24.511,24.511s24.511-10.995,24.511-24.511
			C280.511,147.165,269.516,136.17,256,136.17z M256,168.851c-4.506,0-8.17-3.665-8.17-8.17s3.665-8.17,8.17-8.17
			s8.17,3.665,8.17,8.17S260.506,168.851,256,168.851z"/>
	</g>
</g>
<g>
	<g>
		<path d="M333.617,156.967c-3.723-2.15-7.957-3.287-12.24-3.287c-8.738,0-16.878,4.697-21.243,12.259
			c-3.273,5.67-4.143,12.275-2.449,18.599c1.695,6.324,5.751,11.609,11.42,14.883c3.723,2.15,7.956,3.287,12.239,3.287
			c8.738,0,16.878-4.697,21.243-12.257C349.345,178.746,345.321,163.725,333.617,156.967z M328.437,182.28
			c-1.455,2.522-4.173,4.087-7.091,4.087c-1.44,0-2.809-0.369-4.07-1.097c-1.89-1.09-3.242-2.853-3.806-4.961
			c-0.565-2.108-0.275-4.31,0.816-6.2c1.455-2.522,4.173-4.088,7.091-4.088c1.439,0,2.808,0.369,4.07,1.097
			C329.349,173.371,330.69,178.379,328.437,182.28z"/>
	</g>
</g>
<g>
	<g>
		<path d="M390.436,213.787c-4.365-7.561-12.504-12.258-21.241-12.258c-4.283,0-8.516,1.136-12.24,3.287
			c-5.67,3.274-9.726,8.559-11.42,14.883c-1.694,6.324-0.825,12.93,2.449,18.599c4.365,7.56,12.505,12.258,21.241,12.258
			c4.284,0,8.517-1.136,12.24-3.287c5.67-3.274,9.726-8.559,11.42-14.883C394.58,226.062,393.709,219.456,390.436,213.787z
			 M377.101,228.157c-0.565,2.108-1.916,3.869-3.807,4.961c-1.261,0.728-2.631,1.097-4.069,1.097c-2.918,0-5.635-1.567-7.092-4.087
			c-1.09-1.89-1.381-4.092-0.816-6.2c0.564-2.108,1.916-3.87,3.806-4.961c1.261-0.728,2.631-1.097,4.07-1.097
			c2.918,0,5.635,1.567,7.091,4.087C377.377,223.847,377.666,226.049,377.101,228.157z"/>
	</g>
</g>
<g>
	<g>
		<path d="M386.723,266.894c-13.516,0-24.511,10.995-24.511,24.511c0,13.516,10.995,24.511,24.511,24.511
			c13.516,0,24.511-10.995,24.511-24.511C411.234,277.889,400.239,266.894,386.723,266.894z M386.723,299.574
			c-4.506,0-8.17-3.665-8.17-8.17c0-4.506,3.665-8.17,8.17-8.17c4.506,0,8.17,3.665,8.17,8.17
			C394.894,295.91,391.229,299.574,386.723,299.574z"/>
	</g>
</g>
<g>
	<g>
		<path d="M392.886,350.423c-1.694-6.324-5.75-11.609-11.42-14.883c-3.723-2.15-7.957-3.287-12.24-3.287
			c-8.738,0-16.876,4.697-21.243,12.258c-3.274,5.67-4.143,12.275-2.449,18.599c1.694,6.324,5.75,11.609,11.42,14.883
			c3.723,2.15,7.957,3.287,12.24,3.287c8.738,0,16.878-4.697,21.243-12.258C393.711,363.351,394.58,356.746,392.886,350.423z
			 M376.286,360.851c-1.455,2.522-4.173,4.087-7.091,4.087c-1.44,0-2.809-0.369-4.071-1.097c-1.89-1.09-3.242-2.853-3.806-4.961
			c-0.565-2.108-0.276-4.31,0.816-6.2c1.455-2.521,4.173-4.087,7.091-4.087c1.439,0,2.808,0.369,4.07,1.097
			c1.89,1.092,3.242,2.853,3.807,4.961S377.377,358.961,376.286,360.851z"/>
	</g>
</g>
<g>
	<g>
		<path d="M342.588,392.358c-4.365-7.56-12.505-12.258-21.241-12.258c-4.283,0-8.516,1.136-12.24,3.287
			c-5.67,3.273-9.726,8.559-11.42,14.883c-1.694,6.324-0.825,12.93,2.449,18.599c4.365,7.56,12.505,12.258,21.241,12.259
			c4.284,0,8.517-1.136,12.24-3.287C345.321,419.083,349.345,404.063,342.588,392.358z M325.447,411.689
			c-1.261,0.728-2.631,1.097-4.069,1.097c-2.918,0-5.635-1.566-7.092-4.088c-1.09-1.89-1.381-4.092-0.816-6.2
			c0.564-2.108,1.916-3.87,3.806-4.961c1.261-0.728,2.631-1.097,4.07-1.097c2.918,0,5.635,1.566,7.091,4.087
			C330.69,404.43,329.349,409.438,325.447,411.689z"/>
	</g>
</g>
<g>
	<g>
		<path d="M256,397.617c-13.516,0-24.511,10.995-24.511,24.511c0,13.516,10.995,24.511,24.511,24.511s24.511-10.995,24.511-24.511
			C280.511,408.612,269.516,397.617,256,397.617z M256,430.298c-4.506,0-8.17-3.665-8.17-8.17c0-4.506,3.665-8.17,8.17-8.17
			s8.17,3.665,8.17,8.17C264.17,426.633,260.506,430.298,256,430.298z"/>
	</g>
</g>
<g>
	<g>
		<path d="M214.313,398.271c-1.695-6.324-5.751-11.609-11.42-14.883c-3.723-2.15-7.957-3.287-12.24-3.287
			c-8.738,0-16.876,4.697-21.243,12.258c-6.756,11.704-2.732,26.725,8.972,33.483c3.723,2.15,7.956,3.287,12.239,3.287
			c8.738,0,16.878-4.697,21.243-12.259C215.138,411.199,216.007,404.594,214.313,398.271z M197.714,408.699
			c-1.455,2.522-4.173,4.088-7.091,4.088c-1.44,0-2.809-0.369-4.07-1.097c-3.902-2.253-5.243-7.261-2.99-11.162
			c1.455-2.521,4.173-4.087,7.091-4.087c1.439,0,2.808,0.369,4.07,1.097c1.89,1.09,3.242,2.853,3.806,4.961
			C199.095,404.607,198.804,406.809,197.714,408.699z"/>
	</g>
</g>
<g>
	<g>
		<path d="M164.016,344.511c-4.365-7.561-12.505-12.258-21.241-12.258c-4.283,0-8.516,1.136-12.24,3.287
			c-5.67,3.273-9.726,8.559-11.42,14.883c-1.695,6.324-0.825,12.93,2.449,18.599c4.364,7.56,12.504,12.258,21.24,12.258
			c4.284,0,8.517-1.136,12.241-3.287c5.67-3.274,9.726-8.559,11.42-14.883C168.159,356.786,167.29,350.18,164.016,344.511z
			 M150.683,358.88c-0.564,2.108-1.916,3.871-3.806,4.961c-1.261,0.728-2.631,1.097-4.07,1.097c-2.918,0-5.635-1.566-7.092-4.087
			c-1.091-1.89-1.381-4.092-0.816-6.2s1.916-3.869,3.807-4.961c1.262-0.728,2.631-1.097,4.07-1.097c2.918,0,5.635,1.567,7.091,4.087
			C150.957,354.571,151.248,356.773,150.683,358.88z"/>
	</g>
</g>
<g>
	<g>
		<path d="M125.277,266.894c-13.516,0-24.511,10.995-24.511,24.511c0,13.516,10.995,24.511,24.511,24.511
			s24.511-10.995,24.511-24.511C149.787,277.889,138.792,266.894,125.277,266.894z M125.277,299.574c-4.506,0-8.17-3.665-8.17-8.17
			c0-4.506,3.665-8.17,8.17-8.17s8.17,3.665,8.17,8.17C133.447,295.91,129.782,299.574,125.277,299.574z"/>
	</g>
</g>
<g>
	<g>
		<path d="M166.464,219.699c-1.693-6.324-5.749-11.609-11.419-14.883c-3.725-2.15-7.957-3.287-12.24-3.287
			c-8.738,0-16.876,4.697-21.243,12.258c-3.274,5.67-4.143,12.275-2.449,18.599s5.75,11.609,11.42,14.883
			c3.723,2.15,7.956,3.287,12.239,3.287c8.738,0,16.878-4.697,21.243-12.258C167.289,232.628,168.158,226.023,166.464,219.699z
			 M149.866,230.128c-1.455,2.522-4.173,4.087-7.091,4.087c-1.44,0-2.809-0.369-4.07-1.097c-1.89-1.092-3.242-2.853-3.807-4.961
			c-0.565-2.108-0.274-4.31,0.816-6.2c1.455-2.521,4.173-4.087,7.091-4.087c1.439,0,2.809,0.369,4.07,1.097
			c1.89,1.09,3.242,2.853,3.806,4.961C151.247,226.036,150.957,228.238,149.866,230.128z"/>
	</g>
</g>
<g>
	<g>
		<path d="M211.865,165.939c-4.364-7.561-12.505-12.259-21.241-12.259c-4.283,0-8.516,1.136-12.24,3.287
			c-11.704,6.757-15.728,21.777-8.971,33.483c4.365,7.56,12.505,12.258,21.241,12.258c4.284,0,8.517-1.136,12.24-3.287
			c5.67-3.273,9.726-8.559,11.42-14.883C216.007,178.214,215.138,171.608,211.865,165.939z M198.53,180.309
			c-0.564,2.108-1.916,3.871-3.806,4.961c-1.261,0.728-2.631,1.097-4.069,1.097c-2.918,0-5.635-1.567-7.092-4.087
			c-2.253-3.902-0.911-8.909,2.99-11.162c1.261-0.728,2.631-1.097,4.07-1.097c2.918,0,5.635,1.567,7.091,4.088
			C198.805,175.999,199.095,178.201,198.53,180.309z"/>
	</g>
</g>
<g>
	<g>
		<path d="M333.832,246.467c-4.366-7.56-12.505-12.258-21.243-12.258c-4.283,0-8.516,1.136-12.24,3.287
			c-11.704,6.758-15.728,21.778-8.971,33.483c4.365,7.56,12.505,12.258,21.241,12.258c4.284,0,8.517-1.136,12.24-3.287
			C336.565,273.192,340.589,258.172,333.832,246.467z M316.689,265.799c-1.261,0.728-2.631,1.097-4.069,1.097
			c-2.918,0-5.635-1.567-7.092-4.087c-1.09-1.89-1.38-4.092-0.816-6.2c0.565-2.108,1.916-3.87,3.806-4.961
			c1.261-0.728,2.631-1.097,4.07-1.097c2.918,0,5.635,1.567,7.092,4.087C321.932,258.54,320.592,263.546,316.689,265.799z"/>
	</g>
</g>
<g>
	<g>
		<path d="M324.86,302.859c-3.723-2.15-7.957-3.287-12.24-3.287c-8.738,0-16.876,4.697-21.243,12.258
			c-6.756,11.704-2.732,26.724,8.972,33.482c3.723,2.15,7.956,3.287,12.24,3.287c8.738,0,16.876-4.697,21.243-12.258
			C340.589,324.636,336.565,309.616,324.86,302.859z M319.681,328.17c-1.455,2.522-4.173,4.088-7.091,4.088
			c-1.44,0-2.809-0.369-4.07-1.097c-1.89-1.09-3.242-2.853-3.806-4.961s-0.276-4.311,0.815-6.201
			c1.455-2.521,4.173-4.087,7.091-4.087c1.439,0,2.808,0.369,4.07,1.097C320.592,319.262,321.932,324.269,319.681,328.17z"/>
	</g>
</g>
<g>
	<g>
		<path d="M256,332.255c-13.516,0-24.511,10.995-24.511,24.511c0,13.516,10.995,24.511,24.511,24.511s24.511-10.995,24.511-24.511
			C280.511,343.25,269.516,332.255,256,332.255z M256,364.936c-4.506,0-8.17-3.665-8.17-8.17c0-4.506,3.665-8.17,8.17-8.17
			s8.17,3.665,8.17,8.17C264.17,361.272,260.506,364.936,256,364.936z"/>
	</g>
</g>
<g>
	<g>
		<path d="M220.622,311.83c-4.365-7.561-12.505-12.258-21.243-12.258c-4.283,0-8.516,1.136-12.24,3.287
			c-11.705,6.757-15.729,21.777-8.972,33.483c4.365,7.56,12.505,12.256,21.243,12.258c4.283,0,8.517-1.136,12.24-3.287
			C223.355,338.554,227.379,323.534,220.622,311.83z M207.287,326.2c-0.565,2.108-1.916,3.87-3.806,4.961
			c-1.261,0.728-2.631,1.097-4.069,1.097c-2.918,0-5.636-1.567-7.092-4.087c-2.252-3.902-0.911-8.908,2.991-11.16
			c1.261-0.728,2.631-1.097,4.07-1.097c2.918,0,5.635,1.566,7.091,4.087C207.562,321.89,207.851,324.092,207.287,326.2z"/>
	</g>
</g>
<g>
	<g>
		<path d="M211.651,237.497c-3.723-2.15-7.957-3.287-12.24-3.287c-8.738,0-16.876,4.697-21.243,12.258
			c-6.757,11.704-2.733,26.724,8.972,33.482c3.723,2.15,7.956,3.287,12.239,3.287c8.738,0,16.878-4.697,21.243-12.258
			C227.379,259.275,223.355,244.255,211.651,237.497z M206.471,262.809c-1.455,2.522-4.173,4.087-7.091,4.087
			c-1.44,0-2.809-0.369-4.07-1.097c-3.902-2.253-5.243-7.26-2.991-11.161c1.455-2.522,4.173-4.088,7.092-4.088
			c1.439,0,2.808,0.369,4.07,1.097c1.89,1.09,3.242,2.853,3.806,4.961C207.851,258.716,207.562,260.918,206.471,262.809z"/>
	</g>
</g>
<g>
	<g>
		<path d="M426.15,151c-30.485-36.902-72.353-63.023-118.553-74.118l5.536-45.947c0.352-2.919-0.892-5.802-3.257-7.549
			c-2.365-1.745-5.485-2.088-8.172-0.894l-18.563,8.25L262.536,3.268C260.993,1.21,258.572,0,256,0s-4.993,1.21-6.536,3.268
			l-20.605,27.473l-18.563-8.25c-2.686-1.195-5.808-0.852-8.172,0.894c-2.364,1.746-3.609,4.63-3.257,7.549l5.537,45.947
			c-46.2,11.095-88.069,37.216-118.554,74.118C53.32,190.377,35.404,240.24,35.404,291.404C35.404,413.041,134.363,512,256,512
			s220.596-98.959,220.596-220.596C476.596,240.24,458.68,190.377,426.15,151z M256,495.66
			c-112.627,0-204.255-91.628-204.255-204.255c0-96.711,68.672-180.884,163.287-200.145c4.171-0.849,6.99-4.757,6.482-8.984
			l-4.701-39.008l11.359,5.048c3.479,1.547,7.569,0.484,9.854-2.564L256,21.787l17.974,23.966c2.285,3.047,6.374,4.112,9.854,2.564
			l11.36-5.048l-4.701,39.008c-0.509,4.226,2.312,8.134,6.482,8.984c94.614,19.259,163.285,103.432,163.285,200.143
			C460.255,404.031,368.627,495.66,256,495.66z"/>
	</g>
</g>
<g>
	<g>
		<path d="M256,103.489c-43.879,0-86.584,15.455-120.246,43.516c-3.466,2.889-3.934,8.041-1.044,11.507
			c2.889,3.466,8.041,3.934,11.507,1.044C176.948,133.938,215.937,119.83,256,119.83c94.607,0,171.574,76.968,171.574,171.574
			S350.607,462.979,256,462.979c-40.065,0-79.053-14.108-109.784-39.726c-3.465-2.888-8.617-2.422-11.507,1.044
			c-2.889,3.466-2.422,8.618,1.044,11.507c33.662,28.061,76.366,43.516,120.247,43.516c103.617,0,187.915-84.298,187.915-187.915
			S359.617,103.489,256,103.489z"/>
	</g>
</g>
<g>
	<g>
		<path d="M124.151,401.188c-25.617-30.732-39.726-69.72-39.726-109.784c0-40.063,14.108-79.052,39.726-109.784
			c2.889-3.466,2.422-8.618-1.044-11.507c-3.465-2.888-8.617-2.422-11.507,1.044c-28.061,33.663-43.516,76.368-43.516,120.247
			c0,43.88,15.455,86.584,43.516,120.246c1.616,1.939,3.939,2.939,6.28,2.939c1.844,0,3.699-0.621,5.227-1.894
			C126.574,409.806,127.041,404.654,124.151,401.188z"/>
	</g>
</g>
<g>
</g>
<g>
</g>
<g>
</g>
<g>
</g>
<g>
</g>
<g>
</g>
<g>
</g>
<g>
</g>
<g>
</g>
<g>
</g>
<g>
</g>
<g>
</g>
<g>
</g>
<g>
</g>
<g>
</g>
</svg>
