<?xml version="1.0" encoding="iso-8859-1"?>
<!-- Generator: Adobe Illustrator 19.0.0, SVG Export Plug-In . SVG Version: 6.00 Build 0)  -->
<svg version="1.1" id="Capa_1" xmlns="http://www.w3.org/2000/svg" xmlns:xlink="http://www.w3.org/1999/xlink" x="0px" y="0px"
	 viewBox="0 0 512 512" style="enable-background:new 0 0 512 512;" xml:space="preserve">
<g>
	<g>
		<path d="M487.489,393.796c-13.516,0-24.511,10.995-24.511,24.511c0,16.013-13.027,29.039-29.039,29.039h-24.511v-52.905h24.511
			c13.516,0,24.511-10.995,24.511-24.511c0-10.651-6.831-19.733-16.34-23.105v-22.909c0-25-19.838-49.822-44.223-55.333
			l-100.772-22.776c-0.275-3.072-2.276-5.857-5.368-6.969c-3.52-1.266-7.328,0.038-9.401,2.936
			c-9.734-4.341-17.967-13.125-22.156-23.159c2.694-1.885,4.093-5.293,3.246-8.673c-0.782-3.124-3.27-5.365-6.219-5.998v-38.785
			c3.292-1.055,5.676-4.137,5.676-7.779s-2.385-6.725-5.676-7.779v-40.335c3.292-1.055,5.676-4.137,5.676-7.779
			c0-3.642-2.385-6.725-5.676-7.779V45.584c0-0.032,0-21.78,0-21.78c0-4.512-3.658-8.17-8.17-8.17c-4.512,0-8.17,3.658-8.17,8.17
			V38.24l-36.178,3.831c-0.046,0.004-0.09,0.01-0.136,0.015L58.253,57.581c-4.156,0.44-7.31,3.946-7.31,8.124v155.937
			c-13.89,13.795-21.787,32.587-21.787,52.129v53.747c-3.689,0.789-6.454,4.063-6.454,7.987v50.765c0,4.512,3.658,8.17,8.17,8.17
			h67.622v61.075c0,4.512,3.658,8.17,8.17,8.17h137.939c4.512,0,8.17-3.658,8.17-8.17v-61.348c2.97,0.175,5.759,0.272,8.17,0.272
			h8.17v61.075c0,4.512,3.658,8.17,8.17,8.17h91.295c4.512,0,8.17-3.658,8.17-8.17v-36.564c0-4.512-3.658-8.17-8.17-8.17
			s-8.17,3.658-8.17,8.17v28.394h-74.955V394.44H393.09v61.075c0,4.512,3.658,8.17,8.17,8.17h32.681
			c25.023,0,45.38-20.357,45.38-45.38c0-4.506,3.665-8.17,8.17-8.17c4.506,0,8.17,3.665,8.17,8.17
			c0,34.033-27.687,61.72-61.72,61.72H16.34v-16.34h57.642c4.512,0,8.17-3.658,8.17-8.17v-36.564c0-4.512-3.658-8.17-8.17-8.17
			s-8.17,3.658-8.17,8.17v28.394H8.17c-4.512,0-8.17,3.658-8.17,8.17v32.681c0,4.512,3.658,8.17,8.17,8.17H433.94
			c43.043,0,78.06-35.018,78.06-78.06C512,404.791,501.005,393.796,487.489,393.796z M45.497,273.773
			c-0.001-16.149,6.951-31.65,19.074-42.533c1.726-1.549,2.712-3.76,2.712-6.08V73.056l130.018-13.77v145.221
			c0,22.018,7.97,44.118,22.443,62.228c12.771,15.978,30.1,27.738,50.116,34.013c0.814,0.255,1.636,0.376,2.446,0.376
			c3.476,0,6.7-2.236,7.794-5.729c1.35-4.305-1.047-8.89-5.353-10.24c-16.901-5.298-31.506-15.195-42.238-28.622
			c-12.166-15.224-18.867-33.701-18.867-52.026V57.557l27.234-2.884v38.642h-2.723c-4.512,0-8.17,3.658-8.17,8.17
			c0,4.512,3.658,8.17,8.17,8.17h2.723v39.553h-2.723c-4.512,0-8.17,3.658-8.17,8.17s3.658,8.17,8.17,8.17h2.723v38.96
			c0,0.88,0.031,1.759,0.08,2.637l-3.502,0.877c-4.377,1.096-7.037,5.533-5.941,9.91c0.929,3.711,4.259,6.189,7.92,6.189
			c0.657,0,1.325-0.08,1.99-0.247l3.014-0.754c5.674,14.851,17.627,27.726,32.09,33.922l-0.832,2.315
			c-1.526,4.246,0.68,8.926,4.926,10.451c0.913,0.328,1.845,0.484,2.763,0.484c3.35,0,6.492-2.076,7.69-5.41l1.227-3.413
			l101.989,23.052c17.067,3.857,31.485,21.898,31.485,39.396v21.504H260.942c-6.348,0-18.238-1.161-24.467-2.39l-62.764-12.378
			c-9.272-1.828-24.503-3.316-33.952-3.316H45.497V273.773z M236.432,447.346H114.834v-52.905h34.941c4.512,0,8.17-3.658,8.17-8.17
			v-8.763l69.044,13.617c2.729,0.538,5.981,1.045,9.443,1.495V447.346z M260.942,378.099c-8.424,0-22.525-1.377-30.792-3.007
			l-78.796-15.54c-0.525-0.104-1.055-0.155-1.581-0.155c-1.876,0-3.714,0.647-5.189,1.86c-1.888,1.551-2.982,3.867-2.982,6.311
			v10.531H39.041v-34.425h100.717c8.424,0,22.525,1.377,30.791,3.008l62.764,12.378c7.29,1.437,20.201,2.698,27.629,2.698H433.94
			c4.506,0,8.17,3.665,8.17,8.17c0,4.506-3.665,8.17-8.17,8.17H260.942z"/>
	</g>
</g>
<g>
</g>
<g>
</g>
<g>
</g>
<g>
</g>
<g>
</g>
<g>
</g>
<g>
</g>
<g>
</g>
<g>
</g>
<g>
</g>
<g>
</g>
<g>
</g>
<g>
</g>
<g>
</g>
<g>
</g>
</svg>
