<?xml version="1.0" encoding="iso-8859-1"?>
<!-- Generator: Adobe Illustrator 19.0.0, SVG Export Plug-In . SVG Version: 6.00 Build 0)  -->
<svg version="1.1" id="Capa_1" xmlns="http://www.w3.org/2000/svg" xmlns:xlink="http://www.w3.org/1999/xlink" x="0px" y="0px"
	 viewBox="0 0 512 512" style="enable-background:new 0 0 512 512;" xml:space="preserve">
<g>
	<g>
		<path d="M239.93,84.426c-4.513,0-8.17,3.658-8.17,8.17V128h-49.021V92.596c0-4.512-3.657-8.17-8.17-8.17s-8.17,3.658-8.17,8.17
			v87.149c0,4.512,3.657,8.17,8.17,8.17s8.17-3.658,8.17-8.17V144.34h49.021v35.404c0,4.512,3.657,8.17,8.17,8.17
			s8.17-3.658,8.17-8.17V92.596C248.1,88.084,244.443,84.426,239.93,84.426z"/>
	</g>
</g>
<g>
	<g>
		<path d="M305.291,84.426c-22.526,0-40.851,18.323-40.851,40.847v21.797c0,22.523,18.325,40.847,40.851,40.847
			s40.851-18.323,40.851-40.847v-21.797C346.142,102.75,327.817,84.426,305.291,84.426z M329.802,147.068
			c0,13.512-10.996,24.506-24.511,24.506c-13.515,0-24.511-10.993-24.511-24.506v-21.797c0-13.512,10.996-24.506,24.511-24.506
			c13.515,0,24.511,10.993,24.511,24.506V147.068z"/>
	</g>
</g>
<g>
	<g>
		<path d="M239.93,204.255c-4.513,0-8.17,3.658-8.17,8.17v35.404h-49.021v-35.404c0-4.512-3.657-8.17-8.17-8.17
			s-8.17,3.658-8.17,8.17v87.149c0,4.512,3.657,8.17,8.17,8.17s8.17-3.658,8.17-8.17V264.17h49.021v35.404
			c0,4.512,3.657,8.17,8.17,8.17s8.17-3.658,8.17-8.17v-87.149C248.1,207.913,244.443,204.255,239.93,204.255z"/>
	</g>
</g>
<g>
	<g>
		<path d="M305.291,204.255c-22.526,0-40.851,18.323-40.851,40.847v21.797c0,22.523,18.325,40.847,40.851,40.847
			s40.851-18.323,40.851-40.847v-21.797C346.142,222.579,327.817,204.255,305.291,204.255z M329.802,266.898
			c0,13.512-10.996,24.506-24.511,24.506c-13.515,0-24.511-10.993-24.511-24.506v-21.797c0-13.512,10.996-24.506,24.511-24.506
			c13.515,0,24.511,10.993,24.511,24.506V266.898z"/>
	</g>
</g>
<g>
	<g>
		<path d="M239.93,324.085c-4.513,0-8.17,3.658-8.17,8.17v35.404h-49.021v-35.404c0-4.512-3.657-8.17-8.17-8.17
			s-8.17,3.658-8.17,8.17v87.149c0,4.512,3.657,8.17,8.17,8.17s8.17-3.658,8.17-8.17V384h49.021v35.404
			c0,4.512,3.657,8.17,8.17,8.17s8.17-3.658,8.17-8.17v-87.149C248.1,327.743,244.443,324.085,239.93,324.085z"/>
	</g>
</g>
<g>
	<g>
		<path d="M305.291,324.085c-22.526,0-40.851,18.323-40.851,40.847v21.797c0,22.523,18.325,40.847,40.851,40.847
			s40.851-18.323,40.851-40.847v-21.797C346.142,342.408,327.817,324.085,305.291,324.085z M329.802,386.728
			c0,13.512-10.996,24.506-24.511,24.506c-13.515,0-24.511-10.993-24.511-24.506v-21.797c0-13.512,10.996-24.506,24.511-24.506
			c13.515,0,24.511,10.993,24.511,24.506V386.728z"/>
	</g>
</g>
<g>
	<g>
		<path d="M504.08,264.188c-4.489-0.284-8.39,3.12-8.684,7.622c-8.171,125.523-113.208,223.85-239.126,223.85
			c-45.559,0-89.889-12.844-128.193-37.143c-2.074-1.316-4.629-1.627-6.96-0.852l-99.76,33.248l33.248-99.76
			c0.777-2.33,0.464-4.886-0.852-6.96C29.454,345.889,16.611,301.56,16.611,256c0-132.149,107.51-239.66,239.66-239.66
			c58.147,0,114.227,21.093,157.913,59.394c3.392,2.974,8.555,2.635,11.53-0.757c2.974-3.392,2.635-8.555-0.757-11.529
			C378.288,22.533,318.382,0,256.27,0C187.89,0,123.603,26.628,75.251,74.981C26.898,123.333,0.27,187.62,0.27,256
			c0,47.359,12.994,93.473,37.618,133.632L0.689,501.246c-0.978,2.936-0.214,6.173,1.974,8.361C4.221,511.164,6.309,512,8.442,512
			c0.864,0,1.736-0.137,2.582-0.419l111.615-37.198C162.797,499.006,208.912,512,256.27,512c65.437,0,127.711-24.681,175.35-69.494
			c47.424-44.613,75.865-104.857,80.083-169.634C511.996,268.369,508.584,264.481,504.08,264.188z"/>
	</g>
</g>
<g>
	<g>
		<path d="M511.712,239.128c-3.686-56.595-25.433-109.091-62.89-151.813c-2.973-3.392-8.136-3.732-11.53-0.757
			c-3.392,2.975-3.732,8.136-0.757,11.53c35.063,39.993,55.42,89.132,58.87,142.103c0.282,4.323,3.875,7.64,8.145,7.64
			c0.179,0,0.358-0.005,0.539-0.018C508.594,247.518,512.005,243.63,511.712,239.128z"/>
	</g>
</g>
<g>
</g>
<g>
</g>
<g>
</g>
<g>
</g>
<g>
</g>
<g>
</g>
<g>
</g>
<g>
</g>
<g>
</g>
<g>
</g>
<g>
</g>
<g>
</g>
<g>
</g>
<g>
</g>
<g>
</g>
</svg>
