<?xml version="1.0" encoding="iso-8859-1"?>
<!-- Generator: Adobe Illustrator 19.0.0, SVG Export Plug-In . SVG Version: 6.00 Build 0)  -->
<svg version="1.1" id="Capa_1" xmlns="http://www.w3.org/2000/svg" xmlns:xlink="http://www.w3.org/1999/xlink" x="0px" y="0px"
	 viewBox="0 0 512 512" style="enable-background:new 0 0 512 512;" xml:space="preserve">
<g>
	<g>
		<path d="M478.548,99.843C474.732,44.149,428.198,0,371.537,0C312.37,0,264.234,48.136,264.234,107.302v146.882
			c0,16.936,5.771,32.543,15.43,44.987v73.935c0,19.75,14.125,36.269,32.826,40.041l0.157,25.866
			c0,31.235-25.411,56.647-56.647,56.647c-31.124,0-56.445-25.411-56.445-56.647v-25.873c18.679-3.788,32.782-20.297,32.782-40.033
			v-73.935c9.658-12.446,15.43-28.051,15.43-44.987V107.302C247.767,48.136,199.631,0,140.464,0
			C83.804,0,37.269,44.149,33.453,99.843C14.417,103.548,0,120.353,0,140.47v91.927c0,32.691,16.544,61.587,41.698,78.765v61.944
			c0,22.526,18.325,40.851,40.851,40.851h100.665v25.055c0,40.245,32.651,72.987,72.786,72.987
			c40.245,0,72.987-32.742,72.987-73.036l-0.15-25.006h100.616c22.526,0,40.851-18.325,40.851-40.851v-61.944
			C495.456,293.984,512,265.087,512,232.397V140.47C512,120.353,497.583,103.548,478.548,99.843z M82.549,397.617
			c-13.515,0-24.511-10.995-24.511-24.511V320.12c11.457,4.888,24.059,7.596,37.281,7.596h4.477v45.39c0,4.512,3.658,8.17,8.17,8.17
			c4.512,0,8.17-3.658,8.17-8.17v-53.561c0-4.512-3.658-8.17-8.17-8.17H95.319c-43.549,0-78.979-35.429-78.979-78.979V140.47
			c0-13.815,11.225-25.055,25.022-25.055c13.835,0,25.089,11.239,25.089,25.055v59.915c0,4.499,3.637,8.152,8.138,8.17
			c15.402,0.062,29.823,6.123,40.607,17.068c10.778,10.939,16.679,25.48,16.617,40.943c-0.019,4.512,3.625,8.185,8.138,8.203
			c4.531,0,8.185-3.636,8.203-8.138c0.154-38.108-28.5-69.708-65.362-73.937v-52.225c0-19.919-14.154-36.594-32.941-40.518
			c3.732-46.724,42.931-83.611,90.613-83.611c50.156,0,90.962,40.805,90.962,90.962v146.882c0,13.723-4.862,26.329-12.948,36.195
			c-0.358,0.348-0.682,0.729-0.972,1.136c-10.496,12.149-25.995,19.86-43.272,19.86h-34.251c-4.512,0-8.17,3.658-8.17,8.17
			s3.658,8.17,8.17,8.17h17.913v45.39c0,4.512,3.658,8.17,8.17,8.17s8.17-3.658,8.17-8.17v-45.39
			c15.502-0.001,29.889-4.835,41.758-13.058v58.449c0,13.516-11.041,24.511-24.612,24.511H82.549z M495.66,232.397
			c0,43.549-35.429,78.979-78.979,78.979h-12.647c-4.512,0-8.17,3.658-8.17,8.17v53.561c0,4.512,3.658,8.17,8.17,8.17
			s8.17-3.658,8.17-8.17v-45.39h4.477c13.223,0,25.823-2.708,37.281-7.596v52.987c0,13.516-10.995,24.511-24.511,24.511H320.617
			c-13.571,0-24.612-10.995-24.612-24.511v-58.449c11.871,8.223,26.258,13.057,41.758,13.058v45.39c0,4.512,3.658,8.17,8.17,8.17
			s8.17-3.658,8.17-8.17v-45.39h17.913c4.512,0,8.17-3.658,8.17-8.17c0-4.512-3.658-8.17-8.17-8.17h-34.251
			c-17.276,0-32.777-7.712-43.272-19.86c-0.29-0.409-0.613-0.789-0.972-1.136c-8.086-9.866-12.948-22.472-12.948-36.195V107.302
			c0-50.156,40.805-90.962,90.962-90.962c47.681,0,86.881,36.887,90.613,83.612c-18.787,3.924-32.941,20.599-32.941,40.518v52.225
			c-36.862,4.229-65.515,35.828-65.362,73.937c0.019,4.501,3.672,8.138,8.17,8.138c4.546-0.018,8.189-3.691,8.17-8.203
			c-0.062-15.464,5.839-30.003,16.617-40.943c10.782-10.945,25.205-17.006,40.607-17.068c4.499-0.019,8.138-3.671,8.138-8.17
			v-59.915c0-13.815,11.255-25.055,25.089-25.055c13.797,0,25.021,11.239,25.021,25.055V232.397z"/>
	</g>
</g>
<g>
</g>
<g>
</g>
<g>
</g>
<g>
</g>
<g>
</g>
<g>
</g>
<g>
</g>
<g>
</g>
<g>
</g>
<g>
</g>
<g>
</g>
<g>
</g>
<g>
</g>
<g>
</g>
<g>
</g>
</svg>
