<?xml version="1.0" encoding="iso-8859-1"?>
<!-- Generator: Adobe Illustrator 19.0.0, SVG Export Plug-In . SVG Version: 6.00 Build 0)  -->
<svg version="1.1" id="Capa_1" xmlns="http://www.w3.org/2000/svg" xmlns:xlink="http://www.w3.org/1999/xlink" x="0px" y="0px"
	 viewBox="0 0 512.001 512.001" style="enable-background:new 0 0 512.001 512.001;" xml:space="preserve">
<g>
	<g>
		<path d="M71.898,0.001c-8.342,0-15.885,3.49-21.243,9.09c-5.357-5.599-12.9-9.09-21.243-9.09C13.194,0.001,0,13.195,0,29.413
			v432.792c0,13.365,5.232,25.884,14.733,35.251c9.513,9.378,22.271,14.544,35.923,14.544s26.409-5.166,35.923-14.544
			c9.5-9.367,14.733-21.886,14.733-35.251V29.413C101.311,13.195,88.116,0.001,71.898,0.001z M50.655,495.66
			c-19.242,0-34.315-14.695-34.315-33.454c0-7.208,5.864-13.072,13.072-13.072s13.072,5.864,13.072,13.072
			c0,4.512,3.658,8.17,8.17,8.17s8.17-3.658,8.17-8.17c0-7.208,5.864-13.072,13.072-13.072s13.072,5.864,13.072,13.072
			C84.97,480.965,69.898,495.66,50.655,495.66z M84.97,435.867c-3.941-1.964-8.378-3.075-13.072-3.075
			c-4.693,0-9.132,1.105-13.072,3.068v-71.696c0-4.512-3.658-8.17-8.17-8.17s-8.17,3.658-8.17,8.17v71.697
			c-3.94-1.963-8.379-3.068-13.072-3.068c-4.694,0-9.131,1.111-13.072,3.075V29.413c0-7.208,5.864-13.072,13.072-13.072
			s13.072,5.864,13.072,13.072v302.069c0,4.512,3.658,8.17,8.17,8.17s8.17-3.658,8.17-8.17V29.413
			c0-7.208,5.864-13.072,13.072-13.072S84.97,22.205,84.97,29.413V435.867z"/>
	</g>
</g>
<g>
	<g>
		<path d="M189.549,0.001c-8.342,0-15.885,3.49-21.243,9.09c-5.357-5.599-12.9-9.09-21.243-9.09
			c-16.218,0-29.413,13.194-29.413,29.413v432.792c0,13.365,5.232,25.884,14.733,35.251c9.513,9.378,22.271,14.544,35.923,14.544
			s26.409-5.165,35.922-14.544c9.501-9.367,14.734-21.886,14.734-35.251V29.413C218.962,13.195,205.767,0.001,189.549,0.001z
			 M168.306,495.66c-19.242,0-34.315-14.695-34.315-33.454c0-7.208,5.864-13.072,13.072-13.072s13.072,5.864,13.072,13.072
			c0,4.512,3.658,8.17,8.17,8.17s8.17-3.658,8.17-8.17c0-7.208,5.864-13.072,13.072-13.072s13.072,5.864,13.072,13.072
			C202.621,480.965,187.549,495.66,168.306,495.66z M202.621,435.867c-3.941-1.964-8.378-3.075-13.072-3.075
			c-4.693,0-9.132,1.105-13.072,3.068V160.137c0-4.512-3.658-8.17-8.17-8.17s-8.17,3.658-8.17,8.17V435.86
			c-3.94-1.963-8.379-3.068-13.072-3.068c-4.694,0-9.131,1.111-13.072,3.075V29.413c0-7.208,5.864-13.072,13.072-13.072
			s13.072,5.864,13.072,13.072v98.043c0,4.512,3.658,8.17,8.17,8.17s8.17-3.658,8.17-8.17V29.413
			c0-7.208,5.864-13.072,13.072-13.072s13.072,5.864,13.072,13.072V435.867z"/>
	</g>
</g>
<g>
	<g>
		<path d="M508.365,131.553c-19.579-13.065-42.676-19.971-66.792-19.971c-1.141,0-2.277,0.016-3.411,0.046
			c0.824-0.78,1.638-1.573,2.445-2.379c17.053-17.053,28.502-38.268,33.108-61.351c0.535-2.678-0.304-5.446-2.235-7.376
			c-1.93-1.93-4.696-2.77-7.376-2.235c-23.082,4.606-44.298,16.054-61.351,33.108c-0.806,0.806-1.599,1.621-2.379,2.445
			c0.031-1.134,0.046-2.27,0.046-3.411c0-24.117-6.905-47.214-19.971-66.793c-1.516-2.27-4.067-3.634-6.797-3.634
			c-2.73,0-5.28,1.364-6.797,3.635c-13.065,19.579-19.971,42.676-19.971,66.793c0,1.139,0.016,2.277,0.046,3.411
			c-0.78-0.824-1.573-1.638-2.379-2.445c-17.053-17.053-38.268-28.502-61.351-33.108c-2.681-0.535-5.446,0.304-7.376,2.235
			c-1.93,1.93-2.769,4.698-2.235,7.376c4.606,23.083,16.054,44.298,33.108,61.351c0.806,0.806,1.621,1.599,2.445,2.379
			c-1.134-0.031-2.27-0.046-3.411-0.046c-24.117,0-47.214,6.906-66.793,19.971c-2.27,1.515-3.634,4.065-3.634,6.795
			s1.364,5.28,3.635,6.797c19.579,13.065,42.676,19.971,66.792,19.971c1.141,0,2.277-0.016,3.411-0.046
			c-0.824,0.78-1.638,1.573-2.444,2.379c-17.053,17.053-28.502,38.268-33.108,61.351c-0.535,2.678,0.304,5.446,2.235,7.376
			c1.547,1.547,3.632,2.393,5.777,2.393c0.532,0,1.066-0.051,1.599-0.158c23.082-4.606,44.298-16.054,61.351-33.108
			c0.806-0.806,1.599-1.621,2.379-2.445c-0.031,1.134-0.046,2.27-0.046,3.411c0,24.116,6.905,47.213,19.971,66.792
			c1.516,2.271,4.065,3.635,6.797,3.635c2.731,0,5.28-1.364,6.797-3.635c13.065-19.579,19.971-42.676,19.971-66.792
			c0-1.141-0.016-2.277-0.046-3.411c0.78,0.824,1.573,1.638,2.379,2.445c17.053,17.053,38.268,28.502,61.351,33.108
			c0.533,0.107,1.067,0.158,1.599,0.158c2.145,0,4.23-0.845,5.777-2.393c1.93-1.93,2.769-4.698,2.235-7.376
			c-4.606-23.082-16.054-44.298-33.108-61.351c-0.806-0.806-1.621-1.599-2.445-2.379c1.134,0.031,2.27,0.046,3.411,0.046
			c24.117,0,47.214-6.906,66.793-19.971c2.271-1.516,3.635-4.065,3.635-6.797S510.636,133.069,508.365,131.553z M373.651,24.556
			c6.852,14.071,10.426,29.696,10.426,45.873c0,13.289-2.385,26.091-7.08,38.155c-1.099-0.123-2.215-0.192-3.346-0.192
			c-1.132,0-2.247,0.069-3.347,0.192c-4.696-12.064-7.08-24.866-7.08-38.155C363.225,54.252,366.799,38.627,373.651,24.556z
			 M293.186,57.885c14.796,5.106,28.371,13.626,39.811,25.064c9.4,9.4,16.769,20.144,21.979,32.001
			c-1.744,1.395-3.329,2.979-4.725,4.725c-11.857-5.209-22.6-12.579-32.001-21.98C306.812,86.256,298.291,72.68,293.186,57.885z
			 M305.729,148.776c-16.176,0-31.801-3.574-45.872-10.426c14.071-6.852,29.696-10.426,45.873-10.426
			c13.289,0,26.091,2.384,38.155,7.08c-0.123,1.099-0.192,2.215-0.192,3.346s0.069,2.247,0.192,3.347
			C331.822,146.392,319.02,148.776,305.729,148.776z M332.997,193.75c-11.438,11.438-25.015,19.959-39.811,25.064
			c5.106-14.796,13.626-28.371,25.064-39.811c9.4-9.4,20.144-16.77,32.001-21.979c1.395,1.744,2.979,3.329,4.725,4.725
			C349.767,173.605,342.398,184.349,332.997,193.75z M373.651,252.143c-6.852-14.071-10.426-29.696-10.426-45.873
			c0-13.289,2.385-26.092,7.08-38.156c1.099,0.123,2.215,0.192,3.347,0.192c1.132,0,2.247-0.069,3.346-0.192
			c4.696,12.064,7.08,24.866,7.08,38.156C384.077,222.447,380.503,238.072,373.651,252.143z M373.651,151.967
			c-7.509,0-13.617-6.108-13.617-13.617s6.108-13.617,13.617-13.617s13.617,6.108,13.617,13.617S381.16,151.967,373.651,151.967z
			 M414.305,82.949c11.438-11.438,25.015-19.959,39.811-25.064c-5.106,14.796-13.626,28.371-25.064,39.811
			c-9.4,9.4-20.144,16.77-32.001,21.979c-1.396-1.744-2.979-3.329-4.725-4.725C397.535,103.094,404.904,92.35,414.305,82.949z
			 M454.116,218.814c-14.796-5.106-28.371-13.626-39.811-25.064c-9.4-9.4-16.769-20.144-21.979-32.001
			c1.744-1.396,3.329-2.979,4.725-4.725c11.857,5.209,22.6,12.579,32.001,21.98C440.49,190.443,449.011,204.019,454.116,218.814z
			 M441.572,148.776c-13.289,0-26.091-2.383-38.155-7.08c0.123-1.099,0.192-2.215,0.192-3.347s-0.069-2.247-0.192-3.346
			c12.064-4.696,24.866-7.08,38.156-7.08c16.177,0,31.802,3.575,45.873,10.426C473.373,145.202,457.749,148.776,441.572,148.776z"/>
	</g>
</g>
<g>
	<g>
		<path d="M452.695,330.621c-0.121-0.181-0.243-0.361-0.379-0.534c-0.227-0.286-0.473-0.546-0.727-0.794
			c-18.735-22.158-46.719-36.254-77.938-36.254c-31.298,0-59.346,14.168-78.082,36.424c-0.275,0.265-0.539,0.544-0.78,0.853
			c-0.153,0.195-0.291,0.398-0.423,0.602c-14.229,17.546-22.769,39.885-22.769,64.184c0,36.145,19.223,62.183,35.35,77.662
			c17.811,17.095,37.968,27.34,50.423,30.208c7.37,6.363,13.016,8.38,13.679,8.603c0.844,0.284,1.722,0.426,2.601,0.426
			c0.879,0,1.758-0.142,2.602-0.426c0.663-0.223,6.31-2.24,13.678-8.603c12.457-2.868,32.613-13.113,50.423-30.208
			c16.127-15.479,35.35-41.517,35.35-77.662C475.705,370.666,467.069,348.211,452.695,330.621z M373.651,309.379
			c23.341,0,44.522,9.39,59.994,24.578c-17.811,11.859-38.571,18.089-60.564,18.089c-21.345,0-41.767-6.179-59.577-17.943
			C328.989,318.828,350.234,309.379,373.651,309.379z M384.836,487.333c-1.587,0.258-3.063,0.978-4.243,2.072
			c-2.801,2.596-5.222,4.279-6.941,5.312c-1.719-1.033-4.141-2.716-6.941-5.312c-1.18-1.093-2.656-1.814-4.243-2.072
			c-17.966-2.919-74.529-36.217-74.529-92.231c0-17.954,5.558-34.63,15.029-48.417c20.842,14.208,44.906,21.7,70.115,21.7
			c25.889,0,50.299-7.551,71.131-21.873c9.544,13.821,15.152,30.559,15.152,48.589C459.364,451.116,402.8,484.414,384.836,487.333z"
			/>
	</g>
</g>
<g>
</g>
<g>
</g>
<g>
</g>
<g>
</g>
<g>
</g>
<g>
</g>
<g>
</g>
<g>
</g>
<g>
</g>
<g>
</g>
<g>
</g>
<g>
</g>
<g>
</g>
<g>
</g>
<g>
</g>
</svg>
