<?xml version="1.0" encoding="iso-8859-1"?>
<!-- Generator: Adobe Illustrator 19.0.0, SVG Export Plug-In . SVG Version: 6.00 Build 0)  -->
<svg version="1.1" id="Capa_1" xmlns="http://www.w3.org/2000/svg" xmlns:xlink="http://www.w3.org/1999/xlink" x="0px" y="0px"
	 viewBox="0 0 512 512" style="enable-background:new 0 0 512 512;" xml:space="preserve">
<g>
	<g>
		<path d="M426.87,313.195c-5.32-5.32-12.034-8.677-19.37-9.701l-31.772-4.619l-70.306-70.306h28.187l25.696,19.172
			c5.948,4.491,13.069,6.866,20.593,6.866c18.861,0,34.207-15.345,34.207-34.207s-15.346-34.207-34.207-34.207
			c-7.523,0-14.644,2.374-20.556,6.837l-25.733,19.2h-44.527l-24.911-24.911v-20.634l25.904,14.802
			c1.256,0.718,2.655,1.076,4.054,1.076c1.417,0,2.833-0.368,4.101-1.104c2.52-1.462,4.069-4.154,4.069-7.067v-59.841
			c19.419,10.461,45.437,21.558,68.446,21.558c2.837,0,5.47-1.472,6.958-3.887c0.677-1.099,16.57-27.342,16.57-64.168
			s-15.894-63.069-16.57-64.168C376.215,1.472,373.582,0,370.744,0c-38.253,0-84.832,30.671-95.547,38.097h-11.026V8.17
			c0-4.512-3.657-8.17-8.17-8.17c-4.513,0-8.17,3.658-8.17,8.17v29.927h-11.026C226.089,30.671,179.51,0,141.257,0
			c-2.837,0-5.47,1.472-6.958,3.887c-0.677,1.099-16.57,27.342-16.57,64.168s15.894,63.069,16.57,64.168
			c1.487,2.415,4.12,3.887,6.958,3.887c23.008,0,49.027-11.097,68.446-21.558v59.841c0,2.912,1.55,5.605,4.069,7.067
			c2.52,1.462,5.628,1.473,8.154,0.027l25.904-14.802v87.834l-24.91,24.91h-44.527l-25.696-19.173
			c-5.949-4.491-13.07-6.865-20.593-6.865c-18.861,0-34.207,15.345-34.207,34.207s15.346,34.207,34.207,34.207
			c7.523,0,14.643-2.374,20.556-6.838l25.733-19.2h28.187l-70.306,70.306l-31.727,4.612c-7.381,1.031-14.095,4.387-19.415,9.707
			c-6.462,6.461-10.02,15.052-10.02,24.189s3.559,17.727,10.019,24.188c6.462,6.461,15.051,10.019,24.188,10.019
			s17.727-3.558,24.189-10.019c5.318-5.318,8.675-12.032,9.7-19.371l4.619-31.771l39.421-39.421v28.188l-19.172,25.694
			c-4.491,5.948-6.866,13.07-6.866,20.594c0,18.862,15.346,34.207,34.207,34.207s34.207-15.345,34.207-34.207
			c0-7.523-2.375-14.643-6.838-20.556l-19.199-25.732v-44.529l28.491-28.491c0.004-0.004,15.75-15.75,15.75-15.75V431.5
			l-19.173,25.695c-4.49,5.949-6.865,13.07-6.865,20.593c0.003,18.867,15.349,34.211,34.21,34.211s34.207-15.345,34.207-34.207
			c0-7.523-2.374-14.644-6.837-20.557l-19.2-25.732v-40.192l50.552,50.552c1.596,1.595,3.688,2.393,5.778,2.393
			s4.182-0.797,5.778-2.393c3.191-3.191,3.191-8.364,0-11.554l-62.108-62.108V210.428l15.747,15.747
			c0.004,0.004,28.495,28.496,28.495,28.496v44.529l-19.173,25.695c-4.49,5.949-6.865,13.07-6.865,20.593
			c0,18.862,15.346,34.207,34.207,34.207s34.207-15.345,34.207-34.207c0-7.524-2.375-14.646-6.838-20.556l-19.199-25.732V271.01
			l39.421,39.421l4.612,31.728c1.032,7.383,4.388,14.096,9.707,19.415c6.461,6.461,15.051,10.019,24.188,10.019
			c9.138,0,17.726-3.558,24.187-10.019c6.462-6.461,10.02-15.052,10.02-24.189S433.33,319.656,426.87,313.195z M369.15,206.097
			c3.089-2.333,6.805-3.565,10.747-3.565c9.852,0,17.867,8.014,17.867,17.867c0,9.852-8.014,17.867-17.867,17.867
			c-3.941,0-7.657-1.233-10.784-3.594l-19.13-14.273L369.15,206.097z M142.851,301.9c-3.089,2.333-6.806,3.567-10.747,3.567
			c-9.852,0-17.867-8.014-17.867-17.867c0-9.852,8.014-17.867,17.867-17.867c3.941,0,7.657,1.233,10.784,3.594l19.13,14.274
			L142.851,301.9z M127.032,407.096c-0.536,3.837-2.292,7.337-5.078,10.122c-3.376,3.375-7.863,5.233-12.635,5.233
			c-4.772,0-9.258-1.858-12.634-5.233c-3.375-3.375-5.233-7.861-5.233-12.633s1.858-9.26,5.234-12.634
			c2.787-2.787,6.287-4.543,10.166-5.084l23.621-3.434L127.032,407.096z M209.72,401.939c2.332,3.092,3.565,6.807,3.565,10.749
			c0,9.852-8.014,17.867-17.867,17.867c-9.852,0-17.867-8.014-17.867-17.867c0-3.941,1.233-7.658,3.594-10.785l14.274-19.13
			L209.72,401.939z M285.958,50.544c11.334-7.664,49.041-31.661,80.011-34.017c3.97,8.009,11.962,27.163,11.962,51.529
			c0,24.207-8.013,43.476-11.979,51.526c-30.919-2.365-68.656-26.359-79.995-34.019V50.544z M242.384,54.438h13.606
			c0.022,0,13.628,0,13.628,0v27.235h-27.234V54.438z M146.049,119.583c-3.969-8.06-11.98-27.327-11.98-51.527
			c0-24.207,8.013-43.478,11.979-51.527c30.919,2.365,68.655,26.359,79.995,34.019v35.019
			C214.712,93.229,177.017,117.221,146.049,119.583z M270.302,467.044c2.333,3.089,3.565,6.806,3.565,10.749
			c0,9.852-8.014,17.867-17.867,17.867c-9.852,0-17.867-8.014-17.867-17.867c0-3.941,1.233-7.657,3.594-10.785l14.273-19.13
			L270.302,467.044z M260.054,145.511c-0.339-0.187-0.637-0.334-0.948-0.462c-0.028-0.012-0.058-0.021-0.087-0.032
			c-0.27-0.108-0.548-0.199-0.831-0.278c-0.08-0.022-0.159-0.041-0.239-0.061c-0.242-0.06-0.488-0.107-0.739-0.145
			c-0.08-0.012-0.159-0.027-0.24-0.037c-0.318-0.037-0.641-0.062-0.968-0.062c-0.328,0-0.65,0.025-0.968,0.062
			c-0.081,0.01-0.16,0.025-0.24,0.037c-0.251,0.037-0.497,0.085-0.739,0.145c-0.079,0.02-0.159,0.039-0.239,0.061
			c-0.283,0.078-0.561,0.17-0.831,0.278c-0.029,0.012-0.059,0.021-0.087,0.033c-0.31,0.127-0.61,0.274-0.899,0.438
			c-0.049,0.024-25.953,14.826-25.953,14.826v-55.25h-0.004c4.847-3.021,8.559-5.525,10.761-7.05h11.026v21.911
			c0,4.512,3.657,8.17,8.17,8.17c4.513,0,8.17-3.658,8.17-8.17V98.013h11.026c2.202,1.526,5.914,4.03,10.761,7.05v55.25
			L260.054,145.511z M330.885,334.739c2.331,3.089,3.564,6.805,3.564,10.748c0,9.852-8.014,17.867-17.867,17.867
			c-9.852,0-17.867-8.014-17.867-17.867c0-3.941,1.233-7.657,3.594-10.785l14.274-19.13L330.885,334.739z M415.314,350.017
			c-3.375,3.375-7.861,5.233-12.633,5.233c-4.772,0-9.26-1.858-12.634-5.233c-2.787-2.787-4.543-6.287-5.085-10.167l-3.434-23.62
			l23.666,3.44c3.835,0.536,7.334,2.292,10.121,5.079c3.375,3.375,5.233,7.861,5.233,12.633
			C420.549,342.155,418.69,346.643,415.314,350.017z"/>
	</g>
</g>
<g>
</g>
<g>
</g>
<g>
</g>
<g>
</g>
<g>
</g>
<g>
</g>
<g>
</g>
<g>
</g>
<g>
</g>
<g>
</g>
<g>
</g>
<g>
</g>
<g>
</g>
<g>
</g>
<g>
</g>
</svg>
