<?xml version="1.0" encoding="iso-8859-1"?>
<!-- Generator: Adobe Illustrator 19.0.0, SVG Export Plug-In . SVG Version: 6.00 Build 0)  -->
<svg version="1.1" id="Capa_1" xmlns="http://www.w3.org/2000/svg" xmlns:xlink="http://www.w3.org/1999/xlink" x="0px" y="0px"
	 viewBox="0 0 512 512" style="enable-background:new 0 0 512 512;" xml:space="preserve">
<g>
	<g>
		<path d="M503.83,55.246c4.513,0,8.17-3.658,8.17-8.17V8.17c0-4.512-3.657-8.17-8.17-8.17h-38.907c-4.513,0-8.17,3.658-8.17,8.17
			c0,7.509-6.108,13.617-13.617,13.617s-13.617-6.108-13.617-13.617c0-4.512-3.657-8.17-8.17-8.17h-31.28
			c-4.513,0-8.17,3.658-8.17,8.17c0,7.509-6.108,13.617-13.617,13.617s-13.617-6.108-13.617-13.617c0-4.512-3.657-8.17-8.17-8.17
			h-31.28c-4.513,0-8.17,3.658-8.17,8.17c0,7.509-6.108,13.617-13.617,13.617S279.81,15.679,279.81,8.17
			c0-4.512-3.657-8.17-8.17-8.17h-31.281c-4.513,0-8.17,3.658-8.17,8.17c0,7.509-6.108,13.617-13.617,13.617
			c-7.509,0-13.617-6.108-13.617-13.617c0-4.512-3.657-8.17-8.17-8.17h-31.28c-4.513,0-8.17,3.658-8.17,8.17
			c0,7.509-6.108,13.617-13.617,13.617S130.1,15.679,130.1,8.17c0-4.512-3.657-8.17-8.17-8.17H90.651c-4.513,0-8.17,3.658-8.17,8.17
			c0,7.509-6.108,13.617-13.617,13.617S55.247,15.679,55.247,8.17c0-4.512-3.657-8.17-8.17-8.17H8.17C3.657,0,0,3.658,0,8.17v38.905
			c0,4.512,3.657,8.17,8.17,8.17c7.509,0,13.617,6.108,13.617,13.617S15.679,82.48,8.17,82.48C3.657,82.48,0,86.138,0,90.65v31.28
			c0,4.512,3.657,8.17,8.17,8.17c7.509,0,13.617,6.108,13.617,13.617s-6.108,13.617-13.617,13.617c-4.513,0-8.17,3.658-8.17,8.17
			v31.28c0,4.512,3.657,8.17,8.17,8.17c7.509,0,13.617,6.108,13.617,13.617s-6.108,13.617-13.617,13.617
			c-4.513,0-8.17,3.658-8.17,8.17v31.28c0,4.512,3.657,8.17,8.17,8.17c7.509,0,13.617,6.108,13.617,13.617
			s-6.108,13.617-13.617,13.617c-4.513,0-8.17,3.658-8.17,8.17v31.28c0,4.512,3.657,8.17,8.17,8.17
			c7.509,0,13.617,6.108,13.617,13.617s-6.108,13.617-13.617,13.617c-4.513,0-8.17,3.658-8.17,8.17v31.28
			c0,4.512,3.657,8.17,8.17,8.17c7.509,0,13.617,6.108,13.617,13.617s-6.108,13.617-13.617,13.617c-4.513,0-8.17,3.658-8.17,8.17
			v38.908c0,4.512,3.657,8.17,8.17,8.17h38.907c4.513,0,8.17-3.658,8.17-8.17c0-7.509,6.108-13.617,13.617-13.617
			s13.617,6.108,13.617,13.617c0,4.512,3.657,8.17,8.17,8.17h31.28c4.513,0,8.17-3.658,8.17-8.17
			c0-7.509,6.108-13.617,13.617-13.617c7.509,0,13.617,6.108,13.617,13.617c0,4.512,3.657,8.17,8.17,8.17h31.28
			c4.513,0,8.17-3.658,8.17-8.17c0-7.509,6.108-13.617,13.617-13.617s13.617,6.108,13.617,13.617c0,4.512,3.657,8.17,8.17,8.17
			h31.281c4.513,0,8.17-3.658,8.17-8.17c0-7.509,6.108-13.617,13.617-13.617s13.617,6.108,13.617,13.617
			c0,4.512,3.657,8.17,8.17,8.17h31.28c4.513,0,8.17-3.658,8.17-8.17c0-7.509,6.108-13.617,13.617-13.617
			c7.509,0,13.617,6.108,13.617,13.617c0,4.512,3.657,8.17,8.17,8.17h31.281c4.513,0,8.17-3.658,8.17-8.17
			c0-7.509,6.108-13.617,13.617-13.617s13.617,6.108,13.617,13.617c0,4.512,3.657,8.17,8.17,8.17h38.904
			c4.513,0,8.17-3.658,8.17-8.17v-38.905c0-4.512-3.657-8.17-8.17-8.17c-7.509,0-13.617-6.108-13.617-13.617
			s6.108-13.617,13.617-13.617c4.513,0,8.17-3.658,8.17-8.17v-31.28c0-4.512-3.657-8.17-8.17-8.17
			c-7.509,0-13.617-6.108-13.617-13.617s6.108-13.617,13.617-13.617c4.513,0,8.17-3.658,8.17-8.17v-31.28
			c0-4.512-3.657-8.17-8.17-8.17c-7.509,0-13.617-6.108-13.617-13.617s6.108-13.617,13.617-13.617c4.513,0,8.17-3.658,8.17-8.17
			v-31.28c0-4.512-3.657-8.17-8.17-8.17c-7.509,0-13.617-6.108-13.617-13.617s6.108-13.617,13.617-13.617
			c4.513,0,8.17-3.658,8.17-8.17v-31.28c0-4.512-3.657-8.17-8.17-8.17c-7.509,0-13.617-6.108-13.617-13.617
			s6.108-13.617,13.617-13.617c4.513,0,8.17-3.658,8.17-8.17V90.65c0-4.512-3.657-8.17-8.17-8.17
			c-7.509,0-13.617-6.108-13.617-13.617S496.321,55.246,503.83,55.246z M495.66,97.689v17.204
			c-12.56,3.564-21.787,15.138-21.787,28.825c0,13.687,9.227,25.26,21.787,28.824v17.204c-12.56,3.564-21.787,15.138-21.787,28.825
			c0,13.687,9.227,25.26,21.787,28.825v17.204c-12.56,3.564-21.787,15.138-21.787,28.824c0,13.687,9.227,25.26,21.787,28.825v17.204
			c-12.56,3.564-21.787,15.138-21.787,28.825c0,13.688,9.227,25.26,21.787,28.824v17.204c-12.56,3.564-21.787,15.138-21.787,28.825
			c0,13.687,9.227,25.26,21.787,28.825v23.705h-23.697c-3.564-12.56-15.138-21.787-28.826-21.787
			c-13.688,0-25.26,9.227-28.826,21.787h-17.204c-3.564-12.56-15.138-21.787-28.826-21.787s-25.26,9.227-28.826,21.787h-17.203
			c-3.564-12.56-15.138-21.787-28.826-21.787c-13.688,0-25.26,9.227-28.826,21.787h-17.204
			c-3.564-12.56-15.138-21.787-28.826-21.787c-13.688,0-25.26,9.227-28.826,21.787h-17.202
			c-3.564-12.56-15.138-21.787-28.826-21.787c-13.688,0-25.26,9.227-28.826,21.787H97.69c-3.564-12.56-15.138-21.787-28.826-21.787
			s-25.26,9.227-28.826,21.787H16.34v-23.698c12.56-3.564,21.787-15.138,21.787-28.825c0-13.688-9.227-25.26-21.787-28.824v-17.204
			c12.56-3.564,21.787-15.138,21.787-28.825s-9.227-25.26-21.787-28.825v-17.204c12.56-3.564,21.787-15.138,21.787-28.824
			c0-13.688-9.227-25.26-21.787-28.825v-17.204c12.56-3.564,21.787-15.138,21.787-28.825c0-13.687-9.227-25.26-21.787-28.824
			v-17.204c12.56-3.564,21.787-15.138,21.787-28.825c0-13.688-9.227-25.26-21.787-28.825V97.689
			c12.56-3.564,21.787-15.138,21.787-28.825c0-13.687-9.227-25.26-21.787-28.825V16.34h23.698
			c3.564,12.56,15.138,21.787,28.826,21.787s25.26-9.227,28.826-21.787h17.203c3.564,12.56,15.138,21.787,28.826,21.787
			c13.688,0,25.26-9.227,28.826-21.787h17.203c3.564,12.56,15.138,21.787,28.826,21.787s25.26-9.227,28.826-21.787h17.204
			c3.564,12.56,15.138,21.787,28.826,21.787c13.688,0,25.26-9.227,28.826-21.787h17.203c3.564,12.56,15.138,21.787,28.826,21.787
			c13.688,0,25.26-9.227,28.826-21.787h17.203c3.564,12.56,15.138,21.787,28.826,21.787c13.688,0,25.26-9.227,28.826-21.787h23.697
			v23.698c-12.56,3.564-21.787,15.138-21.787,28.825C473.872,82.551,483.099,94.123,495.66,97.689z"/>
	</g>
</g>
<g>
	<g>
		<path d="M414.322,240.096c-5.012-5.011-11.337-8.173-18.248-9.139l-29.151-4.239l-63.757-63.757h24.34l23.575,17.59
			c5.606,4.232,12.315,6.469,19.403,6.469c17.771,0,32.229-14.458,32.229-32.229s-14.457-32.229-32.229-32.229
			c-7.087,0-13.797,2.238-19.366,6.441l-23.612,17.617h-40.68l-22.655-22.654V95.319c0-4.512-3.657-8.17-8.17-8.17
			c-4.513,0-8.17,3.658-8.17,8.17v90.742l-22.653,22.653h-40.68l-23.575-17.589c-5.606-4.232-12.315-6.469-19.403-6.469
			c-17.771,0-32.229,14.458-32.229,32.229s14.457,32.229,32.229,32.229c7.087,0,13.797-2.236,19.366-6.441l23.612-17.617h24.34
			l-63.757,63.757l-29.106,4.232c-6.957,0.972-13.281,4.133-18.295,9.145c-6.088,6.086-9.44,14.18-9.44,22.788
			s3.352,16.702,9.44,22.788c6.087,6.087,14.18,9.439,22.788,9.439c8.609,0,16.702-3.352,22.789-9.439
			c5.012-5.012,8.173-11.338,9.139-18.248l4.239-29.152l35.219-35.219v24.341l-17.589,23.574
			c-4.232,5.606-6.469,12.315-6.469,19.403c0,17.771,14.457,32.229,32.229,32.229s32.229-14.458,32.229-32.229
			c0-7.087-2.238-13.797-6.441-19.365l-17.617-23.611v-40.681l39.638-39.636v140.475l-17.59,23.575
			c-4.232,5.607-6.469,12.316-6.469,19.402c-0.002,17.77,14.456,32.228,32.227,32.228s32.229-14.458,32.229-32.229
			c0-7.087-2.238-13.797-6.441-19.366l-17.617-23.611v-35.433l45.65,45.65c1.596,1.595,3.688,2.393,5.778,2.393
			s4.182-0.797,5.778-2.393c3.191-3.191,3.191-8.364,0-11.554l-57.206-57.206V147.077l39.638,39.636v40.681l-17.589,23.574
			c-4.232,5.606-6.469,12.315-6.469,19.403c0,17.771,14.457,32.229,32.229,32.229c17.772,0,32.229-14.458,32.229-32.229
			c0-7.087-2.237-13.797-6.441-19.365l-17.617-23.611v-24.341l35.218,35.219l4.232,29.107c0.972,6.956,4.133,13.281,9.145,18.294
			c6.087,6.087,14.18,9.439,22.789,9.439c8.608,0,16.701-3.352,22.788-9.439c6.088-6.086,9.44-14.18,9.44-22.788
			C423.763,254.278,420.411,246.184,414.322,240.096z M360.923,142.072c2.747-2.074,6.052-3.17,9.557-3.17
			c8.761,0,15.888,7.128,15.888,15.888c0,8.761-7.128,15.888-15.888,15.888c-3.506,0-6.811-1.096-9.594-3.197l-17.009-12.691
			L360.923,142.072z M151.077,229.604c-2.746,2.073-6.052,3.17-9.557,3.17c-8.761,0-15.888-7.128-15.888-15.888
			c0-8.761,7.128-15.888,15.888-15.888c3.506,0,6.81,1.096,9.594,3.198l17.009,12.69L151.077,229.604z M136.218,327.215
			c-0.476,3.409-2.038,6.52-4.516,8.999c-3,3-6.989,4.653-11.235,4.653c-4.244,0-8.234-1.653-11.235-4.653
			c-3-3.002-4.654-6.992-4.654-11.236s1.654-8.234,4.653-11.235c2.479-2.478,5.592-4.04,9.046-4.523l21-3.053L136.218,327.215z
			 M212.741,322.907c2.073,2.747,3.169,6.053,3.169,9.557c0,8.761-7.128,15.888-15.888,15.888c-8.761,0-15.888-7.128-15.888-15.888
			c0-3.506,1.096-6.81,3.197-9.594l12.691-17.009L212.741,322.907z M268.719,383.065c2.073,2.746,3.169,6.051,3.169,9.557
			c0,8.761-7.128,15.888-15.888,15.888c-8.761,0-15.888-7.128-15.888-15.888c0-3.505,1.097-6.81,3.197-9.594L256,366.02
			L268.719,383.065z M324.697,260.814c2.073,2.747,3.169,6.052,3.169,9.557c0,8.761-7.128,15.888-15.888,15.888
			s-15.888-7.128-15.888-15.888c0-3.506,1.096-6.81,3.197-9.594l12.691-17.009L324.697,260.814z M402.769,274.119
			c-3.001,3-6.992,4.653-11.235,4.653c-4.244,0-8.234-1.653-11.235-4.653c-2.478-2.478-4.042-5.591-4.523-9.045l-3.053-21.001
			l21.045,3.06c3.409,0.476,6.52,2.038,8.999,4.516c3.001,3.001,4.654,6.99,4.654,11.235S405.768,271.118,402.769,274.119z"/>
	</g>
</g>
<g>
	<g>
		<path d="M449.362,344.511c4.513,0,8.17-3.658,8.17-8.17V62.638c0-4.512-3.657-8.17-8.17-8.17H62.638
			c-4.513,0-8.17,3.658-8.17,8.17v386.723c0,4.512,3.657,8.17,8.17,8.17h386.723c4.513,0,8.17-3.658,8.17-8.17v-80.34
			c0-4.512-3.657-8.17-8.17-8.17s-8.17,3.658-8.17,8.17v72.17H70.809V70.809h370.383V336.34
			C441.191,340.853,444.848,344.511,449.362,344.511z"/>
	</g>
</g>
<g>
</g>
<g>
</g>
<g>
</g>
<g>
</g>
<g>
</g>
<g>
</g>
<g>
</g>
<g>
</g>
<g>
</g>
<g>
</g>
<g>
</g>
<g>
</g>
<g>
</g>
<g>
</g>
<g>
</g>
</svg>
