<?xml version="1.0" encoding="iso-8859-1"?>
<!-- Generator: Adobe Illustrator 19.0.0, SVG Export Plug-In . SVG Version: 6.00 Build 0)  -->
<svg version="1.1" id="Capa_1" xmlns="http://www.w3.org/2000/svg" xmlns:xlink="http://www.w3.org/1999/xlink" x="0px" y="0px"
	 viewBox="0 0 512 512" style="enable-background:new 0 0 512 512;" xml:space="preserve">
<g>
	<g>
		<path d="M488.358,239.118c-1.166-15.546-8.225-28.601-19.875-36.758c-11.248-7.876-25.541-10.122-39.925-6.458
			c-7.506-8.099-16.808-14.499-27.267-18.582c7.795-7.444,12.667-17.924,12.667-29.528c0-22.526-18.325-40.851-40.851-40.851h-2.723
			V56.627c4.088,2.096,8.715,3.288,13.617,3.288c16.518,0,29.957-13.438,29.957-29.957S400.519,0,384.001,0
			c-13.686,0-25.249,9.229-28.816,21.787H230.561c-24.21,0-51.665,16.956-62.506,38.604l-23.312,46.55h-5.848
			c-22.526,0-40.851,18.325-40.851,40.851c0,11.604,4.872,22.085,12.667,29.528c-10.459,4.083-19.761,10.484-27.267,18.582
			c-14.385-3.665-28.679-1.418-39.926,6.458c-11.651,8.157-18.709,21.212-19.875,36.758c-1.12,14.933,3.384,30.471,12.683,43.751
			c7.986,11.405,18.786,20.078,30.831,24.86l11.676,131.716C82.379,479.452,117.94,512,158.105,512h195.791
			c40.164,0,75.725-32.548,79.272-72.556l11.676-131.716c12.046-4.782,22.846-13.456,30.831-24.86
			C484.972,269.589,489.478,254.051,488.358,239.118z M384.001,16.34c7.509,0,13.617,6.108,13.617,13.617
			s-6.109,13.617-13.617,13.617s-13.617-6.108-13.617-13.617S376.492,16.34,384.001,16.34z M182.665,67.707
			c8.03-16.033,29.963-29.579,47.896-29.579h123.482v68.813H163.017L182.665,67.707z M462.289,273.497
			c-7.034,10.046-16.769,17.29-27.407,20.398c-3.23,0.943-5.551,3.769-5.848,7.121l-12.142,136.986
			c-2.819,31.792-31.078,57.657-62.996,57.657H158.105c-31.917,0-60.176-25.865-62.995-57.658L82.967,301.017
			c-0.296-3.352-2.618-6.178-5.848-7.121c-10.64-3.108-20.373-10.352-27.408-20.398c-7.142-10.2-10.613-21.975-9.774-33.156
			c0.793-10.567,5.392-19.302,12.953-24.596c5.622-3.936,12.561-5.659,19.923-5.103c-5.725,10.459-8.985,22.45-8.985,35.19
			c0,4.512,3.658,8.17,8.17,8.17s8.17-3.658,8.17-8.17c0-13.109,4.445-25.195,11.891-34.852c0.414-0.424,0.789-0.891,1.107-1.407
			c10.497-12.772,26.409-20.932,44.193-20.932c0.173,0,0.342-0.015,0.513-0.026c0.34,0.009,0.679,0.026,1.021,0.026h168.851
			c4.513,0,8.17-3.658,8.17-8.17c0-4.512-3.657-8.17-8.17-8.17H138.894c-13.516,0-24.511-10.995-24.511-24.51
			c0-13.516,10.995-24.511,24.511-24.511h10.86c0.051,0,223.353,0,223.353,0c13.515,0,24.511,10.995,24.511,24.511
			c0,13.515-10.996,24.51-24.511,24.51h-32.681c-4.513,0-8.17,3.658-8.17,8.17c0,4.512,3.657,8.17,8.17,8.17h32.681
			c0.342,0,0.681-0.017,1.021-0.026c0.171,0.011,0.34,0.026,0.513,0.026c17.785,0,33.697,8.161,44.195,20.934
			c0.318,0.515,0.692,0.982,1.104,1.404c7.448,9.657,11.893,21.743,11.893,34.853c0,4.512,3.657,8.17,8.17,8.17
			c4.513,0,8.17-3.658,8.17-8.17c0-12.74-3.26-24.732-8.985-35.19c7.362-0.557,14.302,1.167,19.922,5.103
			c7.56,5.293,12.161,14.029,12.954,24.596C472.901,251.523,469.43,263.298,462.289,273.497z"/>
	</g>
</g>
<g>
	<g>
		<path d="M282.934,418.913h-18.763v-40.822h10.175c0.388,0,0.609,0.064,0.708,0.104c0.016,0.107,0.026,0.337-0.064,0.714
			c-1.053,4.388,1.651,8.798,6.039,9.85c0.641,0.154,1.281,0.228,1.912,0.228c3.692,0,7.039-2.52,7.938-6.266
			c1.272-5.305,0.188-10.647-2.974-14.658c-3.162-4.011-8.104-6.311-13.559-6.311h-36.853c-5.487,0-10.425,2.318-13.547,6.36
			c-3.122,4.042-4.119,9.404-2.734,14.713c1.14,4.366,5.604,6.984,9.968,5.843c4.366-1.139,6.983-5.603,5.843-9.968
			c-0.063-0.242-0.084-0.426-0.086-0.551c0.122-0.029,0.306-0.057,0.556-0.057h10.338v40.822h-18.713c-4.512,0-8.17,3.658-8.17,8.17
			s3.658,8.17,8.17,8.17h53.818c4.513,0,8.17-3.658,8.17-8.17S287.447,418.913,282.934,418.913z"/>
	</g>
</g>
<g>
	<g>
		<path d="M364.937,261.245c-28.531,0-51.745,23.213-51.745,51.745v114.584c0,13.516-10.996,24.511-24.511,24.511H223.32
			c-13.516,0-24.511-10.995-24.511-24.511V312.99c0-28.531-23.213-51.745-51.745-51.745c-4.512,0-8.17,3.658-8.17,8.17v21.787
			c0,4.512,3.658,8.17,8.17,8.17s8.17-3.658,8.17-8.17v-12.665c15.596,3.697,27.234,17.741,27.234,34.452v114.584
			c0,22.526,18.325,40.851,40.851,40.851h65.362c22.526,0,40.851-18.325,40.851-40.851V312.99c0-16.711,11.638-30.755,27.234-34.452
			v12.665c0,4.512,3.657,8.17,8.17,8.17s8.17-3.658,8.17-8.17v-21.787C373.107,264.903,369.449,261.245,364.937,261.245z"/>
	</g>
</g>
<g>
	<g>
		<path d="M288.681,222.17c-4.513,0-8.17,3.658-8.17,8.17v10.894c0,4.512,3.657,8.17,8.17,8.17s8.17-3.658,8.17-8.17V230.34
			C296.852,225.828,293.195,222.17,288.681,222.17z"/>
	</g>
</g>
<g>
	<g>
		<path d="M256.001,254.851c-4.512,0-8.17,3.658-8.17,8.17v10.894c0,4.512,3.658,8.17,8.17,8.17c4.513,0,8.17-3.658,8.17-8.17
			v-10.894C264.171,258.509,260.514,254.851,256.001,254.851z"/>
	</g>
</g>
<g>
	<g>
		<path d="M223.32,222.17c-4.512,0-8.17,3.658-8.17,8.17v10.894c0,4.512,3.658,8.17,8.17,8.17s8.17-3.658,8.17-8.17V230.34
			C231.49,225.828,227.832,222.17,223.32,222.17z"/>
	</g>
</g>
<g>
</g>
<g>
</g>
<g>
</g>
<g>
</g>
<g>
</g>
<g>
</g>
<g>
</g>
<g>
</g>
<g>
</g>
<g>
</g>
<g>
</g>
<g>
</g>
<g>
</g>
<g>
</g>
<g>
</g>
</svg>
