<?xml version="1.0" encoding="iso-8859-1"?>
<!-- Generator: Adobe Illustrator 19.0.0, SVG Export Plug-In . SVG Version: 6.00 Build 0)  -->
<svg version="1.1" id="Capa_1" xmlns="http://www.w3.org/2000/svg" xmlns:xlink="http://www.w3.org/1999/xlink" x="0px" y="0px"
	 viewBox="0 0 512 512" style="enable-background:new 0 0 512 512;" xml:space="preserve">
<g>
	<g>
		<path d="M332.255,0H179.745c-15.017,0-27.234,12.217-27.234,27.234c0,12.32,8.225,22.749,19.469,26.1
			c1.74,15.486,9.138,29.286,20.087,39.262h-1.428c-4.512,0-8.17,3.658-8.17,8.17c0,4.512,3.658,8.17,8.17,8.17h130.723
			c4.512,0,8.17-3.658,8.17-8.17c0-4.512-3.658-8.17-8.17-8.17h-1.429c10.949-9.975,18.347-23.775,20.087-39.262
			c11.246-3.351,19.47-13.78,19.47-26.1C359.489,12.217,347.272,0,332.255,0z M277.787,92.596h-43.574
			c-22.74,0-41.69-16.484-45.561-38.128h134.697C319.477,76.111,300.528,92.596,277.787,92.596z M332.255,38.128H179.745
			c-6.007,0-10.894-4.887-10.894-10.894c0-6.007,4.887-10.894,10.894-10.894h152.511c6.007,0,10.894,4.887,10.894,10.894
			C343.149,33.241,338.262,38.128,332.255,38.128z"/>
	</g>
</g>
<g>
	<g>
		<path d="M360.486,446.638h-32.681c-4.512,0-8.17,3.658-8.17,8.17c0,4.512,3.658,8.17,8.17,8.17h32.681
			c4.512,0,8.17-3.658,8.17-8.17C368.656,450.296,364.998,446.638,360.486,446.638z"/>
	</g>
</g>
<g>
	<g>
		<path d="M488.437,447.906c-1.009-72.306-17.951-133.767-51.71-187.695c-27.997-44.723-67.335-83.701-119.784-118.594h4.418
			c4.512,0,8.17-3.658,8.17-8.17c0-4.512-3.658-8.17-8.17-8.17H190.638c-4.512,0-8.17,3.658-8.17,8.17c0,4.512,3.658,8.17,8.17,8.17
			h4.42c-52.45,34.893-91.787,73.872-119.784,118.594C41.513,314.139,24.572,375.6,23.563,447.906C9.87,451.851,0,464.409,0,479.293
			C0,497.327,14.671,512,32.706,512h446.587C497.328,512,512,497.327,512,479.293C512,464.409,502.13,451.851,488.437,447.906z
			 M479.294,495.66H32.706c-9.024,0-16.365-7.342-16.365-16.367c0-8.738,6.808-15.876,15.529-16.314h21.602
			c4.512,0,8.17-3.658,8.17-8.17c0-4.512-3.658-8.17-8.17-8.17H39.934c2.315-132.954,61.496-230.09,185.668-305.021h60.796
			C410.57,216.549,469.75,313.684,472.065,446.638h-78.899c-4.512,0-8.17,3.658-8.17,8.17c0,4.512,3.658,8.17,8.17,8.17h86.964
			c8.72,0.438,15.529,7.577,15.529,16.314C495.66,488.317,488.318,495.66,479.294,495.66z"/>
	</g>
</g>
<g>
</g>
<g>
</g>
<g>
</g>
<g>
</g>
<g>
</g>
<g>
</g>
<g>
</g>
<g>
</g>
<g>
</g>
<g>
</g>
<g>
</g>
<g>
</g>
<g>
</g>
<g>
</g>
<g>
</g>
</svg>
