<?xml version="1.0" encoding="iso-8859-1"?>
<!-- Generator: Adobe Illustrator 19.0.0, SVG Export Plug-In . SVG Version: 6.00 Build 0)  -->
<svg version="1.1" id="Capa_1" xmlns="http://www.w3.org/2000/svg" xmlns:xlink="http://www.w3.org/1999/xlink" x="0px" y="0px"
	 viewBox="0 0 512 512" style="enable-background:new 0 0 512 512;" xml:space="preserve">
<g>
	<g>
		<path d="M443.915,87.149c-19.521,0-35.404,15.883-35.404,35.404s15.883,35.404,35.404,35.404
			c19.521,0,35.404-15.883,35.404-35.404S463.436,87.149,443.915,87.149z M443.915,141.617c-10.511,0-19.064-8.553-19.064-19.064
			c0-10.511,8.553-19.064,19.064-19.064s19.064,8.553,19.064,19.064C462.979,133.064,454.426,141.617,443.915,141.617z"/>
	</g>
</g>
<g>
	<g>
		<path d="M282.945,240.254l-49.466-96.415c5.493-5.434,8.902-12.968,8.902-21.286c0-16.519-13.438-29.957-29.957-29.957
			c-16.519,0-29.957,13.438-29.957,29.957c0,8.317,3.41,15.852,8.902,21.286l-49.466,96.415
			c-17.013,2.518-30.111,17.213-30.111,34.915c0.001,19.464,15.836,35.299,35.3,35.299h130.666
			c19.464,0,35.299-15.835,35.299-35.299C313.056,257.467,299.958,242.772,282.945,240.254z M212.426,108.936
			c7.509,0,13.617,6.108,13.617,13.617s-6.108,13.617-13.617,13.617s-13.617-6.108-13.617-13.617S204.917,108.936,212.426,108.936z
			 M205.683,151.736c2.169,0.501,4.424,0.775,6.742,0.775s4.573-0.273,6.741-0.775l45.217,88.134H160.466L205.683,151.736z
			 M277.76,294.128H147.092c-10.453,0-18.958-8.505-18.958-18.958c0-10.448,8.495-18.948,18.941-18.958
			c0.035-0.001,130.668-0.001,130.668-0.001c10.48,0.011,18.976,8.511,18.976,18.959
			C296.718,285.623,288.214,294.128,277.76,294.128z"/>
	</g>
</g>
<g>
	<g>
		<path d="M329.532,43.574H95.319c-28.531,0-51.745,23.213-51.745,51.745v212.426c0,28.531,23.213,51.745,51.745,51.745h234.213
			c28.531,0,51.745-23.213,51.745-51.745V95.319C381.277,66.788,358.063,43.574,329.532,43.574z M364.936,307.745
			c0,19.521-15.883,35.404-35.404,35.404H95.319c-19.521,0-35.404-15.883-35.404-35.404V95.319
			c0-19.521,15.883-35.404,35.404-35.404h234.213c19.521,0,35.404,15.883,35.404,35.404V307.745z"/>
	</g>
</g>
<g>
	<g>
		<path d="M471.149,266.894h-54.468c-4.512,0-8.17,3.658-8.17,8.17s3.658,8.17,8.17,8.17h54.468c4.512,0,8.17-3.658,8.17-8.17
			S475.661,266.894,471.149,266.894z"/>
	</g>
</g>
<g>
	<g>
		<path d="M471.149,234.213h-54.468c-4.512,0-8.17,3.658-8.17,8.17s3.658,8.17,8.17,8.17h54.468c4.512,0,8.17-3.658,8.17-8.17
			S475.661,234.213,471.149,234.213z"/>
	</g>
</g>
<g>
	<g>
		<path d="M471.149,299.574h-54.468c-4.512,0-8.17,3.658-8.17,8.17s3.658,8.17,8.17,8.17h54.468c4.512,0,8.17-3.658,8.17-8.17
			S475.661,299.574,471.149,299.574z"/>
	</g>
</g>
<g>
	<g>
		<path d="M503.83,0H8.17C3.658,0,0,3.658,0,8.17v495.66c0,4.512,3.658,8.17,8.17,8.17h495.66c4.512,0,8.17-3.658,8.17-8.17V8.17
			C512,3.658,508.342,0,503.83,0z M495.66,495.66H16.34v-92.596H495.66V495.66z M495.66,386.723H16.34V16.34H495.66V386.723z"/>
	</g>
</g>
<g>
	<g>
		<path d="M471.149,419.404H117.106c-4.512,0-8.17,3.658-8.17,8.17s3.658,8.17,8.17,8.17h345.872v27.234H49.021v-27.234h35.404
			c4.512,0,8.17-3.658,8.17-8.17s-3.658-8.17-8.17-8.17H40.851c-4.512,0-8.17,3.658-8.17,8.17v43.574c0,4.512,3.658,8.17,8.17,8.17
			h430.298c4.512,0,8.17-3.658,8.17-8.17v-43.574C479.319,423.062,475.661,419.404,471.149,419.404z"/>
	</g>
</g>
<g>
</g>
<g>
</g>
<g>
</g>
<g>
</g>
<g>
</g>
<g>
</g>
<g>
</g>
<g>
</g>
<g>
</g>
<g>
</g>
<g>
</g>
<g>
</g>
<g>
</g>
<g>
</g>
<g>
</g>
</svg>
