<?xml version="1.0" encoding="iso-8859-1"?>
<!-- Generator: Adobe Illustrator 19.0.0, SVG Export Plug-In . SVG Version: 6.00 Build 0)  -->
<svg version="1.1" id="Capa_1" xmlns="http://www.w3.org/2000/svg" xmlns:xlink="http://www.w3.org/1999/xlink" x="0px" y="0px"
	 viewBox="0 0 512 512" style="enable-background:new 0 0 512 512;" xml:space="preserve">
<g>
	<g>
		<path d="M256,68.265c-28.531,0-51.745,23.213-51.745,51.745v16.34c0,28.531,23.213,51.745,51.745,51.745
			c28.532,0,51.745-23.213,51.745-51.745v-16.34C307.745,91.478,284.531,68.265,256,68.265z M291.404,136.35
			c0,19.521-15.882,35.404-35.404,35.404s-35.404-15.883-35.404-35.404v-16.34c0-19.521,15.882-35.404,35.404-35.404
			s35.404,15.883,35.404,35.404V136.35z"/>
	</g>
</g>
<g>
	<g>
		<path d="M275.064,35.584h-38.128c-4.513,0-8.17,3.658-8.17,8.17s3.657,8.17,8.17,8.17h38.128c4.513,0,8.17-3.658,8.17-8.17
			S279.577,35.584,275.064,35.584z"/>
	</g>
</g>
<g>
	<g>
		<path d="M106.213,98.043c-4.513,0-8.17,3.658-8.17,8.17c0,4.506-3.665,8.17-8.17,8.17c-4.506,0-8.17-3.665-8.17-8.17
			c0-4.512-3.657-8.17-8.17-8.17s-8.17,3.658-8.17,8.17c0,13.516,10.996,24.511,24.511,24.511c13.515,0,24.511-10.995,24.511-24.511
			C114.383,101.701,110.726,98.043,106.213,98.043z"/>
	</g>
</g>
<g>
	<g>
		<path d="M122.553,147.064c-4.513,0-8.17,3.658-8.17,8.17c0,4.506-3.665,8.17-8.17,8.17s-8.17-3.665-8.17-8.17
			c0-4.512-3.657-8.17-8.17-8.17c-4.513,0-8.17,3.658-8.17,8.17c0,13.516,10.996,24.511,24.511,24.511
			c13.515,0,24.511-10.995,24.511-24.511C130.723,150.722,127.066,147.064,122.553,147.064z"/>
	</g>
</g>
<g>
	<g>
		<path d="M106.213,196.085c-4.513,0-8.17,3.658-8.17,8.17c0,4.506-3.665,8.17-8.17,8.17c-4.506,0-8.17-3.665-8.17-8.17
			c0-4.512-3.657-8.17-8.17-8.17s-8.17,3.658-8.17,8.17c0,13.516,10.996,24.511,24.511,24.511c13.515,0,24.511-10.995,24.511-24.511
			C114.383,199.743,110.726,196.085,106.213,196.085z"/>
	</g>
</g>
<g>
	<g>
		<path d="M512,106.213c0-13.348-6.435-25.222-16.365-32.681C505.565,66.073,512,54.199,512,40.851C512,18.325,493.675,0,471.149,0
			c-22.676,0-44.687,6.874-63.65,19.878c-18.371,12.597-32.626,30-41.224,50.326c-0.022,0.049-0.041,0.098-0.061,0.147
			l-60.65,151.589c-14.006-11.301-31.495-17.506-49.565-17.506s-35.559,6.205-49.565,17.506L145.785,70.351
			c-0.02-0.049-0.039-0.098-0.061-0.147c-8.597-20.326-22.853-37.729-41.224-50.326C85.538,6.874,63.527,0,40.851,0
			C18.325,0,0,18.325,0,40.851c0,13.348,6.435,25.222,16.365,32.681C6.435,80.991,0,92.865,0,106.213s6.435,25.222,16.365,32.681
			C6.435,146.352,0,158.226,0,171.574s6.435,25.222,16.365,32.681C6.435,211.714,0,223.588,0,236.936
			c0,22.526,18.325,40.851,40.851,40.851h58.235c3.887,35,32.447,62.649,67.839,65.156l-24.561,159.644
			c-0.362,2.356,0.322,4.753,1.875,6.562c1.552,1.809,3.817,2.851,6.201,2.851h211.119c2.383,0,4.649-1.041,6.201-2.851
			c1.552-1.809,2.236-4.206,1.875-6.562l-24.561-159.644c35.393-2.508,63.952-30.156,67.839-65.156h58.236
			c22.526,0,40.851-18.325,40.851-40.851c0-13.348-6.435-25.222-16.365-32.681c9.931-7.459,16.365-19.333,16.365-32.681
			s-6.435-25.222-16.365-32.681C505.565,131.435,512,119.561,512,106.213z M256,220.774c30.64,0,57.255,22.797,61.904,53.027
			l0.528,3.431c-16.831,16.301-38.844,25.244-62.432,25.244c-23.587,0-45.601-8.942-62.432-25.243l0.528-3.434
			C198.746,243.57,225.359,220.774,256,220.774z M114.976,269.617c0-4.512-3.657-8.17-8.17-8.17H40.851
			c-13.515,0-24.511-10.995-24.511-24.511c0-13.516,10.996-24.511,24.511-24.511c4.513,0,8.17-3.658,8.17-8.17
			s-3.657-8.17-8.17-8.17c-13.515,0-24.511-10.995-24.511-24.511c0-13.516,10.996-24.511,24.511-24.511
			c4.513,0,8.17-3.658,8.17-8.17s-3.657-8.17-8.17-8.17c-13.515,0-24.511-10.995-24.511-24.511
			c0-13.516,10.996-24.511,24.511-24.511c4.513,0,8.17-3.658,8.17-8.17s-3.657-8.17-8.17-8.17
			c-13.515,0-24.511-10.995-24.511-24.511S27.336,16.34,40.851,16.34c38.464,0,74.54,24.173,89.794,60.158l63.268,158.131
			c-8.344,10.616-13.899,23.24-15.968,36.688l-8.526,55.422C139.155,325.299,114.976,300.231,114.976,269.617z M352.036,495.66
			H159.964l8.358-54.324c6.001,2.297,12.109,4.394,18.279,6.215c0.771,0.228,1.55,0.337,2.315,0.337
			c3.528,0,6.785-2.304,7.833-5.861c1.277-4.328-1.197-8.872-5.524-10.147c-6.895-2.034-13.715-4.411-20.359-7.075l19.762-128.455
			c18.565,14.581,41.276,22.471,65.373,22.471s46.809-7.89,65.373-22.471l19.763,128.463
			c-27.043,10.869-55.651,16.381-85.136,16.381c-11.308,0-22.737-0.849-33.971-2.521c-4.454-0.671-8.619,2.414-9.284,6.877
			c-0.664,4.463,2.414,8.62,6.877,9.285c12.027,1.791,24.267,2.699,36.377,2.699c30.303,0,59.744-5.449,87.682-16.179
			L352.036,495.66z M471.149,130.723c-4.513,0-8.17,3.658-8.17,8.17s3.657,8.17,8.17,8.17c13.515,0,24.511,10.995,24.511,24.511
			c0,13.516-10.996,24.511-24.511,24.511c-4.513,0-8.17,3.658-8.17,8.17s3.657,8.17,8.17,8.17c13.515,0,24.511,10.995,24.511,24.511
			c0,13.516-10.996,24.511-24.511,24.511h-65.954c-4.513,0-8.17,3.658-8.17,8.17c0,30.614-24.179,55.683-54.443,57.122
			l-8.526-55.422c-2.069-13.447-7.623-26.072-15.968-36.688l63.268-158.131c15.254-35.985,51.33-60.158,89.794-60.158
			c13.515,0,24.511,10.995,24.511,24.511s-10.996,24.511-24.511,24.511c-4.513,0-8.17,3.658-8.17,8.17s3.657,8.17,8.17,8.17
			c13.515,0,24.511,10.995,24.511,24.511C495.66,119.729,484.664,130.723,471.149,130.723z"/>
	</g>
</g>
<g>
	<g>
		<path d="M438.468,98.043c-4.513,0-8.17,3.658-8.17,8.17c0,4.506-3.665,8.17-8.17,8.17c-4.506,0-8.17-3.665-8.17-8.17
			c0-4.512-3.657-8.17-8.17-8.17s-8.17,3.658-8.17,8.17c0,13.516,10.996,24.511,24.511,24.511c13.515,0,24.511-10.995,24.511-24.511
			C446.638,101.701,442.981,98.043,438.468,98.043z"/>
	</g>
</g>
<g>
	<g>
		<path d="M422.128,147.064c-4.513,0-8.17,3.658-8.17,8.17c0,4.506-3.665,8.17-8.17,8.17c-4.506,0-8.17-3.665-8.17-8.17
			c0-4.512-3.657-8.17-8.17-8.17c-4.513,0-8.17,3.658-8.17,8.17c0,13.516,10.996,24.511,24.511,24.511s24.511-10.995,24.511-24.511
			C430.298,150.722,426.641,147.064,422.128,147.064z"/>
	</g>
</g>
<g>
	<g>
		<path d="M438.468,196.085c-4.513,0-8.17,3.658-8.17,8.17c0,4.506-3.665,8.17-8.17,8.17c-4.506,0-8.17-3.665-8.17-8.17
			c0-4.512-3.657-8.17-8.17-8.17s-8.17,3.658-8.17,8.17c0,13.516,10.996,24.511,24.511,24.511c13.515,0,24.511-10.995,24.511-24.511
			C446.638,199.743,442.981,196.085,438.468,196.085z"/>
	</g>
</g>
<g>
</g>
<g>
</g>
<g>
</g>
<g>
</g>
<g>
</g>
<g>
</g>
<g>
</g>
<g>
</g>
<g>
</g>
<g>
</g>
<g>
</g>
<g>
</g>
<g>
</g>
<g>
</g>
<g>
</g>
</svg>
