<?xml version="1.0" encoding="iso-8859-1"?>
<!-- Generator: Adobe Illustrator 19.0.0, SVG Export Plug-In . SVG Version: 6.00 Build 0)  -->
<svg version="1.1" id="Capa_1" xmlns="http://www.w3.org/2000/svg" xmlns:xlink="http://www.w3.org/1999/xlink" x="0px" y="0px"
	 viewBox="0 0 512 512" style="enable-background:new 0 0 512 512;" xml:space="preserve">
<g>
	<g>
		<path d="M215.149,99.184V8.17c0-4.512-3.657-8.17-8.17-8.17H32.681c-4.513,0-8.17,3.658-8.17,8.17v91.014
			C11.953,102.751,2.723,114.314,2.723,128v375.83c0,4.512,3.657,8.17,8.17,8.17h217.872c4.513,0,8.17-3.658,8.17-8.17V128
			C236.936,114.314,227.707,102.751,215.149,99.184z M40.851,81.702h84.426c4.513,0,8.17-3.658,8.17-8.17s-3.657-8.17-8.17-8.17
			H40.851V16.34h157.957v16.34H65.362c-4.513,0-8.17,3.658-8.17,8.17s3.657,8.17,8.17,8.17h133.447v49.021H40.851V81.702z
			 M220.596,441.191H76.255c-4.513,0-8.17,3.658-8.17,8.17s3.657,8.17,8.17,8.17h144.34v38.128H19.064v-38.128h24.511
			c4.513,0,8.17-3.658,8.17-8.17s-3.657-8.17-8.17-8.17H19.064v-272.34h201.532V441.191z M220.596,152.511H19.064V128
			c0-7.509,6.108-13.617,13.617-13.617h174.298c7.509,0,13.617,6.108,13.617,13.617V152.511z"/>
	</g>
</g>
<g>
	<g>
		<path d="M174.298,65.362h-16.34c-4.513,0-8.17,3.658-8.17,8.17s3.657,8.17,8.17,8.17h16.34c4.513,0,8.17-3.658,8.17-8.17
			S178.811,65.362,174.298,65.362z"/>
	</g>
</g>
<g>
	<g>
		<path d="M468.426,321.362H261.447c-4.513,0-8.17,3.658-8.17,8.17v141.617c0,22.526,18.325,40.851,40.851,40.851h108.936
			c22.526,0,40.851-18.325,40.851-40.851v-68.083h24.511c22.526,0,40.851-18.326,40.851-40.852S490.951,321.362,468.426,321.362z
			 M427.574,471.149c0,13.516-10.996,24.511-24.511,24.511H294.128c-13.515,0-24.511-10.995-24.511-24.511V337.702h157.957V471.149z
			 M468.426,386.726h-24.511v-49.023h24.511c13.515,0,24.511,10.996,24.511,24.512S481.94,386.726,468.426,386.726z"/>
	</g>
</g>
<g>
	<g>
		<path d="M322.352,201.724c0-9.617,2.649-14.005,6.003-19.561c3.916-6.487,8.355-13.839,8.355-28.006
			c0-14.166-4.438-21.518-8.355-28.005c-3.354-5.556-6.003-9.944-6.003-19.561c0-4.512-3.657-8.17-8.17-8.17
			c-4.513,0-8.17,3.658-8.17,8.17c0,14.167,4.438,21.519,8.355,28.006c3.354,5.556,6.003,9.944,6.003,19.561
			s-2.649,14.005-6.003,19.561c-3.917,6.487-8.355,13.839-8.355,28.005c0,14.166,4.439,21.518,8.355,28.005
			c3.354,5.556,6.003,9.943,6.003,19.56c0,9.616-2.649,14.003-6.003,19.558c-3.916,6.487-8.355,13.838-8.355,28.004
			c0,4.512,3.657,8.17,8.17,8.17c4.513,0,8.17-3.658,8.17-8.17c0-9.616,2.649-14.003,6.003-19.558
			c3.916-6.487,8.355-13.838,8.355-28.004c0-14.166-4.438-21.518-8.355-28.005C325.001,215.727,322.352,211.339,322.352,201.724z"/>
	</g>
</g>
<g>
	<g>
		<path d="M376.82,201.724c0-9.617,2.649-14.005,6.003-19.561c3.916-6.487,8.355-13.839,8.355-28.006
			c0-14.166-4.438-21.518-8.355-28.005c-3.354-5.556-6.003-9.944-6.003-19.561c0-4.512-3.657-8.17-8.17-8.17
			c-4.513,0-8.17,3.658-8.17,8.17c0,14.167,4.438,21.519,8.355,28.006c3.354,5.556,6.003,9.944,6.003,19.561
			s-2.649,14.005-6.003,19.561c-3.917,6.487-8.355,13.839-8.355,28.005c0,14.166,4.439,21.518,8.355,28.005
			c3.354,5.556,6.003,9.943,6.003,19.56c0,9.616-2.649,14.003-6.003,19.558c-3.916,6.487-8.355,13.838-8.355,28.004
			c0,4.512,3.657,8.17,8.17,8.17c4.513,0,8.17-3.658,8.17-8.17c0-9.616,2.649-14.003,6.003-19.558
			c3.916-6.487,8.355-13.838,8.355-28.004c0-14.166-4.438-21.518-8.355-28.005C379.469,215.727,376.82,211.339,376.82,201.724z"/>
	</g>
</g>
<g>
</g>
<g>
</g>
<g>
</g>
<g>
</g>
<g>
</g>
<g>
</g>
<g>
</g>
<g>
</g>
<g>
</g>
<g>
</g>
<g>
</g>
<g>
</g>
<g>
</g>
<g>
</g>
<g>
</g>
</svg>
