<?xml version="1.0" encoding="iso-8859-1"?>
<!-- Generator: Adobe Illustrator 19.0.0, SVG Export Plug-In . SVG Version: 6.00 Build 0)  -->
<svg version="1.1" id="Capa_1" xmlns="http://www.w3.org/2000/svg" xmlns:xlink="http://www.w3.org/1999/xlink" x="0px" y="0px"
	 viewBox="0 0 512 512" style="enable-background:new 0 0 512 512;" xml:space="preserve">
<g>
	<g>
		<path d="M276.71,276.26c-4.248-1.511-8.923,0.709-10.434,4.962c-1.543,4.338-5.672,7.252-10.276,7.252
			c-4.605,0-8.734-2.914-10.276-7.252c-1.511-4.252-6.184-6.472-10.435-4.962c-4.252,1.512-6.473,6.183-4.962,10.435
			c3.853,10.838,14.17,18.119,25.673,18.119s21.82-7.281,25.672-18.119C283.184,282.444,280.963,277.772,276.71,276.26z"/>
	</g>
</g>
<g>
	<g>
		<path d="M227.25,226.768h-18.519c-4.512,0-8.17,3.658-8.17,8.17c0,4.512,3.658,8.17,8.17,8.17h10.814
			c1.121,3.173,4.148,5.447,7.705,5.447c4.512,0,8.17-3.658,8.17-8.17v-5.447C235.42,230.426,231.762,226.768,227.25,226.768z"/>
	</g>
</g>
<g>
	<g>
		<path d="M303.27,226.768h-18.519c-4.513,0-8.17,3.658-8.17,8.17v5.447c0,4.512,3.657,8.17,8.17,8.17
			c3.558,0,6.584-2.273,7.705-5.447h10.814c4.513,0,8.17-3.658,8.17-8.17C311.44,230.426,307.783,226.768,303.27,226.768z"/>
	</g>
</g>
<g>
	<g>
		<path d="M413.022,500.03c-11.837-22.553-28.706-42.587-48.926-58.185V413.23c0-22.526-18.325-40.851-40.851-40.851h-9.336
			c7.098-4.379,13.751-9.59,19.825-15.593c10.881-10.755,19.253-23.387,24.824-37.185c2.326,2.049,5.039,3.665,8.019,4.72v56.227
			c0,4.512,3.657,8.17,8.17,8.17s8.17-3.658,8.17-8.17V324.32c9.509-3.373,16.34-12.455,16.34-23.106l-0.012-109.95
			c-0.463-37.894-15.569-73.445-42.534-100.1c-20.431-20.198-45.891-33.518-73.523-38.803c3.921-5.435,6.24-12.097,6.24-19.296
			C289.43,14.833,274.596,0,256.363,0s-33.066,14.833-33.066,33.065c0,7.147,2.287,13.766,6.157,19.18
			c-27.873,5.202-53.567,18.568-74.152,38.917c-26.965,26.656-42.071,62.206-42.535,100.199l-0.011,109.852
			c0,10.652,6.831,19.733,16.34,23.105v56.228c0,4.512,3.658,8.17,8.17,8.17s8.17-3.658,8.17-8.17V324.32
			c2.974-1.054,5.683-2.668,8.006-4.714c5.571,13.787,13.944,26.421,24.825,37.179c6.073,6.003,12.725,11.214,19.824,15.593h-9.337
			c-22.526,0-40.851,18.325-40.851,40.851v28.615c-20.221,15.597-37.088,35.633-48.926,58.187
			c-2.097,3.995-0.559,8.934,3.437,11.031c1.211,0.636,2.51,0.938,3.79,0.938c2.939,0,5.78-1.592,7.241-4.375
			c10.931-20.824,26.588-39.279,45.366-53.544h194.377c18.777,14.265,34.436,32.72,45.365,53.544
			c1.461,2.783,4.301,4.375,7.241,4.375c1.279,0,2.577-0.302,3.79-0.938C413.581,508.965,415.119,504.026,413.022,500.03z
			 M256.363,16.34c9.223,0,16.726,7.502,16.726,16.725c0,9.223-7.504,16.726-16.726,16.726c-9.222,0-16.726-7.503-16.726-16.726
			C239.637,23.843,247.141,16.34,256.363,16.34z M145.438,279.419c0,0.01,0,21.797,0,21.797c0,4.506-3.665,8.17-8.17,8.17
			c-4.506,0-8.17-3.665-8.17-8.17l0.01-109.752c0.411-33.57,13.793-65.064,37.683-88.679c23.909-23.636,55.594-36.653,89.217-36.653
			c33.623,0,65.308,13.017,89.217,36.654c23.89,23.615,37.271,55.109,37.682,88.58l0.011,109.85c0,4.506-3.665,8.17-8.17,8.17
			c-4.511,0-8.18-3.665-8.18-8.17v-54.468c0-20.766-5.987-40.708-17.312-57.862v-19.311c0-22.526-18.325-40.851-40.851-40.851
			h-10.894c-4.513,0-8.17,3.658-8.17,8.17s3.657,8.17,8.17,8.17h10.894c13.515,0,24.511,10.995,24.511,24.511v13.619H179.087
			v-13.619c0-13.516,10.995-24.511,24.511-24.511h61.233c4.513,0,8.17-3.658,8.17-8.17s-3.657-8.17-8.17-8.17h-61.233
			c-22.526,0-40.851,18.325-40.851,40.851v19.31c-11.327,17.157-17.316,37.1-17.316,57.867L145.438,279.419z M161.779,279.426
			l-0.008-32.679c0-16.883,4.677-33.113,13.544-47.215h161.371c8.866,14.1,13.542,30.331,13.542,47.215l0.001,32.581
			c-0.628,51.309-42.898,93.051-94.229,93.051C204.673,372.379,162.406,330.637,161.779,279.426z M347.756,437.741h-183.51V413.23
			c0-13.516,10.995-24.511,24.511-24.511h134.489c10.651,0,19.733,6.831,23.105,16.34H237.778c-4.512,0-8.17,3.658-8.17,8.17
			s3.658,8.17,8.17,8.17h109.978V437.741z"/>
	</g>
</g>
<g>
	<g>
		<path d="M205.097,405.06h-16.34c-4.512,0-8.17,3.658-8.17,8.17s3.658,8.17,8.17,8.17h16.34c4.512,0,8.17-3.658,8.17-8.17
			S209.609,405.06,205.097,405.06z"/>
	</g>
</g>
<g>
</g>
<g>
</g>
<g>
</g>
<g>
</g>
<g>
</g>
<g>
</g>
<g>
</g>
<g>
</g>
<g>
</g>
<g>
</g>
<g>
</g>
<g>
</g>
<g>
</g>
<g>
</g>
<g>
</g>
</svg>
