<?xml version="1.0" encoding="iso-8859-1"?>
<!-- Generator: Adobe Illustrator 19.0.0, SVG Export Plug-In . SVG Version: 6.00 Build 0)  -->
<svg version="1.1" id="Capa_1" xmlns="http://www.w3.org/2000/svg" xmlns:xlink="http://www.w3.org/1999/xlink" x="0px" y="0px"
	 viewBox="0 0 512 512" style="enable-background:new 0 0 512 512;" xml:space="preserve">
<g>
	<g>
		<path d="M452.085,152.511h-50.154c9.489-9.879,14.715-22.809,14.715-36.549c0-14.105-5.493-27.365-15.467-37.338
			c-9.973-9.973-23.234-15.466-37.338-15.466c-3.982,0-7.892,0.453-11.685,1.306c0.837-3.78,1.282-7.682,1.282-11.659
			C353.438,23.688,329.751,0,300.634,0C281.867,0,265.367,9.849,256,24.641C246.633,9.849,230.133,0,211.366,0
			c-29.116,0-52.805,23.688-52.805,52.805c0,3.977,0.444,7.878,1.282,11.659c-3.792-0.853-7.703-1.306-11.685-1.306
			c-14.104,0-27.365,5.493-37.338,15.466c-9.973,9.973-15.467,23.234-15.467,37.338c0,13.74,5.226,26.67,14.715,36.549H59.915
			c-4.512,0-8.17,3.658-8.17,8.17v81.702c0,4.512,3.658,8.17,8.17,8.17h8.17V503.83c0,4.512,3.658,8.17,8.17,8.17h359.489
			c4.512,0,8.17-3.658,8.17-8.17V250.553h8.17c4.512,0,8.17-3.658,8.17-8.17v-81.702
			C460.255,156.169,456.597,152.511,452.085,152.511z M338.057,90.177c6.887-6.887,16.044-10.679,25.784-10.679
			s18.896,3.792,25.783,10.68c6.887,6.888,10.68,16.044,10.68,25.784s-3.793,18.896-10.68,25.783
			c-6.943,6.943-16.087,10.765-25.748,10.765h-88.152L338.057,90.177z M264.17,52.805c0-20.106,16.358-36.464,36.464-36.464
			c20.106,0,36.464,16.358,36.464,36.464c0,9.817-3.763,18.987-10.595,25.819l-62.333,62.333V52.805z M256.511,351.211
			c4.512,0,8.17-3.658,8.17-8.17v-174.19h32.681v220.804l-36.798-21.027c-2.512-1.435-5.596-1.435-8.107,0l-36.798,21.027V168.851
			h32.681v174.19C248.341,347.553,251.999,351.211,256.511,351.211z M122.375,90.178c6.887-6.887,16.044-10.68,25.783-10.68
			s18.897,3.792,25.784,10.68c3.191,3.191,8.364,3.191,11.554,0c3.191-3.191,3.191-8.364,0-11.554
			c-6.831-6.832-10.595-16.002-10.595-25.819c0.002-20.107,16.359-36.465,36.465-36.465s36.464,16.358,36.464,36.464v88.152
			l-39.227-39.227c-3.191-3.191-8.364-3.191-11.554,0c-3.191,3.191-3.191,8.364,0,11.554l39.227,39.227h-88.152
			c-9.663,0-18.807-3.824-25.749-10.765c-6.887-6.887-10.68-16.044-10.68-25.783S115.488,97.065,122.375,90.178z M443.915,234.213
			H338.213c-4.512,0-8.17,3.658-8.17,8.17s3.658,8.17,8.17,8.17h89.361V495.66H84.426V250.553h90.383c4.512,0,8.17-3.658,8.17-8.17
			s-3.658-8.17-8.17-8.17H68.085v-65.362h131.234v234.883c0,2.912,1.55,5.605,4.069,7.067c2.52,1.462,5.625,1.473,8.155,0.027
			l44.968-25.696l44.968,25.696c1.256,0.718,2.655,1.076,4.054,1.076c1.416,0,2.833-0.368,4.102-1.104
			c2.519-1.462,4.069-4.154,4.069-7.067V168.851h130.213V234.213z"/>
	</g>
</g>
<g>
</g>
<g>
</g>
<g>
</g>
<g>
</g>
<g>
</g>
<g>
</g>
<g>
</g>
<g>
</g>
<g>
</g>
<g>
</g>
<g>
</g>
<g>
</g>
<g>
</g>
<g>
</g>
<g>
</g>
</svg>
