<?xml version="1.0" encoding="iso-8859-1"?>
<!-- Generator: Adobe Illustrator 19.0.0, SVG Export Plug-In . SVG Version: 6.00 Build 0)  -->
<svg version="1.1" id="Capa_1" xmlns="http://www.w3.org/2000/svg" xmlns:xlink="http://www.w3.org/1999/xlink" x="0px" y="0px"
	 viewBox="0 0 512.003 512.003" style="enable-background:new 0 0 512.003 512.003;" xml:space="preserve">
<g>
	<g>
		<path d="M510.908,147.169c-1.668-2.89-4.926-4.477-8.23-4.003c-4.721,0.674-9.513,1.015-14.243,1.015
			c-30.062,0-58.214-13.438-77.237-36.869c-1.832-2.257-4.73-3.368-7.598-2.924c-2.873,0.447-5.291,2.386-6.352,5.092
			c-12.051,30.746-37.727,52.969-69.472,60.543c-9.313-31.28-2.905-64.626,17.696-90.437c1.814-2.271,2.283-5.336,1.234-8.047
			c-1.049-2.71-3.461-4.659-6.331-5.118c-34.911-5.574-63.618-28.489-76.791-61.297C262.341,2.029,259.339,0,256.003,0
			c-3.337,0-6.338,2.029-7.582,5.127c-13.174,32.808-41.88,55.723-76.791,61.297c-2.87,0.459-5.281,2.408-6.331,5.118
			c-1.049,2.71-0.58,5.775,1.234,8.047c20.601,25.809,27.009,59.157,17.696,90.437c-31.744-7.575-57.421-29.797-69.472-60.543
			c-1.061-2.706-3.479-4.645-6.352-5.092c-2.87-0.445-5.765,0.667-7.598,2.924c-19.021,23.429-47.174,36.868-77.238,36.869
			c-4.731,0-9.521-0.341-14.242-1.015c-3.299-0.472-6.561,1.113-8.23,4.003s-1.412,6.503,0.648,9.129
			c21.826,27.814,27.318,64.132,14.689,97.151c-1.038,2.716-0.556,5.778,1.267,8.042c1.823,2.264,4.713,3.389,7.585,2.954
			c4.99-0.754,10.057-1.136,15.06-1.136c29.741,0,57.701,13.206,76.714,36.232c1.613,1.953,3.949,2.969,6.305,2.969
			c1.767,0,3.545-0.571,5.039-1.744c17.504-13.736,39.36-21.301,61.542-21.301c11.967,0,23.762,2.168,35.074,6.422l22.81,13.169
			v14.231c-27.677,3.977-49.021,27.838-49.021,56.599c0,10.068,2.624,19.529,7.211,27.756
			c-31.093,0.516-56.232,25.953-56.232,57.167c0,31.536,25.656,57.192,57.191,57.192c20.782,0,39.006-11.144,49.021-27.769
			C266.018,500.856,284.242,512,305.024,512c31.536,0,57.191-25.656,57.191-57.191c0-31.214-25.139-56.651-56.232-57.168
			c4.586-8.226,7.21-17.688,7.21-27.756c0-28.761-21.344-52.62-49.021-56.599v-14.231l22.81-13.169
			c11.312-4.254,23.108-6.422,35.074-6.422c22.183,0,44.039,7.566,61.542,21.301c1.495,1.173,3.272,1.744,5.039,1.744
			c2.356,0,4.692-1.015,6.305-2.969c19.013-23.026,46.974-36.232,76.714-36.232c5.002,0,10.07,0.382,15.06,1.136
			c0.432,0.065,0.869,0.098,1.294,0.091c4.488-0.028,8.119-3.675,8.119-8.17c0-1.234-0.273-2.405-0.765-3.454
			c-12.364-32.876-6.814-68.952,14.893-96.614C512.32,153.673,512.577,150.06,510.908,147.169z M125.511,209.565
			c-3.908-2.257-8.904-0.917-11.16,2.99c-2.256,3.908-0.917,8.904,2.99,11.161l68.396,39.488
			c-21.797,0.808-43.138,7.848-61.183,20.144c-21.875-23.211-52.151-36.379-84.207-36.379c-1.575,0-3.157,0.033-4.74,0.097
			c3.86-14.845,4.767-30.4,2.606-45.628c-2.043-14.396-6.819-28.289-14.005-40.917c30.477-0.168,59.219-12.186,80.67-33.404
			c7.452,14.183,17.766,26.709,30.286,36.686c13.364,10.651,28.998,18.24,45.594,22.187c-1.277,17.01,1.209,34.21,7.301,50.177
			c1.69,4.428,3.666,8.733,5.88,12.906L125.511,209.565z M233.175,271.726c-24.221-19.894-37.354-49.121-36.368-79.918
			c27.163,14.544,45.907,40.531,51.026,71.453v16.927L233.175,271.726z M206.981,495.66c-22.526,0-40.851-18.325-40.851-40.851
			c0-22.526,18.325-40.851,40.851-40.851c22.526,0,40.851,18.325,40.851,40.851C247.832,477.334,229.507,495.66,206.981,495.66z
			 M345.875,454.809c0,22.526-18.325,40.851-40.851,40.851c-22.526,0-40.851-18.325-40.851-40.851
			c0-22.526,18.325-40.851,40.851-40.851C327.55,413.957,345.875,432.283,345.875,454.809z M296.854,369.886
			c0,22.526-18.325,40.851-40.851,40.851s-40.851-18.325-40.851-40.851s18.325-40.851,40.851-40.851S296.854,347.36,296.854,369.886
			z M264.172,217.958V73.575c0-4.512-3.658-8.17-8.17-8.17c-4.512,0-8.17,3.658-8.17,8.17v144.384
			c-2.505-4.006-5.245-7.868-8.236-11.545c-10.783-13.259-24.434-24.012-39.805-31.411c4.879-16.346,6.123-33.68,3.582-50.579
			c-2.38-15.838-8.073-31.038-16.635-44.586c14.789-4.08,28.716-11.072,40.826-20.56c11.448-8.97,21.094-20.057,28.439-32.598
			c7.346,12.541,16.991,23.628,28.439,32.598c12.11,9.487,26.037,16.48,40.826,20.56c-8.561,13.548-14.254,28.748-16.637,44.585
			c-2.542,16.899-1.297,34.233,3.582,50.579c-15.37,7.399-29.023,18.153-39.805,31.411
			C269.417,210.091,266.677,213.954,264.172,217.958z M278.83,271.726l-14.657,8.462v-16.927
			c5.119-30.923,23.864-56.909,51.026-71.453C316.184,222.605,303.051,251.832,278.83,271.726z M473.791,201.438
			c-2.161,15.228-1.254,30.783,2.606,45.628c-33.77-1.382-65.996,11.931-88.946,36.282c-18.045-12.297-39.385-19.336-61.182-20.143
			l125.005-72.172c3.908-2.256,5.246-7.253,2.99-11.161c-2.256-3.908-7.253-5.247-11.161-2.99l-125.04,72.192
			c2.216-4.172,4.191-8.476,5.88-12.906c6.091-15.967,8.578-33.167,7.301-50.177c16.595-3.947,32.229-11.536,45.594-22.187
			c12.521-9.979,22.834-22.503,30.286-36.686c21.452,21.22,50.196,33.237,80.67,33.404
			C480.612,173.15,475.835,187.042,473.791,201.438z"/>
	</g>
</g>
<g>
	<g>
		<path d="M97.206,193.224L68.9,176.883c-3.908-2.257-8.904-0.917-11.16,2.99c-2.256,3.908-0.917,8.904,2.99,11.16l28.306,16.342
			c1.286,0.743,2.692,1.096,4.077,1.096c2.824,0,5.57-1.466,7.083-4.086C102.453,200.476,101.114,195.479,97.206,193.224z"/>
	</g>
</g>
<g>
</g>
<g>
</g>
<g>
</g>
<g>
</g>
<g>
</g>
<g>
</g>
<g>
</g>
<g>
</g>
<g>
</g>
<g>
</g>
<g>
</g>
<g>
</g>
<g>
</g>
<g>
</g>
<g>
</g>
</svg>
