<?xml version="1.0" encoding="iso-8859-1"?>
<!-- Generator: Adobe Illustrator 19.0.0, SVG Export Plug-In . SVG Version: 6.00 Build 0)  -->
<svg version="1.1" id="Capa_1" xmlns="http://www.w3.org/2000/svg" xmlns:xlink="http://www.w3.org/1999/xlink" x="0px" y="0px"
	 viewBox="0 0 512 512" style="enable-background:new 0 0 512 512;" xml:space="preserve">
<g>
	<g>
		<path d="M499.853,366.152l-8.68-43.554c-2.36-11.994-13.642-22.701-25.743-24.473l-74.444-13.908
			c-0.247-0.046-0.496-0.081-0.746-0.104c-2.799-0.26-6.62-3.041-7.612-5.528l-20.49-55.763c-0.015-0.042-0.031-0.082-0.046-0.122
			c-1.935-5.018-5-9.709-8.818-13.835h78.111c3.714,0,6.964-2.494,7.925-6.081c0.962-3.587-0.607-7.372-3.822-9.229l-169.271-97.73
			c-2.538-1.466-5.667-1.466-8.205,0c-2.538,1.466-4.102,4.174-4.102,7.105v34.653L96.944,46.961c-2.538-1.466-5.667-1.466-8.205,0
			c-2.538,1.466-4.102,4.174-4.102,7.105v113.775c0,4.531,3.673,8.205,8.205,8.205c4.532,0,8.205-3.674,8.205-8.205V68.277
			l156.966,90.624c2.538,1.466,5.667,1.466,8.205,0c2.538-1.466,4.102-4.174,4.102-7.105v-34.653l130.446,75.313H8.205
			c-4.532,0-8.205,3.674-8.205,8.205c0,4.531,3.673,8.205,8.205,8.205h108.671l-32.96,66.131l-35.752,13.91
			c-20.209,7.534-36.109,30.304-36.209,51.906v25.408C4.955,369.07,0,375.939,0,383.953v19.692c0,10.556,8.589,19.145,19.145,19.145
			h32.297c8.057,25.115,31.622,43.349,59.374,43.349c27.761,0,51.335-18.234,59.395-43.349h171.579
			c8.059,25.115,31.633,43.349,59.395,43.349c27.752,0,51.317-18.234,59.374-43.349h32.297c10.556,0,19.145-8.589,19.145-19.145
			v-19.692C512,375.868,506.955,368.954,499.853,366.152z M48.469,403.781c0,0.872,0.031,1.736,0.066,2.598h-29.39
			c-1.482,0-2.735-1.253-2.735-2.735v-19.692c0-1.482,1.253-2.735,2.735-2.735h33.566C49.983,388.221,48.469,395.825,48.469,403.781
			z M110.816,449.729c-25.329,0-45.937-20.612-45.937-45.948c0-9.391,2.837-18.13,7.691-25.413c0.376-0.437,0.712-0.909,0.991-1.418
			c8.35-11.567,21.935-19.116,37.256-19.116c25.341,0,45.958,20.612,45.958,45.948S136.157,449.729,110.816,449.729z
			 M401.184,449.729c-25.341,0-45.958-20.612-45.958-45.948s20.617-45.948,45.958-45.948c25.329,0,45.937,20.612,45.937,45.948
			S426.513,449.729,401.184,449.729z M492.855,406.38h-29.39c0.035-0.863,0.066-1.727,0.066-2.598
			c0-34.384-27.968-62.357-62.346-62.357c-34.391,0-62.368,27.973-62.368,62.357c0,0.872,0.031,1.736,0.066,2.598H173.117
			c0.035-0.863,0.066-1.727,0.066-2.598c0-34.384-27.978-62.357-62.368-62.357c-19.643,0-37.183,9.141-48.618,23.384H28.367v-23.957
			c0.068-14.712,11.778-31.465,25.571-36.583c0.04-0.015,0.08-0.03,0.12-0.046l37.328-14.524H339.69
			c4.532,0,8.205-3.674,8.205-8.205c0-4.531-3.673-8.205-8.205-8.205h-79.489V233.48c0-4.531-3.673-8.205-8.205-8.205
			c-4.532,0-8.205,3.674-8.205,8.205v39.808H103.104l32.109-64.423h182.801c11.25,0,24.666,9.192,28.747,19.684l20.495,55.774
			c0.015,0.042,0.031,0.082,0.046,0.122c3.146,8.157,12.118,14.953,20.996,15.964l74.295,13.881
			c0.129,0.024,0.258,0.045,0.388,0.063c5.296,0.729,11.059,6.168,12.095,11.433l7.777,39.023h-0.508
			c-4.532,0-8.205,3.674-8.205,8.205s3.672,8.205,8.205,8.205h10.464c1.533,0.005,2.78,1.255,2.78,2.735v19.691h0.001
			C495.59,405.127,494.338,406.38,492.855,406.38z"/>
	</g>
</g>
<g>
</g>
<g>
</g>
<g>
</g>
<g>
</g>
<g>
</g>
<g>
</g>
<g>
</g>
<g>
</g>
<g>
</g>
<g>
</g>
<g>
</g>
<g>
</g>
<g>
</g>
<g>
</g>
<g>
</g>
</svg>
