<?xml version="1.0" encoding="iso-8859-1"?>
<!-- Generator: Adobe Illustrator 19.0.0, SVG Export Plug-In . SVG Version: 6.00 Build 0)  -->
<svg version="1.1" id="Capa_1" xmlns="http://www.w3.org/2000/svg" xmlns:xlink="http://www.w3.org/1999/xlink" x="0px" y="0px"
	 viewBox="0 0 512 512" style="enable-background:new 0 0 512 512;" xml:space="preserve">
<g>
	<g>
		<path d="M256,194.128c-13.516,0-24.511,10.995-24.511,24.511c0,13.516,10.995,24.511,24.511,24.511
			c13.515,0,24.511-10.995,24.511-24.511C280.511,205.122,269.515,194.128,256,194.128z M256,226.808c-4.506,0-8.17-3.665-8.17-8.17
			s3.665-8.17,8.17-8.17s8.17,3.665,8.17,8.17S260.506,226.808,256,226.808z"/>
	</g>
</g>
<g>
	<g>
		<path d="M256,259.489c-13.516,0-24.511,10.995-24.511,24.511S242.484,308.51,256,308.51c13.515,0,24.511-10.995,24.511-24.511
			S269.515,259.489,256,259.489z M256,292.17c-4.506,0-8.17-3.665-8.17-8.17c0-4.506,3.665-8.17,8.17-8.17s8.17,3.665,8.17,8.17
			C264.17,288.505,260.506,292.17,256,292.17z"/>
	</g>
</g>
<g>
	<g>
		<path d="M276.711,102.968c-4.248-1.51-8.923,0.71-10.434,4.962c-1.543,4.337-5.672,7.252-10.277,7.252s-8.734-2.914-10.276-7.252
			c-1.511-4.252-6.184-6.471-10.435-4.962c-4.252,1.512-6.473,6.183-4.962,10.435c3.853,10.837,14.169,18.118,25.673,18.118
			s21.82-7.281,25.672-18.118C283.184,109.151,280.963,104.48,276.711,102.968z"/>
	</g>
</g>
<g>
	<g>
		<path d="M465.749,188.677c-4.953-28.098-31.841-46.922-59.944-41.973l-16.087,2.837c-0.009,0.001-51.205,9.03-51.205,9.03
			c11.774-16.791,18.253-36.925,18.253-57.805C356.766,45.203,311.563,0,256,0c-55.563,0-100.766,45.203-100.766,100.766
			c0,20.88,6.479,41.013,18.254,57.805l-51.196-9.028c-0.011-0.002-16.097-2.839-16.097-2.839
			c-13.609-2.4-27.342,0.644-38.665,8.572c-11.323,7.928-18.88,19.789-21.28,33.401s0.644,27.343,8.572,38.665
			c7.928,11.322,19.79,18.879,33.402,21.28l16.086,2.837c0.014,0.002,36.362,6.412,36.362,6.412l-11.048,71.571
			c-0.688,4.459,2.368,8.632,6.828,9.321c4.465,0.695,8.633-2.368,9.321-6.828l12.268-79.474c0.679-4.392-2.279-8.521-6.656-9.292
			l-36.185-6.38l12.296-69.732l66.465,11.719c3.619,0.636,7.216-1.217,8.795-4.533c1.58-3.316,0.751-7.279-2.023-9.685
			c-18.531-16.072-29.159-39.323-29.159-63.79c0-46.552,37.874-84.426,84.426-84.426s84.426,37.874,84.426,84.426
			c0,24.467-10.628,47.717-29.158,63.788c-2.775,2.406-3.603,6.37-2.023,9.686c1.58,3.315,5.168,5.17,8.796,4.533l66.464-11.719
			l12.296,69.732l-36.186,6.38c-4.377,0.771-7.332,4.901-6.655,9.292l22.784,147.587c-4.047,1.803-6.685,4.162-8.805,6.068
			c-2.65,2.384-4.109,3.696-8.289,4.341c-4.179,0.645-5.968-0.167-9.212-1.638c-3.995-1.814-9.463-4.298-18.458-2.907
			c-8.992,1.388-13.459,5.405-16.723,8.338c-2.651,2.383-4.111,3.696-8.292,4.341c-4.18,0.644-5.969-0.166-9.215-1.638
			c-2.596-1.178-5.823-2.632-10.225-3.13l-9.082-58.848c-1.719-11.141-11.157-19.226-22.442-19.226
			c-11.285,0-20.723,8.086-22.442,19.226l-9.082,58.848c-4.401,0.499-7.629,1.953-10.225,3.13c-3.246,1.473-5.034,2.283-9.215,1.638
			c-4.18-0.646-5.641-1.958-8.291-4.341c-3.263-2.933-7.731-6.95-16.724-8.338c-8.989-1.386-14.462,1.095-18.457,2.907
			c-3.245,1.473-5.032,2.283-9.213,1.638c-4.179-0.645-5.639-1.958-8.289-4.341c-2.12-1.905-4.757-4.266-8.805-6.068l5.529-35.815
			c0.688-4.459-2.368-8.632-6.828-9.321c-4.458-0.69-8.632,2.369-9.321,6.828l-12.273,79.496c-0.468,3.087-0.706,6.213-0.706,9.29
			c0,33.898,27.577,61.476,61.475,61.476c14.767,0,29.045-5.314,40.201-14.965c11.039-9.548,18.337-22.712,20.553-37.068
			l5.644-36.57c0.011-0.07,10.176-65.935,10.176-65.935c0.474-3.065,3.178-5.378,6.292-5.378c3.113,0,5.819,2.313,6.292,5.379
			l10.167,65.881c0.005,0.038,5.652,36.623,5.652,36.623c2.215,14.356,9.513,27.519,20.553,37.068
			C309.821,506.686,324.098,512,338.864,512c33.898,0,61.476-27.577,61.476-61.475c0-3.074-0.237-6.2-0.709-9.312l-28.303-183.344
			l36.35-6.41c0.013-0.002,16.1-2.839,16.1-2.839c13.61-2.4,25.474-9.957,33.401-21.28
			C465.105,216.02,468.149,202.289,465.749,188.677z M99.108,233.948l-8.046-1.418c-9.313-1.642-17.43-6.813-22.854-14.559
			c-5.424-7.746-7.507-17.142-5.864-26.455c1.642-9.313,6.812-17.43,14.559-22.854c7.745-5.424,17.14-7.509,26.455-5.864
			l8.046,1.418L99.108,233.948z M217.739,457.475c-3.361,21.769-22.536,38.184-44.605,38.184c-24.888,0-45.134-20.247-45.134-45.135
			c0-2.259,0.175-4.561,0.517-6.818l4.012-25.986c0.197,0.175,0.398,0.356,0.609,0.545c3.263,2.934,7.73,6.95,16.722,8.339
			c8.989,1.388,14.462-1.095,18.457-2.908c3.245-1.473,5.031-2.284,9.213-1.638c4.18,0.645,5.641,1.958,8.291,4.341
			c3.263,2.933,7.731,6.95,16.723,8.338c1.831,0.283,3.516,0.405,5.072,0.405c6.086,0,10.205-1.868,13.387-3.312
			c0.261-0.119,0.501-0.225,0.746-0.336L217.739,457.475z M379.469,417.72l4.008,25.964c0.345,2.282,0.522,4.584,0.522,6.84
			c0.001,24.889-20.247,45.135-45.134,45.135c-22.069,0-41.244-16.416-44.604-38.184l-4.01-25.98
			c0.245,0.11,0.484,0.217,0.745,0.336c3.182,1.443,7.3,3.312,13.387,3.312c1.557,0,3.242-0.122,5.072-0.405
			c8.992-1.388,13.459-5.405,16.723-8.338c2.652-2.383,4.111-3.696,8.292-4.341s5.968,0.166,9.212,1.638
			c3.995,1.814,9.465,4.294,18.458,2.908c8.992-1.388,13.458-5.405,16.722-8.339C379.072,418.076,379.272,417.897,379.469,417.72z
			 M420.938,232.53l-8.046,1.418l-12.296-69.732l8.046-1.418c19.216-3.391,37.624,9.493,41.014,28.718
			C453.047,210.741,440.164,229.14,420.938,232.53z"/>
	</g>
</g>
<g>
</g>
<g>
</g>
<g>
</g>
<g>
</g>
<g>
</g>
<g>
</g>
<g>
</g>
<g>
</g>
<g>
</g>
<g>
</g>
<g>
</g>
<g>
</g>
<g>
</g>
<g>
</g>
<g>
</g>
</svg>
