<?xml version="1.0" encoding="iso-8859-1"?>
<!-- Generator: Adobe Illustrator 19.0.0, SVG Export Plug-In . SVG Version: 6.00 Build 0)  -->
<svg version="1.1" id="Capa_1" xmlns="http://www.w3.org/2000/svg" xmlns:xlink="http://www.w3.org/1999/xlink" x="0px" y="0px"
	 viewBox="0 0 512.002 512.002" style="enable-background:new 0 0 512.002 512.002;" xml:space="preserve">
<g>
	<g>
		<path d="M476.933,465.371l-11.554-11.554c-3.191-3.191-8.364-3.191-11.554,0c-3.191,3.191-3.191,8.364,0,11.554l11.554,11.554
			c1.595,1.595,3.686,2.393,5.777,2.393c2.091,0,4.182-0.797,5.777-2.393C480.123,473.734,480.123,468.561,476.933,465.371z"/>
	</g>
</g>
<g>
	<g>
		<path d="M373.474,315.693c-2.147-2.147-5.193-2.843-7.927-2.099c-4.513-7.274-11.935-19.232-21.238-34.211l125.455-125.455
			c4.617-4.617,7.159-10.772,7.159-17.332c0-6.56-2.543-12.715-7.159-17.332L421.62,71.118l50.802-50.802
			c5.31-5.31,13.949-5.31,19.258,0s5.31,13.949,0,19.258l-32.699,32.699c-3.191,3.191-3.191,8.364,0,11.554
			c1.595,1.595,3.687,2.393,5.777,2.393c2.091,0,4.182-0.797,5.777-2.393l32.699-32.699c11.68-11.68,11.68-30.686,0-42.368
			c-11.68-11.682-30.687-11.682-42.368,0l-50.802,50.802l-17.332-17.332c-4.617-4.617-10.772-7.159-17.332-7.159
			c-6.56,0-12.715,2.543-17.332,7.159l-99.457,99.457c-28.08-44.988-47.555-75.994-57.927-92.227
			c-3.833-5.998-8.615-11.879-14.217-17.479C143.877-10.609,74.579-10.61,31.988,31.98c-42.59,42.59-42.59,111.889,0,154.48
			c5.602,5.602,11.482,10.384,17.479,14.215c13.689,8.747,38.079,24.089,72.489,45.599c1.346,0.841,2.843,1.243,4.323,1.243
			c2.723,0,5.386-1.362,6.936-3.84c2.391-3.827,1.229-8.868-2.597-11.259c-34.365-21.482-58.708-36.794-72.354-45.513
			c-5.002-3.196-9.956-7.234-14.722-12.001c-17.545-17.546-27.208-40.873-27.209-65.685c0-16.195,4.141-31.744,11.878-45.479
			c1.406,4.578,3.459,9.699,6.332,15.444c9.381,18.761,25.393,39.939,45.086,59.632c5.322,5.322,10.551,10.205,15.542,14.514
			c14.395,12.426,41.861,36.003,81.677,70.117L42.238,358.06c-4.617,4.617-7.159,10.772-7.159,17.332
			c0,6.56,2.543,12.715,7.159,17.332l17.332,17.332L8.769,460.859c-11.68,11.68-11.68,30.686,0,42.368
			c5.84,5.84,13.512,8.761,21.183,8.761c7.672,0,15.343-2.921,21.183-8.761l33.469-33.469c3.191-3.191,3.191-8.364,0-11.554
			c-3.191-3.191-8.364-3.191-11.554,0l-33.469,33.469c-5.31,5.31-13.949,5.31-19.258,0s-5.31-13.949,0-19.258l50.802-50.802
			l48.145,48.145c4.617,4.617,10.772,7.159,17.332,7.159s12.715-2.543,17.332-7.159l125.456-125.456
			c14.979,9.302,26.937,16.724,34.211,21.238c-0.744,2.735-0.049,5.78,2.099,7.929l126.569,126.569
			c7.716,7.716,17.975,11.966,28.887,11.966s21.171-4.249,28.887-11.965c15.928-15.929,15.928-41.847,0-57.774L373.474,315.693z
			 M353.094,324.519l-1.75,1.75c-5.294-6.191-13.975-16.341-24.858-29.064l5.956-5.956
			C341.832,306.369,349.104,318.089,353.094,324.519z M339.755,337.859l-1.888,1.888c-5.923-5.066-16.11-13.778-29.064-24.859
			l6.093-6.093C325.978,321.75,334.69,331.936,339.755,337.859z M174.914,43.536c4.767,4.766,8.805,9.72,12.001,14.722
			c10.587,16.569,30.711,48.617,59.838,95.289l-23.294,23.294c-34.164-39.876-57.743-67.342-70.118-81.678
			c-4.309-4.992-9.192-10.22-14.514-15.541c-19.693-19.694-40.871-35.705-59.632-45.086c-5.728-2.864-10.835-4.913-15.403-6.318
			C99.171,8.391,144.858,13.479,174.914,43.536z M105.85,140.963c-4.69-4.048-9.624-8.657-14.664-13.699
			C72.701,108.78,57.776,89.11,49.16,71.878c-7.777-15.555-8.364-25.596-5.617-28.344c2.746-2.747,12.787-2.16,28.344,5.617
			c17.232,8.616,36.902,23.541,55.386,42.025c5.041,5.041,9.65,9.974,13.699,14.663c12.46,14.436,36.304,42.212,70.898,82.59
			l-23.43,23.43C148.121,177.318,120.345,153.474,105.85,140.963z M142.379,458.202c-1.531,1.531-3.582,2.373-5.777,2.373
			s-4.246-0.842-5.777-2.373L53.793,381.17c-1.531-1.531-2.373-3.582-2.373-5.777c0-2.195,0.842-4.246,2.373-5.777l315.83-315.83
			c1.531-1.531,3.582-2.373,5.777-2.373s4.246,0.842,5.777,2.373l77.032,77.032c1.531,1.531,2.373,3.582,2.373,5.777
			s-0.842,4.246-2.373,5.777L142.379,458.202z M324.527,353.086c-6.43-3.989-18.149-11.262-33.27-20.652l5.956-5.957
			c12.723,10.883,22.874,19.564,29.064,24.859L324.527,353.086z M488.489,488.48c-4.63,4.63-10.785,7.179-17.332,7.179
			c-6.547,0-12.702-2.549-17.332-7.179L333.033,367.69l34.664-34.664l120.791,120.791
			C498.045,463.373,498.045,478.924,488.489,488.48z"/>
	</g>
</g>
<g>
	<g>
		<path d="M300.723,244.011c-1.168-4.36-5.652-6.943-10.007-5.778l-23.16,6.206l6.206-23.16c1.168-4.359-1.419-8.838-5.778-10.007
			c-4.354-1.168-8.838,1.418-10.007,5.778l-6.205,23.16l-16.954-16.954c-3.191-3.191-8.364-3.191-11.554,0
			c-3.191,3.191-3.191,8.364,0,11.554l16.954,16.954l-23.16,6.205c-4.359,1.168-6.945,5.648-5.778,10.007
			c0.978,3.651,4.279,6.058,7.887,6.058c0.701,0,1.412-0.09,2.12-0.28l23.16-6.206l-6.206,23.16
			c-1.168,4.359,1.419,8.838,5.778,10.007c0.708,0.19,1.419,0.28,2.12,0.28c3.607,0,6.909-2.408,7.887-6.058l6.205-23.16
			l16.954,16.954c1.595,1.595,3.686,2.393,5.777,2.393s4.182-0.797,5.777-2.393c3.191-3.191,3.191-8.364,0-11.554l-16.954-16.954
			l23.16-6.205C299.304,252.85,301.89,248.37,300.723,244.011z"/>
	</g>
</g>
<g>
	<g>
		<path d="M397.133,147.601c-1.168-4.359-5.647-6.943-10.007-5.777l-23.159,6.205l6.205-23.159
			c1.168-4.359-1.418-8.839-5.777-10.007c-4.355-1.163-8.839,1.418-10.007,5.777l-6.206,23.16l-16.954-16.954
			c-3.191-3.191-8.364-3.191-11.554,0c-3.191,3.191-3.191,8.364,0,11.554l16.954,16.954l-23.16,6.206
			c-4.359,1.168-6.945,5.648-5.777,10.007c0.978,3.651,4.279,6.058,7.887,6.058c0.701,0,1.412-0.09,2.12-0.28l23.159-6.205
			L334.65,194.3c-1.168,4.359,1.418,8.839,5.777,10.007c0.708,0.19,1.421,0.28,2.12,0.28c3.607,0,6.909-2.408,7.887-6.058
			l6.206-23.16l16.954,16.954c1.595,1.595,3.686,2.393,5.777,2.393c2.091,0,4.182-0.797,5.777-2.393
			c3.191-3.191,3.191-8.364,0-11.554l-16.954-16.954l23.16-6.206C395.714,156.44,398.3,151.96,397.133,147.601z"/>
	</g>
</g>
<g>
	<g>
		<path d="M204.313,340.419c-1.168-4.359-5.647-6.942-10.007-5.777l-23.159,6.205l6.205-23.159
			c1.168-4.359-1.418-8.839-5.777-10.007c-4.358-1.166-8.839,1.418-10.007,5.777l-6.206,23.16l-16.954-16.954
			c-3.191-3.191-8.364-3.191-11.554,0c-3.191,3.191-3.191,8.364,0,11.554l16.954,16.954l-23.16,6.206
			c-4.359,1.168-6.945,5.648-5.777,10.007c0.978,3.651,4.279,6.058,7.887,6.058c0.7,0,1.412-0.09,2.12-0.28l23.159-6.205
			l-6.205,23.159c-1.168,4.359,1.418,8.839,5.777,10.007c0.708,0.19,1.419,0.28,2.12,0.28c3.607,0,6.909-2.408,7.887-6.058
			l6.206-23.161l16.954,16.954c1.595,1.595,3.687,2.393,5.777,2.393c2.091,0,4.182-0.797,5.777-2.393
			c3.191-3.191,3.191-8.364,0-11.554l-16.954-16.954l23.16-6.206C202.895,349.258,205.481,344.778,204.313,340.419z"/>
	</g>
</g>
<g>
</g>
<g>
</g>
<g>
</g>
<g>
</g>
<g>
</g>
<g>
</g>
<g>
</g>
<g>
</g>
<g>
</g>
<g>
</g>
<g>
</g>
<g>
</g>
<g>
</g>
<g>
</g>
<g>
</g>
</svg>
