<?xml version="1.0" encoding="iso-8859-1"?>
<!-- Generator: Adobe Illustrator 19.0.0, SVG Export Plug-In . SVG Version: 6.00 Build 0)  -->
<svg version="1.1" id="Capa_1" xmlns="http://www.w3.org/2000/svg" xmlns:xlink="http://www.w3.org/1999/xlink" x="0px" y="0px"
	 viewBox="0 0 512 512" style="enable-background:new 0 0 512 512;" xml:space="preserve">
<g>
	<g>
		<path d="M501.106,275.304c0-11.449-4.674-21.827-12.212-29.328C502.57,239.211,512,225.115,512,208.853
			c0-22.826-18.57-41.396-41.396-41.396l-102.701,0.002c18.043-33.177,27.864-74.378,27.864-117.715
			c0-23.056-18.757-41.813-41.813-41.813c-23.056,0-41.813,18.757-41.813,41.813c0,64.908-52.553,117.714-117.149,117.714h-45.755
			c-4.019-30.689-30.32-54.465-62.088-54.465h-24.51C28.099,112.993,0,141.091,0,175.628v265.805
			c0,34.537,28.099,62.635,62.639,62.635h24.51c31.768,0,58.07-23.776,62.088-54.465h288.688c22.826,0,41.396-18.57,41.396-41.396
			c0-11.449-4.674-21.827-12.212-29.328c13.676-6.765,23.105-20.861,23.105-37.123c0-11.449-4.674-21.827-12.212-29.328
			C491.676,305.663,501.106,291.566,501.106,275.304z M428.848,250.249h30.863c13.815,0,25.055,11.24,25.055,25.055
			c0,13.815-11.24,25.055-25.055,25.055h-30.863c-4.512,0-8.17,3.658-8.17,8.17s3.658,8.17,8.17,8.17h19.969
			c13.815,0,25.055,11.24,25.055,25.055c0,13.815-11.24,25.055-25.055,25.055h-19.969c-4.512,0-8.17,3.658-8.17,8.17
			s3.658,8.17,8.17,8.17h9.076c13.815,0,25.055,11.24,25.055,25.055c0,13.815-11.24,25.055-25.055,25.055H149.786V230.095
			c0-4.512-3.658-8.17-8.17-8.17c-4.512,0-8.17,3.658-8.17,8.17v211.337c0,25.527-20.769,46.295-46.298,46.295H62.639
			c-25.529,0-46.298-20.768-46.298-46.295V175.627c0-25.527,20.769-46.295,46.298-46.295h24.51
			c25.529,0,46.298,20.768,46.298,46.295v21.787c0,4.512,3.658,8.17,8.17,8.17c4.512,0,8.17-3.658,8.17-8.17v-13.617h45.204
			c35.782,0,69.352-13.95,94.527-39.281c25.126-25.282,38.963-58.94,38.963-94.773c0-14.046,11.427-25.473,25.473-25.473
			c14.045,0,25.473,11.427,25.473,25.474c0,45.893-11.627,89.016-32.738,121.426c-1.636,2.511-1.766,5.718-0.338,8.352
			c1.429,2.635,4.185,4.277,7.183,4.277l117.07-0.002c13.815,0,25.055,11.24,25.055,25.055c0,13.815-11.24,25.055-25.055,25.055
			h-41.756c-4.512,0-8.17,3.658-8.17,8.17S424.335,250.249,428.848,250.249z"/>
	</g>
</g>
<g>
	<g>
		<path d="M396.167,200.14c-4.512,0-8.17,3.658-8.17,8.17v200.441c0,4.512,3.658,8.17,8.17,8.17s8.17-3.658,8.17-8.17V208.31
			C404.337,203.798,400.679,200.14,396.167,200.14z"/>
	</g>
</g>
<g>
	<g>
		<path d="M98.042,405.48H87.148c-4.512,0-8.17,3.658-8.17,8.17s3.658,8.17,8.17,8.17h10.894c4.512,0,8.17-3.658,8.17-8.17
			S102.554,405.48,98.042,405.48z"/>
	</g>
</g>
<g>
	<g>
		<path d="M62.639,227.921H51.745c-4.512,0-8.17,3.658-8.17,8.17s3.658,8.17,8.17,8.17h10.894c4.512,0,8.17-3.658,8.17-8.17
			S67.151,227.921,62.639,227.921z"/>
	</g>
</g>
<g>
	<g>
		<path d="M94.306,195.24H83.413c-4.512,0-8.17,3.658-8.17,8.17s3.658,8.17,8.17,8.17h10.894c4.512,0,8.17-3.658,8.17-8.17
			S98.819,195.24,94.306,195.24z"/>
	</g>
</g>
<g>
</g>
<g>
</g>
<g>
</g>
<g>
</g>
<g>
</g>
<g>
</g>
<g>
</g>
<g>
</g>
<g>
</g>
<g>
</g>
<g>
</g>
<g>
</g>
<g>
</g>
<g>
</g>
<g>
</g>
</svg>
