<?xml version="1.0" encoding="iso-8859-1"?>
<!-- Generator: Adobe Illustrator 19.0.0, SVG Export Plug-In . SVG Version: 6.00 Build 0)  -->
<svg version="1.1" id="Capa_1" xmlns="http://www.w3.org/2000/svg" xmlns:xlink="http://www.w3.org/1999/xlink" x="0px" y="0px"
	 viewBox="0 0 512 512" style="enable-background:new 0 0 512 512;" xml:space="preserve">
<g>
	<g>
		<path d="M373.47,114.019c-13.515,0-24.511,10.995-24.511,24.511s10.996,24.511,24.511,24.511
			c13.515,0,24.511-10.995,24.511-24.511S386.985,114.019,373.47,114.019z M373.47,146.7c-4.506,0-8.17-3.665-8.17-8.17
			s3.665-8.17,8.17-8.17c4.506,0,8.17,3.665,8.17,8.17S377.976,146.7,373.47,146.7z"/>
	</g>
</g>
<g>
	<g>
		<path d="M138.53,114.02c-13.515,0-24.511,10.995-24.511,24.511c0,13.516,10.996,24.511,24.511,24.511
			c13.515,0,24.511-10.995,24.511-24.511C163.04,125.015,152.044,114.02,138.53,114.02z M138.53,146.701
			c-4.506,0-8.17-3.665-8.17-8.17s3.665-8.17,8.17-8.17s8.17,3.665,8.17,8.17S143.035,146.701,138.53,146.701z"/>
	</g>
</g>
<g>
	<g>
		<path d="M138.531,348.96c-13.515,0-24.511,10.995-24.511,24.511c0,13.516,10.996,24.511,24.511,24.511
			c13.515,0,24.511-10.995,24.511-24.511C163.041,359.955,152.045,348.96,138.531,348.96z M138.531,381.64
			c-4.506,0-8.17-3.665-8.17-8.17c0-4.506,3.665-8.17,8.17-8.17s8.17,3.665,8.17,8.17
			C146.701,377.976,143.036,381.64,138.531,381.64z"/>
	</g>
</g>
<g>
	<g>
		<path d="M373.47,348.958c-13.515,0-24.511,10.995-24.511,24.511c0,13.516,10.996,24.511,24.511,24.511
			c13.515,0,24.511-10.995,24.511-24.511C397.981,359.953,386.985,348.958,373.47,348.958z M373.47,381.639
			c-4.506,0-8.17-3.665-8.17-8.17c0-4.506,3.665-8.17,8.17-8.17c4.506,0,8.17,3.665,8.17,8.17
			C381.64,377.975,377.976,381.639,373.47,381.639z"/>
	</g>
</g>
<g>
	<g>
		<path d="M437.123,219.89c-0.102-0.221-0.211-0.441-0.336-0.656c-0.118-0.204-0.247-0.395-0.378-0.585
			c-12.814-21.635-36.386-36.18-63.303-36.18c-4.513-0.001-8.17,3.657-8.17,8.169v130.723c0,4.512,3.657,8.17,8.17,8.17
			c26.98,0,50.599-14.616,63.392-36.336c0.096-0.144,0.202-0.279,0.289-0.43c0.122-0.211,0.229-0.428,0.33-0.646
			c6.048-10.677,9.521-22.997,9.521-36.12C446.638,242.881,443.169,230.564,437.123,219.89z M381.277,199.391
			c14.841,2.131,27.855,9.987,36.739,21.246l-36.739,21.212V199.391z M381.277,312.61v-42.459l36.74,21.211
			C409.132,302.62,396.118,310.478,381.277,312.61z M426.203,277.221L389.447,256l36.756-21.221
			c2.634,6.566,4.095,13.724,4.095,21.221C430.298,263.496,428.837,270.654,426.203,277.221z"/>
	</g>
</g>
<g>
	<g>
		<path d="M307.994,86.898C294.105,73.01,275.64,65.362,256,65.362c-13.122,0-25.443,3.472-36.12,9.521
			c-0.218,0.101-0.434,0.208-0.646,0.33c-0.2,0.115-0.389,0.243-0.576,0.373c-21.64,12.813-36.19,36.388-36.19,63.308
			c0,4.512,3.657,8.17,8.17,8.17h130.723c4.513,0,8.17-3.658,8.17-8.17C329.532,119.252,321.884,100.787,307.994,86.898z
			 M199.39,130.723c2.132-14.841,9.988-27.855,21.247-36.739l21.212,36.739H199.39z M234.779,85.797
			c6.566-2.634,13.725-4.095,21.221-4.095c7.395,0,14.57,1.406,21.236,4.069L256,122.553L234.779,85.797z M270.151,130.723
			l21.223-36.759c1.759,1.39,3.457,2.878,5.067,4.488c8.852,8.852,14.445,20.094,16.176,32.271H270.151z"/>
	</g>
</g>
<g>
	<g>
		<path d="M138.894,182.468c-26.918,0-50.492,14.547-63.306,36.186c-0.131,0.188-0.259,0.379-0.375,0.581
			c-0.122,0.211-0.229,0.428-0.33,0.646c-6.049,10.676-9.521,22.996-9.521,36.119c0,13.119,3.47,25.436,9.516,36.11
			c0.102,0.221,0.211,0.441,0.336,0.656c0.089,0.154,0.195,0.29,0.293,0.436c12.795,21.718,36.41,36.33,63.388,36.33
			c4.513,0,8.17-3.658,8.17-8.17V190.638C147.064,186.126,143.407,182.468,138.894,182.468z M85.797,277.221
			c-2.634-6.566-4.095-13.724-4.095-21.221c0-7.496,1.461-14.654,4.095-21.221L122.553,256L85.797,277.221z M130.723,312.609
			c-14.841-2.131-27.855-9.987-36.739-21.246l36.739-21.212V312.609z M130.723,241.849l-36.74-21.211
			c8.885-11.259,21.898-19.116,36.74-21.248V241.849z"/>
	</g>
</g>
<g>
	<g>
		<path d="M321.362,364.935H190.638v0.001c-4.513,0-8.17,3.658-8.17,8.17c0,19.641,7.648,38.107,21.538,51.995
			S236.36,446.638,256,446.638c13.187,0,25.563-3.507,36.276-9.61c0.163-0.081,0.33-0.149,0.49-0.242
			c0.2-0.115,0.389-0.243,0.576-0.373c21.64-12.813,36.19-36.388,36.19-63.308C329.532,368.593,325.875,364.935,321.362,364.935z
			 M215.559,413.548c-8.851-8.852-14.444-20.094-16.175-32.271h42.464l-21.223,36.759
			C218.866,416.646,217.169,415.158,215.559,413.548z M256,430.298c-7.395,0-14.57-1.406-21.236-4.069L256,389.447l21.221,36.756
			C270.655,428.837,263.496,430.298,256,430.298z M291.363,418.015l-21.212-36.739h42.459
			C310.478,396.118,302.621,409.132,291.363,418.015z"/>
	</g>
</g>
<g>
	<g>
		<path d="M430.843,32.681c-13.458,0-26.299,5.616-35.469,15.458c-0.67,0.524-1.27,1.161-1.767,1.907
			c-2.441,3.662-1.544,8.602,2.033,11.169c21.294,15.294,39.846,33.844,55.139,55.138c1.593,2.217,4.097,3.404,6.643,3.404
			c1.557,0,3.13-0.444,4.519-1.368c0.731-0.487,1.358-1.071,1.877-1.724c9.87-9.171,15.502-22.029,15.502-35.508
			C479.319,54.427,457.572,32.681,430.843,32.681z M457.85,98.543c-12.94-16.575-27.817-31.453-44.393-44.393
			c5.141-3.315,11.164-5.129,17.385-5.129c17.721,0,32.136,14.416,32.136,32.136C462.979,87.379,461.165,93.403,457.85,98.543z"/>
	</g>
</g>
<g>
	<g>
		<path d="M116.359,450.784c-21.295-15.294-39.846-33.844-55.139-55.137c-2.576-3.586-7.533-4.477-11.196-2.012
			c-0.716,0.482-1.333,1.058-1.842,1.702c-9.87,9.17-15.501,22.027-15.501,35.505c0,26.731,21.747,48.477,48.477,48.477
			c13.461,0,26.304-5.617,35.473-15.464c0.666-0.522,1.263-1.158,1.757-1.899C120.834,458.294,119.937,453.353,116.359,450.784z
			 M81.157,462.979c-17.721,0-32.136-14.416-32.136-32.136c0-6.22,1.814-12.245,5.128-17.384
			c12.942,16.576,27.817,31.452,44.394,44.393C93.402,461.165,87.379,462.979,81.157,462.979z"/>
	</g>
</g>
<g>
	<g>
		<path d="M512,81.157C512,36.406,475.592,0,430.843,0c-23.37,0-45.029,9.742-60.415,26.954C335.115,9.301,295.705,0,256,0
			C187.62,0,123.333,26.628,74.981,74.981S0,187.62,0,256c0,39.707,9.301,79.116,26.954,114.428C9.743,385.815,0,407.472,0,430.843
			C0,475.594,36.408,512,81.157,512c23.37,0,45.029-9.742,60.415-26.954C176.885,502.699,216.295,512,256,512
			c68.38,0,132.667-26.628,181.019-74.981C485.372,388.668,512,324.38,512,256c0-39.705-9.301-79.115-26.954-114.428
			C502.258,126.185,512,104.528,512,81.157z M495.66,256c0,132.149-107.51,239.66-239.66,239.66
			c-39.331,0-78.349-9.745-112.833-28.183c-1.226-0.656-2.544-0.967-3.845-0.967c-2.831,0-5.578,1.475-7.086,4.094
			c-0.088,0.154-0.171,0.308-0.248,0.465c-12.384,15.65-30.821,24.591-50.83,24.591c-35.741,0-64.817-29.076-64.817-64.817
			c0-20.007,8.943-38.446,24.592-50.831c0.162-0.081,0.324-0.167,0.482-0.258c3.811-2.207,5.186-7.038,3.109-10.922
			C26.086,334.35,16.34,295.334,16.34,256c0-132.149,107.51-239.66,239.66-239.66c39.331,0,78.349,9.745,112.833,28.184
			c3.891,2.081,8.73,0.698,10.932-3.126c0.088-0.154,0.171-0.308,0.249-0.465c12.383-15.65,30.821-24.592,50.828-24.592
			c35.741,0,64.817,29.076,64.817,64.817c0,20.009-8.943,38.447-24.596,50.832c-0.155,0.076-0.307,0.159-0.459,0.246
			c-3.825,2.202-5.21,7.042-3.13,10.934C485.914,177.651,495.66,216.669,495.66,256z"/>
	</g>
</g>
<g>
	<g>
		<path d="M291.404,179.745c-9.694,0-18.982,2.385-27.234,6.874v-15.044c0-4.512-3.657-8.17-8.17-8.17
			c-4.513,0-8.17,3.658-8.17,8.17v15.044c-8.252-4.489-17.54-6.874-27.234-6.874c-31.535,0-57.192,25.656-57.192,57.191
			c0,7.299,1.372,14.432,4.076,21.202l25.174,63.038c6.655,16.656,22.54,27.419,40.469,27.419c8.11,0,16.036-2.275,22.877-6.495
			c6.839,4.22,14.765,6.495,22.877,6.495c17.929,0,33.814-10.763,40.468-27.42l25.174-63.036c2.706-6.771,4.077-13.905,4.077-21.203
			C348.596,205.4,322.939,179.745,291.404,179.745z M329.345,252.077l-25.174,63.036c-4.16,10.414-14.089,17.142-25.294,17.142
			c-6.435,0-12.685-2.292-17.592-6.454c-1.524-1.292-3.404-1.938-5.285-1.938c-1.88,0-3.759,0.646-5.283,1.938
			c-4.91,4.162-11.158,6.454-17.593,6.454c-11.205,0-21.134-6.728-25.294-17.14l-25.174-63.038
			c-1.931-4.835-2.911-9.928-2.911-15.14c0-22.527,18.325-40.852,40.851-40.852c11.237,0,21.715,4.481,29.502,12.616
			c0.021,0.022,0.044,0.039,0.064,0.06c0.109,0.111,0.224,0.216,0.34,0.32c0.083,0.076,0.164,0.155,0.251,0.228
			c0.133,0.112,0.273,0.215,0.413,0.317c0.074,0.055,0.146,0.113,0.222,0.166c0.183,0.125,0.373,0.24,0.566,0.35
			c0.038,0.022,0.074,0.047,0.112,0.069c1.168,0.643,2.508,1.011,3.936,1.011c1.428,0,2.768-0.368,3.936-1.011
			c0.038-0.021,0.074-0.046,0.112-0.069c0.193-0.11,0.383-0.224,0.566-0.35c0.076-0.052,0.147-0.111,0.222-0.166
			c0.139-0.103,0.28-0.206,0.413-0.317c0.086-0.072,0.167-0.151,0.251-0.228c0.115-0.105,0.231-0.209,0.34-0.32
			c0.021-0.021,0.044-0.039,0.064-0.06c7.782-8.135,18.261-12.616,29.498-12.616c22.526,0,40.851,18.325,40.851,40.851
			C332.255,242.149,331.277,247.243,329.345,252.077z"/>
	</g>
</g>
<g>
	<g>
		<path d="M256,32.681c-56.602,0-110.627,21.295-152.122,59.961c-41.279,38.466-66.338,90.46-70.558,146.403
			c-0.34,4.499,3.033,8.422,7.532,8.762c4.515,0.341,8.422-3.033,8.762-7.532C57.707,133.03,148.361,49.021,256,49.021
			c114.129,0,206.979,92.85,206.979,206.979c0,49.38-17.758,97.231-50,134.741c-2.941,3.422-2.552,8.58,0.87,11.522
			c1.541,1.326,3.436,1.975,5.323,1.975c2.297,0,4.583-0.965,6.198-2.844c34.789-40.473,53.948-92.108,53.948-145.394
			C479.319,132.861,379.138,32.681,256,32.681z"/>
	</g>
</g>
<g>
	<g>
		<path d="M402.262,413.849c-2.943-3.423-8.103-3.81-11.521-0.869c-37.509,32.243-85.361,50-134.741,50
			c-107.639,0-198.293-84.008-206.385-191.253c-0.34-4.499-4.256-7.862-8.762-7.533c-4.499,0.34-7.872,4.263-7.532,8.762
			c4.22,55.943,29.279,107.937,70.558,146.403c41.494,38.667,95.519,59.962,152.121,59.962c53.286,0,104.921-19.159,145.392-53.948
			C404.814,422.429,405.203,417.27,402.262,413.849z"/>
	</g>
</g>
<g>
</g>
<g>
</g>
<g>
</g>
<g>
</g>
<g>
</g>
<g>
</g>
<g>
</g>
<g>
</g>
<g>
</g>
<g>
</g>
<g>
</g>
<g>
</g>
<g>
</g>
<g>
</g>
<g>
</g>
</svg>
