<?xml version="1.0" encoding="iso-8859-1"?>
<!-- Generator: Adobe Illustrator 19.0.0, SVG Export Plug-In . SVG Version: 6.00 Build 0)  -->
<svg version="1.1" id="Capa_1" xmlns="http://www.w3.org/2000/svg" xmlns:xlink="http://www.w3.org/1999/xlink" x="0px" y="0px"
	 viewBox="0 0 512 512" style="enable-background:new 0 0 512 512;" xml:space="preserve">
<g>
	<g>
		<path d="M356.766,32.681H155.234c-4.513,0-8.17,3.658-8.17,8.17s3.657,8.17,8.17,8.17h201.532c4.513,0,8.17-3.658,8.17-8.17
			S361.279,32.681,356.766,32.681z"/>
	</g>
</g>
<g>
	<g>
		<path d="M443.915,294.128c4.513,0,8.17-3.658,8.17-8.17v-119.83c0-22.742-16.482-41.706-38.128-45.576v-17.063h2.723
			c4.513,0,8.17-3.658,8.17-8.17s-3.657-8.17-8.17-8.17h-2.723V57.192c0-10.652-6.83-19.739-16.34-23.111v-9.57
			C397.617,10.995,386.621,0,373.106,0H138.894c-13.515,0-24.511,10.995-24.511,24.511v9.57c-9.51,3.372-16.34,12.459-16.34,23.111
			v29.957h-2.723c-4.513,0-8.17,3.658-8.17,8.17s3.657,8.17,8.17,8.17h2.723v17.063c-21.646,3.87-38.128,22.834-38.128,45.576
			v272.34c0,40.546,32.986,73.532,73.532,73.532h245.106c40.546,0,73.532-32.986,73.532-73.532v-119.83
			c0-4.512-3.657-8.17-8.17-8.17c-4.513,0-8.17,3.658-8.17,8.17v119.83c0,31.536-25.657,57.191-57.191,57.191H133.447
			c-31.535,0-57.192-25.656-57.192-57.191v-272.34c0-16.519,13.439-29.957,29.957-29.957c4.513,0,8.17-3.658,8.17-8.17v-24.511
			h283.234V128c0,4.512,3.657,8.17,8.17,8.17c16.518,0,29.957,13.438,29.957,29.957v119.83
			C435.745,290.47,439.402,294.128,443.915,294.128z M397.617,87.149H114.383V57.192c0-4.506,3.665-8.17,8.17-8.17
			c4.513,0,8.17-3.658,8.17-8.17v-16.34c0-4.506,3.665-8.17,8.17-8.17h234.213c4.506,0,8.17,3.665,8.17,8.17v16.34
			c0,4.512,3.657,8.17,8.17,8.17c4.506,0,8.17,3.665,8.17,8.17V87.149z"/>
	</g>
</g>
<g>
	<g>
		<path d="M256,264.17c-28.531,0-51.745,23.213-51.745,51.745S227.469,367.66,256,367.66s51.745-23.213,51.745-51.745
			S284.531,264.17,256,264.17z M256,351.319c-19.522,0-35.404-15.883-35.404-35.404c0-19.521,15.882-35.404,35.404-35.404
			s35.404,15.883,35.404,35.404C291.404,335.436,275.522,351.319,256,351.319z"/>
	</g>
</g>
<g>
	<g>
		<path d="M397.617,315.915c0-19.59-9.767-37.409-25.884-47.937c3.951-18.842-1.742-38.349-15.594-52.201
			c-10.822-10.821-25.212-16.781-40.518-16.781c-3.94,0-7.847,0.401-11.677,1.195c-10.529-16.124-28.35-25.893-47.944-25.893
			s-37.415,9.769-47.944,25.893c-3.83-0.794-7.737-1.195-11.677-1.195c-15.308,0-29.697,5.96-40.518,16.781
			c-13.851,13.852-19.544,33.358-15.594,52.2c-16.117,10.53-25.884,28.348-25.884,47.938c0,19.59,9.767,37.409,25.884,47.938
			c-3.95,18.842,1.743,38.348,15.594,52.2c10.822,10.822,25.211,16.781,40.518,16.781c3.94,0,7.847-0.401,11.677-1.195
			c10.529,16.124,28.35,25.893,47.944,25.893s37.415-9.769,47.944-25.893c3.829,0.794,7.737,1.194,11.676,1.195
			c15.308,0,29.698-5.96,40.52-16.781c13.852-13.852,19.545-33.358,15.593-52.2C387.85,353.324,397.617,335.505,397.617,315.915z
			 M358.563,352.599c-3.642,1.818-5.389,6.038-4.1,9.898c4.961,14.852,1.175,30.947-9.878,42
			c-7.737,7.736-18.022,11.995-28.965,11.995c-4.449,0-8.835-0.712-13.037-2.116c-3.859-1.291-8.081,0.46-9.898,4.1
			c-6.994,14.011-21.05,22.714-36.684,22.714s-29.691-8.703-36.685-22.714c-1.415-2.834-4.287-4.522-7.311-4.522
			c-0.859,0-1.733,0.136-2.587,0.422c-4.203,1.404-8.59,2.116-13.037,2.116c-10.943,0-21.228-4.26-28.963-11.995
			c-11.055-11.055-14.84-27.148-9.88-42.001c1.29-3.86-0.459-8.08-4.1-9.898c-14.009-6.993-22.712-21.05-22.712-36.683
			c0-15.633,8.703-29.691,22.713-36.684c3.642-1.818,5.389-6.038,4.1-9.898c-4.96-14.852-1.174-30.947,9.88-42.001
			c7.734-7.734,18.02-11.995,28.963-11.995c4.448,0,8.834,0.712,13.037,2.116c3.861,1.291,8.081-0.46,9.898-4.1
			c6.994-14.01,21.05-22.713,36.684-22.713s29.691,8.703,36.685,22.714c1.817,3.641,6.039,5.389,9.898,4.1
			c4.203-1.404,8.59-2.116,13.037-2.116c10.943,0,21.228,4.26,28.964,11.995c11.055,11.055,14.84,27.148,9.879,42.001
			c-1.29,3.86,0.459,8.08,4.1,9.898c14.009,6.993,22.712,21.05,22.712,36.683C381.277,331.548,372.574,345.605,358.563,352.599z"/>
	</g>
</g>
<g>
</g>
<g>
</g>
<g>
</g>
<g>
</g>
<g>
</g>
<g>
</g>
<g>
</g>
<g>
</g>
<g>
</g>
<g>
</g>
<g>
</g>
<g>
</g>
<g>
</g>
<g>
</g>
<g>
</g>
</svg>
