<?xml version="1.0" encoding="iso-8859-1"?>
<!-- Generator: Adobe Illustrator 19.0.0, SVG Export Plug-In . SVG Version: 6.00 Build 0)  -->
<svg version="1.1" id="Capa_1" xmlns="http://www.w3.org/2000/svg" xmlns:xlink="http://www.w3.org/1999/xlink" x="0px" y="0px"
	 viewBox="0 0 512 512" style="enable-background:new 0 0 512 512;" xml:space="preserve">
<g>
	<g>
		<path d="M326.52,287.975l-49.465-96.414c5.493-5.434,8.902-12.968,8.902-21.286c0-16.519-13.439-29.957-29.957-29.957
			c-16.519,0-29.957,13.438-29.957,29.957c0,8.317,3.41,15.852,8.902,21.286l-49.465,96.414
			c-17.012,2.518-30.111,17.213-30.111,34.915c0,19.463,15.835,35.298,35.298,35.298h130.665c19.463,0,35.298-15.835,35.298-35.298
			C356.631,305.188,343.533,290.492,326.52,287.975z M256,156.658c7.509,0,13.617,6.108,13.617,13.617s-6.108,13.617-13.617,13.617
			s-13.617-6.108-13.617-13.617S248.491,156.658,256,156.658z M249.258,199.457c2.169,0.501,4.424,0.774,6.742,0.774
			c2.318,0,4.573-0.273,6.741-0.775l45.217,88.133H204.041L249.258,199.457z M321.333,341.848H190.667
			c-10.453,0-18.958-8.505-18.958-18.958c0-10.448,8.495-18.948,18.94-18.958c0.035-0.001,130.666-0.001,130.666-0.001
			c10.481,0.011,18.975,8.511,18.975,18.959C340.291,333.343,331.786,341.848,321.333,341.848z"/>
	</g>
</g>
<g>
	<g>
		<path d="M494.201,140.228l-78.123-78.124c-9.59-9.589-27.483-19.265-40.777-22.054l-54.269-12.265
			c-3.283-0.743-6.688,0.606-8.571,3.396C299.761,49.98,278.654,61.204,256,61.204c-22.287,0-43.202-10.941-55.944-29.269
			c-1.87-2.69-5.168-4.002-8.374-3.335l-54.913,11.435c-13.299,2.769-31.242,12.463-40.847,22.069l-78.124,78.123
			C7.818,150.208,0,169.083,0,183.199v159.994c0,10.652,6.831,19.733,16.34,23.105v25.916c0,4.512,3.658,8.17,8.17,8.17h43.574
			c4.512,0,8.17-3.658,8.17-8.17v-25.916c9.509-3.373,16.34-12.453,16.34-23.105V196.381l16.34-16.34v247.185
			c0,10.652,6.831,19.733,16.34,23.105v25.916c0,4.512,3.658,8.17,8.17,8.17h245.109c4.513,0,8.17-3.658,8.17-8.17v-25.916
			c9.509-3.373,16.34-12.453,16.34-23.105V180.041l16.34,16.34v146.811c0,10.651,6.831,19.733,16.34,23.105v25.916
			c0,4.512,3.657,8.17,8.17,8.17h43.574c4.513,0,8.17-3.658,8.17-8.17v-25.916c9.509-3.373,16.34-12.453,16.34-23.105V183.199
			C512,169.083,504.182,150.209,494.201,140.228z M189.913,45.66c15.968,20.06,40.283,31.883,66.087,31.883
			c26.197,0,50.724-12.101,66.679-32.635l17.266,3.903C321.346,76.856,290.07,93.884,256,93.884
			c-33.839,0-64.965-16.836-83.608-44.575L189.913,45.66z M59.914,384.043H32.681v-16.34h27.234V384.043z M479.319,384.043h-27.234
			v-16.34h27.234V384.043z M495.66,343.192L495.66,343.192c0,4.505-3.665,8.17-8.17,8.17h-43.574c-4.505,0-8.17-3.666-8.17-8.17
			V146.778c0-4.512-3.657-8.17-8.17-8.17s-8.17,3.658-8.17,8.17v26.493l-18.733-18.732c-2.338-2.338-5.852-3.036-8.904-1.771
			c-3.053,1.265-5.044,4.244-5.044,7.548v266.91c0,4.506-3.665,8.17-8.17,8.17l-179.745-0.001c-4.512,0-8.17,3.658-8.17,8.17
			s3.658,8.17,8.17,8.17l171.575,0.001v16.34H141.616v-16.34l24.513-0.001c4.513,0,8.17-3.658,8.17-8.17
			c0-4.513-3.658-8.17-8.17-8.17l-32.683,0.001c-4.506,0-8.17-3.665-8.17-8.17V160.317c0-3.305-1.99-6.283-5.044-7.548
			c-3.051-1.264-6.568-0.565-8.903,1.771l-18.734,18.732v-26.494c0-4.512-3.658-8.17-8.17-8.17s-8.17,3.658-8.17,8.17v196.413
			c0,4.505-3.666,8.17-8.17,8.17H24.51c-4.506,0-8.17-3.666-8.17-8.17V183.199c0-9.804,6.081-24.484,13.012-31.416l78.124-78.124
			c7.288-7.288,22.533-15.524,32.624-17.627l15.224-3.17c21.113,35.531,59.129,57.362,100.676,57.362
			c41.675,0,79.735-21.919,100.817-57.599l14.947,3.378c0.045,0.01,0.09,0.021,0.135,0.029
			c10.092,2.101,25.336,10.338,32.624,17.627l78.124,78.124c6.932,6.932,13.012,21.612,13.012,31.415V343.192z"/>
	</g>
</g>
<g>
</g>
<g>
</g>
<g>
</g>
<g>
</g>
<g>
</g>
<g>
</g>
<g>
</g>
<g>
</g>
<g>
</g>
<g>
</g>
<g>
</g>
<g>
</g>
<g>
</g>
<g>
</g>
<g>
</g>
</svg>
