<?xml version="1.0" encoding="iso-8859-1"?>
<!-- Generator: Adobe Illustrator 19.0.0, SVG Export Plug-In . SVG Version: 6.00 Build 0)  -->
<svg version="1.1" id="Capa_1" xmlns="http://www.w3.org/2000/svg" xmlns:xlink="http://www.w3.org/1999/xlink" x="0px" y="0px"
	 viewBox="0 0 512 512" style="enable-background:new 0 0 512 512;" xml:space="preserve">
<g>
	<g>
		<path d="M321.362,261.953v-29.504c0-22.526-18.325-40.851-40.851-40.851h-3.117c10.779-14.436,16.734-32.046,16.734-50.459
			c0-24.489-10.344-47.012-27.714-62.706h14.097c4.512,0,8.17-3.658,8.17-8.17s-3.658-8.17-8.17-8.17h-31.973l12.677-51.988
			c0.594-2.436,0.036-5.01-1.513-6.983C258.153,1.151,255.784,0,253.277,0h-87.149c-2.48,0-4.826,1.126-6.377,3.062
			c-1.55,1.936-2.138,4.471-1.596,6.892l11.666,52.139h-30.927c-4.512,0-8.17,3.658-8.17,8.17s3.658,8.17,8.17,8.17h13.637
			c-17.076,15.788-27.254,38.337-27.254,62.705c0,18.412,5.954,36.023,16.733,50.459h-3.116c-22.526,0-40.851,18.325-40.851,40.851
			v29.504c-24.611,27.405-38.128,62.876-38.128,100.259C59.915,444.806,127.109,512,209.702,512
			c82.593,0,149.787-67.194,149.787-149.787C359.489,324.827,345.973,289.357,321.362,261.953z M242.875,16.34l-11.157,45.753
			h-45.154L176.327,16.34H242.875z M141.617,141.139c0-26.835,16.07-51.822,40.14-62.706h54.722
			c25.141,10.75,41.309,35.192,41.309,62.706c0,19.323-8.139,37.545-22.402,50.459h-91.367
			C149.756,178.684,141.617,160.461,141.617,141.139z M114.383,232.449c0-13.516,10.995-24.511,24.511-24.511h21.969
			c0.025,0,0.05,0.003,0.076,0.003c0.02,0,0.039-0.003,0.06-0.003h97.406c0.02,0,0.04,0.003,0.06,0.003
			c0.038-0.003,22.045-0.003,22.045-0.003c13.516,0,24.511,10.995,24.511,24.511v24.511H114.383V232.449z M209.702,495.66
			c-73.583,0-133.447-59.864-133.447-133.447c0-33.138,11.895-64.571,33.562-88.913h59.034v89.872c0,4.512,3.658,8.17,8.17,8.17
			s8.17-3.658,8.17-8.17v-13.617h16.34v13.617c0,4.512,3.658,8.17,8.17,8.17s8.17-3.658,8.17-8.17v-13.617h16.34v13.617
			c0,4.512,3.658,8.17,8.17,8.17s8.17-3.658,8.17-8.17v-65.362c0-4.512-3.658-8.17-8.17-8.17s-8.17,3.658-8.17,8.17v35.404h-49.021
			V273.3h124.395c21.667,24.341,33.562,55.772,33.562,88.913C343.149,435.796,283.285,495.66,209.702,495.66z"/>
	</g>
</g>
<g>
	<g>
		<path d="M230.413,146.703c-4.251-1.509-8.923,0.71-10.435,4.962c-1.543,4.338-5.671,7.252-10.276,7.252s-8.734-2.914-10.276-7.252
			c-1.511-4.252-6.182-6.472-10.435-4.962c-4.252,1.512-6.473,6.183-4.962,10.435c3.853,10.838,14.169,18.119,25.673,18.119
			s21.82-7.281,25.673-18.119C236.886,152.886,234.665,148.215,230.413,146.703z"/>
	</g>
</g>
<g>
	<g>
		<path d="M443.915,62.094h-98.043c-4.512,0-8.17,3.658-8.17,8.17v87.149c0,28.761,21.344,52.621,49.021,56.599V503.83
			c0,4.512,3.658,8.17,8.17,8.17s8.17-3.658,8.17-8.17V214.011c27.677-3.977,49.021-27.838,49.021-56.599V70.263
			C452.085,65.751,448.427,62.094,443.915,62.094z M394.894,198.264c-19.728,0-36.233-14.057-40.029-32.681h80.058
			C431.127,184.206,414.622,198.264,394.894,198.264z M435.745,149.243h-81.702V78.434h16.34v46.298c0,4.512,3.658,8.17,8.17,8.17
			c4.512,0,8.17-3.658,8.17-8.17V78.434h16.34v46.298c0,4.512,3.658,8.17,8.17,8.17c4.512,0,8.17-3.658,8.17-8.17V78.434h16.34
			V149.243z"/>
	</g>
</g>
<g>
</g>
<g>
</g>
<g>
</g>
<g>
</g>
<g>
</g>
<g>
</g>
<g>
</g>
<g>
</g>
<g>
</g>
<g>
</g>
<g>
</g>
<g>
</g>
<g>
</g>
<g>
</g>
<g>
</g>
</svg>
