<?xml version="1.0" encoding="iso-8859-1"?>
<!-- Generator: Adobe Illustrator 19.0.0, SVG Export Plug-In . SVG Version: 6.00 Build 0)  -->
<svg version="1.1" id="Capa_1" xmlns="http://www.w3.org/2000/svg" xmlns:xlink="http://www.w3.org/1999/xlink" x="0px" y="0px"
	 viewBox="0 0 512 512" style="enable-background:new 0 0 512 512;" xml:space="preserve">
<g>
	<g>
		<path d="M350.19,0h-83.518c-4.512,0-8.17,3.658-8.17,8.17V189.51c0,4.512,3.658,8.17,8.17,8.17s8.17-3.658,8.17-8.17V16.34h67.178
			v38.128h-42.667c-4.512,0-8.17,3.658-8.17,8.17s3.658,8.17,8.17,8.17h50.837c4.512,0,8.17-3.658,8.17-8.17V8.17
			C358.36,3.658,354.702,0,350.19,0z"/>
	</g>
</g>
<g>
	<g>
		<path d="M381.276,87.149h-81.923c-4.512,0-8.17,3.658-8.17,8.17s3.658,8.17,8.17,8.17h81.923c47.432,0,86.02,38.588,86.02,86.02
			v50.315c0,18.52-15.068,33.588-33.588,33.588c-18.52,0-33.588-15.068-33.588-33.588c0-4.512-3.658-8.17-8.17-8.17
			s-8.17,3.658-8.17,8.17c0,18.52-15.068,33.588-33.588,33.588c-18.52,0-33.588-15.068-33.588-33.588c0-4.512-3.658-8.17-8.17-8.17
			s-8.17,3.658-8.17,8.17c0,18.52-15.068,33.588-33.588,33.588c-18.52,0-33.588-15.068-33.588-33.588V189.51
			c0-36.034-18.717-67.776-46.938-86.02h47.846c4.512,0,8.17-3.658,8.17-8.17s-3.658-8.17-8.17-8.17h-103.27
			c-56.442,0-102.361,45.919-102.361,102.361v157.436c0,4.512,3.658,8.17,8.17,8.17h180.212V503.83c0,4.512,3.658,8.17,8.17,8.17
			c4.512,0,8.17-3.658,8.17-8.17v-44.125h34.937v44.125c0,4.512,3.658,8.17,8.17,8.17c4.512,0,8.17-3.658,8.17-8.17V355.116h191.106
			c4.512,0,8.17-3.658,8.17-8.17V189.51C483.637,133.068,437.718,87.149,381.276,87.149z M216.743,338.775H44.702V189.51
			c0-47.432,38.588-86.02,86.02-86.02c47.432,0,86.02,38.588,86.02,86.02V338.775z M268.021,443.365h-34.937V407.41h34.937V443.365z
			 M268.022,391.07h-34.937v-35.954h34.937V391.07z M467.294,338.775H233.084v-62.04c8.875,8.084,20.666,13.019,33.588,13.019
			c17.444,0,32.828-8.994,41.758-22.586c8.931,13.592,24.316,22.586,41.759,22.586s32.828-8.994,41.758-22.586
			c8.931,13.592,24.316,22.586,41.759,22.586c12.922,0,24.713-4.936,33.588-13.02V338.775z"/>
	</g>
</g>
<g>
	<g>
		<path d="M130.723,152.511c-4.512,0-8.17,3.658-8.17,8.17v16.34c0,4.512,3.658,8.17,8.17,8.17c4.512,0,8.17-3.658,8.17-8.17v-16.34
			C138.893,156.169,135.235,152.511,130.723,152.511z"/>
	</g>
</g>
<g>
	<g>
		<path d="M130.723,119.83c-38.422,0-69.68,31.258-69.68,69.68v46.038c0,4.512,3.658,8.17,8.17,8.17s8.17-3.658,8.17-8.17V189.51
			c0-29.412,23.928-53.339,53.339-53.339c29.412,0,53.34,23.928,53.34,53.339v116.585H77.383v-37.866c0-4.512-3.658-8.17-8.17-8.17
			s-8.17,3.658-8.17,8.17v46.036c0,4.512,3.658,8.17,8.17,8.17h123.021c4.512,0,8.17-3.658,8.17-8.17V189.51
			C200.403,151.088,169.145,119.83,130.723,119.83z"/>
	</g>
</g>
<g>
</g>
<g>
</g>
<g>
</g>
<g>
</g>
<g>
</g>
<g>
</g>
<g>
</g>
<g>
</g>
<g>
</g>
<g>
</g>
<g>
</g>
<g>
</g>
<g>
</g>
<g>
</g>
<g>
</g>
</svg>
