<?xml version="1.0" encoding="iso-8859-1"?>
<!-- Generator: Adobe Illustrator 19.0.0, SVG Export Plug-In . SVG Version: 6.00 Build 0)  -->
<svg version="1.1" id="Capa_1" xmlns="http://www.w3.org/2000/svg" xmlns:xlink="http://www.w3.org/1999/xlink" x="0px" y="0px"
	 viewBox="0 0 512 512" style="enable-background:new 0 0 512 512;" xml:space="preserve">
<g>
	<g>
		<path d="M499.041,106.187c-0.057-0.153-0.119-0.302-0.185-0.452c-17.405-41.724-50.825-75.155-92.542-92.572
			c-0.15-0.069-0.305-0.13-0.46-0.188C385.68,4.622,363.583,0,340.426,0c-23.141,0-45.222,4.616-65.385,12.958
			c-0.155,0.058-0.307,0.121-0.46,0.188c-41.718,17.403-75.146,50.819-92.563,92.53c-0.072,0.158-0.136,0.32-0.198,0.484
			c-8.349,20.169-12.969,42.261-12.969,65.414c0,23.141,4.616,45.223,12.958,65.385c0.058,0.155,0.12,0.307,0.187,0.459
			c5.503,13.194,12.604,25.563,21.067,36.854L7.18,470.158C2.55,474.787,0,480.942,0,487.489c0,6.547,2.55,12.702,7.179,17.332
			c4.63,4.63,10.785,7.179,17.332,7.179c6.547,0,12.702-2.55,17.332-7.179l195.886-195.885c11.278,8.453,23.63,15.546,36.806,21.048
			c0.153,0.069,0.309,0.131,0.467,0.191c20.173,8.352,42.267,12.974,65.424,12.974c23.082,0,45.11-4.593,65.232-12.895
			c42.04-17.359,75.701-50.903,93.192-92.822c0.072-0.162,0.141-0.326,0.203-0.493c8.336-20.157,12.948-42.23,12.948-65.364
			C512,148.432,507.384,126.35,499.041,106.187z M409.63,32.649c31.487,15.749,56.904,41.887,71.732,73.897
			c-26.217,19.989-45.868,22.759-66.598,25.675c-19.147,2.692-38.834,5.473-63.181,21.099c5.496-24.247,15.82-37.957,26.63-52.306
			C391.002,84.042,404.183,66.545,409.63,32.649z M340.426,16.34c18.86,0,36.944,3.385,53.679,9.572
			c-4.402,32.687-16.34,48.545-28.941,65.269c-11.634,15.442-23.589,31.329-29.756,59.595
			c-13.259-21.031-15.654-38.026-18.155-55.817c-2.961-21.051-6.013-42.751-26.147-70.584
			C306.607,19.167,323.192,16.34,340.426,16.34z M275.397,30.637c19.989,26.217,22.759,45.868,25.675,66.598
			c2.692,19.146,5.473,38.832,21.099,63.181c-24.248-5.497-37.958-15.82-52.306-26.632c-16.972-12.787-34.47-25.967-68.365-31.416
			C217.249,70.883,243.387,45.466,275.397,30.637z M185.192,171.574c0-18.86,3.385-36.942,9.571-53.678
			c32.686,4.402,48.545,16.339,65.269,28.94c15.443,11.634,31.329,23.589,59.596,29.756c-21.031,13.259-38.026,15.653-55.817,18.155
			c-21.05,2.961-42.751,6.014-70.584,26.147C188.018,205.393,185.192,188.808,185.192,171.574z M30.288,493.266
			c-1.543,1.544-3.595,2.393-5.777,2.393c-2.182,0-4.234-0.85-5.778-2.393c-1.543-1.544-2.392-3.595-2.392-5.777
			c0-2.182,0.85-4.233,2.393-5.777L213.52,286.925c3.667,4.031,7.523,7.887,11.555,11.555L30.288,493.266z M271.221,310.5
			c-31.487-15.749-56.904-41.887-71.732-73.897c26.218-19.989,45.868-22.759,66.598-25.675c19.147-2.693,38.834-5.473,63.181-21.1
			c-5.496,24.247-15.82,37.957-26.631,52.306C289.849,259.107,276.668,276.604,271.221,310.5z M405.456,312.511
			c-15.665-20.587-20.515-37.006-23.125-50.485c-0.857-4.429-5.136-7.326-9.576-6.468c-4.429,0.858-7.325,5.145-6.468,9.576
			c2.82,14.561,7.905,32.099,23.464,53.639c-15.503,5.208-32.09,8.036-49.326,8.036c-18.86,0-36.944-3.385-53.679-9.572
			c4.402-32.687,16.34-48.545,28.941-65.269c11.631-15.437,23.581-31.319,29.75-59.57c9.801,15.583,13.436,28.524,15.576,39.5
			c0.76,3.902,4.179,6.609,8.011,6.609c0.519,0,1.044-0.049,1.571-0.152c4.428-0.863,7.32-5.153,6.457-9.582
			c-2.494-12.796-6.745-27.904-18.375-46.041c24.25,5.496,37.961,15.821,52.31,26.632c16.972,12.787,34.47,25.967,68.365,31.416
			C463.603,272.265,437.465,297.682,405.456,312.511z M486.087,225.254c-32.686-4.402-48.545-16.34-65.269-28.94
			c-15.443-11.634-31.329-23.589-59.596-29.756c21.031-13.259,38.026-15.653,55.817-18.155c21.05-2.961,42.751-6.014,70.584-26.147
			c5.207,15.502,8.034,32.086,8.034,49.32C495.66,190.435,492.275,208.518,486.087,225.254z"/>
	</g>
</g>
<g>
</g>
<g>
</g>
<g>
</g>
<g>
</g>
<g>
</g>
<g>
</g>
<g>
</g>
<g>
</g>
<g>
</g>
<g>
</g>
<g>
</g>
<g>
</g>
<g>
</g>
<g>
</g>
<g>
</g>
</svg>
