<?xml version="1.0" encoding="iso-8859-1"?>
<!-- Generator: Adobe Illustrator 19.0.0, SVG Export Plug-In . SVG Version: 6.00 Build 0)  -->
<svg version="1.1" id="Capa_1" xmlns="http://www.w3.org/2000/svg" xmlns:xlink="http://www.w3.org/1999/xlink" x="0px" y="0px"
	 viewBox="0 0 512 512" style="enable-background:new 0 0 512 512;" xml:space="preserve">
<g>
	<g>
		<path d="M438.47,32.681c-4.513,0-8.17,3.658-8.17,8.17v430.298c0,4.512,3.657,8.17,8.17,8.17s8.17-3.658,8.17-8.17V40.851
			C446.641,36.339,442.984,32.681,438.47,32.681z"/>
	</g>
</g>
<g>
	<g>
		<path d="M405.787,0H24.511C10.995,0,0,10.996,0,24.511c0,10.652,6.83,19.738,16.34,23.111v416.757
			C6.83,467.75,0,476.838,0,487.489C0,501.005,10.995,512,24.511,512h381.277c4.513,0,8.17-3.658,8.17-8.17V8.17
			C413.957,3.658,410.3,0,405.787,0z M397.617,495.66H24.511c-4.506,0-8.17-3.665-8.17-8.17c0-4.506,3.665-8.17,8.17-8.17
			c4.512,0,8.17-3.658,8.17-8.17V40.851c0-4.512-3.658-8.17-8.17-8.17c-4.506,0-8.17-3.666-8.17-8.17c0-4.505,3.665-8.17,8.17-8.17
			h373.106V495.66z"/>
	</g>
</g>
<g>
	<g>
		<path d="M503.83,0h-65.362c-4.513,0-8.17,3.658-8.17,8.17s3.657,8.17,8.17,8.17h57.191V495.66h-57.191
			c-4.513,0-8.17,3.658-8.17,8.17s3.657,8.17,8.17,8.17h65.362c4.513,0,8.17-3.658,8.17-8.17V8.17C512,3.658,508.343,0,503.83,0z"/>
	</g>
</g>
<g>
	<g>
		<path d="M297.289,292.075l-59.125-115.242c6.652-6.183,10.824-14.999,10.824-24.776c0-18.659-15.18-33.839-33.839-33.839
			c-18.659,0-33.839,15.18-33.839,33.839c0,9.776,4.172,18.593,10.824,24.776l-59.126,115.242
			c-19.696,2.545-34.965,19.411-34.965,39.789c0,22.129,18.003,40.132,40.132,40.132h153.948c22.129,0,40.133-18.003,40.133-40.132
			C332.255,311.487,316.986,294.62,297.289,292.075z M215.149,134.557c9.648,0,17.498,7.85,17.498,17.498
			s-7.85,17.498-17.498,17.498s-17.498-7.85-17.498-17.498S205.5,134.557,215.149,134.557z M206.435,184.753
			c2.782,0.742,5.702,1.143,8.714,1.143s5.932-0.401,8.714-1.143l54.885,106.979H151.55L206.435,184.753z M292.121,355.656H138.175
			c-13.119,0-23.792-10.672-23.792-23.792c0-13.112,10.66-23.78,23.785-23.792c0.023-0.001,153.937-0.001,153.937-0.001
			c13.149,0.013,23.809,10.681,23.809,23.793C315.914,344.983,305.24,355.656,292.121,355.656z"/>
	</g>
</g>
<g>
	<g>
		<path d="M373.106,65.362c-13.515,0-24.511-10.996-24.511-24.511c0-4.512-3.657-8.17-8.17-8.17H89.872
			c-4.512,0-8.17,3.658-8.17,8.17c0,13.515-10.995,24.511-24.511,24.511c-4.512,0-8.17,3.658-8.17,8.17V239.66
			c0,4.512,3.658,8.17,8.17,8.17c4.512,0,8.17-3.658,8.17-8.17V80.882c15.982-3.258,28.602-15.879,31.861-31.861h235.853
			c3.258,15.982,15.878,28.602,31.861,31.861v350.237c-15.982,3.257-28.602,15.879-31.861,31.861H97.222
			c-3.257-15.982-15.879-28.602-31.861-31.861V272.34c0-4.512-3.658-8.17-8.17-8.17c-4.512,0-8.17,3.658-8.17,8.17v166.128
			c0,4.512,3.658,8.17,8.17,8.17c13.516,0,24.511,10.995,24.511,24.511c0,4.512,3.658,8.17,8.17,8.17h250.553
			c4.513,0,8.17-3.658,8.17-8.17c0-13.516,10.996-24.511,24.511-24.511c4.513,0,8.17-3.658,8.17-8.17V73.532
			C381.277,69.02,377.62,65.362,373.106,65.362z"/>
	</g>
</g>
<g>
	<g>
		<path d="M471.151,32.681c-4.513,0-8.17,3.658-8.17,8.17v430.298c0,4.512,3.657,8.17,8.17,8.17s8.17-3.658,8.17-8.17V40.851
			C479.321,36.339,475.664,32.681,471.151,32.681z"/>
	</g>
</g>
<g>
</g>
<g>
</g>
<g>
</g>
<g>
</g>
<g>
</g>
<g>
</g>
<g>
</g>
<g>
</g>
<g>
</g>
<g>
</g>
<g>
</g>
<g>
</g>
<g>
</g>
<g>
</g>
<g>
</g>
</svg>
