<?xml version="1.0" encoding="iso-8859-1"?>
<!-- Generator: Adobe Illustrator 19.0.0, SVG Export Plug-In . SVG Version: 6.00 Build 0)  -->
<svg version="1.1" id="Capa_1" xmlns="http://www.w3.org/2000/svg" xmlns:xlink="http://www.w3.org/1999/xlink" x="0px" y="0px"
	 viewBox="0 0 512 512" style="enable-background:new 0 0 512 512;" xml:space="preserve">
<g>
	<g>
		<path d="M437.019,74.981C388.668,26.628,324.38,0,256,0S123.332,26.628,74.981,74.981C26.628,123.333,0,187.62,0,256
			s26.628,132.668,74.981,181.019C123.332,485.372,187.62,512,256,512s132.668-26.628,181.019-74.981
			C485.372,388.668,512,324.38,512,256S485.372,123.333,437.019,74.981z M256,495.66c-132.149,0-239.66-107.51-239.66-239.66
			c0-132.148,107.51-239.66,239.66-239.66S495.66,123.852,495.66,256C495.66,388.149,388.149,495.66,256,495.66z"/>
	</g>
</g>
<g>
	<g>
		<path d="M256,462.979c-114.129,0-206.979-92.85-206.979-206.979c0-4.512-3.658-8.17-8.17-8.17s-8.17,3.658-8.17,8.17
			c0,123.139,100.18,223.319,223.319,223.319c4.512,0,8.17-3.658,8.17-8.17S260.512,462.979,256,462.979z"/>
	</g>
</g>
<g>
	<g>
		<path d="M425.376,110.602c-2.941-3.423-8.099-3.811-11.522-0.87c-3.422,2.941-3.812,8.099-0.869,11.521
			c32.24,37.505,49.994,85.359,49.994,134.747c0,4.512,3.658,8.17,8.17,8.17s8.17-3.658,8.17-8.17
			C479.319,202.705,460.163,151.068,425.376,110.602z"/>
	</g>
</g>
<g>
	<g>
		<path d="M401.394,86.622C360.928,51.837,309.293,32.681,256,32.681c-4.512,0-8.17,3.658-8.17,8.17s3.658,8.17,8.17,8.17
			c49.386,0,97.24,17.753,134.743,49.991c1.542,1.326,3.436,1.975,5.322,1.975c2.299,0,4.584-0.965,6.2-2.844
			C405.206,94.721,404.817,89.563,401.394,86.622z"/>
	</g>
</g>
<g>
	<g>
		<path d="M181.973,413.784C121.061,385.087,81.702,323.154,81.702,256c0-4.512-3.658-8.17-8.17-8.17s-8.17,3.658-8.17,8.17
			c0,36.825,10.566,72.59,30.557,103.428c19.461,30.023,46.811,53.931,79.091,69.139c1.125,0.531,2.309,0.781,3.476,0.781
			c3.064,0,6.003-1.733,7.397-4.691C187.806,420.575,186.055,415.707,181.973,413.784z"/>
	</g>
</g>
<g>
	<g>
		<path d="M256,430.298c-15.152,0-30.195-1.954-44.711-5.811c-4.359-1.158-8.836,1.438-9.994,5.799s1.438,8.835,5.799,9.994
			c15.884,4.219,32.339,6.359,48.906,6.359c4.512,0,8.17-3.658,8.17-8.17S260.512,430.298,256,430.298z"/>
	</g>
</g>
<g>
	<g>
		<path d="M256,65.362c-4.512,0-8.17,3.658-8.17,8.17s3.658,8.17,8.17,8.17c96.108,0,174.298,78.19,174.298,174.298
			c0,4.512,3.658,8.17,8.17,8.17s8.17-3.658,8.17-8.17C446.638,150.882,361.118,65.362,256,65.362z"/>
	</g>
</g>
<g>
	<g>
		<path d="M256,98.043c-4.512,0-8.17,3.658-8.17,8.17s3.658,8.17,8.17,8.17c78.088,0,141.617,63.529,141.617,141.617
			c0,4.512,3.658,8.17,8.17,8.17s8.17-3.658,8.17-8.17C413.957,168.902,343.098,98.043,256,98.043z"/>
	</g>
</g>
<g>
	<g>
		<path d="M145.571,344.564c-20.404-25.389-31.188-56.013-31.188-88.564c0-4.512-3.658-8.17-8.17-8.17s-8.17,3.658-8.17,8.17
			c0,35.795,12.357,70.884,34.792,98.8c1.614,2.009,3.984,3.052,6.374,3.052c1.795,0,3.605-0.59,5.112-1.802
			C147.838,353.223,148.398,348.081,145.571,344.564z"/>
	</g>
</g>
<g>
	<g>
		<path d="M256,397.617c-32.087,0-63.54-11.077-88.566-31.191c-3.518-2.829-8.66-2.267-11.486,1.25
			c-2.827,3.518-2.268,8.659,1.25,11.486c27.918,22.439,63.006,34.795,98.803,34.795c4.512,0,8.17-3.658,8.17-8.17
			S260.512,397.617,256,397.617z"/>
	</g>
</g>
<g>
	<g>
		<path d="M256,130.723c-69.078,0-125.277,56.199-125.277,125.277S186.922,381.277,256,381.277S381.277,325.078,381.277,256
			S325.078,130.723,256,130.723z M256,364.936c-60.067,0-108.936-48.869-108.936-108.936c0-60.067,48.869-108.936,108.936-108.936
			c60.067,0,108.936,48.869,108.936,108.936C364.936,316.067,316.067,364.936,256,364.936z"/>
	</g>
</g>
<g>
	<g>
		<path d="M321.566,302.57l-31.918-55.285h5.347c4.534,0,8.192-3.658,8.192-8.17c0-1.692-0.514-3.264-1.394-4.567l-38.717-67.059
			c-1.46-2.527-4.156-4.085-7.075-4.085c-2.919,0-5.616,1.558-7.075,4.085l-38.995,67.54c-1.46,2.527-1.46,5.643,0,8.17
			c1.46,2.527,4.156,4.085,7.075,4.085h5.347l-31.918,55.285c-1.46,2.527-1.46,5.643,0,8.17c1.46,2.527,4.156,4.085,7.075,4.085
			h50.321v25.6c0,4.512,3.658,8.17,8.17,8.17c4.512,0,8.17-3.658,8.17-8.17v-25.6h50.321c2.919,0,5.616-1.558,7.075-4.085
			C323.026,308.213,323.026,305.098,321.566,302.57z M211.66,298.485l31.918-55.285c1.46-2.527,1.46-5.643,0-8.17
			c-1.46-2.527-4.156-4.085-7.075-4.085h-5.347L256,187.915l24.844,43.03h-5.347c-2.919,0-5.616,1.558-7.075,4.085
			s-1.46,5.643,0,8.17l31.918,55.285H211.66z"/>
	</g>
</g>
<g>
</g>
<g>
</g>
<g>
</g>
<g>
</g>
<g>
</g>
<g>
</g>
<g>
</g>
<g>
</g>
<g>
</g>
<g>
</g>
<g>
</g>
<g>
</g>
<g>
</g>
<g>
</g>
<g>
</g>
</svg>
