<?xml version="1.0" encoding="iso-8859-1"?>
<!-- Generator: Adobe Illustrator 19.0.0, SVG Export Plug-In . SVG Version: 6.00 Build 0)  -->
<svg version="1.1" id="Capa_1" xmlns="http://www.w3.org/2000/svg" xmlns:xlink="http://www.w3.org/1999/xlink" x="0px" y="0px"
	 viewBox="0 0 512.001 512.001" style="enable-background:new 0 0 512.001 512.001;" xml:space="preserve">
<g>
	<g>
		<path d="M495.325,314.61L412.76,171.603h30.67c2.919,0,5.616-1.558,7.075-4.085c1.46-2.527,1.46-5.643,0-8.17L360.864,4.085
			C359.404,1.557,356.708,0,353.788,0c-2.919,0-5.616,1.557-7.075,4.085L316.687,56.09c-2.256,3.908-0.917,8.904,2.99,11.161
			c3.906,2.256,8.903,0.917,11.161-2.99l22.951-39.75l75.489,130.752h-30.67c-2.919,0-5.616,1.558-7.075,4.085
			c-1.46,2.527-1.46,5.643,0,8.17l82.565,143.007h-50.955c-4.512,0-8.17,3.658-8.17,8.17s3.658,8.17,8.17,8.17h65.106
			c2.919,0,5.616-1.558,7.075-4.085C496.783,320.253,496.785,317.137,495.325,314.61z"/>
	</g>
</g>
<g>
	<g>
		<path d="M399.437,420.622l-20.029-26.841l11.722-28.394c1.04-2.521,0.755-5.394-0.761-7.66c-1.516-2.267-4.063-3.628-6.79-3.628
			h-21.62v-27.234h28.504c2.919,0,5.616-1.558,7.075-4.085c1.46-2.527,1.46-5.643,0-8.17l-82.565-143.007h30.67
			c4.534,0,8.192-3.658,8.192-8.17c0-1.692-0.514-3.263-1.394-4.567L263.076,4.085C261.616,1.557,258.92,0,256.001,0
			c-2.92,0-5.616,1.557-7.075,4.085l-89.641,155.262c-1.46,2.527-1.46,5.643,0,8.17c1.46,2.527,4.156,4.085,7.075,4.085h30.67
			L114.464,314.61c-1.46,2.527-1.46,5.643,0,8.17c1.46,2.527,4.156,4.085,7.075,4.085h28.504v27.234h-21.62
			c-2.727,0-5.275,1.361-6.79,3.628c-1.516,2.267-1.802,5.14-0.761,7.66l11.722,28.394l-20,26.806
			c-7.487,9.918-11.444,21.795-11.444,34.35c0,31.465,25.599,57.064,57.064,57.064c20.722,0,38.897-11.106,48.894-27.675
			c9.995,16.568,28.17,27.674,48.892,27.674s38.897-11.106,48.894-27.675C314.892,500.894,333.066,512,353.788,512
			c31.465,0,57.064-25.599,57.064-57.064C410.853,442.382,406.896,430.504,399.437,420.622z M371.366,370.44l-6.746,16.34h-21.664
			l-6.745-16.34h17.573C353.794,370.44,371.366,370.44,371.366,370.44z M135.691,310.525l82.566-143.007
			c1.46-2.527,1.46-5.643,0-8.17c-1.46-2.527-4.156-4.085-7.075-4.085h-30.67l75.49-130.752l75.49,130.752h-30.67
			c-2.919,0-5.616,1.558-7.075,4.085c-1.46,2.527-1.46,5.643,0,8.17l82.565,143.007H135.691z M158.209,370.44
			c0.011,0,17.583,0,17.583,0l-6.745,16.34h-21.664l-6.745-16.34H158.209z M158.213,495.66c-22.455,0-40.724-18.269-40.724-40.724
			c0-8.972,2.816-17.446,8.172-24.541l20.35-27.274h24.401l20.379,27.311c5.328,7.058,8.145,15.532,8.145,24.505
			C198.937,477.391,180.668,495.66,158.213,495.66z M207.11,425.434c-0.998-1.648-2.074-3.256-3.247-4.811l-20.028-26.842
			l11.722-28.394c1.04-2.521,0.755-5.394-0.761-7.66c-1.516-2.267-4.063-3.628-6.79-3.628h-21.62v-27.234h81.445v27.234h-21.618
			c-2.727,0-5.274,1.361-6.79,3.628c-1.516,2.267-1.802,5.14-0.761,7.66l11.721,28.394l-20.001,26.806
			C209.199,422.154,208.115,423.775,207.11,425.434z M255.995,370.44c0.011,0,17.583,0,17.583,0l-6.745,16.34h-21.664l-6.745-16.34
			H255.995z M256.001,495.66c-22.455,0-40.724-18.269-40.724-40.724c0-8.972,2.816-17.446,8.172-24.541l20.35-27.274h24.401
			l20.379,27.311c5.328,7.058,8.145,15.532,8.145,24.505C296.724,477.391,278.456,495.66,256.001,495.66z M304.898,425.434
			c-0.998-1.648-2.074-3.256-3.247-4.811l-20.028-26.842l11.722-28.394c1.04-2.521,0.755-5.394-0.761-7.66
			c-1.516-2.267-4.063-3.628-6.79-3.628h-21.62v-27.234h81.447v27.234h-0.002h-21.62c-2.727,0-5.275,1.361-6.79,3.628
			c-1.516,2.267-1.802,5.14-0.761,7.66l11.722,28.394l-20,26.806C306.986,422.154,305.902,423.775,304.898,425.434z M353.788,495.66
			c-22.455,0-40.724-18.269-40.724-40.724c0-8.972,2.816-17.446,8.172-24.541l20.35-27.274h24.401l20.379,27.311
			c5.328,7.058,8.145,15.532,8.145,24.505C394.511,477.391,376.242,495.66,353.788,495.66z"/>
	</g>
</g>
<g>
	<g>
		<path d="M195.314,56.091L165.289,4.085C163.83,1.557,161.133,0,158.213,0s-5.616,1.557-7.075,4.085l-89.64,155.262
			c-1.46,2.527-1.46,5.643,0,8.17c1.46,2.527,4.156,4.085,7.075,4.085h30.67L16.677,314.61c-1.46,2.527-1.46,5.643,0,8.17
			c1.46,2.527,4.156,4.085,7.075,4.085h65.106c4.512,0,8.17-3.658,8.17-8.17s-3.658-8.17-8.17-8.17H37.903l82.565-143.007
			c1.46-2.527,1.46-5.643,0-8.17c-1.46-2.527-4.156-4.085-7.075-4.085H82.724l75.49-130.752l22.95,39.751
			c2.256,3.908,7.253,5.246,11.161,2.99C196.231,64.996,197.57,59.999,195.314,56.091z"/>
	</g>
</g>
<g>
</g>
<g>
</g>
<g>
</g>
<g>
</g>
<g>
</g>
<g>
</g>
<g>
</g>
<g>
</g>
<g>
</g>
<g>
</g>
<g>
</g>
<g>
</g>
<g>
</g>
<g>
</g>
<g>
</g>
</svg>
