<?xml version="1.0" encoding="iso-8859-1"?>
<!-- Generator: Adobe Illustrator 19.0.0, SVG Export Plug-In . SVG Version: 6.00 Build 0)  -->
<svg version="1.1" id="Capa_1" xmlns="http://www.w3.org/2000/svg" xmlns:xlink="http://www.w3.org/1999/xlink" x="0px" y="0px"
	 viewBox="0 0 512 512" style="enable-background:new 0 0 512 512;" xml:space="preserve">
<g>
	<g>
		<path d="M386.723,196.085H125.277c-4.513,0-8.17,3.658-8.17,8.17v117.106c0,4.512,3.657,8.17,8.17,8.17
			c4.513,0,8.17-3.658,8.17-8.17V212.426h245.106v250.553H133.447V354.043c0-4.512-3.657-8.17-8.17-8.17
			c-4.513,0-8.17,3.658-8.17,8.17v117.106c0,4.512,3.657,8.17,8.17,8.17h261.447c4.513,0,8.17-3.658,8.17-8.17V204.255
			C394.894,199.743,391.237,196.085,386.723,196.085z"/>
	</g>
</g>
<g>
	<g>
		<path d="M419.404,0H92.596c-4.513,0-8.17,3.658-8.17,8.17v495.66c0,4.512,3.657,8.17,8.17,8.17h326.808
			c4.513,0,8.17-3.658,8.17-8.17V8.17C427.574,3.658,423.917,0,419.404,0z M411.234,495.66H100.766V179.745h310.468V495.66z
			 M182.468,125.277v38.128h-49.021v-38.128H182.468z M133.447,108.936V73.532c0-13.515,10.996-24.511,24.511-24.511
			s24.511,10.996,24.511,24.511v35.404H133.447z M247.83,125.277v38.128h-49.021v-38.128H247.83z M198.809,108.936V73.532
			c0-13.515,10.996-24.511,24.511-24.511s24.511,10.996,24.511,24.511v35.404H198.809z M313.191,125.277v38.128H264.17v-38.128
			H313.191z M264.17,108.936V73.532c0-13.515,10.996-24.511,24.511-24.511c13.515,0,24.511,10.996,24.511,24.511v35.404H264.17z
			 M378.553,125.277v38.128h-49.021v-38.128H378.553z M329.532,108.936V73.532c0-13.515,10.996-24.511,24.511-24.511
			c13.515,0,24.511,10.996,24.511,24.511v35.404H329.532z M411.234,163.404h-16.34V73.532c0-22.525-18.325-40.851-40.851-40.851
			c-13.349,0-25.222,6.437-32.681,16.369c-7.459-9.932-19.332-16.369-32.681-16.369c-13.349,0-25.222,6.437-32.681,16.369
			c-7.459-9.932-19.332-16.369-32.681-16.369s-25.222,6.437-32.681,16.369c-7.459-9.932-19.332-16.369-32.681-16.369
			c-22.526,0-40.851,18.326-40.851,40.851v89.872h-16.34V16.34h310.468V163.404z"/>
	</g>
</g>
<g>
	<g>
		<path d="M326.52,376.425l-49.466-96.415c5.493-5.434,8.902-12.968,8.902-21.286c0-16.519-13.439-29.957-29.957-29.957
			s-29.957,13.438-29.957,29.957c0,8.317,3.41,15.852,8.902,21.286l-49.466,96.415c-17.011,2.517-30.11,17.213-30.11,34.914
			c0,19.464,15.835,35.3,35.299,35.3h130.666c19.464,0,35.299-15.835,35.299-35.3C356.631,393.638,343.532,378.941,326.52,376.425z
			 M256,245.106c7.509,0,13.617,6.108,13.617,13.617c0,7.509-6.108,13.617-13.617,13.617s-13.617-6.108-13.617-13.617
			C242.383,251.214,248.491,245.106,256,245.106z M249.259,287.906c2.169,0.501,4.423,0.775,6.741,0.775s4.573-0.273,6.741-0.775
			l45.217,88.134H204.041L249.259,287.906z M321.334,430.298H190.667c-10.455,0-18.958-8.505-18.958-18.959
			c0-10.448,8.496-18.948,18.953-18.957c0.02-0.001,130.659-0.001,130.659-0.001c10.476,0.01,18.972,8.51,18.972,18.958
			C340.293,421.792,331.788,430.298,321.334,430.298z"/>
	</g>
</g>
<g>
</g>
<g>
</g>
<g>
</g>
<g>
</g>
<g>
</g>
<g>
</g>
<g>
</g>
<g>
</g>
<g>
</g>
<g>
</g>
<g>
</g>
<g>
</g>
<g>
</g>
<g>
</g>
<g>
</g>
</svg>
