<?xml version="1.0" encoding="iso-8859-1"?>
<!-- Generator: Adobe Illustrator 19.0.0, SVG Export Plug-In . SVG Version: 6.00 Build 0)  -->
<svg version="1.1" id="Capa_1" xmlns="http://www.w3.org/2000/svg" xmlns:xlink="http://www.w3.org/1999/xlink" x="0px" y="0px"
	 viewBox="0 0 512 512" style="enable-background:new 0 0 512 512;" xml:space="preserve">
<g>
	<g>
		<path d="M123.098,405.789c-4.513,0-8.17,3.658-8.17,8.17v10.894c0,4.512,3.657,8.17,8.17,8.17c4.513,0,8.17-3.658,8.17-8.17
			V413.96C131.268,409.447,127.611,405.789,123.098,405.789z"/>
	</g>
</g>
<g>
	<g>
		<path d="M356.221,441.191c-4.513,0-8.17,3.658-8.17,8.17v10.894c0,4.512,3.657,8.17,8.17,8.17c4.513,0,8.17-3.658,8.17-8.17
			v-10.894C364.391,444.85,360.734,441.191,356.221,441.191z"/>
	</g>
</g>
<g>
	<g>
		<path d="M388.902,409.525c-4.513,0-8.17,3.658-8.17,8.17v10.894c0,4.512,3.657,8.17,8.17,8.17c4.513,0,8.17-3.658,8.17-8.17
			v-10.894C397.072,413.183,393.415,409.525,388.902,409.525z"/>
	</g>
</g>
<g>
	<g>
		<path d="M421.791,362.44l-132.7-258.647c14.57-10.377,24.1-27.392,24.1-46.602C313.191,25.657,287.535,0,256,0
			s-57.191,25.657-57.191,57.192c0,19.21,9.53,36.224,24.1,46.601L90.21,362.44c-32.156,2.61-57.529,29.595-57.529,62.413v24.508
			c0,34.539,28.098,62.638,62.635,62.638h321.368c34.537,0,62.635-28.099,62.635-62.638v-24.51
			C479.319,392.035,453.947,365.051,421.791,362.44z M215.149,57.192c0-22.525,18.325-40.851,40.851-40.851
			s40.851,18.326,40.851,40.851c0,22.525-18.325,40.851-40.851,40.851S215.149,79.716,215.149,57.192z M462.979,449.362
			c0,25.529-20.768,46.298-46.295,46.298H95.316c-25.526,0-46.295-20.769-46.295-46.298v-24.51
			c0-25.521,20.756-46.285,46.271-46.297c0.04-0.001,65.386-0.001,65.386-0.001c4.513,0,8.17-3.658,8.17-8.17s-3.657-8.17-8.17-8.17
			H108.69l128.745-250.942c5.826,2.007,12.068,3.111,18.565,3.111c6.497,0,12.739-1.105,18.564-3.11L403.31,362.215H193.358
			c-4.513,0-8.17,3.658-8.17,8.17s3.657,8.17,8.17,8.17h223.308c25.556,0.013,46.312,20.777,46.312,46.298V449.362z"/>
	</g>
</g>
<g>
</g>
<g>
</g>
<g>
</g>
<g>
</g>
<g>
</g>
<g>
</g>
<g>
</g>
<g>
</g>
<g>
</g>
<g>
</g>
<g>
</g>
<g>
</g>
<g>
</g>
<g>
</g>
<g>
</g>
</svg>
