<?xml version="1.0" encoding="iso-8859-1"?>
<!-- Generator: Adobe Illustrator 19.0.0, SVG Export Plug-In . SVG Version: 6.00 Build 0)  -->
<svg version="1.1" id="Capa_1" xmlns="http://www.w3.org/2000/svg" xmlns:xlink="http://www.w3.org/1999/xlink" x="0px" y="0px"
	 viewBox="0 0 512 512" style="enable-background:new 0 0 512 512;" xml:space="preserve">
<g>
	<g>
		<path d="M478.255,18.924L442.121,0.863c-0.048-0.024-0.1-0.04-0.148-0.064c-0.194-0.093-0.392-0.178-0.595-0.255
			c-0.082-0.032-0.163-0.061-0.246-0.09c-0.205-0.071-0.412-0.132-0.623-0.186c-0.082-0.021-0.163-0.045-0.245-0.063
			c-0.22-0.049-0.444-0.087-0.671-0.118c-0.074-0.01-0.146-0.025-0.22-0.034C439.075,0.02,438.774,0,438.468,0H8.17
			C3.658,0,0,3.658,0,8.17v495.66c0,4.512,3.658,8.17,8.17,8.17h430.298c0.306,0,0.607-0.02,0.903-0.052
			c0.074-0.009,0.146-0.023,0.219-0.034c0.227-0.032,0.452-0.069,0.672-0.119c0.082-0.018,0.162-0.041,0.244-0.062
			c0.211-0.054,0.42-0.115,0.625-0.186c0.083-0.028,0.164-0.059,0.246-0.09c0.203-0.077,0.401-0.162,0.595-0.255
			c0.049-0.023,0.1-0.039,0.148-0.064l36.134-18.062C497.178,483.617,512,459.63,512,438.468V73.532
			C512,52.37,497.178,28.383,478.255,18.924z M430.298,495.66H16.34V16.34h413.957V495.66z M495.66,438.468
			c0,14.982-11.316,33.296-24.711,39.992l-24.31,12.152V21.389l24.31,12.152c13.395,6.695,24.711,25.01,24.711,39.992V438.468z"/>
	</g>
</g>
<g>
	<g>
		<path d="M116.832,367.462h-16.34c-4.512,0-8.17,3.658-8.17,8.17s3.658,8.17,8.17,8.17h16.34c4.512,0,8.17-3.658,8.17-8.17
			S121.344,367.462,116.832,367.462z"/>
	</g>
</g>
<g>
	<g>
		<path d="M250.146,263.782l-31.893-156.214c-6.927-33.924-37.12-58.547-71.792-58.547c-34.672,0-64.864,24.623-71.791,58.548
			L42.776,263.781c-1.422,6.959-2.142,14.116-2.142,21.274c0,21.845,6.573,42.693,19.006,60.491v30.612
			c0,47.873,38.947,86.82,86.82,86.82s86.82-38.947,86.82-86.82v-30.612c12.433-17.798,19.007-38.646,19.007-60.491
			C252.287,277.901,251.566,270.743,250.146,263.782z M216.94,367.462h-67.427c-4.512,0-8.17,3.658-8.17,8.17s3.658,8.17,8.17,8.17
			h67.005c-3.824,35.279-33.779,62.835-70.058,62.835c-38.862,0-70.479-31.617-70.479-70.48v-25.038H216.94V367.462z
			 M220.862,334.78H72.059c-9.877-14.727-15.084-31.83-15.084-49.725c0-6.061,0.61-12.119,1.812-18.005L90.68,110.837
			c5.379-26.351,28.839-45.475,55.781-45.475s50.401,19.125,55.782,45.475l31.893,156.213c1.203,5.888,1.812,11.945,1.812,18.005
			C235.947,302.95,230.74,320.053,220.862,334.78z"/>
	</g>
</g>
<g>
	<g>
		<path d="M405.787,32.681h-118.52c-4.513,0-8.17,3.658-8.17,8.17v430.298c0,4.512,3.658,8.17,8.17,8.17h118.52
			c4.513,0,8.17-3.658,8.17-8.17V40.851C413.957,36.339,410.3,32.681,405.787,32.681z M295.437,77.29l56.442,11.523
			c7.566,1.545,13.057,8.285,13.057,16.025s-5.491,14.48-13.057,16.023l-56.442,11.523V77.29z M295.437,178.065l56.442,11.523
			c7.566,1.545,13.057,8.284,13.057,16.023s-5.491,14.48-13.057,16.025l-56.442,11.523V178.065z M295.437,278.84l56.442,11.523
			c7.566,1.545,13.057,8.284,13.057,16.024c0,7.741-5.491,14.48-13.057,16.023l-56.442,11.523V278.84z M295.437,379.615
			l56.442,11.523c7.566,1.545,13.057,8.284,13.057,16.023s-5.491,14.48-13.057,16.024l-56.442,11.523V379.615z M397.617,462.979
			h-102.18v-11.615c0.286-0.052,0.576-0.095,0.862-0.154l58.848-12.015c15.14-3.091,26.129-16.563,26.129-32.034
			c0-15.471-10.99-28.943-26.129-32.034L296.3,363.114c-0.285-0.059-0.575-0.1-0.863-0.154v-12.371
			c0.286-0.052,0.576-0.095,0.862-0.154l58.848-12.015c15.14-3.091,26.129-16.563,26.129-32.034c0-15.47-10.99-28.943-26.129-32.034
			l-58.848-12.015c-0.285-0.058-0.575-0.1-0.862-0.154v-12.371c0.286-0.052,0.576-0.095,0.862-0.154l58.848-12.015
			c15.14-3.092,26.129-16.564,26.129-32.034c0-15.471-10.99-28.943-26.129-32.034L296.3,161.564c-0.285-0.059-0.575-0.1-0.863-0.154
			V149.04c0.286-0.052,0.576-0.095,0.862-0.154l58.848-12.015c15.14-3.092,26.129-16.564,26.129-32.034s-10.99-28.943-26.129-32.034
			L296.299,60.79c-0.285-0.058-0.575-0.1-0.862-0.154V49.021h102.18V462.979z"/>
	</g>
</g>
<g>
</g>
<g>
</g>
<g>
</g>
<g>
</g>
<g>
</g>
<g>
</g>
<g>
</g>
<g>
</g>
<g>
</g>
<g>
</g>
<g>
</g>
<g>
</g>
<g>
</g>
<g>
</g>
<g>
</g>
</svg>
