<?xml version="1.0" encoding="iso-8859-1"?>
<!-- Generator: Adobe Illustrator 19.0.0, SVG Export Plug-In . SVG Version: 6.00 Build 0)  -->
<svg version="1.1" id="Capa_1" xmlns="http://www.w3.org/2000/svg" xmlns:xlink="http://www.w3.org/1999/xlink" x="0px" y="0px"
	 viewBox="0 0 512.001 512.001" style="enable-background:new 0 0 512.001 512.001;" xml:space="preserve">
<g>
	<g>
		<path d="M503.83,247.83H347.399c10.616-10.389,17.221-24.86,17.221-40.851v-18.103c7.76-11.437,11.847-24.751,11.847-38.681
			c0-4.667-0.471-9.335-1.397-13.875l-19.879-97.366C350.582,16.383,330.495,0,307.427,0c-23.067,0-43.154,16.383-47.763,38.954
			l-19.879,97.366c-0.927,4.539-1.398,9.208-1.398,13.875c0,13.93,4.087,27.243,11.847,38.681v18.102
			c0,15.991,6.605,30.462,17.221,40.851H141.688c10.616-10.389,17.221-24.86,17.221-40.851v-18.103
			c7.76-11.437,11.847-24.751,11.847-38.681c0-4.667-0.471-9.335-1.397-13.875l-19.879-97.366C144.874,16.383,124.786,0,101.72,0
			C78.652,0,58.566,16.383,53.957,38.954l-19.879,97.366c-0.926,4.539-1.397,9.207-1.397,13.874c0,13.93,4.087,27.243,11.847,38.681
			v18.103c0,15.991,6.605,30.462,17.221,40.851H8.171c-4.512,0-8.17,3.658-8.17,8.17c0,4.512,3.658,8.17,8.17,8.17h156.431
			c-10.616,10.389-17.221,24.86-17.221,40.851v18.103c-7.76,11.437-11.847,24.751-11.847,38.681c0,4.667,0.471,9.335,1.397,13.875
			l19.879,97.366c4.608,22.572,24.695,38.954,47.762,38.954c23.067,0,43.154-16.383,47.763-38.954l19.879-97.366
			c0.927-4.539,1.398-9.208,1.398-13.875c0-13.929-4.087-27.244-11.847-38.681v-18.103c0-15.991-6.605-30.462-17.221-40.851h125.766
			c-10.616,10.389-17.221,24.86-17.221,40.851v18.103c-7.76,11.437-11.847,24.751-11.847,38.681c0,4.667,0.471,9.335,1.397,13.875
			l19.879,97.366c4.608,22.572,24.696,38.954,47.763,38.954c23.066,0,43.153-16.383,47.762-38.954l19.879-97.366
			c0.927-4.539,1.398-9.208,1.398-13.875c0-13.93-4.087-27.244-11.847-38.681v-18.103c0-15.991-6.605-30.462-17.221-40.851h53.579
			c4.512,0,8.17-3.658,8.17-8.17C512.001,251.488,508.342,247.83,503.83,247.83z M49.022,150.195c0-3.571,0.359-7.14,1.066-10.606
			l19.879-97.366C73.029,27.225,86.383,16.34,101.72,16.34c15.337,0,28.69,10.885,31.752,25.882l19.88,97.366
			c0.707,3.466,1.067,7.035,1.067,10.606c0,9.989-2.755,19.56-7.995,27.916H57.017C51.776,169.754,49.022,160.184,49.022,150.195z
			 M101.72,247.83c-22.526,0-40.851-18.326-40.851-40.851v-12.528h81.702v12.528C142.571,229.503,124.244,247.83,101.72,247.83z
			 M257.272,361.805c0,3.571-0.359,7.14-1.066,10.606l-19.879,97.366c-3.063,14.997-16.417,25.882-31.753,25.882
			s-28.69-10.885-31.752-25.882l-19.88-97.366c-0.707-3.466-1.066-7.035-1.066-10.606c0-9.989,2.754-19.559,7.995-27.916h89.406
			C254.517,342.246,257.272,351.816,257.272,361.805z M245.425,305.021v12.528h-81.702v-12.528
			c0-22.525,18.325-40.851,40.851-40.851S245.425,282.497,245.425,305.021z M254.729,150.195c0-3.571,0.359-7.14,1.067-10.606
			l19.879-97.366c3.063-14.997,16.417-25.882,31.753-25.882c15.336,0,28.691,10.885,31.752,25.882l19.88,97.366
			c0.707,3.466,1.066,7.035,1.066,10.606c0,9.989-2.754,19.56-7.995,27.916h-89.406
			C257.484,169.754,254.729,160.184,254.729,150.195z M307.427,247.83c-22.526,0-40.851-18.326-40.851-40.851v-12.528h81.702v12.528
			C348.278,229.503,329.953,247.83,307.427,247.83z M462.979,361.805c0,3.571-0.359,7.14-1.066,10.606l-19.879,97.366
			c-3.062,14.997-16.416,25.882-31.753,25.882c-15.337,0-28.691-10.885-31.752-25.882l-19.88-97.366
			c-0.707-3.466-1.066-7.035-1.066-10.606c0-9.989,2.754-19.559,7.995-27.916h89.406
			C460.225,342.246,462.979,351.816,462.979,361.805z M451.132,305.021v12.528H369.43v-12.528c0-22.525,18.325-40.851,40.851-40.851
			C432.807,264.17,451.132,282.497,451.132,305.021z"/>
	</g>
</g>
<g>
</g>
<g>
</g>
<g>
</g>
<g>
</g>
<g>
</g>
<g>
</g>
<g>
</g>
<g>
</g>
<g>
</g>
<g>
</g>
<g>
</g>
<g>
</g>
<g>
</g>
<g>
</g>
<g>
</g>
</svg>
