<?xml version="1.0" encoding="iso-8859-1"?>
<!-- Generator: Adobe Illustrator 19.0.0, SVG Export Plug-In . SVG Version: 6.00 Build 0)  -->
<svg version="1.1" id="Capa_1" xmlns="http://www.w3.org/2000/svg" xmlns:xlink="http://www.w3.org/1999/xlink" x="0px" y="0px"
	 viewBox="0 0 512 512" style="enable-background:new 0 0 512 512;" xml:space="preserve">
<g>
	<g>
		<path d="M130.725,77.109c-4.512,0-8.17,3.658-8.17,8.17v10.894c0,4.512,3.658,8.17,8.17,8.17c4.512,0,8.17-3.658,8.17-8.17V85.28
			C138.895,80.767,135.238,77.109,130.725,77.109z"/>
	</g>
</g>
<g>
	<g>
		<path d="M348.597,45.442c-4.512,0-8.17,3.658-8.17,8.17v10.894c0,4.512,3.658,8.17,8.17,8.17s8.17-3.658,8.17-8.17V53.612
			C356.768,49.1,353.111,45.442,348.597,45.442z"/>
	</g>
</g>
<g>
	<g>
		<path d="M413.959,77.109c-4.512,0-8.17,3.658-8.17,8.17v10.894c0,4.512,3.658,8.17,8.17,8.17s8.17-3.658,8.17-8.17V85.28
			C422.129,80.767,418.472,77.109,413.959,77.109z"/>
	</g>
</g>
<g>
	<g>
		<path d="M446.64,0H130.725C96.188,0,68.09,28.099,68.09,62.638v24.508c0,31.768,23.776,58.07,54.465,62.088v183.124l-79.628,40.57
			c-24.796,12.634-40.202,37.747-40.202,65.539C2.725,479.014,35.711,512,76.257,512c8.105,0,16.106-1.33,23.784-3.954
			l244.46-83.554c0.05-0.017,45.82-15.661,45.82-15.661c38.573-13.183,64.489-49.429,64.489-90.194v-21.698c0-0.044,0-0.086,0-0.13
			V149.234c30.688-4.019,54.465-30.32,54.465-62.088V62.638C509.276,28.099,481.178,0,446.64,0z M438.471,318.638
			c-0.001,33.776-21.474,63.808-53.434,74.731l-38.419,13.131c-2.962-8.389-4.482-17.181-4.482-26.238
			c0-43.549,35.429-78.979,78.979-78.979c5.873,0,11.687,0.644,17.356,1.914V318.638z M446.641,133.445H413.96
			c-4.512,0-8.17,3.658-8.17,8.17s3.658,8.17,8.17,8.17h24.511v136.74c-5.701-1.049-11.506-1.583-17.356-1.583
			c-52.56,0-95.319,42.76-95.319,95.319c0,10.874,1.8,21.441,5.344,31.528L94.755,492.583c-5.972,2.042-12.195,3.076-18.498,3.076
			c-31.536,0-57.191-25.656-57.191-57.191c0-21.615,11.985-41.148,31.28-50.979l84.089-42.844c2.738-1.395,4.461-4.207,4.461-7.28
			v-187.58h242.383c4.512,0,8.17-3.658,8.17-8.17s-3.658-8.17-8.17-8.17H130.725c-25.527,0-46.295-20.769-46.295-46.298V62.638
			c0-25.529,20.768-46.298,46.295-46.298H446.64c25.527,0,46.295,20.769,46.295,46.298v24.508h0.001
			C492.936,112.676,472.168,133.445,446.641,133.445z"/>
	</g>
</g>
<g>
</g>
<g>
</g>
<g>
</g>
<g>
</g>
<g>
</g>
<g>
</g>
<g>
</g>
<g>
</g>
<g>
</g>
<g>
</g>
<g>
</g>
<g>
</g>
<g>
</g>
<g>
</g>
<g>
</g>
</svg>
