<?xml version="1.0" encoding="iso-8859-1"?>
<!-- Generator: Adobe Illustrator 19.0.0, SVG Export Plug-In . SVG Version: 6.00 Build 0)  -->
<svg version="1.1" id="Capa_1" xmlns="http://www.w3.org/2000/svg" xmlns:xlink="http://www.w3.org/1999/xlink" x="0px" y="0px"
	 viewBox="0 0 512 512" style="enable-background:new 0 0 512 512;" xml:space="preserve">
<g>
	<g>
		<path d="M512,256c0-14.125-5.22-27.753-14.493-38.251c5.574-12.85,6.328-27.424,1.963-40.858
			c-4.365-13.433-13.541-24.782-25.603-31.9c1.331-13.944-2.457-28.037-10.759-39.464c-8.302-11.426-20.537-19.384-34.208-22.427
			c-3.043-13.675-11-25.906-22.428-34.208c-9.931-7.216-21.652-11.03-33.894-11.03c-1.857,0-3.718,0.09-5.57,0.269
			c-7.119-12.063-18.467-21.237-31.899-25.601c-13.382-4.348-28.062-3.603-40.86,1.962C283.75,5.218,270.125,0,256,0
			c-14.125,0-27.75,5.218-38.249,14.491c-12.798-5.564-27.478-6.311-40.86-1.962c-13.432,4.364-24.78,13.539-31.899,25.601
			c-1.852-0.179-3.713-0.269-5.57-0.269c-12.242,0-23.964,3.814-33.894,11.03c-11.427,8.302-19.385,20.533-22.428,34.208
			c-13.674,3.043-25.906,11-34.208,22.428c-8.302,11.427-12.09,25.52-10.759,39.464c-12.063,7.119-21.238,18.468-25.603,31.901
			c-4.365,13.434-3.611,28.008,1.963,40.858C5.219,228.247,0,241.875,0,256c0,14.125,5.22,27.753,14.493,38.251
			c-5.574,12.85-6.328,27.424-1.963,40.858c4.365,13.433,13.541,24.782,25.603,31.901c-1.331,13.944,2.457,28.037,10.759,39.464
			c8.302,11.427,20.534,19.384,34.208,22.427c3.043,13.675,11,25.906,22.428,34.208c9.931,7.216,21.652,11.03,33.894,11.03
			c1.857,0,3.718-0.09,5.57-0.269c7.119,12.063,18.467,21.237,31.899,25.601c13.382,4.349,28.062,3.604,40.86-1.962
			C228.25,506.782,241.875,512,256,512c14.125,0,27.75-5.218,38.249-14.491c12.798,5.564,27.478,6.31,40.86,1.962
			c13.432-4.364,24.78-13.539,31.899-25.601c1.852,0.179,3.713,0.269,5.569,0.269c12.243,0,23.965-3.814,33.896-11.03
			c11.427-8.302,19.385-20.534,22.428-34.208c13.675-3.043,25.906-11,34.208-22.428c8.302-11.427,12.09-25.521,10.759-39.464
			c12.063-7.119,21.238-18.468,25.603-31.901c4.365-13.434,3.611-28.007-1.963-40.858C506.78,283.753,512,270.125,512,256z
			 M482.102,286.637c-2.832,2.575-3.497,6.771-1.599,10.096c5.774,10.113,7.022,22.259,3.427,33.327
			c-3.596,11.067-11.745,20.16-22.36,24.947c-3.489,1.574-5.419,5.36-4.641,9.107c2.365,11.402-0.202,23.341-7.039,32.755
			c-6.839,9.413-17.401,15.543-28.977,16.818c-3.805,0.419-6.809,3.423-7.228,7.228c-1.275,11.576-7.403,22.137-16.818,28.976
			c-7.122,5.174-15.521,7.909-24.291,7.909c-2.837,0-5.684-0.293-8.464-0.869c-3.75-0.776-7.534,1.151-9.107,4.641
			c-4.789,10.615-13.881,18.765-24.946,22.36c-11.055,3.592-23.279,2.311-33.328-3.426c-3.321-1.897-7.518-1.233-10.095,1.599
			c-7.834,8.614-19,13.555-30.636,13.555c-11.637,0-22.802-4.941-30.637-13.557c-1.593-1.752-3.805-2.674-6.048-2.674
			c-1.385,0-2.779,0.351-4.047,1.075c-10.05,5.737-22.271,7.018-33.328,3.426c-11.066-3.596-20.159-11.745-24.946-22.36
			c-1.573-3.489-5.361-5.416-9.107-4.641c-2.78,0.577-5.628,0.869-8.464,0.869c-8.769,0-17.169-2.734-24.291-7.909
			c-9.414-6.839-15.543-17.4-16.818-28.976c-0.419-3.804-3.423-6.809-7.228-7.228c-11.576-1.273-22.137-7.403-28.977-16.816
			c-6.838-9.414-9.404-21.353-7.039-32.755c0.778-3.747-1.151-7.533-4.641-9.107c-10.615-4.789-18.765-13.882-22.36-24.947
			c-3.596-11.067-2.346-23.214,3.427-33.327c1.898-3.325,1.233-7.521-1.599-10.096C21.282,278.803,16.34,267.635,16.34,256
			c0-11.637,4.941-22.802,13.557-30.637c2.832-2.575,3.497-6.771,1.599-10.096c-5.774-10.113-7.022-22.259-3.427-33.327
			c3.596-11.067,11.746-20.16,22.36-24.947c3.489-1.574,5.419-5.359,4.641-9.107c-2.365-11.402,0.202-23.341,7.039-32.755
			c6.839-9.413,17.401-15.543,28.977-16.818c3.805-0.419,6.809-3.423,7.228-7.228c1.275-11.576,7.403-22.137,16.818-28.976
			c7.121-5.174,15.521-7.909,24.291-7.909c2.837,0,5.684,0.292,8.464,0.869c3.754,0.778,7.534-1.151,9.107-4.641
			c4.789-10.615,13.881-18.765,24.946-22.36c11.056-3.592,23.277-2.31,33.328,3.426c3.324,1.898,7.519,1.234,10.095-1.599
			c7.834-8.614,19-13.555,30.636-13.555c11.637,0,22.803,4.941,30.637,13.557c2.576,2.832,6.774,3.496,10.095,1.599
			c10.049-5.737,22.272-7.018,33.328-3.426c11.066,3.596,20.159,11.745,24.946,22.36c1.573,3.489,5.364,5.419,9.107,4.641
			c2.78-0.577,5.628-0.869,8.464-0.869c8.769,0,17.169,2.734,24.291,7.909c9.414,6.839,15.543,17.4,16.818,28.976
			c0.419,3.805,3.423,6.809,7.228,7.228c11.576,1.273,22.137,7.403,28.977,16.816c6.838,9.414,9.404,21.353,7.039,32.755
			c-0.778,3.747,1.151,7.533,4.641,9.107c10.615,4.789,18.765,13.882,22.36,24.947c3.596,11.067,2.346,23.214-3.427,33.327
			c-1.898,3.325-1.233,7.521,1.599,10.096c8.615,7.834,13.556,19.001,13.556,30.636C495.66,267.635,490.718,278.803,482.102,286.637
			z"/>
	</g>
</g>
<g>
	<g>
		<path d="M376.613,281.501c-5.349-6.677-8.423-14.706-8.891-23.221c-0.248-4.506-4.094-7.958-8.606-7.709
			c-4.506,0.248-7.957,4.101-7.708,8.607c0.473,8.59,2.835,16.825,6.913,24.254c-8.13,4.961-14.975,11.923-19.77,20.228
			c-4.798,8.311-7.406,17.726-7.634,27.256c-9.528,0.229-18.945,2.836-27.256,7.634s-15.276,11.65-20.239,19.787
			c-8.366-4.565-17.824-7.017-27.42-7.017c-9.596,0-19.054,2.451-27.42,7.017c-4.963-8.136-11.929-14.989-20.239-19.787
			s-17.726-7.405-27.256-7.634c-0.229-9.529-2.837-18.945-7.634-27.256c-4.794-8.305-11.641-15.267-19.77-20.228
			c4.079-7.429,6.441-15.667,6.913-24.258c0.248-4.506-3.204-8.359-7.709-8.606c-4.527-0.243-8.359,3.204-8.605,7.711
			c-0.468,8.516-3.542,16.546-8.889,23.224c-1.624,2.029-2.187,4.71-1.514,7.221c0.672,2.511,2.5,4.551,4.922,5.497
			c8.728,3.405,15.819,9.495,20.503,17.609c4.685,8.114,6.414,17.299,4.999,26.561c-0.392,2.57,0.462,5.172,2.299,7.011
			c1.839,1.838,4.446,2.692,7.011,2.3c9.263-1.415,18.446,0.314,26.562,4.999c8.115,4.685,14.204,11.775,17.61,20.503
			c0.946,2.422,2.986,4.249,5.497,4.922s5.193,0.111,7.221-1.514c7.314-5.855,16.132-8.951,25.502-8.951
			c9.37,0,18.188,3.095,25.502,8.951c1.466,1.173,3.271,1.792,5.107,1.792c0.706,0,1.417-0.092,2.114-0.279
			c2.511-0.673,4.551-2.5,5.497-4.922c3.405-8.727,9.495-15.818,17.609-20.503c8.114-4.685,17.297-6.415,26.562-4.999
			c2.564,0.391,5.171-0.462,7.011-2.3c1.838-1.838,2.692-4.441,2.299-7.011c-1.415-9.262,0.314-18.447,4.999-26.561
			c4.685-8.115,11.776-14.204,20.503-17.609c2.422-0.946,4.249-2.986,4.922-5.497C378.8,286.211,378.238,283.53,376.613,281.501z"/>
	</g>
</g>
<g>
	<g>
		<path d="M377.701,101.339c-1.487-2.416-4.12-3.887-6.958-3.887c-38.253,0-84.831,30.671-95.547,38.097h-38.393
			c-10.716-7.426-57.294-38.097-95.547-38.097c-2.837,0-5.47,1.472-6.958,3.887c-0.677,1.099-16.57,27.342-16.57,64.168
			s15.894,63.069,16.57,64.168c1.487,2.416,4.12,3.887,6.958,3.887c23.008,0,49.027-11.097,68.446-21.558v70.459
			c0,2.913,1.55,5.605,4.069,7.067c2.52,1.462,5.628,1.472,8.154,0.027L256,270.085l34.074,19.471
			c1.255,0.718,2.655,1.076,4.054,1.076c1.417,0,2.833-0.368,4.101-1.104c2.52-1.462,4.069-4.154,4.069-7.067v-70.459
			c19.419,10.461,45.437,21.558,68.446,21.558c2.837,0,5.47-1.472,6.958-3.888c0.677-1.099,16.57-27.342,16.57-64.168
			S378.378,102.438,377.701,101.339z M242.383,151.889h27.234v27.235h-27.234V151.889z M146.049,217.033
			c-3.97-8.06-11.98-27.326-11.98-51.527c0-24.207,8.014-43.476,11.979-51.527c30.919,2.365,68.654,26.359,79.995,34.019v35.019
			C214.711,190.68,177.017,214.672,146.049,217.033z M285.957,268.384l-25.904-14.802c-2.511-1.436-5.596-1.436-8.106,0
			l-25.905,14.802v-65.868c4.847-3.021,8.559-5.525,10.761-7.05h11.026v32.529c0,4.512,3.657,8.17,8.17,8.17
			c4.513,0,8.17-3.658,8.17-8.17v-32.531h11.026c2.202,1.526,5.914,4.03,10.761,7.05V268.384z M365.953,217.033
			c-30.919-2.365-68.656-26.36-79.995-34.019v-35.019c11.334-7.664,49.041-31.662,80.011-34.018
			c3.97,8.009,11.962,27.163,11.962,51.528C377.931,189.713,369.918,208.983,365.953,217.033z"/>
	</g>
</g>
<g>
	<g>
		<path d="M155.151,394.806c-4.216-3.063-9.193-4.682-14.394-4.682c-7.828,0-15.246,3.778-19.843,10.105
			c-7.945,10.934-5.512,26.293,5.423,34.237c4.216,3.063,9.193,4.682,14.394,4.682c7.828,0,15.246-3.778,19.843-10.105
			C168.518,418.109,166.085,402.75,155.151,394.806z M147.355,419.438c-1.556,2.141-3.971,3.369-6.623,3.369
			c-1.727,0-3.383-0.54-4.789-1.561c-3.645-2.648-4.456-7.767-1.807-11.412c1.557-2.141,3.971-3.369,6.623-3.369
			c1.728,0,3.383,0.54,4.789,1.561C149.191,410.674,150.002,415.794,147.355,419.438z"/>
	</g>
</g>
<g>
	<g>
		<path d="M450.062,293.282c-2.459-0.8-5.009-1.204-7.578-1.204c-10.647,0-20.015,6.809-23.307,16.941
			c-2.023,6.227-1.501,12.869,1.472,18.702c2.973,5.834,8.038,10.16,14.265,12.183c2.459,0.8,5.009,1.204,7.578,1.204
			c10.648,0,20.016-6.808,23.308-16.942C469.975,311.313,462.914,297.459,450.062,293.282z M450.258,319.119
			c-1.098,3.379-4.219,5.649-7.767,5.649c-0.852,0-1.703-0.136-2.528-0.404c-2.075-0.674-3.764-2.117-4.754-4.061
			s-1.165-4.158-0.49-6.234c1.098-3.379,4.219-5.649,7.766-5.649c0.852,0,1.703,0.136,2.528,0.404
			C449.296,310.215,451.65,314.834,450.258,319.119z"/>
	</g>
</g>
<g>
	<g>
		<path d="M256,35.404c-13.515,0-24.511,10.996-24.511,24.511c0,13.515,10.996,24.511,24.511,24.511
			c13.515,0,24.511-10.996,24.511-24.511C280.511,46.4,269.515,35.404,256,35.404z M256,68.085c-4.506,0-8.17-3.666-8.17-8.17
			s3.665-8.17,8.17-8.17c4.506,0,8.17,3.666,8.17,8.17S260.506,68.085,256,68.085z"/>
	</g>
</g>
<g>
	<g>
		<path d="M91.351,184.279c-2.973-5.834-8.037-10.16-14.264-12.183c-2.459-0.8-5.009-1.204-7.578-1.204
			c-10.648,0-20.016,6.808-23.308,16.942c-4.176,12.853,2.884,26.709,15.737,30.885c2.459,0.8,5.009,1.204,7.578,1.204
			c10.647,0,20.015-6.809,23.307-16.941C94.845,196.754,94.323,190.112,91.351,184.279z M77.281,197.932
			c-1.098,3.379-4.219,5.649-7.766,5.649c-0.852,0-1.703-0.136-2.528-0.404c-4.284-1.392-6.638-6.011-5.245-10.296
			c1.098-3.379,4.219-5.649,7.767-5.649c0.852,0,1.703,0.136,2.528,0.404c2.075,0.674,3.764,2.117,4.754,4.061
			S77.957,195.855,77.281,197.932z"/>
	</g>
</g>
<g>
	<g>
		<path d="M353.482,375.823c-4.364-7.561-12.504-12.259-21.241-12.259c-4.283,0-8.516,1.136-12.24,3.287
			c-5.67,3.274-9.726,8.559-11.42,14.883c-1.695,6.324-0.825,12.93,2.449,18.599c4.365,7.561,12.505,12.259,21.241,12.259
			c4.283,0,8.516-1.136,12.24-3.287c5.67-3.274,9.726-8.559,11.42-14.883C357.625,388.098,356.755,381.492,353.482,375.823z
			 M340.148,390.193c-0.565,2.108-1.917,3.869-3.807,4.961c-1.261,0.728-2.631,1.098-4.07,1.098c-2.918,0-5.635-1.566-7.091-4.088
			c-1.092-1.89-1.381-4.092-0.817-6.2c0.565-2.108,1.917-3.869,3.807-4.961c1.261-0.728,2.631-1.098,4.07-1.098
			c2.918,0,5.635,1.566,7.091,4.088C340.422,385.883,340.712,388.085,340.148,390.193z"/>
	</g>
</g>
<g>
	<g>
		<path d="M408.511,231.489C394.996,231.489,384,242.485,384,256c0,13.515,10.996,24.511,24.511,24.511
			c13.515,0,24.511-10.996,24.511-24.511C433.021,242.485,422.025,231.489,408.511,231.489z M408.511,264.17
			c-4.506,0-8.17-3.666-8.17-8.17c0-4.505,3.665-8.17,8.17-8.17c4.506,0,8.17,3.666,8.17,8.17
			C416.681,260.505,413.016,264.17,408.511,264.17z"/>
	</g>
</g>
<g>
	<g>
		<path d="M145.149,319.999c-4.366-7.561-12.505-12.258-21.243-12.258c-4.283,0-8.516,1.136-12.239,3.287
			c-11.704,6.757-15.729,21.777-8.972,33.483c4.366,7.561,12.505,12.258,21.243,12.258c4.283,0,8.516-1.136,12.24-3.287
			C147.881,346.724,151.906,331.704,145.149,319.999z M128.008,339.33c-1.26,0.728-2.631,1.097-4.07,1.097
			c-2.918,0.001-5.635-1.565-7.092-4.086c-2.252-3.902-0.911-8.909,2.991-11.162c1.26-0.728,2.63-1.097,4.069-1.097
			c2.918,0,5.635,1.566,7.092,4.087C133.25,332.071,131.909,337.078,128.008,339.33z"/>
	</g>
</g>
<g>
</g>
<g>
</g>
<g>
</g>
<g>
</g>
<g>
</g>
<g>
</g>
<g>
</g>
<g>
</g>
<g>
</g>
<g>
</g>
<g>
</g>
<g>
</g>
<g>
</g>
<g>
</g>
<g>
</g>
</svg>
