<?xml version="1.0" encoding="iso-8859-1"?>
<!-- Generator: Adobe Illustrator 19.0.0, SVG Export Plug-In . SVG Version: 6.00 Build 0)  -->
<svg version="1.1" id="Capa_1" xmlns="http://www.w3.org/2000/svg" xmlns:xlink="http://www.w3.org/1999/xlink" x="0px" y="0px"
	 viewBox="0 0 511.999 511.999" style="enable-background:new 0 0 511.999 511.999;" xml:space="preserve">
<g>
	<g>
		<path d="M276.71,265.367c-4.248-1.511-8.923,0.709-10.434,4.961c-1.543,4.338-5.672,7.252-10.277,7.252
			c-4.605,0-8.734-2.914-10.276-7.252c-1.511-4.252-6.184-6.473-10.435-4.961c-4.251,1.511-6.472,6.183-4.961,10.435
			c3.853,10.837,14.169,18.119,25.673,18.119s21.82-7.281,25.672-18.119C283.184,271.551,280.963,266.879,276.71,265.367z"/>
	</g>
</g>
<g>
	<g>
		<path d="M227.25,215.875h-18.519c-4.512,0-8.17,3.658-8.17,8.17c0,4.512,3.658,8.17,8.17,8.17h10.814
			c1.121,3.173,4.148,5.447,7.705,5.447c4.512,0,8.17-3.658,8.17-8.17v-5.447C235.42,219.533,231.762,215.875,227.25,215.875z"/>
	</g>
</g>
<g>
	<g>
		<path d="M303.268,215.875h-18.519c-4.513,0-8.17,3.658-8.17,8.17v5.447c0,4.512,3.658,8.17,8.17,8.17
			c3.558,0,6.584-2.273,7.705-5.447h10.814c4.513,0,8.17-3.658,8.17-8.17C311.439,219.533,307.782,215.875,303.268,215.875z"/>
	</g>
</g>
<g>
	<g>
		<path d="M422.467,225.191c-0.48-3.669-3.369-6.558-7.038-7.038c-17.065-2.238-34.931,2.319-50.097,12.402
			c-2.489-16.164-8.706-31.442-18.18-44.739c15.177-5.968,25.953-20.757,25.953-38.026c0-22.525-18.325-40.849-40.851-40.849h-2.723
			V56.627c4.088,2.096,8.715,3.288,13.617,3.288c16.518,0,29.957-13.438,29.957-29.957C373.104,13.438,359.667,0,343.149,0
			c-13.686,0-25.249,9.229-28.816,21.787h-42.922c-24.21,0-51.666,16.956-62.506,38.604l-23.312,46.55h-5.848
			c-22.526,0-40.851,18.325-40.851,40.849c0,17.268,10.776,32.059,25.953,38.026c-9.474,13.297-15.691,28.575-18.18,44.739
			c-15.166-10.082-33.03-14.64-50.096-12.401c-3.67,0.482-6.558,3.369-7.038,7.038c-2.904,22.137,5.627,45.617,22.819,62.808
			c10.531,10.531,23.693,17.98,37.526,21.342c5.203,17.789,14.861,34.068,28.392,47.445c20.832,20.593,48.436,31.933,77.73,31.933
			c29.295,0,56.899-11.341,77.73-31.933c13.532-13.377,23.189-29.656,28.392-47.445c13.834-3.361,26.996-10.811,37.526-21.343
			C416.839,270.808,425.37,247.329,422.467,225.191z M343.149,16.34c7.509,0,13.617,6.108,13.617,13.617
			c0,7.509-6.108,13.617-13.617,13.617s-13.617-6.108-13.617-13.617C329.532,22.448,335.64,16.34,343.149,16.34z M155.235,147.79
			c0-13.515,10.995-24.508,24.51-24.508H190.6c0.06,0,21.826,0,21.826,0c4.512,0,8.17-3.658,8.17-8.17c0-4.512-3.658-8.17-8.17-8.17
			h-8.558l19.648-39.233c8.03-16.034,29.964-29.58,47.896-29.58h41.78v68.813h-68.085c-4.512,0-8.17,3.658-8.17,8.17
			c0,4.512,3.658,8.17,8.17,8.17h87.149c13.515,0,24.51,10.995,24.51,24.508c0,13.515-10.996,24.511-24.51,24.511h-152.51
			C166.229,172.3,155.235,161.304,155.235,147.79z M388.095,276.445c-6.462,6.462-14.124,11.465-22.277,14.644
			c0.442-3.814,0.696-7.671,0.744-11.56c0.056-4.512-3.558-8.215-8.069-8.269c-4.518-0.042-8.214,3.558-8.269,8.07
			c-0.629,51.309-42.897,93.051-94.223,93.051c-51.326,0-93.594-41.743-94.222-93.051c-0.054-4.512-3.747-8.105-8.269-8.07
			c-4.512,0.056-8.124,3.757-8.07,8.269c0.048,3.89,0.302,7.746,0.744,11.561c-8.154-3.179-15.816-8.182-22.278-14.644
			c-11.886-11.886-18.571-27.378-18.594-42.514c15.136,0.021,30.627,6.707,42.513,18.593c2.338,2.338,5.852,3.036,8.903,1.771
			c3.053-1.265,5.044-4.244,5.044-7.548c0-21.521,7.66-42.014,21.62-58.107h145.217c13.96,16.093,21.62,36.586,21.62,58.107
			c0,3.304,1.99,6.283,5.044,7.548c3.053,1.265,6.567,0.565,8.904-1.771c11.885-11.886,27.376-18.572,42.513-18.594
			C406.667,249.068,399.981,264.56,388.095,276.445z"/>
	</g>
</g>
<g>
	<g>
		<path d="M413.019,500.028C382.273,441.45,322.106,405.059,256,405.059c-66.107,0-126.274,36.391-157.022,94.971
			c-2.097,3.995-0.559,8.934,3.437,11.031c1.212,0.636,2.511,0.938,3.79,0.938c2.939,0,5.78-1.592,7.241-4.375
			c10.877-20.724,25.823-38.37,43.549-52.214c4.713,8.419,10.906,15.682,18.249,21.323c1.139,0.875,2.489,1.435,3.914,1.621
			c2.856,0.375,5.732,0.559,8.617,0.559c19.472-0.001,39.218-8.404,54.192-23.378c5.642-5.642,10.354-11.918,14.039-18.645
			c3.682,6.712,8.39,12.975,14.026,18.612c17.191,17.191,40.665,25.723,62.809,22.819c1.425-0.186,2.775-0.746,3.914-1.622
			c7.338-5.636,13.527-12.891,18.236-21.299c17.731,13.845,32.681,31.494,43.561,52.223c2.096,3.996,7.035,5.533,11.031,3.437
			C413.578,508.962,415.116,504.023,413.019,500.028z M230.413,443.983c-13.047,13.046-30.435,19.826-46.934,18.409
			c-5.241-4.414-9.648-10.004-13.011-16.431c22.155-13.9,47.672-22.375,74.581-24.189
			C241.891,429.905,236.94,437.456,230.413,443.983z M328.521,462.359c-16.502,1.418-33.889-5.364-46.934-18.409
			c-6.525-6.525-11.475-14.065-14.632-22.178c26.902,1.814,52.413,10.287,74.564,24.182
			C338.159,452.37,333.755,457.95,328.521,462.359z"/>
	</g>
</g>
<g>
</g>
<g>
</g>
<g>
</g>
<g>
</g>
<g>
</g>
<g>
</g>
<g>
</g>
<g>
</g>
<g>
</g>
<g>
</g>
<g>
</g>
<g>
</g>
<g>
</g>
<g>
</g>
<g>
</g>
</svg>
