<?xml version="1.0" encoding="iso-8859-1"?>
<!-- Generator: Adobe Illustrator 19.0.0, SVG Export Plug-In . SVG Version: 6.00 Build 0)  -->
<svg version="1.1" id="Capa_1" xmlns="http://www.w3.org/2000/svg" xmlns:xlink="http://www.w3.org/1999/xlink" x="0px" y="0px"
	 viewBox="0 0 511.999 511.999" style="enable-background:new 0 0 511.999 511.999;" xml:space="preserve">
<g>
	<g>
		<path d="M227.251,215.875h-18.519c-4.512,0-8.17,3.658-8.17,8.17c0,4.512,3.658,8.17,8.17,8.17h10.814
			c1.121,3.173,4.148,5.447,7.705,5.447c4.512,0,8.17-3.658,8.17-8.17v-5.447C235.421,219.533,231.763,215.875,227.251,215.875z"/>
	</g>
</g>
<g>
	<g>
		<path d="M303.27,215.875h-18.519c-4.512,0-8.17,3.658-8.17,8.17v5.447c0,4.512,3.658,8.17,8.17,8.17
			c3.558,0,6.584-2.273,7.705-5.447h10.814c4.512,0,8.17-3.658,8.17-8.17C311.441,219.533,307.783,215.875,303.27,215.875z"/>
	</g>
</g>
<g>
	<g>
		<path d="M413.022,500.029c-30.748-58.579-90.915-94.97-157.021-94.97S129.727,441.45,98.979,500.03
			c-2.097,3.995-0.559,8.934,3.437,11.031c1.212,0.636,2.511,0.938,3.79,0.938c2.939,0,5.78-1.592,7.241-4.375
			c11.202-21.342,26.711-39.429,45.136-53.45c29.689,16.454,63.248,25.142,97.418,25.142c34.171,0,67.727-8.689,97.418-25.142
			c18.424,14.021,33.933,32.108,45.135,53.449c2.097,3.996,7.036,5.534,11.031,3.437S415.119,504.024,413.022,500.029z
			 M256.001,462.977c-28.559,0-56.645-6.603-82.012-19.166c24.355-14.42,52.528-22.411,82.012-22.411s57.657,7.99,82.012,22.411
			C312.647,456.374,284.56,462.977,256.001,462.977z"/>
	</g>
</g>
<g>
	<g>
		<path d="M276.712,265.367c-4.252-1.512-8.923,0.709-10.435,4.961c-1.541,4.338-5.671,7.252-10.276,7.252
			c-4.605,0-8.733-2.914-10.276-7.252c-1.512-4.252-6.183-6.473-10.435-4.961s-6.473,6.183-4.962,10.435
			c3.853,10.838,14.169,18.119,25.673,18.119c11.504,0,21.82-7.281,25.673-18.119C283.185,271.551,280.964,266.879,276.712,265.367z
			"/>
	</g>
</g>
<g>
	<g>
		<path d="M395.482,214.6c-2.327-9.833-5.628-19.174-9.825-27.941c16.402-5.308,28.3-20.723,28.3-38.87
			c0-22.525-18.325-40.849-40.851-40.849h-2.723V56.627c4.088,2.096,8.715,3.288,13.617,3.288c16.519,0,29.957-13.438,29.957-29.957
			C413.958,13.438,400.52,0,384.001,0c-13.686,0-25.249,9.229-28.816,21.787H230.561c-24.21,0-51.665,16.957-62.506,38.604
			l-23.312,46.55h-5.848c-22.526,0-40.851,18.325-40.851,40.849c0,18.148,11.898,33.561,28.3,38.87
			c-4.197,8.766-7.498,18.108-9.825,27.941c-29.692,16.053-48.667,47.619-48.667,81.523c0,18.462,5.424,36.295,15.688,51.573
			c1.576,2.348,4.159,3.616,6.789,3.616c1.566,0,3.15-0.45,4.548-1.389c3.745-2.516,4.743-7.592,2.226-11.338
			c-8.447-12.573-12.911-27.257-12.911-42.461c0-29.476,16.489-55.782,43.032-68.653c2.278-1.105,3.915-3.204,4.433-5.682
			c2.487-11.915,6.52-23.042,11.995-33.148h19.36c-11.41,17.126-17.582,37.228-17.582,58.107v31.402
			c0,39.802,21.142,74.754,52.783,94.229h-37.766c-15.205,0-29.888-4.464-42.461-12.911c-3.745-2.515-8.822-1.52-11.338,2.226
			c-2.516,3.745-1.52,8.822,2.226,11.338c15.276,10.263,33.11,15.688,51.572,15.688h191.106c51.057,0,92.595-41.538,92.595-92.595
			C444.149,262.219,425.174,230.653,395.482,214.6z M384.001,16.34c7.509,0,13.617,6.108,13.617,13.617
			c0,7.509-6.108,13.617-13.617,13.617c-7.509,0-13.617-6.108-13.617-13.617C370.384,22.448,376.492,16.34,384.001,16.34z
			 M138.895,172.299c-13.516,0.001-24.511-10.995-24.511-24.509c0-13.515,10.995-24.508,24.511-24.508h10.854
			c0.06,0,157.996,0,157.996,0c4.512,0,8.17-3.658,8.17-8.17c0-4.512-3.658-8.17-8.17-8.17H163.018l19.648-39.233
			c8.03-16.034,29.964-29.58,47.896-29.58h123.482v68.813h-13.617c-4.512,0-8.17,3.658-8.17,8.17c0,4.512,3.658,8.17,8.17,8.17
			h32.681c13.516,0,24.511,10.995,24.511,24.508c0,13.515-10.995,24.511-24.511,24.511h-40.698c-0.031,0-152.786,0-152.786,0
			C179.592,172.299,138.895,172.299,138.895,172.299z M161.772,278.149v-31.402c0-21.453,7.7-41.947,21.733-58.107h144.993
			c14.032,16.162,21.733,36.655,21.733,58.107v31.402c0,51.958-42.271,94.229-94.229,94.229
			C204.043,372.378,161.772,330.108,161.772,278.149z M351.554,372.378h-37.766c31.64-19.476,52.783-54.428,52.783-94.229v-31.402
			c0-20.879-6.171-40.982-17.582-58.107h19.36c5.475,10.107,9.508,21.234,11.995,33.148c0.517,2.478,2.155,4.577,4.433,5.682
			c26.543,12.871,43.032,39.178,43.032,68.653C427.809,338.171,393.601,372.378,351.554,372.378z"/>
	</g>
</g>
<g>
</g>
<g>
</g>
<g>
</g>
<g>
</g>
<g>
</g>
<g>
</g>
<g>
</g>
<g>
</g>
<g>
</g>
<g>
</g>
<g>
</g>
<g>
</g>
<g>
</g>
<g>
</g>
<g>
</g>
</svg>
