<?xml version="1.0" encoding="iso-8859-1"?>
<!-- Generator: Adobe Illustrator 19.0.0, SVG Export Plug-In . SVG Version: 6.00 Build 0)  -->
<svg version="1.1" id="Capa_1" xmlns="http://www.w3.org/2000/svg" xmlns:xlink="http://www.w3.org/1999/xlink" x="0px" y="0px"
	 viewBox="0 0 512 512" style="enable-background:new 0 0 512 512;" xml:space="preserve">
<g>
	<g>
		<path d="M188.46,346.784c-4.512,0-8.17,3.658-8.17,8.17v10.894c0,4.512,3.658,8.17,8.17,8.17s8.17-3.658,8.17-8.17v-10.894
			C196.63,350.442,192.972,346.784,188.46,346.784z"/>
	</g>
</g>
<g>
	<g>
		<path d="M290.86,416.393c-4.512,0-8.17,3.658-8.17,8.17v10.894c0,4.512,3.658,8.17,8.17,8.17c4.512,0,8.17-3.658,8.17-8.17
			v-10.894C299.03,420.051,295.372,416.393,290.86,416.393z"/>
	</g>
</g>
<g>
	<g>
		<path d="M323.54,373.833c-4.512,0-8.17,3.658-8.17,8.17v10.894c0,4.512,3.658,8.17,8.17,8.17c4.512,0,8.17-3.658,8.17-8.17
			v-10.894C331.711,377.491,328.053,373.833,323.54,373.833z"/>
	</g>
</g>
<g>
	<g>
		<path d="M276.711,292.239c-4.251-1.512-8.923,0.71-10.435,4.961c-1.543,4.338-5.671,7.252-10.276,7.252s-8.734-2.914-10.276-7.252
			c-1.512-4.252-6.185-6.473-10.435-4.961c-4.252,1.511-6.473,6.183-4.962,10.435c3.853,10.838,14.169,18.119,25.673,18.119
			s21.82-7.281,25.673-18.119C283.184,298.422,280.963,293.75,276.711,292.239z"/>
	</g>
</g>
<g>
	<g>
		<path d="M227.25,215.874H208.73c-4.512,0-8.17,3.658-8.17,8.17s3.658,8.17,8.17,8.17h10.814c1.121,3.173,4.148,5.447,7.705,5.447
			c4.512,0,8.17-3.658,8.17-8.17v-5.447C235.42,219.533,231.762,215.874,227.25,215.874z"/>
	</g>
</g>
<g>
	<g>
		<path d="M303.27,215.874H284.75c-4.512,0-8.17,3.658-8.17,8.17v5.447c0,4.512,3.658,8.17,8.17,8.17
			c3.558,0,6.584-2.273,7.705-5.447h10.814c4.512,0,8.17-3.658,8.17-8.17S307.782,215.874,303.27,215.874z"/>
	</g>
</g>
<g>
	<g>
		<path d="M399.251,295.838v-49.09c0-21.074-4.679-41.619-13.578-60.094c16.394-5.314,28.284-20.724,28.284-38.865
			c0-22.525-18.325-40.849-40.851-40.849h-2.723V56.627c4.088,2.096,8.715,3.288,13.617,3.288c16.519,0,29.957-13.438,29.957-29.957
			S400.519,0,384,0c-13.686,0-25.249,9.229-28.816,21.787H230.56c-24.21,0-51.665,16.956-62.506,38.603l-23.312,46.551h-5.848
			c-22.526,0-40.851,18.325-40.851,40.849c0,18.141,11.89,33.55,28.284,38.865c-8.899,18.476-13.578,39.021-13.578,60.094v49.09
			c-27.388,21.308-42.411,55.232-42.411,96.054c0,26.029,8.193,50.799,23.693,71.63c1.604,2.156,4.067,3.293,6.561,3.293
			c1.695,0,3.405-0.526,4.871-1.615c3.62-2.693,4.372-7.812,1.678-11.432c-13.386-17.991-20.461-39.387-20.461-61.876
			c0-37.067,13.846-67.363,38.987-85.306c2.148-1.534,3.424-4.011,3.424-6.651v-53.188c0-20.583,5.026-40.57,14.562-58.108h19.361
			c-11.41,17.126-17.582,37.228-17.582,58.108v20.508c0,4.512,3.658,8.17,8.17,8.17h204.8c4.512,0,8.17-3.658,8.17-8.17v-20.508
			c0-20.879-6.172-40.982-17.582-58.108h19.361c9.534,17.538,14.562,37.524,14.562,58.108v53.188c0,2.64,1.276,5.117,3.424,6.651
			c25.141,17.943,38.987,48.238,38.987,85.306c0,57.218-46.549,103.767-103.767,103.767H190.447
			c-22.489,0-43.885-7.075-61.875-20.46c-3.619-2.693-8.738-1.942-11.432,1.678c-2.694,3.62-1.942,8.738,1.678,11.432
			C139.647,503.807,164.416,512,190.447,512h131.108c66.228,0,120.108-53.88,120.108-120.108
			C441.662,351.07,426.639,317.145,399.251,295.838z M384,16.34c7.509,0,13.617,6.108,13.617,13.617S391.509,43.574,384,43.574
			s-13.617-6.108-13.617-13.617S376.491,16.34,384,16.34z M350.23,246.748v12.338H161.77v-12.338
			c0-21.453,7.701-41.947,21.733-58.108h144.994C342.529,204.802,350.23,225.296,350.23,246.748z M373.106,172.3h-40.702
			c-0.01,0-152.8,0-152.8,0c-0.01,0-40.712,0-40.712,0c-13.515,0-24.51-10.995-24.51-24.511c0-13.515,10.995-24.508,24.511-24.508
			h10.854c0.06,0,157.997,0,157.997,0c4.512,0,8.17-3.658,8.17-8.17c0-4.512-3.658-8.17-8.17-8.17H163.016l19.648-39.233
			c8.03-16.033,29.964-29.579,47.896-29.579h123.482v68.813h-13.617c-4.512,0-8.17,3.658-8.17,8.17c0,4.512,3.658,8.17,8.17,8.17
			h32.681c13.516,0,24.511,10.995,24.511,24.508C397.617,161.304,386.622,172.3,373.106,172.3z"/>
	</g>
</g>
<g>
</g>
<g>
</g>
<g>
</g>
<g>
</g>
<g>
</g>
<g>
</g>
<g>
</g>
<g>
</g>
<g>
</g>
<g>
</g>
<g>
</g>
<g>
</g>
<g>
</g>
<g>
</g>
<g>
</g>
</svg>
